M48
;Layer_Color=9474304
;FILE_FORMAT=2:4
INCH,LZ
;TYPE=PLATED
T1F00S00C0.0079
T2F00S00C0.0190
T3F00S00C0.0354
T4F00S00C0.0366
T5F00S00C0.0394
T6F00S00C0.0472
T7F00S00C0.0508
T8F00S00C0.0520
T9F00S00C0.1791
%
T01
X022945Y020396
X023668
X024029Y020757
X023306
X022584
X022945Y021118
X023668
X024029Y021479
X023306
X022584
X022945Y021841
X023668
T02
X01109Y01072
X01374Y01061
X01021Y01353
X0164Y01116
X01985Y01386
X03076Y01381
X03109Y01298
X0401Y01305
X04065
X0408Y01235
X0402Y01225
X03975Y01175
X03973Y01116
X039678Y010174
X04032Y01035
X039Y01059
X038935Y00982
X03932Y009305
X04033Y00763
X04101Y011223
X0412Y0119
X0432
X04325Y01255
X0432Y01315
X04345Y0136
X044Y01385
X04395Y01225
X04345Y01115
X04355Y0098
X04157Y01372
X0416Y01665
X04235Y01695
X043185Y01762
X04305Y01855
X04265Y01915
X04483Y02508
X0302Y02355
X028871Y02185
X0282Y02136
X028631Y02063
X02815Y01915
X0285Y0185
X02823Y01676
X0249Y0198
X02555Y02075
X0237Y023071
X01625Y0238
X01401Y01875
T03
X0041Y0013
Y0023
Y0033
Y0043
Y0066
Y0076
Y0086
Y0096
X0066Y0124
X0076
X0086
X0096
X0106
X0116
X0106Y0067
X0096
X0086
X0076
Y00275
X0086
X0096
X0106
X01435Y00285
X01535
X0154Y0072
X0144
X0164
X0174
X0184
X0194
X0204
X0214
X0224
X0234
X026
X027
X028
X029
X03
X031
X0298Y0028
X0288
X0278
X0268
X0258
X0248
X02185
X02085
X01985
X01735Y00285
X01635
X0323Y00265
Y00165
X03495Y00135
Y00235
Y00335
X035Y0072
X034
X033
X032
X03985Y00335
Y00235
Y00135
X04295
Y00235
Y00335
X0152Y0182
Y0192
Y0202
Y0212
T04
X0439Y023716
Y0247
Y025684
T05
X03243Y025114
Y026886
X02987
Y025114
X018Y0253
Y027072
X015441
Y0253
T06
X0441Y018291
Y022409
X0128Y0211
Y0201
Y0243
Y0253
X0055
Y0243
Y0211
Y0201
T07
X0393Y020361
T08
X036938Y021148
X041662
Y025952
X036938
T09
X002Y0213
Y024135
M30
