G04*
G04 #@! TF.GenerationSoftware,Altium Limited,Altium Designer,20.1.12 (249)*
G04*
G04 Layer_Color=8421504*
%FSLAX25Y25*%
%MOIN*%
G70*
G04*
G04 #@! TF.SameCoordinates,38D2292D-1979-4519-B741-68206640DF70*
G04*
G04*
G04 #@! TF.FilePolarity,Positive*
G04*
G01*
G75*
%ADD19R,0.03543X0.02756*%
%ADD20R,0.03150X0.01181*%
%ADD21R,0.03150X0.01575*%
%ADD22R,0.02200X0.07800*%
%ADD23R,0.08661X0.14173*%
%ADD24R,0.08800X0.04800*%
%ADD25R,0.03937X0.04331*%
%ADD26R,0.04331X0.03937*%
%ADD27R,0.05236X0.05236*%
%ADD28R,0.07874X0.03543*%
%ADD29R,0.03543X0.07874*%
%ADD30R,0.02756X0.03543*%
D19*
X429500Y198000D02*
D03*
Y203906D02*
D03*
D20*
X423079Y155386D02*
D03*
Y153417D02*
D03*
Y151449D02*
D03*
Y149480D02*
D03*
Y147512D02*
D03*
Y145543D02*
D03*
Y143575D02*
D03*
Y141606D02*
D03*
Y139638D02*
D03*
Y137669D02*
D03*
Y135701D02*
D03*
Y133732D02*
D03*
Y131764D02*
D03*
Y129795D02*
D03*
Y127827D02*
D03*
Y125858D02*
D03*
Y123890D02*
D03*
Y121921D02*
D03*
Y119953D02*
D03*
Y117984D02*
D03*
Y116016D02*
D03*
Y114047D02*
D03*
Y112079D02*
D03*
Y110110D02*
D03*
Y108142D02*
D03*
Y106173D02*
D03*
Y104205D02*
D03*
Y102236D02*
D03*
Y100268D02*
D03*
Y98299D02*
D03*
Y96331D02*
D03*
Y94362D02*
D03*
Y92394D02*
D03*
Y90425D02*
D03*
Y88457D02*
D03*
Y86488D02*
D03*
Y84520D02*
D03*
Y82551D02*
D03*
Y80583D02*
D03*
Y78614D02*
D03*
D21*
X432921Y74874D02*
D03*
Y159126D02*
D03*
D22*
X340500Y163200D02*
D03*
X335500D02*
D03*
X330500D02*
D03*
X325500D02*
D03*
Y181800D02*
D03*
X330500D02*
D03*
X335500D02*
D03*
X340500D02*
D03*
D23*
X9599Y144600D02*
D03*
D24*
X34000Y153700D02*
D03*
Y144600D02*
D03*
Y135500D02*
D03*
D25*
X179500Y238693D02*
D03*
Y232000D02*
D03*
X190500Y238693D02*
D03*
Y232000D02*
D03*
Y255500D02*
D03*
Y262193D02*
D03*
X286500Y264693D02*
D03*
Y258000D02*
D03*
X168500Y238693D02*
D03*
Y232000D02*
D03*
D26*
X24000Y124000D02*
D03*
X17307D02*
D03*
X24000Y167000D02*
D03*
X17307D02*
D03*
D27*
X240287Y203957D02*
D03*
X233063D02*
D03*
X225839D02*
D03*
X240287Y211181D02*
D03*
X233063D02*
D03*
X225839D02*
D03*
X240287Y218406D02*
D03*
X233063D02*
D03*
X225839D02*
D03*
D28*
X270465Y240709D02*
D03*
Y235709D02*
D03*
Y230709D02*
D03*
Y225709D02*
D03*
Y220709D02*
D03*
Y215709D02*
D03*
Y210709D02*
D03*
Y205709D02*
D03*
Y200709D02*
D03*
Y195709D02*
D03*
Y190709D02*
D03*
Y185709D02*
D03*
Y180709D02*
D03*
Y175709D02*
D03*
X203535D02*
D03*
Y180709D02*
D03*
Y185709D02*
D03*
Y190709D02*
D03*
Y195709D02*
D03*
Y200709D02*
D03*
Y205709D02*
D03*
Y210709D02*
D03*
Y215709D02*
D03*
Y220709D02*
D03*
Y225709D02*
D03*
Y230709D02*
D03*
Y235709D02*
D03*
Y240709D02*
D03*
D29*
X259500Y171772D02*
D03*
X254500D02*
D03*
X249500D02*
D03*
X244500D02*
D03*
X239500D02*
D03*
X234500D02*
D03*
X229500D02*
D03*
X224500D02*
D03*
X219500D02*
D03*
X214500D02*
D03*
D30*
X158500Y242500D02*
D03*
X152594D02*
D03*
X313000Y242000D02*
D03*
X307094D02*
D03*
X288094Y229500D02*
D03*
X294000D02*
D03*
X254094Y157000D02*
D03*
X260000D02*
D03*
X288047Y242000D02*
D03*
X293953D02*
D03*
M02*
