G04*
G04 #@! TF.GenerationSoftware,Altium Limited,Altium Designer,20.1.12 (249)*
G04*
G04 Layer_Color=255*
%FSLAX25Y25*%
%MOIN*%
G70*
G04*
G04 #@! TF.SameCoordinates,38D2292D-1979-4519-B741-68206640DF70*
G04*
G04*
G04 #@! TF.FilePolarity,Positive*
G04*
G01*
G75*
%ADD62R,0.05906X0.05906*%
%ADD63C,0.05906*%
%ADD64C,0.23622*%
%ADD65R,0.23622X0.23622*%
%ADD66R,0.05906X0.05906*%
%ADD67R,0.07087X0.07087*%
%ADD68C,0.07087*%
%ADD69C,0.07874*%
%ADD70R,0.07874X0.07874*%
%ADD71R,0.05512X0.05512*%
%ADD72C,0.05512*%
%ADD73C,0.07795*%
%ADD74C,0.07618*%
%ADD75R,0.07795X0.07795*%
%ADD76C,0.01181*%
%ADD77C,0.05937*%
%ADD78R,0.05937X0.05937*%
D62*
X66000Y124000D02*
D03*
X144000Y72000D02*
D03*
X260000D02*
D03*
X143500Y28500D02*
D03*
X198500Y28000D02*
D03*
X248000D02*
D03*
X106000Y67000D02*
D03*
Y27500D02*
D03*
D63*
X76000Y124000D02*
D03*
X86000D02*
D03*
X96000D02*
D03*
X106000D02*
D03*
X116000D02*
D03*
X154000Y72000D02*
D03*
X174000D02*
D03*
X184000D02*
D03*
X194000D02*
D03*
X204000D02*
D03*
X214000D02*
D03*
X224000D02*
D03*
X234000D02*
D03*
X164000D02*
D03*
X41000Y13000D02*
D03*
Y23000D02*
D03*
Y33000D02*
D03*
X280000Y72000D02*
D03*
X350000D02*
D03*
X340000D02*
D03*
X330000D02*
D03*
X320000D02*
D03*
X310000D02*
D03*
X300000D02*
D03*
X290000D02*
D03*
X270000D02*
D03*
X173500Y28500D02*
D03*
X163500D02*
D03*
X153500D02*
D03*
X218500Y28000D02*
D03*
X208500D02*
D03*
X398500Y33500D02*
D03*
Y23500D02*
D03*
X429500Y33500D02*
D03*
Y23500D02*
D03*
X323000Y16500D02*
D03*
X349500Y33500D02*
D03*
Y23500D02*
D03*
X298000Y28000D02*
D03*
X288000D02*
D03*
X278000D02*
D03*
X268000D02*
D03*
X258000D02*
D03*
X41000Y86000D02*
D03*
Y76000D02*
D03*
Y66000D02*
D03*
X96000Y67000D02*
D03*
X86000D02*
D03*
X76000D02*
D03*
X96000Y27500D02*
D03*
X86000D02*
D03*
X76000D02*
D03*
X152000Y192000D02*
D03*
Y202000D02*
D03*
Y212000D02*
D03*
D64*
X20000Y213000D02*
D03*
D65*
Y241346D02*
D03*
D66*
X41000Y43000D02*
D03*
X398500Y13500D02*
D03*
X429500D02*
D03*
X323000Y26500D02*
D03*
X349500Y13500D02*
D03*
X41000Y96000D02*
D03*
X152000Y182000D02*
D03*
D67*
X128000Y211000D02*
D03*
Y243000D02*
D03*
X55000Y211000D02*
D03*
Y243000D02*
D03*
D68*
X128000Y201000D02*
D03*
Y253000D02*
D03*
X55000Y201000D02*
D03*
Y253000D02*
D03*
D69*
X441000Y224091D02*
D03*
D70*
Y182909D02*
D03*
D71*
X439000Y237157D02*
D03*
D72*
Y247000D02*
D03*
Y256843D02*
D03*
D73*
X369378Y259516D02*
D03*
X416622D02*
D03*
Y211484D02*
D03*
D74*
X393000Y203610D02*
D03*
D75*
X369378Y211484D02*
D03*
D76*
X236675Y203957D02*
D03*
X229451D02*
D03*
X240287Y207569D02*
D03*
X233063D02*
D03*
X225839D02*
D03*
X236675Y211181D02*
D03*
X229451D02*
D03*
X240287Y214793D02*
D03*
X233063D02*
D03*
X225839D02*
D03*
X236675Y218406D02*
D03*
X229451D02*
D03*
D77*
X298705Y268858D02*
D03*
X324295D02*
D03*
X298705Y251142D02*
D03*
X180000Y253000D02*
D03*
X154409D02*
D03*
X180000Y270717D02*
D03*
D78*
X324295Y251142D02*
D03*
X154409Y270717D02*
D03*
M02*
