G04*
G04 #@! TF.GenerationSoftware,Altium Limited,Altium Designer,20.1.12 (249)*
G04*
G04 Layer_Color=8388736*
%FSLAX25Y25*%
%MOIN*%
G70*
G04*
G04 #@! TF.SameCoordinates,38D2292D-1979-4519-B741-68206640DF70*
G04*
G04*
G04 #@! TF.FilePolarity,Negative*
G04*
G01*
G75*
%ADD31R,0.04343X0.03556*%
%ADD32R,0.03950X0.01981*%
%ADD33R,0.03950X0.02375*%
%ADD34R,0.03000X0.08600*%
%ADD35R,0.09461X0.14973*%
%ADD36R,0.09600X0.05600*%
%ADD37R,0.04737X0.05131*%
%ADD38R,0.05131X0.04737*%
%ADD39R,0.06036X0.06036*%
%ADD40R,0.08674X0.04343*%
%ADD41R,0.04343X0.08674*%
%ADD42R,0.03556X0.04343*%
%ADD43R,0.06706X0.06706*%
%ADD44C,0.06706*%
%ADD45C,0.24422*%
%ADD46R,0.24422X0.24422*%
%ADD47R,0.06706X0.06706*%
%ADD48R,0.07887X0.07887*%
%ADD49C,0.07887*%
%ADD50C,0.08674*%
%ADD51R,0.08674X0.08674*%
%ADD52R,0.06312X0.06312*%
%ADD53C,0.06312*%
%ADD54C,0.08595*%
%ADD55C,0.08418*%
%ADD56R,0.08595X0.08595*%
%ADD57C,0.01981*%
%ADD58C,0.06737*%
%ADD59R,0.06737X0.06737*%
%ADD60C,0.04400*%
D31*
X429500Y198000D02*
D03*
Y203906D02*
D03*
D32*
X423079Y155386D02*
D03*
Y153417D02*
D03*
Y151449D02*
D03*
Y149480D02*
D03*
Y147512D02*
D03*
Y145543D02*
D03*
Y143575D02*
D03*
Y141606D02*
D03*
Y139638D02*
D03*
Y137669D02*
D03*
Y135701D02*
D03*
Y133732D02*
D03*
Y131764D02*
D03*
Y129795D02*
D03*
Y127827D02*
D03*
Y125858D02*
D03*
Y123890D02*
D03*
Y121921D02*
D03*
Y119953D02*
D03*
Y117984D02*
D03*
Y116016D02*
D03*
Y114047D02*
D03*
Y112079D02*
D03*
Y110110D02*
D03*
Y108142D02*
D03*
Y106173D02*
D03*
Y104205D02*
D03*
Y102236D02*
D03*
Y100268D02*
D03*
Y98299D02*
D03*
Y96331D02*
D03*
Y94362D02*
D03*
Y92394D02*
D03*
Y90425D02*
D03*
Y88457D02*
D03*
Y86488D02*
D03*
Y84520D02*
D03*
Y82551D02*
D03*
Y80583D02*
D03*
Y78614D02*
D03*
D33*
X432921Y74874D02*
D03*
Y159126D02*
D03*
D34*
X340500Y163200D02*
D03*
X335500D02*
D03*
X330500D02*
D03*
X325500D02*
D03*
Y181800D02*
D03*
X330500D02*
D03*
X335500D02*
D03*
X340500D02*
D03*
D35*
X9599Y144600D02*
D03*
D36*
X34000Y153700D02*
D03*
Y144600D02*
D03*
Y135500D02*
D03*
D37*
X179500Y238693D02*
D03*
Y232000D02*
D03*
X190500Y238693D02*
D03*
Y232000D02*
D03*
Y255500D02*
D03*
Y262193D02*
D03*
X286500Y264693D02*
D03*
Y258000D02*
D03*
X168500Y238693D02*
D03*
Y232000D02*
D03*
D38*
X24000Y124000D02*
D03*
X17307D02*
D03*
X24000Y167000D02*
D03*
X17307D02*
D03*
D39*
X240287Y203957D02*
D03*
X233063D02*
D03*
X225839D02*
D03*
X240287Y211181D02*
D03*
X233063D02*
D03*
X225839D02*
D03*
X240287Y218406D02*
D03*
X233063D02*
D03*
X225839D02*
D03*
D40*
X270465Y240709D02*
D03*
Y235709D02*
D03*
Y230709D02*
D03*
Y225709D02*
D03*
Y220709D02*
D03*
Y215709D02*
D03*
Y210709D02*
D03*
Y205709D02*
D03*
Y200709D02*
D03*
Y195709D02*
D03*
Y190709D02*
D03*
Y185709D02*
D03*
Y180709D02*
D03*
Y175709D02*
D03*
X203535D02*
D03*
Y180709D02*
D03*
Y185709D02*
D03*
Y190709D02*
D03*
Y195709D02*
D03*
Y200709D02*
D03*
Y205709D02*
D03*
Y210709D02*
D03*
Y215709D02*
D03*
Y220709D02*
D03*
Y225709D02*
D03*
Y230709D02*
D03*
Y235709D02*
D03*
Y240709D02*
D03*
D41*
X259500Y171772D02*
D03*
X254500D02*
D03*
X249500D02*
D03*
X244500D02*
D03*
X239500D02*
D03*
X234500D02*
D03*
X229500D02*
D03*
X224500D02*
D03*
X219500D02*
D03*
X214500D02*
D03*
D42*
X158500Y242500D02*
D03*
X152594D02*
D03*
X313000Y242000D02*
D03*
X307094D02*
D03*
X288094Y229500D02*
D03*
X294000D02*
D03*
X254094Y157000D02*
D03*
X260000D02*
D03*
X288047Y242000D02*
D03*
X293953D02*
D03*
D43*
X66000Y124000D02*
D03*
X144000Y72000D02*
D03*
X260000D02*
D03*
X143500Y28500D02*
D03*
X198500Y28000D02*
D03*
X248000D02*
D03*
X106000Y67000D02*
D03*
Y27500D02*
D03*
D44*
X76000Y124000D02*
D03*
X86000D02*
D03*
X96000D02*
D03*
X106000D02*
D03*
X116000D02*
D03*
X154000Y72000D02*
D03*
X174000D02*
D03*
X184000D02*
D03*
X194000D02*
D03*
X204000D02*
D03*
X214000D02*
D03*
X224000D02*
D03*
X234000D02*
D03*
X164000D02*
D03*
X41000Y13000D02*
D03*
Y23000D02*
D03*
Y33000D02*
D03*
X280000Y72000D02*
D03*
X350000D02*
D03*
X340000D02*
D03*
X330000D02*
D03*
X320000D02*
D03*
X310000D02*
D03*
X300000D02*
D03*
X290000D02*
D03*
X270000D02*
D03*
X173500Y28500D02*
D03*
X163500D02*
D03*
X153500D02*
D03*
X218500Y28000D02*
D03*
X208500D02*
D03*
X398500Y33500D02*
D03*
Y23500D02*
D03*
X429500Y33500D02*
D03*
Y23500D02*
D03*
X323000Y16500D02*
D03*
X349500Y33500D02*
D03*
Y23500D02*
D03*
X298000Y28000D02*
D03*
X288000D02*
D03*
X278000D02*
D03*
X268000D02*
D03*
X258000D02*
D03*
X41000Y86000D02*
D03*
Y76000D02*
D03*
Y66000D02*
D03*
X96000Y67000D02*
D03*
X86000D02*
D03*
X76000D02*
D03*
X96000Y27500D02*
D03*
X86000D02*
D03*
X76000D02*
D03*
X152000Y192000D02*
D03*
Y202000D02*
D03*
Y212000D02*
D03*
D45*
X20000Y213000D02*
D03*
D46*
Y241346D02*
D03*
D47*
X41000Y43000D02*
D03*
X398500Y13500D02*
D03*
X429500D02*
D03*
X323000Y26500D02*
D03*
X349500Y13500D02*
D03*
X41000Y96000D02*
D03*
X152000Y182000D02*
D03*
D48*
X128000Y211000D02*
D03*
Y243000D02*
D03*
X55000Y211000D02*
D03*
Y243000D02*
D03*
D49*
X128000Y201000D02*
D03*
Y253000D02*
D03*
X55000Y201000D02*
D03*
Y253000D02*
D03*
D50*
X441000Y224091D02*
D03*
D51*
Y182909D02*
D03*
D52*
X439000Y237157D02*
D03*
D53*
Y247000D02*
D03*
Y256843D02*
D03*
D54*
X369378Y259516D02*
D03*
X416622D02*
D03*
Y211484D02*
D03*
D55*
X393000Y203610D02*
D03*
D56*
X369378Y211484D02*
D03*
D57*
X236675Y203957D02*
D03*
X229451D02*
D03*
X240287Y207569D02*
D03*
X233063D02*
D03*
X225839D02*
D03*
X236675Y211181D02*
D03*
X229451D02*
D03*
X240287Y214793D02*
D03*
X233063D02*
D03*
X225839D02*
D03*
X236675Y218406D02*
D03*
X229451D02*
D03*
D58*
X298705Y268858D02*
D03*
X324295D02*
D03*
X298705Y251142D02*
D03*
X180000Y253000D02*
D03*
X154409D02*
D03*
X180000Y270717D02*
D03*
D59*
X324295Y251142D02*
D03*
X154409Y270717D02*
D03*
D60*
X162500Y238000D02*
D03*
X393200Y93053D02*
D03*
X389350Y98200D02*
D03*
X390000Y105900D02*
D03*
X430500Y185500D02*
D03*
X426500Y191500D02*
D03*
X423500Y169500D02*
D03*
X416000Y166500D02*
D03*
X439500Y122500D02*
D03*
X432000Y119000D02*
D03*
X432500Y125500D02*
D03*
X432000Y131500D02*
D03*
X434500Y136000D02*
D03*
X440000Y138500D02*
D03*
X434500Y111500D02*
D03*
X435500Y98000D02*
D03*
X406500Y130500D02*
D03*
X408000Y123500D02*
D03*
X412000Y119000D02*
D03*
X401000Y130500D02*
D03*
X402000Y122500D02*
D03*
X397500Y117500D02*
D03*
X302000Y235500D02*
D03*
X255500Y207500D02*
D03*
X249000Y198000D02*
D03*
X281500Y191500D02*
D03*
X285000Y185000D02*
D03*
X282000Y213600D02*
D03*
X403200Y103500D02*
D03*
X110900Y107200D02*
D03*
X282300Y167600D02*
D03*
X403300Y76300D02*
D03*
X448300Y250800D02*
D03*
X310900Y129800D02*
D03*
X415700Y137200D02*
D03*
X307600Y138100D02*
D03*
X431850Y176200D02*
D03*
X286309Y206300D02*
D03*
X288709Y218500D02*
D03*
X137400Y106100D02*
D03*
X237000Y230709D02*
D03*
X396785Y101737D02*
D03*
X410100Y112227D02*
D03*
X102100Y135300D02*
D03*
X140100Y187500D02*
D03*
X198500Y138600D02*
D03*
X164000Y111600D02*
D03*
X397300D02*
D03*
M02*
