G04*
G04 #@! TF.GenerationSoftware,Altium Limited,Altium Designer,20.1.12 (249)*
G04*
G04 Layer_Physical_Order=1*
G04 Layer_Color=255*
%FSLAX25Y25*%
%MOIN*%
G70*
G04*
G04 #@! TF.SameCoordinates,38D2292D-1979-4519-B741-68206640DF70*
G04*
G04*
G04 #@! TF.FilePolarity,Positive*
G04*
G01*
G75*
%ADD15C,0.01000*%
%ADD16C,0.00600*%
%ADD19R,0.03543X0.02756*%
%ADD20R,0.03150X0.01181*%
%ADD21R,0.03150X0.01575*%
%ADD22R,0.02200X0.07800*%
%ADD23R,0.08661X0.14173*%
%ADD24R,0.08800X0.04800*%
%ADD25R,0.03937X0.04331*%
%ADD26R,0.04331X0.03937*%
%ADD27R,0.05236X0.05236*%
%ADD28R,0.07874X0.03543*%
%ADD29R,0.03543X0.07874*%
%ADD30R,0.02756X0.03543*%
%ADD61C,0.01500*%
%ADD62R,0.05906X0.05906*%
%ADD63C,0.05906*%
%ADD64C,0.23622*%
%ADD65R,0.23622X0.23622*%
%ADD66R,0.05906X0.05906*%
%ADD67R,0.07087X0.07087*%
%ADD68C,0.07087*%
%ADD69C,0.07874*%
%ADD70R,0.07874X0.07874*%
%ADD71R,0.05512X0.05512*%
%ADD72C,0.05512*%
%ADD73C,0.07795*%
%ADD74C,0.07618*%
%ADD75R,0.07795X0.07795*%
%ADD76C,0.01181*%
%ADD77C,0.05937*%
%ADD78R,0.05937X0.05937*%
%ADD79C,0.03600*%
G36*
X444982Y191520D02*
Y187446D01*
X436463D01*
Y179188D01*
X436001Y178997D01*
X431908Y183090D01*
X431957Y183587D01*
X432230Y183770D01*
X432761Y184564D01*
X432947Y185500D01*
X432761Y186436D01*
X432230Y187230D01*
X431436Y187761D01*
X430500Y187947D01*
X429564Y187761D01*
X429218Y187530D01*
X428718Y187797D01*
Y190200D01*
X428672Y190430D01*
X428761Y190564D01*
X428947Y191500D01*
X428761Y192436D01*
X428230Y193230D01*
X427436Y193761D01*
X426500Y193947D01*
X425564Y193761D01*
X425548Y193750D01*
X425008Y193991D01*
X424974Y194227D01*
X426875Y196127D01*
X427128Y196022D01*
Y196022D01*
X431872D01*
Y199482D01*
X437020D01*
X444982Y191520D01*
D02*
G37*
G36*
X427128Y198854D02*
X427099Y198848D01*
X426801Y198649D01*
X423151Y194999D01*
X422952Y194701D01*
X422882Y194350D01*
Y190382D01*
X422952Y190031D01*
X423151Y189733D01*
X425282Y187601D01*
Y171797D01*
X424782Y171530D01*
X424436Y171761D01*
X423500Y171947D01*
X422564Y171761D01*
X421770Y171230D01*
X421718Y171152D01*
X421218Y171304D01*
Y196670D01*
X424030Y199482D01*
X427128D01*
Y198854D01*
D02*
G37*
G36*
X429585Y183189D02*
X429652Y182849D01*
X429851Y182551D01*
X437382Y175020D01*
Y150281D01*
X436920Y150090D01*
X436518Y150493D01*
Y172450D01*
X436448Y172801D01*
X436249Y173099D01*
X434100Y175248D01*
X434111Y175264D01*
X434297Y176200D01*
X434111Y177136D01*
X433580Y177930D01*
X432786Y178461D01*
X431850Y178647D01*
X430914Y178461D01*
X430120Y177930D01*
X429589Y177136D01*
X429403Y176200D01*
X429589Y175264D01*
X430120Y174470D01*
X430914Y173939D01*
X431850Y173753D01*
X432786Y173939D01*
X432802Y173950D01*
X434682Y172070D01*
Y160513D01*
X431735D01*
X431647Y160531D01*
X431558Y160513D01*
X430747D01*
Y159702D01*
X430729Y159613D01*
X430747Y159525D01*
Y157739D01*
X434682D01*
Y151284D01*
X434220Y151093D01*
X428718Y156596D01*
Y183203D01*
X429159Y183439D01*
X429585Y183189D01*
D02*
G37*
G36*
X440082Y149278D02*
X439620Y149087D01*
X439218Y149490D01*
Y175400D01*
X439148Y175751D01*
X438949Y176049D01*
X437087Y177910D01*
X437279Y178372D01*
X440082D01*
Y149278D01*
D02*
G37*
G36*
X419742Y148929D02*
X419636Y148545D01*
X419553Y148429D01*
X412880D01*
X412168Y149142D01*
Y155844D01*
X412597Y156001D01*
X412668Y156004D01*
X419742Y148929D01*
D02*
G37*
G36*
X444982Y146075D02*
X444520Y145884D01*
X441918Y148487D01*
Y178372D01*
X444982D01*
Y146075D01*
D02*
G37*
G36*
X410332Y197170D02*
Y148762D01*
X410402Y148411D01*
X410601Y148113D01*
X411851Y146863D01*
X412149Y146664D01*
X412500Y146594D01*
X420904D01*
Y144492D01*
X406156D01*
X405268Y145380D01*
Y200150D01*
X405198Y200501D01*
X404999Y200799D01*
X397658Y208140D01*
X397849Y208602D01*
X398901D01*
X410332Y197170D01*
D02*
G37*
G36*
X451500Y144649D02*
X451038Y144457D01*
X449218Y146278D01*
Y248535D01*
X449236Y248539D01*
X450030Y249070D01*
X450561Y249864D01*
X450747Y250800D01*
X450561Y251736D01*
X450030Y252530D01*
X449236Y253061D01*
X448300Y253247D01*
X447364Y253061D01*
X446570Y252530D01*
X446039Y251736D01*
X445853Y250800D01*
X446039Y249864D01*
X446570Y249070D01*
X447364Y248539D01*
X447382Y248535D01*
Y194769D01*
X446920Y194577D01*
X439249Y202249D01*
X438951Y202448D01*
X438600Y202518D01*
X431872D01*
Y205884D01*
X430418D01*
Y244870D01*
X431630Y246082D01*
X435748D01*
X436069Y245308D01*
X436607Y244606D01*
X437308Y244069D01*
X438124Y243730D01*
X439000Y243615D01*
X439876Y243730D01*
X440692Y244069D01*
X441394Y244606D01*
X441931Y245308D01*
X442270Y246124D01*
X442385Y247000D01*
X442270Y247876D01*
X441931Y248692D01*
X441394Y249394D01*
X440692Y249931D01*
X439876Y250270D01*
X439000Y250385D01*
X438124Y250270D01*
X437308Y249931D01*
X436607Y249394D01*
X436069Y248692D01*
X435748Y247918D01*
X431250D01*
X430899Y247848D01*
X430601Y247649D01*
X428851Y245899D01*
X428652Y245601D01*
X428582Y245250D01*
Y205884D01*
X427168D01*
Y249888D01*
X427098Y250239D01*
X426899Y250537D01*
X420393Y257042D01*
X420551Y257248D01*
X421004Y258342D01*
X421158Y259516D01*
X421004Y260690D01*
X420551Y261784D01*
X419830Y262723D01*
X418890Y263444D01*
X417796Y263898D01*
X416622Y264052D01*
X415448Y263898D01*
X414354Y263444D01*
X413414Y262723D01*
X412693Y261784D01*
X412240Y260690D01*
X412085Y259516D01*
X412240Y258342D01*
X412693Y257248D01*
X413414Y256308D01*
X414354Y255587D01*
X415448Y255134D01*
X416622Y254979D01*
X417796Y255134D01*
X418890Y255587D01*
X419096Y255745D01*
X425332Y249508D01*
Y201700D01*
X424899Y201318D01*
X423650D01*
X423299Y201248D01*
X423001Y201049D01*
X419651Y197699D01*
X419452Y197401D01*
X419382Y197050D01*
Y155267D01*
X418920Y155076D01*
X416918Y157079D01*
Y164235D01*
X416936Y164239D01*
X417730Y164770D01*
X418261Y165564D01*
X418447Y166500D01*
X418261Y167436D01*
X417730Y168230D01*
X416936Y168761D01*
X416000Y168947D01*
X415064Y168761D01*
X414718Y168530D01*
X414218Y168797D01*
Y198000D01*
X414148Y198351D01*
X413949Y198649D01*
X401049Y211549D01*
X400751Y211748D01*
X400400Y211818D01*
X384000D01*
X383649Y211748D01*
X383351Y211549D01*
X346651Y174849D01*
X346452Y174551D01*
X346382Y174200D01*
Y159130D01*
X345670Y158418D01*
X342583D01*
X342200Y158700D01*
X342200Y158918D01*
Y167700D01*
X341418D01*
Y172120D01*
X370027Y200729D01*
X370226Y201027D01*
X370296Y201378D01*
Y206987D01*
X373876D01*
Y215982D01*
X364880D01*
Y206987D01*
X368460D01*
Y201758D01*
X339851Y173149D01*
X339652Y172851D01*
X339582Y172500D01*
Y167700D01*
X338800D01*
Y158918D01*
X338800Y158700D01*
X338417Y158418D01*
X337600D01*
Y162700D01*
X335500D01*
X333400D01*
Y158418D01*
X332583D01*
X332200Y158700D01*
Y167700D01*
X328800D01*
Y158700D01*
X329592D01*
X329652Y158399D01*
X329851Y158101D01*
X331101Y156851D01*
X331399Y156652D01*
X331750Y156582D01*
X346050D01*
X346401Y156652D01*
X346699Y156851D01*
X347949Y158101D01*
X348148Y158399D01*
X348218Y158750D01*
Y173820D01*
X384380Y209982D01*
X387262D01*
X387453Y209520D01*
X386442Y208509D01*
X386243Y208211D01*
X386173Y207860D01*
Y190971D01*
X350220Y155018D01*
X327880D01*
X326418Y156480D01*
Y158700D01*
X327200D01*
Y167700D01*
X323800D01*
Y158700D01*
X324582D01*
Y156100D01*
X324652Y155749D01*
X324851Y155451D01*
X326851Y153451D01*
X327149Y153252D01*
X327500Y153182D01*
X350600D01*
X350951Y153252D01*
X351249Y153451D01*
X386911Y189113D01*
X387373Y188922D01*
Y112617D01*
X361051Y86295D01*
X360852Y85997D01*
X360782Y85646D01*
Y65580D01*
X325255Y30053D01*
X319447D01*
Y22947D01*
X326553D01*
Y28755D01*
X362349Y64551D01*
X362548Y64849D01*
X362618Y65200D01*
Y85266D01*
X388940Y111588D01*
X389139Y111886D01*
X389208Y112237D01*
Y200531D01*
X389682Y200692D01*
X389855Y200466D01*
X390776Y199759D01*
X391849Y199315D01*
X392082Y199284D01*
Y113371D01*
X380851Y102140D01*
X380652Y101842D01*
X380582Y101491D01*
Y30500D01*
X380652Y30149D01*
X380851Y29851D01*
X394947Y15755D01*
Y9947D01*
X402053D01*
Y17053D01*
X396245D01*
X382418Y30880D01*
Y101111D01*
X387070Y105763D01*
X387545Y105620D01*
X387652Y105139D01*
X385507Y102993D01*
X385264Y102629D01*
X385178Y102200D01*
X385178Y102200D01*
Y95500D01*
X385178Y95500D01*
X385264Y95071D01*
X385507Y94707D01*
X392550Y87664D01*
X392550Y87664D01*
X392914Y87421D01*
X393343Y87335D01*
X393343Y87335D01*
X420904D01*
Y84142D01*
X420504D01*
Y83051D01*
X423079D01*
X425654D01*
Y84142D01*
X425254D01*
Y87266D01*
Y91476D01*
X433712D01*
X434063Y91546D01*
X434361Y91745D01*
X447320Y104704D01*
X447782Y104513D01*
Y81830D01*
X436570Y70618D01*
X410280D01*
X405550Y75348D01*
X405561Y75364D01*
X405747Y76300D01*
X405561Y77236D01*
X405030Y78030D01*
X404236Y78561D01*
X403300Y78747D01*
X402364Y78561D01*
X401570Y78030D01*
X401039Y77236D01*
X400853Y76300D01*
X401039Y75364D01*
X401570Y74570D01*
X402364Y74039D01*
X403300Y73853D01*
X404236Y74039D01*
X404252Y74050D01*
X409251Y69051D01*
X409549Y68852D01*
X409900Y68782D01*
X435781D01*
X435973Y68320D01*
X414551Y46899D01*
X414352Y46601D01*
X414282Y46250D01*
Y15280D01*
X407420Y8418D01*
X355880D01*
X353053Y11245D01*
Y17053D01*
X345947D01*
Y9947D01*
X351755D01*
X354851Y6851D01*
X355149Y6652D01*
X355500Y6582D01*
X407800D01*
X408151Y6652D01*
X408449Y6851D01*
X415849Y14251D01*
X416048Y14549D01*
X416118Y14900D01*
Y45870D01*
X449720Y79473D01*
X450182Y79281D01*
Y35480D01*
X431755Y17053D01*
X425947D01*
Y9947D01*
X433053D01*
Y15755D01*
X451038Y33740D01*
X451500Y33549D01*
Y1500D01*
X0D01*
Y275500D01*
X451500D01*
Y144649D01*
D02*
G37*
G36*
X439732Y142986D02*
X439540Y142524D01*
X425254D01*
Y144626D01*
X425600D01*
X425951Y144696D01*
X426249Y144895D01*
X426849Y145494D01*
X427048Y145792D01*
X427118Y146143D01*
Y154893D01*
X427618Y155100D01*
X439732Y142986D01*
D02*
G37*
G36*
X403433Y199769D02*
Y145000D01*
X403503Y144649D01*
X403701Y144351D01*
X405127Y142926D01*
X405424Y142727D01*
X405776Y142657D01*
X420904D01*
Y138587D01*
X417660D01*
X417430Y138930D01*
X416636Y139461D01*
X415700Y139647D01*
X414764Y139461D01*
X413970Y138930D01*
X413439Y138136D01*
X413253Y137200D01*
X413439Y136264D01*
X413901Y135572D01*
X413733Y135072D01*
X405154D01*
X404803Y135002D01*
X404505Y134803D01*
X402252Y132550D01*
X401936Y132761D01*
X401000Y132947D01*
X400064Y132761D01*
X399270Y132230D01*
X398739Y131436D01*
X398553Y130500D01*
X398739Y129564D01*
X399270Y128770D01*
X400064Y128239D01*
X401000Y128053D01*
X401936Y128239D01*
X402730Y128770D01*
X403261Y129564D01*
X403447Y130500D01*
X403339Y131042D01*
X403728Y131431D01*
X404189Y131184D01*
X404053Y130500D01*
X404239Y129564D01*
X404770Y128770D01*
X405564Y128239D01*
X406500Y128053D01*
X407436Y128239D01*
X408230Y128770D01*
X408622Y129356D01*
X420904D01*
Y127118D01*
X406882D01*
X406531Y127048D01*
X406233Y126849D01*
X403661Y124277D01*
X402936Y124761D01*
X402000Y124947D01*
X401064Y124761D01*
X400270Y124230D01*
X399739Y123436D01*
X399553Y122500D01*
X399739Y121564D01*
X400270Y120770D01*
X401064Y120239D01*
X402000Y120053D01*
X402936Y120239D01*
X403730Y120770D01*
X404261Y121564D01*
X404439Y122460D01*
X405116Y123136D01*
X405658Y122972D01*
X405739Y122564D01*
X406270Y121770D01*
X407064Y121239D01*
X408000Y121053D01*
X408287Y121110D01*
X408533Y120649D01*
X406301Y118418D01*
X399764D01*
X399761Y118436D01*
X399230Y119230D01*
X398436Y119761D01*
X397500Y119947D01*
X396564Y119761D01*
X395770Y119230D01*
X395239Y118436D01*
X395053Y117500D01*
X395239Y116564D01*
X395770Y115770D01*
X395848Y115718D01*
X395696Y115218D01*
X394700D01*
X394418Y115162D01*
X394238Y115228D01*
X393918Y115461D01*
Y199284D01*
X394151Y199315D01*
X395223Y199759D01*
X396145Y200466D01*
X396851Y201387D01*
X397296Y202459D01*
X397447Y203610D01*
X397296Y204761D01*
X396986Y205510D01*
X397410Y205793D01*
X403433Y199769D01*
D02*
G37*
G36*
X420904Y131191D02*
X408810D01*
X408761Y131436D01*
X408230Y132230D01*
X407472Y132737D01*
X407468Y132773D01*
X407770Y133237D01*
X418422D01*
X418773Y133307D01*
X419071Y133505D01*
X420349Y134783D01*
X420904D01*
Y131191D01*
D02*
G37*
G36*
X430250Y126452D02*
X430239Y126436D01*
X430053Y125500D01*
X430239Y124564D01*
X430770Y123770D01*
X431564Y123239D01*
X432500Y123053D01*
X433436Y123239D01*
X433782Y123470D01*
X434282Y123203D01*
Y120804D01*
X433782Y120652D01*
X433730Y120730D01*
X432936Y121261D01*
X432000Y121447D01*
X431064Y121261D01*
X430270Y120730D01*
X429812Y120685D01*
X425959Y124539D01*
X425661Y124738D01*
X425310Y124807D01*
X425254D01*
Y126909D01*
X429793D01*
X430250Y126452D01*
D02*
G37*
G36*
X438582Y134438D02*
Y124765D01*
X438564Y124761D01*
X437770Y124230D01*
X437239Y123436D01*
X437053Y122500D01*
X437239Y121564D01*
X437770Y120770D01*
X438564Y120239D01*
X438972Y120158D01*
X439136Y119616D01*
X433851Y114330D01*
X433652Y114033D01*
X433600Y113768D01*
X433564Y113761D01*
X432770Y113230D01*
X432239Y112436D01*
X432053Y111500D01*
X432239Y110564D01*
X432470Y110218D01*
X432203Y109718D01*
X431900D01*
X431549Y109648D01*
X431251Y109449D01*
X425715Y103913D01*
X425254Y104105D01*
Y108920D01*
Y112857D01*
Y117067D01*
X428817D01*
X430233Y115651D01*
X430531Y115452D01*
X430882Y115382D01*
X433118D01*
X433469Y115452D01*
X433767Y115651D01*
X435849Y117733D01*
X436048Y118031D01*
X436118Y118382D01*
Y134194D01*
X436230Y134270D01*
X436761Y135064D01*
X436842Y135472D01*
X437385Y135636D01*
X438582Y134438D01*
D02*
G37*
G36*
X409658Y118472D02*
X409739Y118064D01*
X410270Y117270D01*
X411064Y116739D01*
X412000Y116553D01*
X412936Y116739D01*
X413730Y117270D01*
X414261Y118064D01*
X414264Y118082D01*
X416520D01*
X419137Y115465D01*
X419031Y115081D01*
X418948Y114965D01*
X411920D01*
X411569Y114895D01*
X411271Y114696D01*
X411052Y114477D01*
X411036Y114488D01*
X410100Y114674D01*
X409164Y114488D01*
X408370Y113957D01*
X407839Y113163D01*
X407653Y112227D01*
X407839Y111291D01*
X408260Y110661D01*
X408040Y110161D01*
X404280D01*
X399493Y114949D01*
X399195Y115148D01*
X399093Y115678D01*
X399230Y115770D01*
X399761Y116564D01*
X399764Y116582D01*
X406682D01*
X407033Y116652D01*
X407331Y116851D01*
X409116Y118636D01*
X409658Y118472D01*
D02*
G37*
G36*
X393682Y111668D02*
Y103830D01*
X390302Y100450D01*
X390286Y100461D01*
X389350Y100647D01*
X388414Y100461D01*
X387922Y100132D01*
X387421Y100399D01*
Y101735D01*
X389282Y103596D01*
X390000Y103453D01*
X390936Y103639D01*
X391730Y104170D01*
X392261Y104964D01*
X392447Y105900D01*
X392261Y106836D01*
X391730Y107630D01*
X390936Y108161D01*
X390301Y108287D01*
X390137Y108830D01*
X393182Y111875D01*
X393682Y111668D01*
D02*
G37*
G36*
X420904Y103014D02*
Y99077D01*
Y95280D01*
X394509D01*
X394261Y95231D01*
X394136Y95314D01*
X393200Y95500D01*
X392264Y95314D01*
X391470Y94783D01*
X390939Y93989D01*
X390801Y93293D01*
X390269Y93117D01*
X387767Y95619D01*
X387788Y95756D01*
X388329Y95996D01*
X388414Y95939D01*
X389350Y95753D01*
X390286Y95939D01*
X391080Y96470D01*
X391611Y97264D01*
X391797Y98200D01*
X391611Y99136D01*
X391600Y99152D01*
X393887Y101439D01*
X394430Y101275D01*
X394524Y100801D01*
X395054Y100007D01*
X395848Y99477D01*
X396785Y99290D01*
X397721Y99477D01*
X398515Y100007D01*
X399045Y100801D01*
X399232Y101737D01*
X399045Y102674D01*
X399035Y102690D01*
X400342Y103997D01*
X400803Y103751D01*
X400753Y103500D01*
X400939Y102564D01*
X401470Y101770D01*
X402264Y101239D01*
X403200Y101053D01*
X404136Y101239D01*
X404930Y101770D01*
X405461Y102564D01*
X405465Y102582D01*
X413980D01*
X414331Y102652D01*
X414629Y102851D01*
X417033Y105256D01*
X420904D01*
Y103014D01*
D02*
G37*
G36*
X446582Y114419D02*
Y106562D01*
X438384Y98364D01*
X437842Y98528D01*
X437761Y98936D01*
X437230Y99730D01*
X436436Y100261D01*
X435500Y100447D01*
X434564Y100261D01*
X433770Y99730D01*
X433239Y98936D01*
X433236Y98918D01*
X428800D01*
X428449Y98848D01*
X428151Y98649D01*
X426996Y97493D01*
X426946Y97480D01*
X426854Y97506D01*
X426708Y98067D01*
X434123Y105482D01*
X436613D01*
X436964Y105552D01*
X437261Y105751D01*
X446120Y114610D01*
X446582Y114419D01*
D02*
G37*
G36*
X433239Y97064D02*
X433770Y96270D01*
X434564Y95739D01*
X434972Y95658D01*
X435136Y95116D01*
X433332Y93311D01*
X425254D01*
Y95413D01*
X427131D01*
X427482Y95483D01*
X427780Y95682D01*
X429180Y97082D01*
X433236D01*
X433239Y97064D01*
D02*
G37*
G36*
X420904Y89578D02*
X393808D01*
X393264Y90122D01*
X393440Y90654D01*
X394136Y90792D01*
X394930Y91323D01*
X395461Y92116D01*
X395647Y93053D01*
X395646Y93058D01*
X395963Y93445D01*
X420904D01*
Y89578D01*
D02*
G37*
%LPC*%
G36*
X324795Y272795D02*
Y269358D01*
X328232D01*
X328162Y269894D01*
X327762Y270860D01*
X327126Y271689D01*
X326297Y272325D01*
X325331Y272725D01*
X324795Y272795D01*
D02*
G37*
G36*
X323795D02*
X323259Y272725D01*
X322294Y272325D01*
X321465Y271689D01*
X320829Y270860D01*
X320429Y269894D01*
X320358Y269358D01*
X323795D01*
Y272795D01*
D02*
G37*
G36*
X298705Y272458D02*
X297773Y272335D01*
X296905Y271975D01*
X296160Y271403D01*
X295588Y270658D01*
X295228Y269790D01*
X295106Y268858D01*
X295228Y267927D01*
X295588Y267059D01*
X296160Y266313D01*
X296905Y265741D01*
X297773Y265382D01*
X298705Y265259D01*
X299636Y265382D01*
X300504Y265741D01*
X301250Y266313D01*
X301822Y267059D01*
X302181Y267927D01*
X302304Y268858D01*
X302181Y269790D01*
X301822Y270658D01*
X301250Y271403D01*
X300504Y271975D01*
X299636Y272335D01*
X298705Y272458D01*
D02*
G37*
G36*
X289469Y267858D02*
X287000D01*
Y265193D01*
X289469D01*
Y267858D01*
D02*
G37*
G36*
X286000D02*
X283531D01*
Y265193D01*
X286000D01*
Y267858D01*
D02*
G37*
G36*
X328232Y268358D02*
X324795D01*
Y264921D01*
X325331Y264992D01*
X326297Y265392D01*
X327126Y266028D01*
X327762Y266857D01*
X328162Y267822D01*
X328232Y268358D01*
D02*
G37*
G36*
X323795D02*
X320358D01*
X320429Y267822D01*
X320829Y266857D01*
X321465Y266028D01*
X322294Y265392D01*
X323259Y264992D01*
X323795Y264921D01*
Y268358D01*
D02*
G37*
G36*
X180000Y274316D02*
X179068Y274193D01*
X178200Y273834D01*
X177455Y273262D01*
X176883Y272516D01*
X176523Y271648D01*
X176401Y270717D01*
X176523Y269785D01*
X176883Y268917D01*
X177455Y268172D01*
X178200Y267600D01*
X179068Y267240D01*
X179115Y267234D01*
X179152Y267049D01*
X179351Y266751D01*
X179451Y266651D01*
X179749Y266452D01*
X180100Y266382D01*
X190870D01*
X191832Y265420D01*
X191641Y264958D01*
X187932D01*
Y263111D01*
X163313D01*
X157978Y268446D01*
Y274285D01*
X150841D01*
Y267148D01*
X156680D01*
X162284Y261544D01*
X162582Y261345D01*
X162933Y261275D01*
X187932D01*
Y259818D01*
X167519D01*
X167168Y259748D01*
X166870Y259549D01*
X158486Y251164D01*
X158062Y251447D01*
X158276Y251964D01*
X158346Y252500D01*
X154909D01*
Y249063D01*
X155445Y249134D01*
X155962Y249348D01*
X156245Y248924D01*
X152193Y244872D01*
X150617D01*
Y240128D01*
X154572D01*
Y244422D01*
X154782Y244580D01*
X155282Y244330D01*
Y221500D01*
X155352Y221149D01*
X155551Y220851D01*
X156182Y220220D01*
Y186358D01*
X155953Y185953D01*
X152500D01*
Y182000D01*
X151500D01*
Y185953D01*
X149018D01*
Y187720D01*
X150200Y188903D01*
X150208Y188897D01*
X151073Y188539D01*
X152000Y188417D01*
X152927Y188539D01*
X153792Y188897D01*
X154534Y189466D01*
X155103Y190208D01*
X155461Y191073D01*
X155583Y192000D01*
X155461Y192927D01*
X155103Y193792D01*
X154534Y194534D01*
X153792Y195103D01*
X152927Y195461D01*
X152000Y195583D01*
X151073Y195461D01*
X150208Y195103D01*
X149466Y194534D01*
X148897Y193792D01*
X148539Y192927D01*
X148417Y192000D01*
X148539Y191073D01*
X148897Y190208D01*
X148903Y190200D01*
X147451Y188749D01*
X147451Y188749D01*
X143351Y184649D01*
X143152Y184351D01*
X143082Y184000D01*
Y75553D01*
X141018D01*
Y185236D01*
X141036Y185239D01*
X141830Y185770D01*
X142361Y186564D01*
X142547Y187500D01*
X142361Y188436D01*
X141830Y189230D01*
X141036Y189761D01*
X140100Y189947D01*
X139164Y189761D01*
X138370Y189230D01*
X137839Y188436D01*
X137653Y187500D01*
X137839Y186564D01*
X138370Y185770D01*
X139164Y185239D01*
X139182Y185236D01*
Y108397D01*
X138682Y108130D01*
X138336Y108361D01*
X137400Y108547D01*
X136682Y108404D01*
X122622Y122465D01*
Y236035D01*
X125443Y238857D01*
X132143D01*
Y247143D01*
X129376D01*
Y249085D01*
X130089Y249381D01*
X130955Y250045D01*
X131619Y250910D01*
X132037Y251918D01*
X132179Y253000D01*
X132037Y254082D01*
X131619Y255089D01*
X130955Y255955D01*
X130089Y256619D01*
X129082Y257037D01*
X128000Y257179D01*
X126918Y257037D01*
X125910Y256619D01*
X125045Y255955D01*
X124381Y255089D01*
X123963Y254082D01*
X123821Y253000D01*
X123963Y251918D01*
X124381Y250910D01*
X125045Y250045D01*
X125910Y249381D01*
X126624Y249085D01*
Y247143D01*
X123857D01*
Y240443D01*
X120707Y237293D01*
X120464Y236929D01*
X120378Y236500D01*
X120378Y236500D01*
Y122000D01*
X120378Y122000D01*
X120464Y121571D01*
X120707Y121207D01*
X135096Y106818D01*
X134953Y106100D01*
X135139Y105164D01*
X135670Y104370D01*
X136464Y103839D01*
X137400Y103653D01*
X138336Y103839D01*
X138682Y104070D01*
X139182Y103803D01*
Y41900D01*
X139252Y41549D01*
X139451Y41251D01*
X150403Y30300D01*
X150397Y30292D01*
X150039Y29427D01*
X149917Y28500D01*
X150039Y27573D01*
X150397Y26708D01*
X150966Y25966D01*
X151708Y25397D01*
X152573Y25039D01*
X153500Y24917D01*
X154427Y25039D01*
X155292Y25397D01*
X156034Y25966D01*
X156603Y26708D01*
X156961Y27573D01*
X157083Y28500D01*
X156961Y29427D01*
X156603Y30292D01*
X156034Y31034D01*
X155292Y31603D01*
X154427Y31961D01*
X153500Y32083D01*
X152573Y31961D01*
X151708Y31603D01*
X151700Y31597D01*
X141018Y42280D01*
Y68447D01*
X147553D01*
Y75553D01*
X144918D01*
Y183620D01*
X146720Y185423D01*
X147182Y185231D01*
Y177600D01*
X147252Y177249D01*
X147451Y176951D01*
X147551Y176851D01*
X147849Y176652D01*
X148200Y176582D01*
X155850D01*
X156201Y176652D01*
X156499Y176851D01*
X157749Y178101D01*
X157948Y178399D01*
X158018Y178750D01*
Y220600D01*
X157948Y220951D01*
X157749Y221249D01*
X157118Y221880D01*
Y233274D01*
X157618Y233323D01*
X157652Y233149D01*
X157851Y232851D01*
X159351Y231351D01*
X159649Y231152D01*
X160000Y231082D01*
X165931D01*
Y229235D01*
X167582D01*
Y228800D01*
X167652Y228449D01*
X167851Y228151D01*
X167951Y228051D01*
X168249Y227852D01*
X168600Y227782D01*
X196000D01*
X196351Y227852D01*
X196649Y228051D01*
X198216Y229619D01*
X198817D01*
X198998Y229437D01*
X198998Y228209D01*
X198998Y227837D01*
Y223580D01*
X198998Y223209D01*
X198998Y222837D01*
Y218580D01*
X198998Y218209D01*
X198998Y217837D01*
Y213580D01*
X198998Y213209D01*
X198998Y212837D01*
Y208580D01*
X198998Y208209D01*
X198998Y207837D01*
Y203580D01*
X198998Y203209D01*
X198998Y202837D01*
Y198580D01*
X198998Y198209D01*
X198998Y197837D01*
Y193580D01*
X198998Y193209D01*
X198998Y192837D01*
Y188580D01*
X198998Y188209D01*
X198998Y187837D01*
Y183580D01*
X198998Y183209D01*
X198998Y182837D01*
Y178580D01*
X198998Y178209D01*
X198998Y177837D01*
Y173337D01*
X208072D01*
Y177837D01*
X208072Y178209D01*
X208072Y178580D01*
Y182837D01*
X208072Y183209D01*
X208072Y183580D01*
Y187837D01*
X208072Y188209D01*
X208072Y188580D01*
Y192837D01*
X208072Y193209D01*
X208072Y193580D01*
Y197837D01*
X208072Y198209D01*
X208072Y198580D01*
Y202837D01*
X208072Y203209D01*
X208072Y203580D01*
Y207837D01*
X208072Y208209D01*
X208072Y208580D01*
Y212837D01*
X208072Y213209D01*
X208072Y213580D01*
Y217837D01*
X208072Y218209D01*
X208072Y218580D01*
Y222837D01*
X208072Y223209D01*
X208072Y223580D01*
Y227837D01*
X208072Y228209D01*
X208072Y228580D01*
Y229791D01*
X234735D01*
X234739Y229772D01*
X235270Y228978D01*
X236064Y228448D01*
X237000Y228262D01*
X237936Y228448D01*
X238730Y228978D01*
X239261Y229772D01*
X239447Y230709D01*
X239261Y231645D01*
X238730Y232439D01*
X237936Y232969D01*
X237000Y233156D01*
X236064Y232969D01*
X235270Y232439D01*
X234739Y231645D01*
X234735Y231626D01*
X208072D01*
Y233080D01*
X208072D01*
Y233337D01*
X208072D01*
Y234791D01*
X254909D01*
X255260Y234861D01*
X255557Y235060D01*
X262980Y242482D01*
X265528D01*
Y241209D01*
X275402D01*
Y241447D01*
X275864Y241639D01*
X276151Y241351D01*
X276449Y241152D01*
X276800Y241082D01*
X286069D01*
Y239628D01*
X287130D01*
Y235747D01*
X287177Y235510D01*
Y231872D01*
X286116D01*
Y227128D01*
X290072D01*
Y231872D01*
X289012D01*
Y235700D01*
X288965Y235937D01*
Y239628D01*
X290025D01*
Y244372D01*
X286069D01*
Y242918D01*
X277180D01*
X276049Y244049D01*
X275751Y244248D01*
X275400Y244318D01*
X272710D01*
X272610Y244818D01*
X272892Y244935D01*
X273082Y245394D01*
Y270197D01*
X272892Y270656D01*
X272433Y270846D01*
X201567D01*
X201108Y270656D01*
X200918Y270197D01*
Y245394D01*
X201108Y244935D01*
X201567Y244744D01*
X262182D01*
X262249Y244248D01*
X261951Y244049D01*
X254528Y236626D01*
X208072D01*
Y237937D01*
X208472D01*
Y240209D01*
X198598D01*
Y237937D01*
X198998D01*
Y236626D01*
X197609D01*
X197257Y236556D01*
X196960Y236357D01*
X193569Y232966D01*
X193069Y233035D01*
Y234765D01*
X187932D01*
Y232918D01*
X182069D01*
Y234765D01*
X176932D01*
Y232918D01*
X176130D01*
X174918Y234130D01*
Y243750D01*
X174848Y244101D01*
X174649Y244399D01*
X173227Y245821D01*
X172929Y246020D01*
X172578Y246090D01*
X156714D01*
X156507Y246590D01*
X167899Y257982D01*
X187531D01*
Y256000D01*
X190500D01*
X193468D01*
Y258016D01*
X193651Y258052D01*
X193949Y258251D01*
X194049Y258351D01*
X194248Y258649D01*
X194318Y259000D01*
Y265150D01*
X194248Y265501D01*
X194049Y265799D01*
X191899Y267949D01*
X191601Y268148D01*
X191250Y268218D01*
X183146D01*
X182925Y268666D01*
X183117Y268917D01*
X183477Y269785D01*
X183599Y270717D01*
X183477Y271648D01*
X183117Y272516D01*
X182545Y273262D01*
X181800Y273834D01*
X180932Y274193D01*
X180000Y274316D01*
D02*
G37*
G36*
X289469Y264193D02*
X287000D01*
Y261528D01*
X289469D01*
Y264193D01*
D02*
G37*
G36*
X286000D02*
X283531D01*
Y261528D01*
X286000D01*
Y264193D01*
D02*
G37*
G36*
X439500Y260565D02*
Y257343D01*
X442723D01*
X442659Y257823D01*
X442281Y258737D01*
X441679Y259521D01*
X440894Y260123D01*
X439981Y260502D01*
X439500Y260565D01*
D02*
G37*
G36*
X438500D02*
X438020Y260502D01*
X437106Y260123D01*
X436321Y259521D01*
X435719Y258737D01*
X435341Y257823D01*
X435278Y257343D01*
X438500D01*
Y260565D01*
D02*
G37*
G36*
X369378Y264052D02*
X368204Y263898D01*
X367110Y263444D01*
X366170Y262723D01*
X365449Y261784D01*
X364996Y260690D01*
X364842Y259516D01*
X364996Y258342D01*
X365449Y257248D01*
X366170Y256308D01*
X367110Y255587D01*
X368204Y255134D01*
X369378Y254979D01*
X370552Y255134D01*
X371646Y255587D01*
X372586Y256308D01*
X373307Y257248D01*
X373760Y258342D01*
X373914Y259516D01*
X373760Y260690D01*
X373307Y261784D01*
X372586Y262723D01*
X371646Y263444D01*
X370552Y263898D01*
X369378Y264052D01*
D02*
G37*
G36*
X154909Y256937D02*
Y253500D01*
X158346D01*
X158276Y254036D01*
X157876Y255001D01*
X157240Y255830D01*
X156411Y256467D01*
X155445Y256866D01*
X154909Y256937D01*
D02*
G37*
G36*
X153909D02*
X153373Y256866D01*
X152408Y256467D01*
X151579Y255830D01*
X150943Y255001D01*
X150543Y254036D01*
X150472Y253500D01*
X153909D01*
Y256937D01*
D02*
G37*
G36*
X442723Y256343D02*
X439500D01*
Y253120D01*
X439981Y253183D01*
X440894Y253562D01*
X441679Y254164D01*
X442281Y254948D01*
X442659Y255862D01*
X442723Y256343D01*
D02*
G37*
G36*
X438500D02*
X435278D01*
X435341Y255862D01*
X435719Y254948D01*
X436321Y254164D01*
X437106Y253562D01*
X438020Y253183D01*
X438500Y253120D01*
Y256343D01*
D02*
G37*
G36*
X193468Y255000D02*
X191000D01*
Y252335D01*
X193468D01*
Y255000D01*
D02*
G37*
G36*
X190000D02*
X187531D01*
Y252335D01*
X190000D01*
Y255000D01*
D02*
G37*
G36*
X180000Y256599D02*
X179068Y256477D01*
X178200Y256117D01*
X177455Y255545D01*
X176883Y254800D01*
X176523Y253932D01*
X176401Y253000D01*
X176523Y252068D01*
X176883Y251200D01*
X177455Y250455D01*
X178200Y249883D01*
X179068Y249523D01*
X180000Y249401D01*
X180932Y249523D01*
X181800Y249883D01*
X182545Y250455D01*
X183117Y251200D01*
X183477Y252068D01*
X183599Y253000D01*
X183477Y253932D01*
X183117Y254800D01*
X182545Y255545D01*
X181800Y256117D01*
X180932Y256477D01*
X180000Y256599D01*
D02*
G37*
G36*
X153909Y252500D02*
X150472D01*
X150543Y251964D01*
X150943Y250999D01*
X151579Y250170D01*
X152408Y249534D01*
X153373Y249134D01*
X153909Y249063D01*
Y252500D01*
D02*
G37*
G36*
X289069Y260765D02*
X283931D01*
Y255235D01*
X289069D01*
Y257082D01*
X317057D01*
X320727Y253413D01*
Y247573D01*
X327864D01*
Y254710D01*
X322024D01*
X318086Y258649D01*
X317788Y258848D01*
X317437Y258918D01*
X289069D01*
Y260765D01*
D02*
G37*
G36*
X298705Y254741D02*
X297773Y254618D01*
X296905Y254259D01*
X296160Y253687D01*
X295588Y252941D01*
X295228Y252073D01*
X295106Y251142D01*
X295228Y250210D01*
X295588Y249342D01*
X296160Y248597D01*
X296905Y248025D01*
X297773Y247665D01*
X298705Y247543D01*
X299636Y247665D01*
X300504Y248025D01*
X301250Y248597D01*
X301822Y249342D01*
X302181Y250210D01*
X302183Y250224D01*
X313428D01*
X314382Y249270D01*
Y244827D01*
X313882Y244777D01*
X313848Y244951D01*
X313649Y245249D01*
X313549Y245349D01*
X313251Y245548D01*
X312900Y245618D01*
X299700D01*
X299349Y245548D01*
X299051Y245349D01*
X296620Y242918D01*
X295931D01*
Y244372D01*
X291975D01*
Y239628D01*
X293035D01*
Y235733D01*
X291051Y233749D01*
X290852Y233451D01*
X290782Y233100D01*
Y220548D01*
X290282Y220335D01*
X289645Y220761D01*
X288709Y220947D01*
X287772Y220761D01*
X287756Y220750D01*
X277149Y231358D01*
X276851Y231556D01*
X276500Y231626D01*
X275355D01*
X275002Y231980D01*
X275002Y233209D01*
X275002Y233580D01*
Y237937D01*
X275402D01*
Y240209D01*
X265528D01*
Y237937D01*
X265928D01*
Y233580D01*
X265928Y233209D01*
X265928Y232837D01*
Y228580D01*
X265928Y228209D01*
X265928Y227837D01*
Y226626D01*
X259200D01*
X258849Y226556D01*
X258551Y226358D01*
X248351Y216158D01*
X248152Y215860D01*
X248082Y215509D01*
Y200265D01*
X248064Y200261D01*
X247270Y199730D01*
X246739Y198936D01*
X246553Y198000D01*
X246739Y197064D01*
X247270Y196270D01*
X248064Y195739D01*
X249000Y195553D01*
X249936Y195739D01*
X250730Y196270D01*
X251261Y197064D01*
X251447Y198000D01*
X251261Y198936D01*
X250730Y199730D01*
X249936Y200261D01*
X249918Y200265D01*
Y215128D01*
X259580Y224791D01*
X265574D01*
X265928Y224437D01*
X265928Y223209D01*
X265928Y222837D01*
Y221626D01*
X265209D01*
X264857Y221556D01*
X264560Y221357D01*
X254851Y211649D01*
X254652Y211351D01*
X254582Y211000D01*
Y209765D01*
X254564Y209761D01*
X253770Y209230D01*
X253239Y208436D01*
X253053Y207500D01*
X253239Y206564D01*
X253770Y205770D01*
X254564Y205239D01*
X255500Y205053D01*
X256436Y205239D01*
X257230Y205770D01*
X257761Y206564D01*
X257947Y207500D01*
X257761Y208436D01*
X257230Y209230D01*
X256436Y209761D01*
X256418Y209765D01*
Y210620D01*
X265428Y219630D01*
X265928Y219423D01*
X265928Y218209D01*
X265928Y217837D01*
Y213580D01*
X265928Y213209D01*
X265928Y212837D01*
Y208580D01*
X265928Y208209D01*
X265928Y207837D01*
Y203580D01*
X265928Y203209D01*
X265928Y202837D01*
Y198580D01*
X265928Y198209D01*
X265928Y197837D01*
Y193580D01*
X265928Y193209D01*
X265928Y192837D01*
Y188580D01*
X265928Y188209D01*
X265928Y187837D01*
Y186626D01*
X211250D01*
X210899Y186556D01*
X210601Y186357D01*
X209151Y184907D01*
X208952Y184610D01*
X208882Y184259D01*
Y165580D01*
X169051Y125749D01*
X168852Y125451D01*
X168782Y125100D01*
Y35080D01*
X165300Y31597D01*
X165292Y31603D01*
X164427Y31961D01*
X163500Y32083D01*
X162573Y31961D01*
X161708Y31603D01*
X160966Y31034D01*
X160397Y30292D01*
X160039Y29427D01*
X159917Y28500D01*
X160039Y27573D01*
X160397Y26708D01*
X160966Y25966D01*
X161708Y25397D01*
X162573Y25039D01*
X163500Y24917D01*
X164427Y25039D01*
X165292Y25397D01*
X166034Y25966D01*
X166603Y26708D01*
X166961Y27573D01*
X167083Y28500D01*
X166961Y29427D01*
X166603Y30292D01*
X166597Y30300D01*
X170349Y34051D01*
X170548Y34349D01*
X170618Y34700D01*
Y69751D01*
X171118Y69920D01*
X171466Y69466D01*
X172208Y68897D01*
X173073Y68539D01*
X174000Y68417D01*
X174927Y68539D01*
X175792Y68897D01*
X176534Y69466D01*
X177103Y70208D01*
X177461Y71073D01*
X177583Y72000D01*
X177461Y72927D01*
X177103Y73792D01*
X176534Y74534D01*
X175792Y75103D01*
X174927Y75461D01*
X174000Y75583D01*
X173073Y75461D01*
X172208Y75103D01*
X171466Y74534D01*
X171118Y74080D01*
X170618Y74249D01*
Y124720D01*
X210449Y164551D01*
X210648Y164849D01*
X210718Y165200D01*
Y183879D01*
X211630Y184791D01*
X265574D01*
X265928Y184437D01*
X265928Y183209D01*
X265928Y182837D01*
Y178580D01*
X265928Y178209D01*
X265928Y177837D01*
Y173337D01*
X275002D01*
Y174791D01*
X290000D01*
X290351Y174861D01*
X290649Y175060D01*
X292349Y176760D01*
X292548Y177057D01*
X292618Y177409D01*
Y227128D01*
X295978D01*
Y231872D01*
X295823D01*
X295631Y232334D01*
X297880Y234582D01*
X299735D01*
X299739Y234564D01*
X300270Y233770D01*
X301064Y233239D01*
X302000Y233053D01*
X302936Y233239D01*
X303730Y233770D01*
X304261Y234564D01*
X304447Y235500D01*
X304261Y236436D01*
X303730Y237230D01*
X302936Y237761D01*
X302000Y237947D01*
X301064Y237761D01*
X300270Y237230D01*
X299739Y236436D01*
X299735Y236418D01*
X297500D01*
X297149Y236348D01*
X296851Y236149D01*
X293351Y232649D01*
X293152Y232351D01*
X293118Y232177D01*
X292618Y232226D01*
Y232720D01*
X294602Y234704D01*
X294801Y235002D01*
X294870Y235353D01*
Y239628D01*
X295931D01*
Y241082D01*
X297000D01*
X297351Y241152D01*
X297649Y241351D01*
X300080Y243782D01*
X305116D01*
Y239628D01*
X306260D01*
X306446Y239351D01*
X307746Y238051D01*
X308043Y237852D01*
X308394Y237782D01*
X315200D01*
X315551Y237852D01*
X315849Y238051D01*
X315949Y238151D01*
X316148Y238449D01*
X316218Y238800D01*
Y249650D01*
X316148Y250001D01*
X315949Y250299D01*
X314457Y251791D01*
X314159Y251990D01*
X313808Y252059D01*
X302183D01*
X302181Y252073D01*
X301822Y252941D01*
X301250Y253687D01*
X300504Y254259D01*
X299636Y254618D01*
X298705Y254741D01*
D02*
G37*
G36*
X208472Y243480D02*
X204035D01*
Y241209D01*
X208472D01*
Y243480D01*
D02*
G37*
G36*
X203035D02*
X198598D01*
Y241209D01*
X203035D01*
Y243480D01*
D02*
G37*
G36*
X193468Y241858D02*
X191000D01*
Y239193D01*
X193468D01*
Y241858D01*
D02*
G37*
G36*
X182468D02*
X180000D01*
Y239193D01*
X182468D01*
Y241858D01*
D02*
G37*
G36*
X190000D02*
X187531D01*
Y239193D01*
X190000D01*
Y241858D01*
D02*
G37*
G36*
X179000D02*
X176532D01*
Y239193D01*
X179000D01*
Y241858D01*
D02*
G37*
G36*
X193468Y238193D02*
X191000D01*
Y235528D01*
X193468D01*
Y238193D01*
D02*
G37*
G36*
X190000D02*
X187531D01*
Y235528D01*
X190000D01*
Y238193D01*
D02*
G37*
G36*
X182468D02*
X180000D01*
Y235528D01*
X182468D01*
Y238193D01*
D02*
G37*
G36*
X179000D02*
X176532D01*
Y235528D01*
X179000D01*
Y238193D01*
D02*
G37*
G36*
X32411Y253757D02*
X7589D01*
Y228935D01*
X32411D01*
Y253757D01*
D02*
G37*
G36*
X442356Y240513D02*
X435644D01*
Y233802D01*
X438082D01*
Y231600D01*
X438152Y231249D01*
X438351Y230951D01*
X440082Y229220D01*
Y228546D01*
X439816Y228511D01*
X438712Y228054D01*
X437764Y227326D01*
X437037Y226379D01*
X436580Y225275D01*
X436424Y224091D01*
X436580Y222906D01*
X437037Y221802D01*
X437764Y220855D01*
X438712Y220128D01*
X439816Y219670D01*
X441000Y219514D01*
X442184Y219670D01*
X443288Y220128D01*
X444236Y220855D01*
X444963Y221802D01*
X445420Y222906D01*
X445576Y224091D01*
X445420Y225275D01*
X444963Y226379D01*
X444236Y227326D01*
X443288Y228054D01*
X442184Y228511D01*
X441918Y228546D01*
Y229600D01*
X441848Y229951D01*
X441649Y230249D01*
X439918Y231980D01*
Y233802D01*
X442356D01*
Y240513D01*
D02*
G37*
G36*
X243905Y222024D02*
X240787D01*
Y218906D01*
X243905D01*
Y222024D01*
D02*
G37*
G36*
X225339D02*
X222220D01*
Y218906D01*
X225339D01*
Y222024D01*
D02*
G37*
G36*
X239787D02*
X233563D01*
Y218406D01*
X232563D01*
Y222024D01*
X226339D01*
Y218406D01*
X225839D01*
Y217906D01*
X222220D01*
Y214788D01*
Y211681D01*
X225839D01*
Y210681D01*
X222220D01*
Y207563D01*
Y204457D01*
X225839D01*
Y203957D01*
X226339D01*
Y200339D01*
X232563D01*
Y203957D01*
X233563D01*
Y200339D01*
X239787D01*
Y203957D01*
X240287D01*
Y204457D01*
X243905D01*
Y207563D01*
Y210681D01*
X240287D01*
Y211681D01*
X243905D01*
Y214788D01*
Y217906D01*
X240287D01*
Y218406D01*
X239787D01*
Y222024D01*
D02*
G37*
G36*
X20500Y225811D02*
Y213500D01*
X32811D01*
X32692Y215010D01*
X32222Y216971D01*
X31450Y218834D01*
X30396Y220553D01*
X29087Y222087D01*
X27553Y223396D01*
X25834Y224450D01*
X23971Y225222D01*
X22010Y225692D01*
X20500Y225811D01*
D02*
G37*
G36*
X19500D02*
X17990Y225692D01*
X16029Y225222D01*
X14166Y224450D01*
X12447Y223396D01*
X10913Y222087D01*
X9604Y220553D01*
X8550Y218834D01*
X7778Y216971D01*
X7308Y215010D01*
X7189Y213500D01*
X19500D01*
Y225811D01*
D02*
G37*
G36*
X132543Y215543D02*
X128500D01*
Y211500D01*
X132543D01*
Y215543D01*
D02*
G37*
G36*
X59543D02*
X55500D01*
Y211500D01*
X59543D01*
Y215543D01*
D02*
G37*
G36*
X127500D02*
X123457D01*
Y211500D01*
X127500D01*
Y215543D01*
D02*
G37*
G36*
X55000Y257179D02*
X53918Y257037D01*
X52911Y256619D01*
X52045Y255955D01*
X51381Y255089D01*
X50963Y254082D01*
X50821Y253000D01*
X50963Y251918D01*
X51381Y250910D01*
X52045Y250045D01*
X52911Y249381D01*
X53624Y249085D01*
Y247143D01*
X50857D01*
Y238857D01*
X53624D01*
Y221570D01*
X23027Y190973D01*
X22728Y190527D01*
X22624Y190000D01*
Y169569D01*
X21235D01*
Y164432D01*
X22624D01*
Y155000D01*
X22728Y154473D01*
X23027Y154027D01*
X24327Y152727D01*
X24773Y152428D01*
X25300Y152323D01*
X25300Y152324D01*
X29000D01*
Y150700D01*
X39000D01*
Y152578D01*
X43635D01*
X68199Y128015D01*
X68008Y127553D01*
X62447D01*
Y122033D01*
X53535Y113122D01*
X19215D01*
X18429Y113907D01*
Y121432D01*
X20073D01*
Y126568D01*
X18429D01*
Y142693D01*
X19215Y143478D01*
X29000D01*
Y141600D01*
X39000D01*
Y147600D01*
X29000D01*
Y145722D01*
X18750D01*
X18750Y145722D01*
X18321Y145636D01*
X17957Y145393D01*
X17957Y145393D01*
X16514Y143950D01*
X16271Y143586D01*
X16186Y143157D01*
X16186Y143157D01*
Y126568D01*
X14542D01*
Y121432D01*
X16186D01*
Y113443D01*
X16186Y113443D01*
X16271Y113014D01*
X16514Y112650D01*
X17957Y111207D01*
X17957Y111207D01*
X18321Y110964D01*
X18750Y110878D01*
X18750Y110878D01*
X54000D01*
X54000Y110878D01*
X54429Y110964D01*
X54793Y111207D01*
X64033Y120447D01*
X69553D01*
X69878Y120082D01*
Y96465D01*
X42598Y69184D01*
X41927Y69461D01*
X41000Y69583D01*
X40073Y69461D01*
X39208Y69103D01*
X38466Y68534D01*
X37897Y67792D01*
X37539Y66927D01*
X37417Y66000D01*
X37539Y65073D01*
X37897Y64208D01*
X38466Y63466D01*
X39208Y62897D01*
X40073Y62539D01*
X41000Y62417D01*
X41927Y62539D01*
X42792Y62897D01*
X43534Y63466D01*
X44103Y64208D01*
X44461Y65073D01*
X44583Y66000D01*
X44461Y66927D01*
X44184Y67598D01*
X71793Y95207D01*
X71793Y95207D01*
X72036Y95571D01*
X72122Y96000D01*
X72122Y96000D01*
Y121779D01*
X72215Y121829D01*
X72622Y121910D01*
X73181Y121181D01*
X74007Y120547D01*
X74968Y120149D01*
X75500Y120079D01*
Y124000D01*
Y127921D01*
X74968Y127851D01*
X74007Y127453D01*
X73181Y126819D01*
X72622Y126090D01*
X72215Y126171D01*
X72122Y126221D01*
Y126800D01*
X72036Y127229D01*
X71793Y127593D01*
X71793Y127593D01*
X44893Y154493D01*
X44529Y154736D01*
X44100Y154822D01*
X44100Y154822D01*
X39000D01*
Y156700D01*
X29000D01*
Y155076D01*
X25870D01*
X25376Y155570D01*
Y164432D01*
X26765D01*
Y169569D01*
X25376D01*
Y189430D01*
X49995Y214048D01*
X50457Y213857D01*
Y211500D01*
X54500D01*
Y215543D01*
X52143D01*
X51952Y216005D01*
X55973Y220027D01*
X56272Y220473D01*
X56376Y221000D01*
Y238857D01*
X59143D01*
Y247143D01*
X56376D01*
Y249085D01*
X57090Y249381D01*
X57955Y250045D01*
X58619Y250910D01*
X59037Y251918D01*
X59179Y253000D01*
X59037Y254082D01*
X58619Y255089D01*
X57955Y255955D01*
X57090Y256619D01*
X56082Y257037D01*
X55000Y257179D01*
D02*
G37*
G36*
X152000Y215583D02*
X151073Y215461D01*
X150208Y215103D01*
X149466Y214534D01*
X148897Y213792D01*
X148539Y212927D01*
X148417Y212000D01*
X148539Y211073D01*
X148897Y210208D01*
X149466Y209466D01*
X150208Y208897D01*
X151073Y208539D01*
X152000Y208417D01*
X152927Y208539D01*
X153792Y208897D01*
X154534Y209466D01*
X155103Y210208D01*
X155461Y211073D01*
X155583Y212000D01*
X155461Y212927D01*
X155103Y213792D01*
X154534Y214534D01*
X153792Y215103D01*
X152927Y215461D01*
X152000Y215583D01*
D02*
G37*
G36*
X416622Y216021D02*
X415448Y215866D01*
X414354Y215413D01*
X413414Y214692D01*
X412693Y213752D01*
X412240Y212658D01*
X412085Y211484D01*
X412240Y210310D01*
X412693Y209216D01*
X413414Y208277D01*
X414354Y207556D01*
X415448Y207102D01*
X416622Y206948D01*
X417796Y207102D01*
X418890Y207556D01*
X419830Y208277D01*
X420551Y209216D01*
X421004Y210310D01*
X421158Y211484D01*
X421004Y212658D01*
X420551Y213752D01*
X419830Y214692D01*
X418890Y215413D01*
X417796Y215866D01*
X416622Y216021D01*
D02*
G37*
G36*
X132543Y210500D02*
X128500D01*
Y206457D01*
X132543D01*
Y210500D01*
D02*
G37*
G36*
X127500D02*
X123457D01*
Y206457D01*
X127500D01*
Y210500D01*
D02*
G37*
G36*
X59543D02*
X55500D01*
Y206457D01*
X59543D01*
Y210500D01*
D02*
G37*
G36*
X54500D02*
X50457D01*
Y206457D01*
X54500D01*
Y210500D01*
D02*
G37*
G36*
X128500Y205517D02*
Y201500D01*
X132517D01*
X132426Y202186D01*
X131969Y203291D01*
X131240Y204240D01*
X130291Y204969D01*
X129186Y205426D01*
X128500Y205517D01*
D02*
G37*
G36*
X55500D02*
Y201500D01*
X59517D01*
X59426Y202186D01*
X58969Y203291D01*
X58240Y204240D01*
X57291Y204969D01*
X56186Y205426D01*
X55500Y205517D01*
D02*
G37*
G36*
X127500D02*
X126814Y205426D01*
X125709Y204969D01*
X124760Y204240D01*
X124031Y203291D01*
X123574Y202186D01*
X123483Y201500D01*
X127500D01*
Y205517D01*
D02*
G37*
G36*
X54500D02*
X53814Y205426D01*
X52709Y204969D01*
X51760Y204240D01*
X51031Y203291D01*
X50574Y202186D01*
X50483Y201500D01*
X54500D01*
Y205517D01*
D02*
G37*
G36*
X243905Y203457D02*
X240787D01*
Y200339D01*
X243905D01*
Y203457D01*
D02*
G37*
G36*
X225339D02*
X222220D01*
Y200339D01*
X225339D01*
Y203457D01*
D02*
G37*
G36*
X32811Y212500D02*
X20500D01*
Y200189D01*
X22010Y200308D01*
X23971Y200778D01*
X25834Y201550D01*
X27553Y202604D01*
X29087Y203913D01*
X30396Y205447D01*
X31450Y207166D01*
X32222Y209029D01*
X32692Y210990D01*
X32811Y212500D01*
D02*
G37*
G36*
X19500D02*
X7189D01*
X7308Y210990D01*
X7778Y209029D01*
X8550Y207166D01*
X9604Y205447D01*
X10913Y203913D01*
X12447Y202604D01*
X14166Y201550D01*
X16029Y200778D01*
X17990Y200308D01*
X19500Y200189D01*
Y212500D01*
D02*
G37*
G36*
X152000Y205583D02*
X151073Y205461D01*
X150208Y205103D01*
X149466Y204534D01*
X148897Y203792D01*
X148539Y202927D01*
X148417Y202000D01*
X148539Y201073D01*
X148897Y200208D01*
X149466Y199466D01*
X150208Y198897D01*
X151073Y198539D01*
X152000Y198417D01*
X152927Y198539D01*
X153792Y198897D01*
X154534Y199466D01*
X155103Y200208D01*
X155461Y201073D01*
X155583Y202000D01*
X155461Y202927D01*
X155103Y203792D01*
X154534Y204534D01*
X153792Y205103D01*
X152927Y205461D01*
X152000Y205583D01*
D02*
G37*
G36*
X132517Y200500D02*
X128500D01*
Y196483D01*
X129186Y196574D01*
X130291Y197031D01*
X131240Y197760D01*
X131969Y198709D01*
X132426Y199814D01*
X132517Y200500D01*
D02*
G37*
G36*
X59517D02*
X55500D01*
Y196483D01*
X56186Y196574D01*
X57291Y197031D01*
X58240Y197760D01*
X58969Y198709D01*
X59426Y199814D01*
X59517Y200500D01*
D02*
G37*
G36*
X127500D02*
X123483D01*
X123574Y199814D01*
X124031Y198709D01*
X124760Y197760D01*
X125709Y197031D01*
X126814Y196574D01*
X127500Y196483D01*
Y200500D01*
D02*
G37*
G36*
X54500D02*
X50483D01*
X50574Y199814D01*
X51031Y198709D01*
X51760Y197760D01*
X52709Y197031D01*
X53814Y196574D01*
X54500Y196483D01*
Y200500D01*
D02*
G37*
G36*
X327600Y186700D02*
X326000D01*
Y182300D01*
X327600D01*
Y186700D01*
D02*
G37*
G36*
X325000D02*
X323400D01*
Y182300D01*
X325000D01*
Y186700D01*
D02*
G37*
G36*
X342200Y186300D02*
X338800D01*
Y177300D01*
X342200D01*
Y186300D01*
D02*
G37*
G36*
X337200D02*
X333800D01*
Y177300D01*
X337200D01*
Y186300D01*
D02*
G37*
G36*
X332200D02*
X328800D01*
Y177300D01*
X332200D01*
Y186300D01*
D02*
G37*
G36*
X327600Y181300D02*
X326000D01*
Y176900D01*
X327600D01*
Y181300D01*
D02*
G37*
G36*
X325000D02*
X323400D01*
Y176900D01*
X325000D01*
Y181300D01*
D02*
G37*
G36*
X214000Y176709D02*
X211728D01*
Y172272D01*
X214000D01*
Y176709D01*
D02*
G37*
G36*
X20472Y169968D02*
X17807D01*
Y167500D01*
X20472D01*
Y169968D01*
D02*
G37*
G36*
X16807D02*
X14142D01*
Y167500D01*
X16807D01*
Y169968D01*
D02*
G37*
G36*
X214000Y171272D02*
X211728D01*
Y166835D01*
X214000D01*
Y171272D01*
D02*
G37*
G36*
X282300Y170047D02*
X281364Y169861D01*
X280570Y169330D01*
X280039Y168536D01*
X279853Y167600D01*
X280039Y166664D01*
X280050Y166648D01*
X217851Y104449D01*
X217652Y104151D01*
X217582Y103800D01*
Y74043D01*
X217134Y73816D01*
X217082Y73819D01*
X216534Y74534D01*
X215792Y75103D01*
X214927Y75461D01*
X214000Y75583D01*
X213073Y75461D01*
X212208Y75103D01*
X211466Y74534D01*
X210897Y73792D01*
X210539Y72927D01*
X210417Y72000D01*
X210539Y71073D01*
X210897Y70208D01*
X211466Y69466D01*
X212208Y68897D01*
X213073Y68539D01*
X214000Y68417D01*
X214927Y68539D01*
X215792Y68897D01*
X216534Y69466D01*
X217082Y70181D01*
X217134Y70184D01*
X217582Y69957D01*
Y31463D01*
X217573Y31461D01*
X216708Y31103D01*
X215966Y30534D01*
X215397Y29792D01*
X215039Y28927D01*
X214917Y28000D01*
X215039Y27073D01*
X215397Y26208D01*
X215966Y25466D01*
X216708Y24897D01*
X217573Y24539D01*
X218500Y24417D01*
X219427Y24539D01*
X220292Y24897D01*
X221034Y25466D01*
X221603Y26208D01*
X221961Y27073D01*
X222083Y28000D01*
X221961Y28927D01*
X221603Y29792D01*
X221034Y30534D01*
X220292Y31103D01*
X219427Y31461D01*
X219418Y31463D01*
Y103420D01*
X281348Y165350D01*
X281364Y165339D01*
X282300Y165153D01*
X283236Y165339D01*
X284030Y165870D01*
X284561Y166664D01*
X284747Y167600D01*
X284561Y168536D01*
X284030Y169330D01*
X283236Y169861D01*
X282300Y170047D01*
D02*
G37*
G36*
X20472Y166500D02*
X17807D01*
Y164032D01*
X20472D01*
Y166500D01*
D02*
G37*
G36*
X16807D02*
X14142D01*
Y164032D01*
X16807D01*
Y166500D01*
D02*
G37*
G36*
X337600Y168100D02*
X336000D01*
Y163700D01*
X337600D01*
Y168100D01*
D02*
G37*
G36*
X335000D02*
X333400D01*
Y163700D01*
X335000D01*
Y168100D01*
D02*
G37*
G36*
X256472Y159772D02*
X254594D01*
Y157500D01*
X256472D01*
Y159772D01*
D02*
G37*
G36*
X253594D02*
X251716D01*
Y157500D01*
X253594D01*
Y159772D01*
D02*
G37*
G36*
X217272Y176709D02*
X215000D01*
Y171772D01*
Y166835D01*
X217272D01*
Y167235D01*
X221628D01*
X222000Y167235D01*
X222372Y167235D01*
X226628D01*
X227000Y167235D01*
X227372Y167235D01*
X231628D01*
X232000Y167235D01*
X232372Y167235D01*
X236628D01*
X237000Y167235D01*
X237372Y167235D01*
X241628D01*
X242000Y167235D01*
X242372Y167235D01*
X246628D01*
X247000Y167235D01*
X247372Y167235D01*
X251628D01*
X252000Y167235D01*
X252372Y167235D01*
X256628D01*
X257000Y167235D01*
X257372Y167235D01*
X258582D01*
Y164600D01*
X258652Y164249D01*
X258851Y163951D01*
X259082Y163720D01*
Y159372D01*
X258022D01*
Y154628D01*
X261978D01*
Y159372D01*
X260918D01*
Y164100D01*
X260848Y164451D01*
X260649Y164749D01*
X260418Y164980D01*
Y167235D01*
X261872D01*
Y176309D01*
X257372D01*
X257000Y176309D01*
X256628Y176309D01*
X252372D01*
X252000Y176309D01*
X251628Y176309D01*
X247372D01*
X247000Y176309D01*
X246628Y176309D01*
X242372D01*
X242000Y176309D01*
X241628Y176309D01*
X237372D01*
X237000Y176309D01*
X236628Y176309D01*
X232372D01*
X232000Y176309D01*
X231628Y176309D01*
X227372D01*
X227000Y176309D01*
X226628Y176309D01*
X222372D01*
X222000Y176309D01*
X221628Y176309D01*
X217272D01*
Y176709D01*
D02*
G37*
G36*
X256472Y156500D02*
X254594D01*
Y154228D01*
X256472D01*
Y156500D01*
D02*
G37*
G36*
X253594D02*
X251716D01*
Y154228D01*
X253594D01*
Y156500D01*
D02*
G37*
G36*
X14530Y152287D02*
X4668D01*
Y136913D01*
X14530D01*
Y152287D01*
D02*
G37*
G36*
X39400Y138900D02*
X34500D01*
Y136000D01*
X39400D01*
Y138900D01*
D02*
G37*
G36*
X33500D02*
X28600D01*
Y136000D01*
X33500D01*
Y138900D01*
D02*
G37*
G36*
X307600Y140547D02*
X306664Y140361D01*
X305870Y139830D01*
X305339Y139036D01*
X305153Y138100D01*
X305339Y137164D01*
X305870Y136370D01*
X306664Y135839D01*
X307600Y135653D01*
X308536Y135839D01*
X308552Y135850D01*
X311831Y132572D01*
X311584Y132111D01*
X310900Y132247D01*
X309964Y132061D01*
X309170Y131530D01*
X308639Y130736D01*
X308453Y129800D01*
X308639Y128864D01*
X308650Y128848D01*
X283551Y103749D01*
X283352Y103451D01*
X283282Y103100D01*
Y74380D01*
X282782Y74210D01*
X282534Y74534D01*
X281792Y75103D01*
X280927Y75461D01*
X280000Y75583D01*
X279073Y75461D01*
X278208Y75103D01*
X277466Y74534D01*
X276897Y73792D01*
X276539Y72927D01*
X276417Y72000D01*
X276539Y71073D01*
X276897Y70208D01*
X277466Y69466D01*
X278208Y68897D01*
X279073Y68539D01*
X280000Y68417D01*
X280927Y68539D01*
X281792Y68897D01*
X282534Y69466D01*
X282782Y69790D01*
X283282Y69620D01*
Y34580D01*
X279800Y31097D01*
X279792Y31103D01*
X278927Y31461D01*
X278000Y31583D01*
X277073Y31461D01*
X276208Y31103D01*
X275466Y30534D01*
X274897Y29792D01*
X274539Y28927D01*
X274417Y28000D01*
X274539Y27073D01*
X274897Y26208D01*
X275427Y25518D01*
X275328Y25060D01*
X275314Y25018D01*
X272280D01*
X271097Y26200D01*
X271103Y26208D01*
X271461Y27073D01*
X271583Y28000D01*
X271461Y28927D01*
X271103Y29792D01*
X270534Y30534D01*
X269792Y31103D01*
X268927Y31461D01*
X268000Y31583D01*
X267073Y31461D01*
X266208Y31103D01*
X265466Y30534D01*
X264897Y29792D01*
X264539Y28927D01*
X264417Y28000D01*
X264539Y27073D01*
X264897Y26208D01*
X265466Y25466D01*
X266208Y24897D01*
X267073Y24539D01*
X268000Y24417D01*
X268927Y24539D01*
X269792Y24897D01*
X269800Y24903D01*
X271251Y23451D01*
X271549Y23252D01*
X271900Y23182D01*
X282500D01*
X282851Y23252D01*
X283149Y23451D01*
X284749Y25051D01*
X284948Y25349D01*
X285466Y25466D01*
X286208Y24897D01*
X287073Y24539D01*
X288000Y24417D01*
X288927Y24539D01*
X289792Y24897D01*
X290534Y25466D01*
X291103Y26208D01*
X291461Y27073D01*
X291583Y28000D01*
X291461Y28927D01*
X291103Y29792D01*
X290534Y30534D01*
X289792Y31103D01*
X288927Y31461D01*
X288000Y31583D01*
X287073Y31461D01*
X286208Y31103D01*
X285518Y30573D01*
X285060Y30672D01*
X285018Y30686D01*
Y31520D01*
X286749Y33251D01*
X286948Y33549D01*
X287018Y33900D01*
Y69314D01*
X287060Y69328D01*
X287518Y69427D01*
X288208Y68897D01*
X289073Y68539D01*
X290000Y68417D01*
X290927Y68539D01*
X291792Y68897D01*
X292534Y69466D01*
X293103Y70208D01*
X293461Y71073D01*
X293583Y72000D01*
X293461Y72927D01*
X293103Y73792D01*
X292534Y74534D01*
X291792Y75103D01*
X290927Y75461D01*
X290000Y75583D01*
X289073Y75461D01*
X288208Y75103D01*
X287518Y74573D01*
X287060Y74672D01*
X287018Y74686D01*
Y75520D01*
X314249Y102751D01*
X314448Y103049D01*
X314518Y103400D01*
Y132100D01*
X314448Y132451D01*
X314249Y132749D01*
X309850Y137148D01*
X309861Y137164D01*
X310047Y138100D01*
X309861Y139036D01*
X309330Y139830D01*
X308536Y140361D01*
X307600Y140547D01*
D02*
G37*
G36*
X39400Y135000D02*
X34500D01*
Y132100D01*
X39400D01*
Y135000D01*
D02*
G37*
G36*
X33500D02*
X28600D01*
Y132100D01*
X33500D01*
Y135000D01*
D02*
G37*
G36*
X76500Y127921D02*
Y124500D01*
X79921D01*
X79851Y125032D01*
X79453Y125993D01*
X78819Y126819D01*
X77993Y127453D01*
X77032Y127851D01*
X76500Y127921D01*
D02*
G37*
G36*
X27165Y126969D02*
X24500D01*
Y124500D01*
X27165D01*
Y126969D01*
D02*
G37*
G36*
X23500D02*
X20835D01*
Y124500D01*
X23500D01*
Y126969D01*
D02*
G37*
G36*
X27165Y123500D02*
X24500D01*
Y121031D01*
X27165D01*
Y123500D01*
D02*
G37*
G36*
X23500D02*
X20835D01*
Y121031D01*
X23500D01*
Y123500D01*
D02*
G37*
G36*
X116000Y127583D02*
X115073Y127461D01*
X114208Y127103D01*
X113466Y126534D01*
X112897Y125792D01*
X112539Y124927D01*
X112417Y124000D01*
X112539Y123073D01*
X112897Y122208D01*
X113466Y121466D01*
X114208Y120897D01*
X115073Y120539D01*
X116000Y120417D01*
X116927Y120539D01*
X117792Y120897D01*
X118534Y121466D01*
X119103Y122208D01*
X119461Y123073D01*
X119583Y124000D01*
X119461Y124927D01*
X119103Y125792D01*
X118534Y126534D01*
X117792Y127103D01*
X116927Y127461D01*
X116000Y127583D01*
D02*
G37*
G36*
X102100Y137747D02*
X101164Y137561D01*
X100370Y137030D01*
X99839Y136236D01*
X99653Y135300D01*
X99839Y134364D01*
X100370Y133570D01*
X101164Y133039D01*
X101182Y133036D01*
Y83480D01*
X87800Y70097D01*
X87792Y70103D01*
X86927Y70461D01*
X86000Y70583D01*
X85073Y70461D01*
X84208Y70103D01*
X83466Y69534D01*
X82897Y68792D01*
X82539Y67927D01*
X82417Y67000D01*
X82539Y66073D01*
X82897Y65208D01*
X83466Y64466D01*
X84208Y63897D01*
X85073Y63539D01*
X86000Y63417D01*
X86927Y63539D01*
X87792Y63897D01*
X88534Y64466D01*
X89103Y65208D01*
X89461Y66073D01*
X89583Y67000D01*
X89461Y67927D01*
X89103Y68792D01*
X89097Y68800D01*
X102749Y82451D01*
X102948Y82749D01*
X103018Y83100D01*
Y121314D01*
X103060Y121328D01*
X103518Y121427D01*
X104208Y120897D01*
X105073Y120539D01*
X106000Y120417D01*
X106927Y120539D01*
X107792Y120897D01*
X108534Y121466D01*
X109103Y122208D01*
X109461Y123073D01*
X109583Y124000D01*
X109461Y124927D01*
X109103Y125792D01*
X108534Y126534D01*
X107792Y127103D01*
X106927Y127461D01*
X106000Y127583D01*
X105073Y127461D01*
X104208Y127103D01*
X103518Y126573D01*
X103060Y126672D01*
X103018Y126686D01*
Y133036D01*
X103036Y133039D01*
X103830Y133570D01*
X104361Y134364D01*
X104547Y135300D01*
X104361Y136236D01*
X103830Y137030D01*
X103036Y137561D01*
X102100Y137747D01*
D02*
G37*
G36*
X96000Y127583D02*
X95073Y127461D01*
X94208Y127103D01*
X93466Y126534D01*
X92897Y125792D01*
X92539Y124927D01*
X92417Y124000D01*
X92539Y123073D01*
X92897Y122208D01*
X93466Y121466D01*
X94208Y120897D01*
X95073Y120539D01*
X96000Y120417D01*
X96927Y120539D01*
X97792Y120897D01*
X98534Y121466D01*
X99103Y122208D01*
X99461Y123073D01*
X99583Y124000D01*
X99461Y124927D01*
X99103Y125792D01*
X98534Y126534D01*
X97792Y127103D01*
X96927Y127461D01*
X96000Y127583D01*
D02*
G37*
G36*
X86000D02*
X85073Y127461D01*
X84208Y127103D01*
X83466Y126534D01*
X82897Y125792D01*
X82539Y124927D01*
X82417Y124000D01*
X82539Y123073D01*
X82897Y122208D01*
X83466Y121466D01*
X84208Y120897D01*
X85073Y120539D01*
X86000Y120417D01*
X86927Y120539D01*
X87792Y120897D01*
X88534Y121466D01*
X89103Y122208D01*
X89461Y123073D01*
X89583Y124000D01*
X89461Y124927D01*
X89103Y125792D01*
X88534Y126534D01*
X87792Y127103D01*
X86927Y127461D01*
X86000Y127583D01*
D02*
G37*
G36*
X79921Y123500D02*
X76500D01*
Y120079D01*
X77032Y120149D01*
X77993Y120547D01*
X78819Y121181D01*
X79453Y122007D01*
X79851Y122968D01*
X79921Y123500D01*
D02*
G37*
G36*
X44953Y99953D02*
X41500D01*
Y96500D01*
X44953D01*
Y99953D01*
D02*
G37*
G36*
X40500D02*
X37047D01*
Y96500D01*
X40500D01*
Y99953D01*
D02*
G37*
G36*
X44953Y95500D02*
X41500D01*
Y92047D01*
X44953D01*
Y95500D01*
D02*
G37*
G36*
X40500D02*
X37047D01*
Y92047D01*
X40500D01*
Y95500D01*
D02*
G37*
G36*
X41000Y89583D02*
X40073Y89461D01*
X39208Y89103D01*
X38466Y88534D01*
X37897Y87792D01*
X37539Y86927D01*
X37417Y86000D01*
X37539Y85073D01*
X37897Y84208D01*
X38466Y83466D01*
X39208Y82897D01*
X40073Y82539D01*
X41000Y82417D01*
X41927Y82539D01*
X42792Y82897D01*
X43534Y83466D01*
X44103Y84208D01*
X44461Y85073D01*
X44583Y86000D01*
X44461Y86927D01*
X44103Y87792D01*
X43534Y88534D01*
X42792Y89103D01*
X41927Y89461D01*
X41000Y89583D01*
D02*
G37*
G36*
X425654Y82051D02*
X423079D01*
X420504D01*
Y81083D01*
X423079D01*
X425654D01*
Y82051D01*
D02*
G37*
G36*
Y80083D02*
X423079D01*
X420504D01*
Y79114D01*
X423079D01*
X425654D01*
Y80083D01*
D02*
G37*
G36*
Y78114D02*
X423579D01*
Y77024D01*
X425654D01*
Y78114D01*
D02*
G37*
G36*
X422579D02*
X420504D01*
Y77024D01*
X422579D01*
Y78114D01*
D02*
G37*
G36*
X198500Y141047D02*
X197564Y140861D01*
X196770Y140330D01*
X196239Y139536D01*
X196053Y138600D01*
X196239Y137664D01*
X196770Y136870D01*
X197564Y136339D01*
X197582Y136336D01*
Y74043D01*
X197134Y73816D01*
X197082Y73819D01*
X196534Y74534D01*
X195792Y75103D01*
X194927Y75461D01*
X194000Y75583D01*
X193073Y75461D01*
X192208Y75103D01*
X191466Y74534D01*
X190897Y73792D01*
X190539Y72927D01*
X190417Y72000D01*
X190539Y71073D01*
X190897Y70208D01*
X191466Y69466D01*
X192208Y68897D01*
X193073Y68539D01*
X194000Y68417D01*
X194927Y68539D01*
X195792Y68897D01*
X196534Y69466D01*
X197082Y70181D01*
X197134Y70184D01*
X197582Y69957D01*
Y31553D01*
X194947D01*
Y24447D01*
X202053D01*
Y31553D01*
X199418D01*
Y136336D01*
X199436Y136339D01*
X200230Y136870D01*
X200761Y137664D01*
X200947Y138600D01*
X200761Y139536D01*
X200230Y140330D01*
X199436Y140861D01*
X198500Y141047D01*
D02*
G37*
G36*
X435096Y76261D02*
X430747D01*
Y73487D01*
X435096D01*
Y76261D01*
D02*
G37*
G36*
X270500Y75921D02*
Y72500D01*
X273921D01*
X273851Y73032D01*
X273453Y73993D01*
X272819Y74819D01*
X271993Y75453D01*
X271032Y75851D01*
X270500Y75921D01*
D02*
G37*
G36*
X269500D02*
X268968Y75851D01*
X268007Y75453D01*
X267181Y74819D01*
X266547Y73993D01*
X266149Y73032D01*
X266079Y72500D01*
X269500D01*
Y75921D01*
D02*
G37*
G36*
X154500D02*
Y72500D01*
X157921D01*
X157851Y73032D01*
X157453Y73993D01*
X156819Y74819D01*
X155993Y75453D01*
X155032Y75851D01*
X154500Y75921D01*
D02*
G37*
G36*
X153500D02*
X152968Y75851D01*
X152007Y75453D01*
X151181Y74819D01*
X150547Y73993D01*
X150149Y73032D01*
X150079Y72500D01*
X153500D01*
Y75921D01*
D02*
G37*
G36*
X41000Y79583D02*
X40073Y79461D01*
X39208Y79103D01*
X38466Y78534D01*
X37897Y77792D01*
X37539Y76927D01*
X37417Y76000D01*
X37539Y75073D01*
X37897Y74208D01*
X38466Y73466D01*
X39208Y72897D01*
X40073Y72539D01*
X41000Y72417D01*
X41927Y72539D01*
X42792Y72897D01*
X43534Y73466D01*
X44103Y74208D01*
X44461Y75073D01*
X44583Y76000D01*
X44461Y76927D01*
X44103Y77792D01*
X43534Y78534D01*
X42792Y79103D01*
X41927Y79461D01*
X41000Y79583D01*
D02*
G37*
G36*
X110900Y109647D02*
X109964Y109461D01*
X109170Y108930D01*
X108639Y108136D01*
X108453Y107200D01*
X108639Y106264D01*
X109170Y105470D01*
X109964Y104939D01*
X109982Y104936D01*
Y82280D01*
X97800Y70097D01*
X97792Y70103D01*
X96927Y70461D01*
X96000Y70583D01*
X95073Y70461D01*
X94208Y70103D01*
X93466Y69534D01*
X92897Y68792D01*
X92539Y67927D01*
X92417Y67000D01*
X92539Y66073D01*
X92897Y65208D01*
X93466Y64466D01*
X94208Y63897D01*
X95073Y63539D01*
X96000Y63417D01*
X96927Y63539D01*
X97792Y63897D01*
X98534Y64466D01*
X99103Y65208D01*
X99461Y66073D01*
X99583Y67000D01*
X99461Y67927D01*
X99103Y68792D01*
X99097Y68800D01*
X111549Y81251D01*
X111748Y81549D01*
X111818Y81900D01*
Y104936D01*
X111836Y104939D01*
X112630Y105470D01*
X113161Y106264D01*
X113347Y107200D01*
X113161Y108136D01*
X112630Y108930D01*
X111836Y109461D01*
X110900Y109647D01*
D02*
G37*
G36*
X263553Y75553D02*
X256447D01*
Y68447D01*
X263553D01*
Y75553D01*
D02*
G37*
G36*
X350000Y75583D02*
X349073Y75461D01*
X348208Y75103D01*
X347466Y74534D01*
X346897Y73792D01*
X346539Y72927D01*
X346417Y72000D01*
X346539Y71073D01*
X346897Y70208D01*
X347466Y69466D01*
X348208Y68897D01*
X349073Y68539D01*
X350000Y68417D01*
X350927Y68539D01*
X351792Y68897D01*
X352534Y69466D01*
X353103Y70208D01*
X353461Y71073D01*
X353583Y72000D01*
X353461Y72927D01*
X353103Y73792D01*
X352534Y74534D01*
X351792Y75103D01*
X350927Y75461D01*
X350000Y75583D01*
D02*
G37*
G36*
X340000D02*
X339073Y75461D01*
X338208Y75103D01*
X337466Y74534D01*
X336897Y73792D01*
X336539Y72927D01*
X336417Y72000D01*
X336539Y71073D01*
X336897Y70208D01*
X337466Y69466D01*
X338208Y68897D01*
X339073Y68539D01*
X340000Y68417D01*
X340927Y68539D01*
X341792Y68897D01*
X342534Y69466D01*
X343103Y70208D01*
X343461Y71073D01*
X343583Y72000D01*
X343461Y72927D01*
X343103Y73792D01*
X342534Y74534D01*
X341792Y75103D01*
X340927Y75461D01*
X340000Y75583D01*
D02*
G37*
G36*
X330000D02*
X329073Y75461D01*
X328208Y75103D01*
X327466Y74534D01*
X326897Y73792D01*
X326539Y72927D01*
X326417Y72000D01*
X326539Y71073D01*
X326897Y70208D01*
X327466Y69466D01*
X328208Y68897D01*
X329073Y68539D01*
X330000Y68417D01*
X330927Y68539D01*
X331792Y68897D01*
X332534Y69466D01*
X333103Y70208D01*
X333461Y71073D01*
X333583Y72000D01*
X333461Y72927D01*
X333103Y73792D01*
X332534Y74534D01*
X331792Y75103D01*
X330927Y75461D01*
X330000Y75583D01*
D02*
G37*
G36*
X320000D02*
X319073Y75461D01*
X318208Y75103D01*
X317466Y74534D01*
X316897Y73792D01*
X316539Y72927D01*
X316417Y72000D01*
X316539Y71073D01*
X316897Y70208D01*
X317466Y69466D01*
X318208Y68897D01*
X319073Y68539D01*
X320000Y68417D01*
X320927Y68539D01*
X321792Y68897D01*
X322534Y69466D01*
X323103Y70208D01*
X323461Y71073D01*
X323583Y72000D01*
X323461Y72927D01*
X323103Y73792D01*
X322534Y74534D01*
X321792Y75103D01*
X320927Y75461D01*
X320000Y75583D01*
D02*
G37*
G36*
X310000D02*
X309073Y75461D01*
X308208Y75103D01*
X307466Y74534D01*
X306897Y73792D01*
X306539Y72927D01*
X306417Y72000D01*
X306539Y71073D01*
X306897Y70208D01*
X307466Y69466D01*
X308208Y68897D01*
X309073Y68539D01*
X310000Y68417D01*
X310927Y68539D01*
X311792Y68897D01*
X312534Y69466D01*
X313103Y70208D01*
X313461Y71073D01*
X313583Y72000D01*
X313461Y72927D01*
X313103Y73792D01*
X312534Y74534D01*
X311792Y75103D01*
X310927Y75461D01*
X310000Y75583D01*
D02*
G37*
G36*
X300000D02*
X299073Y75461D01*
X298208Y75103D01*
X297466Y74534D01*
X296897Y73792D01*
X296539Y72927D01*
X296417Y72000D01*
X296539Y71073D01*
X296897Y70208D01*
X297466Y69466D01*
X298208Y68897D01*
X299073Y68539D01*
X300000Y68417D01*
X300927Y68539D01*
X301792Y68897D01*
X302534Y69466D01*
X303103Y70208D01*
X303461Y71073D01*
X303583Y72000D01*
X303461Y72927D01*
X303103Y73792D01*
X302534Y74534D01*
X301792Y75103D01*
X300927Y75461D01*
X300000Y75583D01*
D02*
G37*
G36*
X234000D02*
X233073Y75461D01*
X232208Y75103D01*
X231466Y74534D01*
X230897Y73792D01*
X230539Y72927D01*
X230417Y72000D01*
X230539Y71073D01*
X230897Y70208D01*
X231466Y69466D01*
X232208Y68897D01*
X233073Y68539D01*
X234000Y68417D01*
X234927Y68539D01*
X235792Y68897D01*
X236534Y69466D01*
X237103Y70208D01*
X237461Y71073D01*
X237583Y72000D01*
X237461Y72927D01*
X237103Y73792D01*
X236534Y74534D01*
X235792Y75103D01*
X234927Y75461D01*
X234000Y75583D01*
D02*
G37*
G36*
X224000D02*
X223073Y75461D01*
X222208Y75103D01*
X221466Y74534D01*
X220897Y73792D01*
X220539Y72927D01*
X220417Y72000D01*
X220539Y71073D01*
X220897Y70208D01*
X221466Y69466D01*
X222208Y68897D01*
X223073Y68539D01*
X224000Y68417D01*
X224927Y68539D01*
X225792Y68897D01*
X226534Y69466D01*
X227103Y70208D01*
X227461Y71073D01*
X227583Y72000D01*
X227461Y72927D01*
X227103Y73792D01*
X226534Y74534D01*
X225792Y75103D01*
X224927Y75461D01*
X224000Y75583D01*
D02*
G37*
G36*
X204000D02*
X203073Y75461D01*
X202208Y75103D01*
X201466Y74534D01*
X200897Y73792D01*
X200539Y72927D01*
X200417Y72000D01*
X200539Y71073D01*
X200897Y70208D01*
X201466Y69466D01*
X202208Y68897D01*
X203073Y68539D01*
X204000Y68417D01*
X204927Y68539D01*
X205792Y68897D01*
X206534Y69466D01*
X207103Y70208D01*
X207461Y71073D01*
X207583Y72000D01*
X207461Y72927D01*
X207103Y73792D01*
X206534Y74534D01*
X205792Y75103D01*
X204927Y75461D01*
X204000Y75583D01*
D02*
G37*
G36*
X184000D02*
X183073Y75461D01*
X182208Y75103D01*
X181466Y74534D01*
X180897Y73792D01*
X180539Y72927D01*
X180417Y72000D01*
X180539Y71073D01*
X180897Y70208D01*
X181466Y69466D01*
X182208Y68897D01*
X183073Y68539D01*
X184000Y68417D01*
X184927Y68539D01*
X185792Y68897D01*
X186534Y69466D01*
X187103Y70208D01*
X187461Y71073D01*
X187583Y72000D01*
X187461Y72927D01*
X187103Y73792D01*
X186534Y74534D01*
X185792Y75103D01*
X184927Y75461D01*
X184000Y75583D01*
D02*
G37*
G36*
X164000Y114047D02*
X163064Y113861D01*
X162270Y113330D01*
X161739Y112536D01*
X161553Y111600D01*
X161739Y110664D01*
X162270Y109870D01*
X163064Y109339D01*
X163082Y109335D01*
Y75463D01*
X163073Y75461D01*
X162208Y75103D01*
X161466Y74534D01*
X160897Y73792D01*
X160539Y72927D01*
X160417Y72000D01*
X160539Y71073D01*
X160897Y70208D01*
X161466Y69466D01*
X162208Y68897D01*
X163073Y68539D01*
X164000Y68417D01*
X164927Y68539D01*
X165792Y68897D01*
X166534Y69466D01*
X167103Y70208D01*
X167461Y71073D01*
X167583Y72000D01*
X167461Y72927D01*
X167103Y73792D01*
X166534Y74534D01*
X165792Y75103D01*
X164927Y75461D01*
X164918Y75463D01*
Y109335D01*
X164936Y109339D01*
X165730Y109870D01*
X166261Y110664D01*
X166447Y111600D01*
X166261Y112536D01*
X165730Y113330D01*
X164936Y113861D01*
X164000Y114047D01*
D02*
G37*
G36*
X273921Y71500D02*
X270500D01*
Y68079D01*
X271032Y68149D01*
X271993Y68547D01*
X272819Y69181D01*
X273453Y70007D01*
X273851Y70968D01*
X273921Y71500D01*
D02*
G37*
G36*
X269500D02*
X266079D01*
X266149Y70968D01*
X266547Y70007D01*
X267181Y69181D01*
X268007Y68547D01*
X268968Y68149D01*
X269500Y68079D01*
Y71500D01*
D02*
G37*
G36*
X157921D02*
X154500D01*
Y68079D01*
X155032Y68149D01*
X155993Y68547D01*
X156819Y69181D01*
X157453Y70007D01*
X157851Y70968D01*
X157921Y71500D01*
D02*
G37*
G36*
X153500D02*
X150079D01*
X150149Y70968D01*
X150547Y70007D01*
X151181Y69181D01*
X152007Y68547D01*
X152968Y68149D01*
X153500Y68079D01*
Y71500D01*
D02*
G37*
G36*
X109953Y70953D02*
X106500D01*
Y67500D01*
X109953D01*
Y70953D01*
D02*
G37*
G36*
X105500D02*
X102047D01*
Y67500D01*
X105500D01*
Y70953D01*
D02*
G37*
G36*
X109953Y66500D02*
X106500D01*
Y63047D01*
X109953D01*
Y66500D01*
D02*
G37*
G36*
X105500D02*
X102047D01*
Y63047D01*
X105500D01*
Y66500D01*
D02*
G37*
G36*
X44953Y46953D02*
X41500D01*
Y43500D01*
X44953D01*
Y46953D01*
D02*
G37*
G36*
X40500D02*
X37047D01*
Y43500D01*
X40500D01*
Y46953D01*
D02*
G37*
G36*
X44953Y42500D02*
X41500D01*
Y39047D01*
X44953D01*
Y42500D01*
D02*
G37*
G36*
X40500D02*
X37047D01*
Y39047D01*
X40500D01*
Y42500D01*
D02*
G37*
G36*
X430000Y37421D02*
Y34000D01*
X433421D01*
X433351Y34532D01*
X432953Y35493D01*
X432319Y36319D01*
X431493Y36953D01*
X430532Y37351D01*
X430000Y37421D01*
D02*
G37*
G36*
X399000D02*
Y34000D01*
X402421D01*
X402351Y34532D01*
X401953Y35493D01*
X401319Y36319D01*
X400493Y36953D01*
X399532Y37351D01*
X399000Y37421D01*
D02*
G37*
G36*
X350000D02*
Y34000D01*
X353421D01*
X353351Y34532D01*
X352953Y35493D01*
X352319Y36319D01*
X351493Y36953D01*
X350532Y37351D01*
X350000Y37421D01*
D02*
G37*
G36*
X429000D02*
X428468Y37351D01*
X427507Y36953D01*
X426681Y36319D01*
X426047Y35493D01*
X425649Y34532D01*
X425579Y34000D01*
X429000D01*
Y37421D01*
D02*
G37*
G36*
X398000D02*
X397468Y37351D01*
X396507Y36953D01*
X395681Y36319D01*
X395047Y35493D01*
X394649Y34532D01*
X394579Y34000D01*
X398000D01*
Y37421D01*
D02*
G37*
G36*
X349000D02*
X348468Y37351D01*
X347507Y36953D01*
X346681Y36319D01*
X346047Y35493D01*
X345649Y34532D01*
X345579Y34000D01*
X349000D01*
Y37421D01*
D02*
G37*
G36*
X353421Y33000D02*
X350000D01*
Y29579D01*
X350532Y29649D01*
X351493Y30047D01*
X352319Y30681D01*
X352953Y31507D01*
X353351Y32468D01*
X353421Y33000D01*
D02*
G37*
G36*
X433421D02*
X430000D01*
Y29579D01*
X430532Y29649D01*
X431493Y30047D01*
X432319Y30681D01*
X432953Y31507D01*
X433351Y32468D01*
X433421Y33000D01*
D02*
G37*
G36*
X402421D02*
X399000D01*
Y29579D01*
X399532Y29649D01*
X400493Y30047D01*
X401319Y30681D01*
X401953Y31507D01*
X402351Y32468D01*
X402421Y33000D01*
D02*
G37*
G36*
X429000D02*
X425579D01*
X425649Y32468D01*
X426047Y31507D01*
X426681Y30681D01*
X427507Y30047D01*
X428468Y29649D01*
X429000Y29579D01*
Y33000D01*
D02*
G37*
G36*
X398000D02*
X394579D01*
X394649Y32468D01*
X395047Y31507D01*
X395681Y30681D01*
X396507Y30047D01*
X397468Y29649D01*
X398000Y29579D01*
Y33000D01*
D02*
G37*
G36*
X349000D02*
X345579D01*
X345649Y32468D01*
X346047Y31507D01*
X346681Y30681D01*
X347507Y30047D01*
X348468Y29649D01*
X349000Y29579D01*
Y33000D01*
D02*
G37*
G36*
X41000Y36583D02*
X40073Y36461D01*
X39208Y36103D01*
X38466Y35534D01*
X37897Y34792D01*
X37539Y33927D01*
X37417Y33000D01*
X37539Y32073D01*
X37897Y31208D01*
X38466Y30466D01*
X39208Y29897D01*
X40073Y29539D01*
X41000Y29417D01*
X41927Y29539D01*
X42792Y29897D01*
X43534Y30466D01*
X44103Y31208D01*
X44461Y32073D01*
X44583Y33000D01*
X44461Y33927D01*
X44103Y34792D01*
X43534Y35534D01*
X42792Y36103D01*
X41927Y36461D01*
X41000Y36583D01*
D02*
G37*
G36*
X147453Y32453D02*
X144000D01*
Y29000D01*
X147453D01*
Y32453D01*
D02*
G37*
G36*
X143000D02*
X139547D01*
Y29000D01*
X143000D01*
Y32453D01*
D02*
G37*
G36*
X298500Y31921D02*
Y28500D01*
X301921D01*
X301851Y29032D01*
X301453Y29993D01*
X300819Y30819D01*
X299993Y31453D01*
X299032Y31851D01*
X298500Y31921D01*
D02*
G37*
G36*
X297500D02*
X296968Y31851D01*
X296007Y31453D01*
X295181Y30819D01*
X294547Y29993D01*
X294149Y29032D01*
X294079Y28500D01*
X297500D01*
Y31921D01*
D02*
G37*
G36*
X109953Y31453D02*
X106500D01*
Y28000D01*
X109953D01*
Y31453D01*
D02*
G37*
G36*
X105500D02*
X102047D01*
Y28000D01*
X105500D01*
Y31453D01*
D02*
G37*
G36*
X173500Y32083D02*
X172573Y31961D01*
X171708Y31603D01*
X170966Y31034D01*
X170397Y30292D01*
X170039Y29427D01*
X169917Y28500D01*
X170039Y27573D01*
X170397Y26708D01*
X170966Y25966D01*
X171708Y25397D01*
X172573Y25039D01*
X173500Y24917D01*
X174427Y25039D01*
X175292Y25397D01*
X176034Y25966D01*
X176603Y26708D01*
X176961Y27573D01*
X177083Y28500D01*
X176961Y29427D01*
X176603Y30292D01*
X176034Y31034D01*
X175292Y31603D01*
X174427Y31961D01*
X173500Y32083D01*
D02*
G37*
G36*
X147453Y28000D02*
X144000D01*
Y24547D01*
X147453D01*
Y28000D01*
D02*
G37*
G36*
X143000D02*
X139547D01*
Y24547D01*
X143000D01*
Y28000D01*
D02*
G37*
G36*
X251553Y31553D02*
X244447D01*
Y24447D01*
X251553D01*
Y31553D01*
D02*
G37*
G36*
X258000Y31583D02*
X257073Y31461D01*
X256208Y31103D01*
X255466Y30534D01*
X254897Y29792D01*
X254539Y28927D01*
X254417Y28000D01*
X254539Y27073D01*
X254897Y26208D01*
X255466Y25466D01*
X256208Y24897D01*
X257073Y24539D01*
X258000Y24417D01*
X258927Y24539D01*
X259792Y24897D01*
X260534Y25466D01*
X261103Y26208D01*
X261461Y27073D01*
X261583Y28000D01*
X261461Y28927D01*
X261103Y29792D01*
X260534Y30534D01*
X259792Y31103D01*
X258927Y31461D01*
X258000Y31583D01*
D02*
G37*
G36*
X208500D02*
X207573Y31461D01*
X206708Y31103D01*
X205966Y30534D01*
X205397Y29792D01*
X205039Y28927D01*
X204917Y28000D01*
X205039Y27073D01*
X205397Y26208D01*
X205966Y25466D01*
X206708Y24897D01*
X207573Y24539D01*
X208500Y24417D01*
X209427Y24539D01*
X210292Y24897D01*
X211034Y25466D01*
X211603Y26208D01*
X211961Y27073D01*
X212083Y28000D01*
X211961Y28927D01*
X211603Y29792D01*
X211034Y30534D01*
X210292Y31103D01*
X209427Y31461D01*
X208500Y31583D01*
D02*
G37*
G36*
X301921Y27500D02*
X298500D01*
Y24079D01*
X299032Y24149D01*
X299993Y24547D01*
X300819Y25181D01*
X301453Y26007D01*
X301851Y26968D01*
X301921Y27500D01*
D02*
G37*
G36*
X297500D02*
X294079D01*
X294149Y26968D01*
X294547Y26007D01*
X295181Y25181D01*
X296007Y24547D01*
X296968Y24149D01*
X297500Y24079D01*
Y27500D01*
D02*
G37*
G36*
X96000Y31083D02*
X95073Y30961D01*
X94208Y30603D01*
X93466Y30034D01*
X92897Y29292D01*
X92539Y28427D01*
X92417Y27500D01*
X92539Y26573D01*
X92897Y25708D01*
X93466Y24966D01*
X94208Y24397D01*
X95073Y24039D01*
X96000Y23917D01*
X96927Y24039D01*
X97792Y24397D01*
X98534Y24966D01*
X99103Y25708D01*
X99461Y26573D01*
X99583Y27500D01*
X99461Y28427D01*
X99103Y29292D01*
X98534Y30034D01*
X97792Y30603D01*
X96927Y30961D01*
X96000Y31083D01*
D02*
G37*
G36*
X86000D02*
X85073Y30961D01*
X84208Y30603D01*
X83466Y30034D01*
X82897Y29292D01*
X82539Y28427D01*
X82417Y27500D01*
X82539Y26573D01*
X82897Y25708D01*
X83466Y24966D01*
X84208Y24397D01*
X85073Y24039D01*
X86000Y23917D01*
X86927Y24039D01*
X87792Y24397D01*
X88534Y24966D01*
X89103Y25708D01*
X89461Y26573D01*
X89583Y27500D01*
X89461Y28427D01*
X89103Y29292D01*
X88534Y30034D01*
X87792Y30603D01*
X86927Y30961D01*
X86000Y31083D01*
D02*
G37*
G36*
X76000Y70583D02*
X75073Y70461D01*
X74208Y70103D01*
X73466Y69534D01*
X72897Y68792D01*
X72539Y67927D01*
X72417Y67000D01*
X72539Y66073D01*
X72897Y65208D01*
X73466Y64466D01*
X74208Y63897D01*
X75073Y63539D01*
X75082Y63537D01*
Y30963D01*
X75073Y30961D01*
X74208Y30603D01*
X73466Y30034D01*
X72897Y29292D01*
X72539Y28427D01*
X72417Y27500D01*
X72539Y26573D01*
X72897Y25708D01*
X73466Y24966D01*
X74208Y24397D01*
X75073Y24039D01*
X76000Y23917D01*
X76927Y24039D01*
X77792Y24397D01*
X78534Y24966D01*
X79103Y25708D01*
X79461Y26573D01*
X79583Y27500D01*
X79461Y28427D01*
X79103Y29292D01*
X78534Y30034D01*
X77792Y30603D01*
X76927Y30961D01*
X76918Y30963D01*
Y63537D01*
X76927Y63539D01*
X77792Y63897D01*
X78534Y64466D01*
X79103Y65208D01*
X79461Y66073D01*
X79583Y67000D01*
X79461Y67927D01*
X79103Y68792D01*
X78534Y69534D01*
X77792Y70103D01*
X76927Y70461D01*
X76000Y70583D01*
D02*
G37*
G36*
X109953Y27000D02*
X106500D01*
Y23547D01*
X109953D01*
Y27000D01*
D02*
G37*
G36*
X105500D02*
X102047D01*
Y23547D01*
X105500D01*
Y27000D01*
D02*
G37*
G36*
X429500Y27083D02*
X428573Y26961D01*
X427708Y26603D01*
X426966Y26034D01*
X426397Y25292D01*
X426039Y24427D01*
X425917Y23500D01*
X426039Y22573D01*
X426397Y21708D01*
X426966Y20966D01*
X427708Y20397D01*
X428573Y20039D01*
X429500Y19917D01*
X430428Y20039D01*
X431292Y20397D01*
X432034Y20966D01*
X432603Y21708D01*
X432961Y22573D01*
X433083Y23500D01*
X432961Y24427D01*
X432603Y25292D01*
X432034Y26034D01*
X431292Y26603D01*
X430428Y26961D01*
X429500Y27083D01*
D02*
G37*
G36*
X398500D02*
X397573Y26961D01*
X396708Y26603D01*
X395966Y26034D01*
X395397Y25292D01*
X395039Y24427D01*
X394917Y23500D01*
X395039Y22573D01*
X395397Y21708D01*
X395966Y20966D01*
X396708Y20397D01*
X397573Y20039D01*
X398500Y19917D01*
X399427Y20039D01*
X400292Y20397D01*
X401034Y20966D01*
X401603Y21708D01*
X401961Y22573D01*
X402083Y23500D01*
X401961Y24427D01*
X401603Y25292D01*
X401034Y26034D01*
X400292Y26603D01*
X399427Y26961D01*
X398500Y27083D01*
D02*
G37*
G36*
X349500D02*
X348573Y26961D01*
X347708Y26603D01*
X346966Y26034D01*
X346397Y25292D01*
X346039Y24427D01*
X345917Y23500D01*
X346039Y22573D01*
X346397Y21708D01*
X346966Y20966D01*
X347708Y20397D01*
X348573Y20039D01*
X349500Y19917D01*
X350427Y20039D01*
X351292Y20397D01*
X352034Y20966D01*
X352603Y21708D01*
X352961Y22573D01*
X353083Y23500D01*
X352961Y24427D01*
X352603Y25292D01*
X352034Y26034D01*
X351292Y26603D01*
X350427Y26961D01*
X349500Y27083D01*
D02*
G37*
G36*
X41000Y26583D02*
X40073Y26461D01*
X39208Y26103D01*
X38466Y25534D01*
X37897Y24792D01*
X37539Y23927D01*
X37417Y23000D01*
X37539Y22073D01*
X37897Y21208D01*
X38466Y20466D01*
X39208Y19897D01*
X40073Y19539D01*
X41000Y19417D01*
X41927Y19539D01*
X42792Y19897D01*
X43534Y20466D01*
X44103Y21208D01*
X44461Y22073D01*
X44583Y23000D01*
X44461Y23927D01*
X44103Y24792D01*
X43534Y25534D01*
X42792Y26103D01*
X41927Y26461D01*
X41000Y26583D01*
D02*
G37*
G36*
X323000Y20083D02*
X322073Y19961D01*
X321208Y19603D01*
X320466Y19034D01*
X319897Y18292D01*
X319539Y17427D01*
X319417Y16500D01*
X319539Y15573D01*
X319897Y14708D01*
X320466Y13966D01*
X321208Y13397D01*
X322073Y13039D01*
X323000Y12917D01*
X323927Y13039D01*
X324792Y13397D01*
X325534Y13966D01*
X326103Y14708D01*
X326461Y15573D01*
X326583Y16500D01*
X326461Y17427D01*
X326103Y18292D01*
X325534Y19034D01*
X324792Y19603D01*
X323927Y19961D01*
X323000Y20083D01*
D02*
G37*
G36*
X41000Y16583D02*
X40073Y16461D01*
X39208Y16103D01*
X38466Y15534D01*
X37897Y14792D01*
X37539Y13927D01*
X37417Y13000D01*
X37539Y12072D01*
X37897Y11208D01*
X38466Y10466D01*
X39208Y9897D01*
X40073Y9539D01*
X41000Y9417D01*
X41927Y9539D01*
X42792Y9897D01*
X43534Y10466D01*
X44103Y11208D01*
X44461Y12072D01*
X44583Y13000D01*
X44461Y13927D01*
X44103Y14792D01*
X43534Y15534D01*
X42792Y16103D01*
X41927Y16461D01*
X41000Y16583D01*
D02*
G37*
%LPD*%
G36*
X173082Y243370D02*
Y233750D01*
X173152Y233399D01*
X173351Y233101D01*
X175101Y231351D01*
X175399Y231152D01*
X175750Y231082D01*
X176932D01*
Y229618D01*
X171069D01*
Y234765D01*
X165931D01*
Y232918D01*
X160380D01*
X159418Y233880D01*
Y236818D01*
X159918Y236918D01*
X160054Y236588D01*
X160503Y236003D01*
X161088Y235554D01*
X161769Y235272D01*
X162000Y235242D01*
Y238000D01*
Y240758D01*
X161769Y240728D01*
X161088Y240446D01*
X160978Y240361D01*
X160478Y240608D01*
Y244254D01*
X172198D01*
X173082Y243370D01*
D02*
G37*
%LPC*%
G36*
X168000Y241858D02*
X165532D01*
Y239305D01*
X165032Y239205D01*
X164946Y239412D01*
X164497Y239997D01*
X163912Y240446D01*
X163231Y240728D01*
X163000Y240758D01*
Y238000D01*
Y235242D01*
X163231Y235272D01*
X163912Y235554D01*
X164497Y236003D01*
X164946Y236588D01*
X165032Y236795D01*
X165532Y236695D01*
Y235527D01*
X168000D01*
Y238693D01*
Y241858D01*
D02*
G37*
G36*
X171468D02*
X169000D01*
Y239193D01*
X171468D01*
Y241858D01*
D02*
G37*
G36*
Y238193D02*
X169000D01*
Y235527D01*
X171468D01*
Y238193D01*
D02*
G37*
%LPD*%
G36*
X279970Y214882D02*
X279739Y214536D01*
X279553Y213600D01*
X279739Y212664D01*
X280110Y212108D01*
X275464Y207461D01*
X275002Y207653D01*
X275002Y208209D01*
X275002Y208580D01*
Y212837D01*
X275002Y213209D01*
X275002Y213580D01*
Y215382D01*
X279703D01*
X279970Y214882D01*
D02*
G37*
G36*
X286458Y219452D02*
X286448Y219436D01*
X286262Y218500D01*
X286448Y217564D01*
X286978Y216770D01*
X287772Y216239D01*
X288709Y216053D01*
X289645Y216239D01*
X290282Y216665D01*
X290782Y216452D01*
Y177789D01*
X289620Y176626D01*
X275355D01*
X275002Y176980D01*
X275002Y178209D01*
X275002Y178580D01*
Y182837D01*
X275002Y183209D01*
X275002Y183580D01*
Y187837D01*
X275002Y188209D01*
X275002Y188580D01*
Y189791D01*
X275791D01*
X276143Y189861D01*
X276440Y190060D01*
X276963Y190582D01*
X279236D01*
X279239Y190564D01*
X279770Y189770D01*
X280564Y189239D01*
X281500Y189053D01*
X282436Y189239D01*
X283230Y189770D01*
X283582Y190297D01*
X284082Y190145D01*
Y187265D01*
X284064Y187261D01*
X283270Y186730D01*
X282739Y185936D01*
X282553Y185000D01*
X282739Y184064D01*
X283270Y183270D01*
X284064Y182739D01*
X285000Y182553D01*
X285936Y182739D01*
X286730Y183270D01*
X287261Y184064D01*
X287447Y185000D01*
X287261Y185936D01*
X286730Y186730D01*
X285936Y187261D01*
X285918Y187265D01*
Y193209D01*
X285848Y193560D01*
X285649Y193858D01*
X278149Y201358D01*
X277851Y201556D01*
X277500Y201626D01*
X275355D01*
X275002Y201980D01*
X275002Y203209D01*
X275002Y203580D01*
Y204791D01*
X275009D01*
X275360Y204861D01*
X275658Y205060D01*
X281792Y211194D01*
X282000Y211153D01*
X282936Y211339D01*
X283730Y211870D01*
X284261Y212664D01*
X284342Y213072D01*
X284885Y213236D01*
X285391Y212730D01*
Y208564D01*
X285372Y208561D01*
X284578Y208030D01*
X284048Y207236D01*
X283862Y206300D01*
X284048Y205364D01*
X284578Y204570D01*
X285372Y204039D01*
X286309Y203853D01*
X287245Y204039D01*
X288039Y204570D01*
X288569Y205364D01*
X288756Y206300D01*
X288569Y207236D01*
X288039Y208030D01*
X287245Y208561D01*
X287226Y208564D01*
Y213110D01*
X287156Y213461D01*
X286958Y213759D01*
X283767Y216949D01*
X283470Y217148D01*
X283118Y217218D01*
X275355D01*
X275002Y217571D01*
X275002Y218209D01*
X275002Y218580D01*
Y222837D01*
X275002Y223209D01*
X275002Y223580D01*
Y227837D01*
X275002Y228209D01*
X275002Y228580D01*
Y229791D01*
X276120D01*
X286458Y219452D01*
D02*
G37*
G36*
X282775Y194136D02*
X282456Y193747D01*
X282436Y193761D01*
X281500Y193947D01*
X280564Y193761D01*
X279770Y193230D01*
X279239Y192436D01*
X279236Y192418D01*
X276583D01*
X276232Y192348D01*
X275934Y192149D01*
X275502Y191717D01*
X275002Y191844D01*
X275002Y193209D01*
X275002Y193580D01*
Y197837D01*
X275002Y198209D01*
X275002Y198580D01*
Y199791D01*
X277120D01*
X282775Y194136D01*
D02*
G37*
G36*
X312682Y127503D02*
Y103780D01*
X285618Y76715D01*
X285118Y76923D01*
Y102720D01*
X309948Y127550D01*
X309964Y127539D01*
X310900Y127353D01*
X311836Y127539D01*
X312182Y127770D01*
X312682Y127503D01*
D02*
G37*
D15*
X386300Y95500D02*
X393343Y88457D01*
X386300Y95500D02*
Y102200D01*
X393343Y88457D02*
X423079D01*
X386300Y102200D02*
X390000Y105900D01*
X121500Y236500D02*
X128000Y243000D01*
X121500Y122000D02*
X137400Y106100D01*
X121500Y122000D02*
Y236500D01*
X44100Y153700D02*
X71000Y126800D01*
X41000Y66000D02*
X71000Y96000D01*
Y126800D01*
X17307Y124000D02*
Y143157D01*
X18750Y144600D01*
X34000D01*
Y153700D02*
X44100D01*
X54000Y112000D02*
X66000Y124000D01*
X18750Y112000D02*
X54000D01*
X17307Y113443D02*
X18750Y112000D01*
X17307Y113443D02*
Y124000D01*
D16*
X423079Y155386D02*
X423209D01*
X423000D02*
X423079D01*
X423209D02*
X423500Y155676D01*
Y169500D01*
X432134Y159126D02*
X432921D01*
X431647Y159613D02*
X432134Y159126D01*
X394509Y94362D02*
X423079D01*
X393200Y93053D02*
X394509Y94362D01*
X389350Y98200D02*
X394600Y103450D01*
X381500Y101491D02*
X393000Y112991D01*
Y203610D01*
X381500Y30500D02*
Y101491D01*
X394600Y103450D02*
Y114200D01*
X427800Y156215D02*
Y190200D01*
Y156215D02*
X443900Y140115D01*
X426500Y191500D02*
X427800Y190200D01*
X430500Y183200D02*
X438300Y175400D01*
X430500Y183200D02*
Y185500D01*
X423800Y194350D02*
X427450Y198000D01*
X423800Y190382D02*
Y194350D01*
Y190382D02*
X426200Y187982D01*
Y146143D02*
Y187982D01*
X425600Y145543D02*
X426200Y146143D01*
X381500Y30500D02*
X398500Y13500D01*
X413300Y156670D02*
Y198000D01*
Y156670D02*
X420489Y149480D01*
X400400Y210900D02*
X413300Y198000D01*
X416000Y156699D02*
X421250Y151449D01*
X416000Y156699D02*
Y166500D01*
X435200Y118382D02*
Y135300D01*
X433118Y116300D02*
X435200Y118382D01*
X442700Y121882D02*
Y139618D01*
X434500Y113682D02*
X442700Y121882D01*
X434500Y111500D02*
Y113682D01*
X435618Y138700D02*
X439500Y134818D01*
Y122500D02*
Y134818D01*
X429197Y117984D02*
X430882Y116300D01*
X423079Y117984D02*
X429197D01*
X425310Y123890D02*
X430200Y119000D01*
X430882Y116300D02*
X433118D01*
X430200Y119000D02*
X432000D01*
X430173Y127827D02*
X432500Y125500D01*
X423079Y127827D02*
X430173D01*
X434500Y136000D02*
X435200Y135300D01*
X423079Y131764D02*
X431736D01*
X432000Y131500D01*
X423079Y123890D02*
X425310D01*
X436918Y139900D02*
X438318Y138500D01*
X423341Y139900D02*
X436918D01*
X438318Y138500D02*
X440000D01*
X423079Y141606D02*
X440712D01*
X442700Y139618D01*
X443900Y117082D02*
Y140115D01*
X435600Y150112D02*
X445100Y140612D01*
Y116585D02*
Y140612D01*
X438300Y149109D02*
X446300Y141110D01*
Y116087D02*
Y141110D01*
X441000Y148107D02*
X447500Y141607D01*
Y106182D02*
Y141607D01*
X445900Y144904D02*
Y191900D01*
Y144904D02*
X448700Y142104D01*
Y81450D02*
Y142104D01*
X447100Y145401D02*
Y193100D01*
Y145401D02*
X449900Y142601D01*
Y80950D02*
Y142601D01*
X448300Y145898D02*
Y250800D01*
Y145898D02*
X451100Y143098D01*
Y35100D02*
Y143098D01*
X430568Y138700D02*
X435618D01*
X441000Y148107D02*
Y182909D01*
X435618Y108800D02*
X443900Y117082D01*
X431900Y108800D02*
X435618D01*
X425336Y102236D02*
X431900Y108800D01*
X436115Y107600D02*
X445100Y116585D01*
X436613Y106400D02*
X446300Y116087D01*
X433743Y106400D02*
X436613D01*
X425642Y98299D02*
X433743Y106400D01*
X433001Y107600D02*
X436115D01*
X425668Y100268D02*
X433001Y107600D01*
X423079Y98299D02*
X425642D01*
X423079Y100268D02*
X425668D01*
X423079Y102236D02*
X425336D01*
X428800Y98000D02*
X435500D01*
X427131Y96331D02*
X428800Y98000D01*
X433712Y92394D02*
X447500Y106182D01*
X423079Y92394D02*
X433712D01*
X425600Y133732D02*
X430568Y138700D01*
X423079Y139638D02*
X423341Y139900D01*
X435600Y150112D02*
Y172450D01*
X438300Y149109D02*
Y175400D01*
X436950Y69700D02*
X448700Y81450D01*
X415200Y46250D02*
X449900Y80950D01*
X429500Y13500D02*
X451100Y35100D01*
X406682Y117500D02*
X410882Y121700D01*
X397500Y117500D02*
X406682D01*
X414618Y120200D02*
X422832D01*
X423079Y119953D01*
X406882Y126200D02*
X422737D01*
X423079Y125858D01*
X403182Y122500D02*
X406882Y126200D01*
X402000Y122500D02*
X403182D01*
X413015Y123500D02*
X414594Y121921D01*
X408000Y123500D02*
X413015D01*
X406727Y130273D02*
X422601D01*
X406500Y130500D02*
X406727Y130273D01*
X422601D02*
X423079Y129795D01*
X414594Y121921D02*
X423079D01*
X413118Y121700D02*
X414618Y120200D01*
X410882Y121700D02*
X413118D01*
X412000Y119000D02*
X416900D01*
X417900Y118000D01*
X419884Y116016D01*
X401000Y130500D02*
X401500D01*
X405154Y134154D01*
X420300Y197050D02*
X423650Y200400D01*
X420300Y154100D02*
Y197050D01*
X420489Y149480D02*
X423079D01*
X297500Y235500D02*
X302000D01*
X294000Y232000D02*
X297500Y235500D01*
X255500Y207500D02*
Y211000D01*
X265209Y220709D01*
X249000Y198000D02*
Y215509D01*
X259200Y225709D01*
X265209Y220709D02*
X270465D01*
X276583Y191500D02*
X281500D01*
X275791Y190709D02*
X276583Y191500D01*
X277500Y200709D02*
X285000Y193209D01*
Y185000D02*
Y193209D01*
X270465Y200709D02*
X277500D01*
X286309Y206300D02*
Y213110D01*
X283118Y216300D02*
X286309Y213110D01*
X271056Y216300D02*
X283118D01*
X270465Y215709D02*
X271056Y216300D01*
X275009Y205709D02*
X282000Y212700D01*
Y213600D01*
X148100Y188100D02*
X152000Y192000D01*
X144000Y184000D02*
X148100Y188100D01*
X276800Y242000D02*
X288047D01*
X275400Y243400D02*
X276800Y242000D01*
X262600Y243400D02*
X275400D01*
X254909Y235709D02*
X262600Y243400D01*
X203535Y235709D02*
X254909D01*
X148100Y177600D02*
Y188100D01*
Y177600D02*
X148200Y177500D01*
X155850D01*
X157100Y178750D01*
Y220600D01*
X156200Y221500D02*
X157100Y220600D01*
X156200Y221500D02*
Y245072D01*
X156300Y245172D01*
X172578D01*
X174000Y243750D01*
Y233750D02*
Y243750D01*
Y233750D02*
X175750Y232000D01*
X179500D01*
X416653Y106173D02*
X423079D01*
X413980Y103500D02*
X416653Y106173D01*
X403200Y103500D02*
X413980D01*
X330500Y158750D02*
Y163200D01*
Y158750D02*
X331750Y157500D01*
X346050D01*
X347300Y158750D01*
Y174200D01*
X384000Y210900D01*
X400400D01*
X325500Y156100D02*
Y163200D01*
Y156100D02*
X327500Y154100D01*
X350600D01*
X387091Y190591D01*
Y207860D01*
X388750Y209519D01*
X399281D01*
X411250Y197550D01*
Y148762D02*
Y197550D01*
Y148762D02*
X412500Y147512D01*
X423079D01*
X110900Y81900D02*
Y107200D01*
X96000Y67000D02*
X110900Y81900D01*
X419884Y116016D02*
X423079D01*
X218500Y28000D02*
Y103800D01*
X282300Y167600D01*
X421250Y151449D02*
X423079D01*
X403300Y76300D02*
X409900Y69700D01*
X436950D01*
X437400Y200400D02*
X445900Y191900D01*
X423650Y200400D02*
X437400D01*
X420300Y154100D02*
X420983Y153417D01*
X423079D01*
X416622Y259516D02*
X426250Y249888D01*
Y201700D02*
Y249888D01*
Y201700D02*
X426350Y201600D01*
X438600D01*
X447100Y193100D01*
X415200Y14900D02*
Y46250D01*
X407800Y7500D02*
X415200Y14900D01*
X355500Y7500D02*
X407800D01*
X349500Y13500D02*
X355500Y7500D01*
X307094Y240000D02*
Y242000D01*
Y240000D02*
X308394Y238700D01*
X315200D01*
X315300Y238800D01*
Y249650D01*
X313808Y251142D02*
X315300Y249650D01*
X298705Y251142D02*
X313808D01*
X278000Y28000D02*
X284200Y34200D01*
Y103100D01*
X310900Y129800D01*
X405154Y134154D02*
X418422D01*
X419968Y135701D01*
X423079D01*
X416169Y137669D02*
X423079D01*
X415700Y137200D02*
X416169Y137669D01*
X307600Y138100D02*
X313600Y132100D01*
Y103400D02*
Y132100D01*
X286100Y75900D02*
X313600Y103400D01*
X286100Y33900D02*
Y75900D01*
X284100Y31900D02*
X286100Y33900D01*
X284100Y25700D02*
Y31900D01*
X282500Y24100D02*
X284100Y25700D01*
X271900Y24100D02*
X282500D01*
X268000Y28000D02*
X271900Y24100D01*
X405776Y143575D02*
X423079D01*
X404350Y145000D02*
X405776Y143575D01*
X404350Y145000D02*
Y200150D01*
X396181Y208319D02*
X404350Y200150D01*
X390919Y208319D02*
X396181D01*
X388291Y205691D02*
X390919Y208319D01*
X388291Y112237D02*
Y205691D01*
X361700Y85646D02*
X388291Y112237D01*
X361700Y65200D02*
Y85646D01*
X323000Y26500D02*
X361700Y65200D01*
X431850Y176200D02*
X435600Y172450D01*
X276500Y230709D02*
X288709Y218500D01*
X270465Y230709D02*
X276500D01*
X423079Y96331D02*
X427131D01*
X270465Y205709D02*
X275009D01*
X259200Y225709D02*
X270465D01*
X294000Y229500D02*
Y232000D01*
X203535Y230709D02*
X237000D01*
X396785Y101737D02*
X401394Y106347D01*
X414957D01*
X416751Y108142D01*
X423079D01*
X410100Y112227D02*
X411920Y114047D01*
X423079D01*
X394600Y114200D02*
X394700Y114300D01*
X398844D01*
X403900Y109244D01*
X411544D01*
X414379Y112079D01*
X423079D01*
X86000Y67000D02*
X102100Y83100D01*
Y135300D01*
X423079Y133732D02*
X425600D01*
X144000Y72000D02*
Y184000D01*
X140100Y41900D02*
X153500Y28500D01*
X140100Y41900D02*
Y187500D01*
X270465Y190709D02*
X275791D01*
X211250Y185709D02*
X270465D01*
X209800Y184259D02*
X211250Y185709D01*
X209800Y165200D02*
Y184259D01*
X169700Y125100D02*
X209800Y165200D01*
X169700Y34700D02*
Y125100D01*
X163500Y28500D02*
X169700Y34700D01*
X198500Y28000D02*
Y138600D01*
X164000Y72000D02*
Y111600D01*
X397300D02*
X400946Y107954D01*
X412097D01*
X414253Y110110D01*
X423079D01*
X180000Y267400D02*
Y270717D01*
Y267400D02*
X180100Y267300D01*
X191250D01*
X193400Y265150D01*
Y259000D02*
Y265150D01*
X193300Y258900D02*
X193400Y259000D01*
X167519Y258900D02*
X193300D01*
X152594Y243975D02*
X167519Y258900D01*
X152594Y242500D02*
Y243975D01*
X162933Y262193D02*
X190500D01*
X154409Y270717D02*
X162933Y262193D01*
X158500Y233500D02*
Y242500D01*
Y233500D02*
X160000Y232000D01*
X168500D01*
X24000Y124000D02*
Y133750D01*
X25750Y135500D01*
X34000D01*
X128000Y211000D02*
X143100Y195900D01*
X153750D01*
X155900Y193750D01*
Y185900D02*
Y193750D01*
X152000Y182000D02*
X155900Y185900D01*
X369378Y201378D02*
Y211484D01*
X340500Y172500D02*
X369378Y201378D01*
X340500Y163200D02*
Y172500D01*
X325500Y173750D02*
Y181800D01*
Y173750D02*
X326750Y172500D01*
X334250D01*
X335500Y171250D01*
Y163200D02*
Y171250D01*
X423000Y78614D02*
X423079D01*
X270465Y175709D02*
X290000D01*
X291700Y177409D01*
Y233100D01*
X293953Y235353D01*
Y242000D01*
X197609Y235709D02*
X203535D01*
X193900Y232000D02*
X197609Y235709D01*
X190500Y232000D02*
X193900D01*
X431250Y247000D02*
X439000D01*
X429500Y245250D02*
X431250Y247000D01*
X429500Y203906D02*
Y245250D01*
X286500Y258000D02*
X317437D01*
X324295Y251142D01*
X427450Y198000D02*
X429500D01*
X423079Y145543D02*
X425600D01*
X198009Y230709D02*
X203535D01*
X196000Y228700D02*
X198009Y230709D01*
X168600Y228700D02*
X196000D01*
X168500Y228800D02*
X168600Y228700D01*
X168500Y228800D02*
Y232000D01*
X293953Y242000D02*
X297000D01*
X299700Y244700D01*
X312900D01*
X313000Y244600D01*
Y242000D02*
Y244600D01*
X288047Y235747D02*
Y242000D01*
Y235747D02*
X288094Y235700D01*
Y229500D02*
Y235700D01*
X179500Y232000D02*
X190500D01*
X423079Y90425D02*
Y92394D01*
X76000Y27500D02*
Y67000D01*
X423079Y78614D02*
Y80583D01*
Y82551D01*
X229451Y211181D02*
X233063D01*
X439000Y231600D02*
Y237157D01*
Y231600D02*
X441000Y229600D01*
Y224091D02*
Y229600D01*
X259500Y164600D02*
Y171772D01*
Y164600D02*
X260000Y164100D01*
Y157000D02*
Y164100D01*
X423079Y86488D02*
Y88457D01*
D19*
X429500Y198000D02*
D03*
Y203906D02*
D03*
D20*
X423079Y155386D02*
D03*
Y153417D02*
D03*
Y151449D02*
D03*
Y149480D02*
D03*
Y147512D02*
D03*
Y145543D02*
D03*
Y143575D02*
D03*
Y141606D02*
D03*
Y139638D02*
D03*
Y137669D02*
D03*
Y135701D02*
D03*
Y133732D02*
D03*
Y131764D02*
D03*
Y129795D02*
D03*
Y127827D02*
D03*
Y125858D02*
D03*
Y123890D02*
D03*
Y121921D02*
D03*
Y119953D02*
D03*
Y117984D02*
D03*
Y116016D02*
D03*
Y114047D02*
D03*
Y112079D02*
D03*
Y110110D02*
D03*
Y108142D02*
D03*
Y106173D02*
D03*
Y104205D02*
D03*
Y102236D02*
D03*
Y100268D02*
D03*
Y98299D02*
D03*
Y96331D02*
D03*
Y94362D02*
D03*
Y92394D02*
D03*
Y90425D02*
D03*
Y88457D02*
D03*
Y86488D02*
D03*
Y84520D02*
D03*
Y82551D02*
D03*
Y80583D02*
D03*
Y78614D02*
D03*
D21*
X432921Y74874D02*
D03*
Y159126D02*
D03*
D22*
X340500Y163200D02*
D03*
X335500D02*
D03*
X330500D02*
D03*
X325500D02*
D03*
Y181800D02*
D03*
X330500D02*
D03*
X335500D02*
D03*
X340500D02*
D03*
D23*
X9599Y144600D02*
D03*
D24*
X34000Y153700D02*
D03*
Y144600D02*
D03*
Y135500D02*
D03*
D25*
X179500Y238693D02*
D03*
Y232000D02*
D03*
X190500Y238693D02*
D03*
Y232000D02*
D03*
Y255500D02*
D03*
Y262193D02*
D03*
X286500Y264693D02*
D03*
Y258000D02*
D03*
X168500Y238693D02*
D03*
Y232000D02*
D03*
D26*
X24000Y124000D02*
D03*
X17307D02*
D03*
X24000Y167000D02*
D03*
X17307D02*
D03*
D27*
X240287Y203957D02*
D03*
X233063D02*
D03*
X225839D02*
D03*
X240287Y211181D02*
D03*
X233063D02*
D03*
X225839D02*
D03*
X240287Y218406D02*
D03*
X233063D02*
D03*
X225839D02*
D03*
D28*
X270465Y240709D02*
D03*
Y235709D02*
D03*
Y230709D02*
D03*
Y225709D02*
D03*
Y220709D02*
D03*
Y215709D02*
D03*
Y210709D02*
D03*
Y205709D02*
D03*
Y200709D02*
D03*
Y195709D02*
D03*
Y190709D02*
D03*
Y185709D02*
D03*
Y180709D02*
D03*
Y175709D02*
D03*
X203535D02*
D03*
Y180709D02*
D03*
Y185709D02*
D03*
Y190709D02*
D03*
Y195709D02*
D03*
Y200709D02*
D03*
Y205709D02*
D03*
Y210709D02*
D03*
Y215709D02*
D03*
Y220709D02*
D03*
Y225709D02*
D03*
Y230709D02*
D03*
Y235709D02*
D03*
Y240709D02*
D03*
D29*
X259500Y171772D02*
D03*
X254500D02*
D03*
X249500D02*
D03*
X244500D02*
D03*
X239500D02*
D03*
X234500D02*
D03*
X229500D02*
D03*
X224500D02*
D03*
X219500D02*
D03*
X214500D02*
D03*
D30*
X158500Y242500D02*
D03*
X152594D02*
D03*
X313000Y242000D02*
D03*
X307094D02*
D03*
X288094Y229500D02*
D03*
X294000D02*
D03*
X254094Y157000D02*
D03*
X260000D02*
D03*
X288047Y242000D02*
D03*
X293953D02*
D03*
D61*
X24000Y167000D02*
Y190000D01*
X55000Y221000D01*
Y243000D01*
X25300Y153700D02*
X34000D01*
X24000Y155000D02*
X25300Y153700D01*
X24000Y155000D02*
Y167000D01*
X55000Y243000D02*
Y253000D01*
X128000Y243000D02*
Y253000D01*
D62*
X66000Y124000D02*
D03*
X144000Y72000D02*
D03*
X260000D02*
D03*
X143500Y28500D02*
D03*
X198500Y28000D02*
D03*
X248000D02*
D03*
X106000Y67000D02*
D03*
Y27500D02*
D03*
D63*
X76000Y124000D02*
D03*
X86000D02*
D03*
X96000D02*
D03*
X106000D02*
D03*
X116000D02*
D03*
X154000Y72000D02*
D03*
X174000D02*
D03*
X184000D02*
D03*
X194000D02*
D03*
X204000D02*
D03*
X214000D02*
D03*
X224000D02*
D03*
X234000D02*
D03*
X164000D02*
D03*
X41000Y13000D02*
D03*
Y23000D02*
D03*
Y33000D02*
D03*
X280000Y72000D02*
D03*
X350000D02*
D03*
X340000D02*
D03*
X330000D02*
D03*
X320000D02*
D03*
X310000D02*
D03*
X300000D02*
D03*
X290000D02*
D03*
X270000D02*
D03*
X173500Y28500D02*
D03*
X163500D02*
D03*
X153500D02*
D03*
X218500Y28000D02*
D03*
X208500D02*
D03*
X398500Y33500D02*
D03*
Y23500D02*
D03*
X429500Y33500D02*
D03*
Y23500D02*
D03*
X323000Y16500D02*
D03*
X349500Y33500D02*
D03*
Y23500D02*
D03*
X298000Y28000D02*
D03*
X288000D02*
D03*
X278000D02*
D03*
X268000D02*
D03*
X258000D02*
D03*
X41000Y86000D02*
D03*
Y76000D02*
D03*
Y66000D02*
D03*
X96000Y67000D02*
D03*
X86000D02*
D03*
X76000D02*
D03*
X96000Y27500D02*
D03*
X86000D02*
D03*
X76000D02*
D03*
X152000Y192000D02*
D03*
Y202000D02*
D03*
Y212000D02*
D03*
D64*
X20000Y213000D02*
D03*
D65*
Y241346D02*
D03*
D66*
X41000Y43000D02*
D03*
X398500Y13500D02*
D03*
X429500D02*
D03*
X323000Y26500D02*
D03*
X349500Y13500D02*
D03*
X41000Y96000D02*
D03*
X152000Y182000D02*
D03*
D67*
X128000Y211000D02*
D03*
Y243000D02*
D03*
X55000Y211000D02*
D03*
Y243000D02*
D03*
D68*
X128000Y201000D02*
D03*
Y253000D02*
D03*
X55000Y201000D02*
D03*
Y253000D02*
D03*
D69*
X441000Y224091D02*
D03*
D70*
Y182909D02*
D03*
D71*
X439000Y237157D02*
D03*
D72*
Y247000D02*
D03*
Y256843D02*
D03*
D73*
X369378Y259516D02*
D03*
X416622D02*
D03*
Y211484D02*
D03*
D74*
X393000Y203610D02*
D03*
D75*
X369378Y211484D02*
D03*
D76*
X236675Y203957D02*
D03*
X229451D02*
D03*
X240287Y207569D02*
D03*
X233063D02*
D03*
X225839D02*
D03*
X236675Y211181D02*
D03*
X229451D02*
D03*
X240287Y214793D02*
D03*
X233063D02*
D03*
X225839D02*
D03*
X236675Y218406D02*
D03*
X229451D02*
D03*
D77*
X298705Y268858D02*
D03*
X324295D02*
D03*
X298705Y251142D02*
D03*
X180000Y253000D02*
D03*
X154409D02*
D03*
X180000Y270717D02*
D03*
D78*
X324295Y251142D02*
D03*
X154409Y270717D02*
D03*
D79*
X162500Y238000D02*
D03*
X393200Y93053D02*
D03*
X389350Y98200D02*
D03*
X390000Y105900D02*
D03*
X430500Y185500D02*
D03*
X426500Y191500D02*
D03*
X423500Y169500D02*
D03*
X416000Y166500D02*
D03*
X439500Y122500D02*
D03*
X432000Y119000D02*
D03*
X432500Y125500D02*
D03*
X432000Y131500D02*
D03*
X434500Y136000D02*
D03*
X440000Y138500D02*
D03*
X434500Y111500D02*
D03*
X435500Y98000D02*
D03*
X406500Y130500D02*
D03*
X408000Y123500D02*
D03*
X412000Y119000D02*
D03*
X401000Y130500D02*
D03*
X402000Y122500D02*
D03*
X397500Y117500D02*
D03*
X302000Y235500D02*
D03*
X255500Y207500D02*
D03*
X249000Y198000D02*
D03*
X281500Y191500D02*
D03*
X285000Y185000D02*
D03*
X282000Y213600D02*
D03*
X403200Y103500D02*
D03*
X110900Y107200D02*
D03*
X282300Y167600D02*
D03*
X403300Y76300D02*
D03*
X448300Y250800D02*
D03*
X310900Y129800D02*
D03*
X415700Y137200D02*
D03*
X307600Y138100D02*
D03*
X431850Y176200D02*
D03*
X286309Y206300D02*
D03*
X288709Y218500D02*
D03*
X137400Y106100D02*
D03*
X237000Y230709D02*
D03*
X396785Y101737D02*
D03*
X410100Y112227D02*
D03*
X102100Y135300D02*
D03*
X140100Y187500D02*
D03*
X198500Y138600D02*
D03*
X164000Y111600D02*
D03*
X397300D02*
D03*
M02*
