G04*
G04 #@! TF.GenerationSoftware,Altium Limited,Altium Designer,20.1.12 (249)*
G04*
G04 Layer_Color=16711935*
%FSLAX25Y25*%
%MOIN*%
G70*
G04*
G04 #@! TF.SameCoordinates,38D2292D-1979-4519-B741-68206640DF70*
G04*
G04*
G04 #@! TF.FilePolarity,Negative*
G04*
G01*
G75*
%ADD43R,0.06706X0.06706*%
%ADD44C,0.06706*%
%ADD45C,0.24422*%
%ADD46R,0.24422X0.24422*%
%ADD47R,0.06706X0.06706*%
%ADD48R,0.07887X0.07887*%
%ADD49C,0.07887*%
%ADD50C,0.08674*%
%ADD51R,0.08674X0.08674*%
%ADD52R,0.06312X0.06312*%
%ADD53C,0.06312*%
%ADD54C,0.08595*%
%ADD55C,0.08418*%
%ADD56R,0.08595X0.08595*%
%ADD57C,0.01981*%
%ADD58C,0.06737*%
%ADD59R,0.06737X0.06737*%
%ADD60C,0.04400*%
D43*
X66000Y124000D02*
D03*
X144000Y72000D02*
D03*
X260000D02*
D03*
X143500Y28500D02*
D03*
X198500Y28000D02*
D03*
X248000D02*
D03*
X106000Y67000D02*
D03*
Y27500D02*
D03*
D44*
X76000Y124000D02*
D03*
X86000D02*
D03*
X96000D02*
D03*
X106000D02*
D03*
X116000D02*
D03*
X154000Y72000D02*
D03*
X174000D02*
D03*
X184000D02*
D03*
X194000D02*
D03*
X204000D02*
D03*
X214000D02*
D03*
X224000D02*
D03*
X234000D02*
D03*
X164000D02*
D03*
X41000Y13000D02*
D03*
Y23000D02*
D03*
Y33000D02*
D03*
X280000Y72000D02*
D03*
X350000D02*
D03*
X340000D02*
D03*
X330000D02*
D03*
X320000D02*
D03*
X310000D02*
D03*
X300000D02*
D03*
X290000D02*
D03*
X270000D02*
D03*
X173500Y28500D02*
D03*
X163500D02*
D03*
X153500D02*
D03*
X218500Y28000D02*
D03*
X208500D02*
D03*
X398500Y33500D02*
D03*
Y23500D02*
D03*
X429500Y33500D02*
D03*
Y23500D02*
D03*
X323000Y16500D02*
D03*
X349500Y33500D02*
D03*
Y23500D02*
D03*
X298000Y28000D02*
D03*
X288000D02*
D03*
X278000D02*
D03*
X268000D02*
D03*
X258000D02*
D03*
X41000Y86000D02*
D03*
Y76000D02*
D03*
Y66000D02*
D03*
X96000Y67000D02*
D03*
X86000D02*
D03*
X76000D02*
D03*
X96000Y27500D02*
D03*
X86000D02*
D03*
X76000D02*
D03*
X152000Y192000D02*
D03*
Y202000D02*
D03*
Y212000D02*
D03*
D45*
X20000Y213000D02*
D03*
D46*
Y241346D02*
D03*
D47*
X41000Y43000D02*
D03*
X398500Y13500D02*
D03*
X429500D02*
D03*
X323000Y26500D02*
D03*
X349500Y13500D02*
D03*
X41000Y96000D02*
D03*
X152000Y182000D02*
D03*
D48*
X128000Y211000D02*
D03*
Y243000D02*
D03*
X55000Y211000D02*
D03*
Y243000D02*
D03*
D49*
X128000Y201000D02*
D03*
Y253000D02*
D03*
X55000Y201000D02*
D03*
Y253000D02*
D03*
D50*
X441000Y224091D02*
D03*
D51*
Y182909D02*
D03*
D52*
X439000Y237157D02*
D03*
D53*
Y247000D02*
D03*
Y256843D02*
D03*
D54*
X369378Y259516D02*
D03*
X416622D02*
D03*
Y211484D02*
D03*
D55*
X393000Y203610D02*
D03*
D56*
X369378Y211484D02*
D03*
D57*
X236675Y203957D02*
D03*
X229451D02*
D03*
X240287Y207569D02*
D03*
X233063D02*
D03*
X225839D02*
D03*
X236675Y211181D02*
D03*
X229451D02*
D03*
X240287Y214793D02*
D03*
X233063D02*
D03*
X225839D02*
D03*
X236675Y218406D02*
D03*
X229451D02*
D03*
D58*
X298705Y268858D02*
D03*
X324295D02*
D03*
X298705Y251142D02*
D03*
X180000Y253000D02*
D03*
X154409D02*
D03*
X180000Y270717D02*
D03*
D59*
X324295Y251142D02*
D03*
X154409Y270717D02*
D03*
D60*
X162500Y238000D02*
D03*
X393200Y93053D02*
D03*
X389350Y98200D02*
D03*
X390000Y105900D02*
D03*
X430500Y185500D02*
D03*
X426500Y191500D02*
D03*
X423500Y169500D02*
D03*
X416000Y166500D02*
D03*
X439500Y122500D02*
D03*
X432000Y119000D02*
D03*
X432500Y125500D02*
D03*
X432000Y131500D02*
D03*
X434500Y136000D02*
D03*
X440000Y138500D02*
D03*
X434500Y111500D02*
D03*
X435500Y98000D02*
D03*
X406500Y130500D02*
D03*
X408000Y123500D02*
D03*
X412000Y119000D02*
D03*
X401000Y130500D02*
D03*
X402000Y122500D02*
D03*
X397500Y117500D02*
D03*
X302000Y235500D02*
D03*
X255500Y207500D02*
D03*
X249000Y198000D02*
D03*
X281500Y191500D02*
D03*
X285000Y185000D02*
D03*
X282000Y213600D02*
D03*
X403200Y103500D02*
D03*
X110900Y107200D02*
D03*
X282300Y167600D02*
D03*
X403300Y76300D02*
D03*
X448300Y250800D02*
D03*
X310900Y129800D02*
D03*
X415700Y137200D02*
D03*
X307600Y138100D02*
D03*
X431850Y176200D02*
D03*
X286309Y206300D02*
D03*
X288709Y218500D02*
D03*
X137400Y106100D02*
D03*
X237000Y230709D02*
D03*
X396785Y101737D02*
D03*
X410100Y112227D02*
D03*
X102100Y135300D02*
D03*
X140100Y187500D02*
D03*
X198500Y138600D02*
D03*
X164000Y111600D02*
D03*
X397300D02*
D03*
M02*
