G04*
G04 #@! TF.GenerationSoftware,Altium Limited,Altium Designer,20.1.12 (249)*
G04*
G04 Layer_Color=16711935*
%FSLAX25Y25*%
%MOIN*%
G70*
G04*
G04 #@! TF.SameCoordinates,D2DC16A5-891C-47F1-9DBA-B4DE5785F593*
G04*
G04*
G04 #@! TF.FilePolarity,Negative*
G04*
G01*
G75*
%ADD52R,0.24422X0.24422*%
%ADD53C,0.24422*%
%ADD54O,0.08674X0.04737*%
%ADD55O,0.08674X0.04737*%
%ADD56C,0.06706*%
%ADD57R,0.06706X0.06706*%
%ADD58R,0.06706X0.06706*%
%ADD59C,0.08595*%
%ADD60C,0.08418*%
%ADD61R,0.08595X0.08595*%
%ADD62R,0.08674X0.08674*%
%ADD63C,0.08674*%
%ADD64C,0.01981*%
%ADD65C,0.06737*%
%ADD66R,0.06737X0.06737*%
%ADD67R,0.07887X0.07887*%
%ADD68C,0.07887*%
%ADD69C,0.04400*%
D52*
X25000Y238346D02*
D03*
D53*
Y210000D02*
D03*
D54*
X442000Y254500D02*
D03*
Y264500D02*
D03*
D55*
Y259500D02*
D03*
D56*
X218500Y28000D02*
D03*
X208500D02*
D03*
X398500Y33500D02*
D03*
Y23500D02*
D03*
X429500Y33500D02*
D03*
Y23500D02*
D03*
X323000Y16500D02*
D03*
X349500Y33500D02*
D03*
Y23500D02*
D03*
X298000Y28000D02*
D03*
X288000D02*
D03*
X278000D02*
D03*
X268000D02*
D03*
X258000D02*
D03*
X97000Y40000D02*
D03*
X87000D02*
D03*
X77000D02*
D03*
X97000Y73500D02*
D03*
X87000D02*
D03*
X77000D02*
D03*
X97000Y148000D02*
D03*
X87000D02*
D03*
X77000D02*
D03*
X97000Y111500D02*
D03*
X87000D02*
D03*
X77000D02*
D03*
X152000Y192000D02*
D03*
Y202000D02*
D03*
Y212000D02*
D03*
D57*
X198500Y28000D02*
D03*
X248000D02*
D03*
X107000Y40000D02*
D03*
Y73500D02*
D03*
Y148000D02*
D03*
Y111500D02*
D03*
D58*
X398500Y13500D02*
D03*
X429500D02*
D03*
X323000Y26500D02*
D03*
X349500Y13500D02*
D03*
X152000Y182000D02*
D03*
D59*
X371378Y258516D02*
D03*
X418622D02*
D03*
Y210484D02*
D03*
D60*
X395000Y202610D02*
D03*
D61*
X371378Y210484D02*
D03*
D62*
X442500Y197409D02*
D03*
D63*
Y238591D02*
D03*
D64*
X236675Y203957D02*
D03*
X229451D02*
D03*
X240287Y207569D02*
D03*
X233063D02*
D03*
X225839D02*
D03*
X236675Y211181D02*
D03*
X229451D02*
D03*
X240287Y214793D02*
D03*
X233063D02*
D03*
X225839D02*
D03*
X236675Y218406D02*
D03*
X229451D02*
D03*
D65*
X298705Y268858D02*
D03*
X324295D02*
D03*
X298705Y251142D02*
D03*
X180000Y253000D02*
D03*
X154409D02*
D03*
X180000Y270717D02*
D03*
D66*
X324295Y251142D02*
D03*
X154409Y270717D02*
D03*
D67*
X116500Y263000D02*
D03*
X84500D02*
D03*
X116500Y190000D02*
D03*
X84500D02*
D03*
D68*
X126500Y263000D02*
D03*
X74500D02*
D03*
X126500Y190000D02*
D03*
X74500D02*
D03*
D69*
X338500Y101500D02*
D03*
X321000Y84000D02*
D03*
X312000Y153500D02*
D03*
X319500Y153000D02*
D03*
X432500Y145500D02*
D03*
X430200Y150000D02*
D03*
X314500Y191000D02*
D03*
X286884Y111100D02*
D03*
X160000Y119500D02*
D03*
X108500Y85000D02*
D03*
X159563Y110700D02*
D03*
X282200Y229300D02*
D03*
X281500Y181500D02*
D03*
X257000Y184500D02*
D03*
X248500D02*
D03*
X414500Y121000D02*
D03*
X412500Y136000D02*
D03*
X412000Y130500D02*
D03*
X441000Y125000D02*
D03*
X437000Y131000D02*
D03*
X429500Y155000D02*
D03*
X436000Y157000D02*
D03*
X425000Y169500D02*
D03*
X428500Y114500D02*
D03*
X372900Y141000D02*
D03*
X382881Y84500D02*
D03*
X430000Y99500D02*
D03*
X425500Y73000D02*
D03*
X434000Y115500D02*
D03*
X397500Y143900D02*
D03*
X428000Y125500D02*
D03*
X406000Y139800D02*
D03*
X428000Y139500D02*
D03*
X403300Y114900D02*
D03*
X382000Y66600D02*
D03*
X380500Y166100D02*
D03*
X428500Y108500D02*
D03*
X432500Y86500D02*
D03*
X431500Y93500D02*
D03*
X432500Y122000D02*
D03*
X434000Y137000D02*
D03*
X429500Y131000D02*
D03*
X433400Y66000D02*
D03*
X369000Y66800D02*
D03*
X363400Y77500D02*
D03*
X443600Y168750D02*
D03*
X39800Y173500D02*
D03*
X166700Y136106D02*
D03*
X329500Y171800D02*
D03*
X256400Y145900D02*
D03*
X296100Y218600D02*
D03*
X219809Y221600D02*
D03*
X248200Y202000D02*
D03*
X283839Y70000D02*
D03*
X356800Y99300D02*
D03*
X321100Y120100D02*
D03*
X346000Y116200D02*
D03*
X208500Y43100D02*
D03*
X198500Y50400D02*
D03*
X271100Y43600D02*
D03*
X219600Y56400D02*
D03*
X325500Y38900D02*
D03*
X330500Y37700D02*
D03*
X276300Y42100D02*
D03*
X263300Y161900D02*
D03*
X310900Y70000D02*
D03*
X424600Y190400D02*
D03*
X351450Y115300D02*
D03*
X312500Y107100D02*
D03*
X288800Y97050D02*
D03*
X152000Y167200D02*
D03*
X159700Y63100D02*
D03*
X233000Y131700D02*
D03*
X212100Y131900D02*
D03*
X355950Y84500D02*
D03*
X148900Y76100D02*
D03*
X214400Y233000D02*
D03*
M02*
