G04*
G04 #@! TF.GenerationSoftware,Altium Limited,Altium Designer,20.1.12 (249)*
G04*
G04 Layer_Color=128*
%FSLAX25Y25*%
%MOIN*%
G70*
G04*
G04 #@! TF.SameCoordinates,D2DC16A5-891C-47F1-9DBA-B4DE5785F593*
G04*
G04*
G04 #@! TF.FilePolarity,Positive*
G04*
G01*
G75*
%ADD93C,0.00200*%
D93*
X16043Y238346D02*
X33957D01*
X25000Y229390D02*
Y247303D01*
X16043Y210000D02*
X33957D01*
X25000Y201043D02*
Y218957D01*
X440228Y254500D02*
X443772D01*
X442000Y252728D02*
Y256272D01*
X440228Y259500D02*
X443772D01*
X442000Y257728D02*
Y261272D01*
X440228Y264500D02*
X443772D01*
X442000Y262728D02*
Y266272D01*
X216728Y28000D02*
X220272D01*
X218500Y26228D02*
Y29772D01*
X206728Y28000D02*
X210272D01*
X208500Y26228D02*
Y29772D01*
X196728Y28000D02*
X200272D01*
X198500Y26228D02*
Y29772D01*
X396728Y33500D02*
X400272D01*
X398500Y31728D02*
Y35272D01*
X396728Y23500D02*
X400272D01*
X398500Y21728D02*
Y25272D01*
X396728Y13500D02*
X400272D01*
X398500Y11728D02*
Y15272D01*
X427728Y33500D02*
X431272D01*
X429500Y31728D02*
Y35272D01*
X427728Y23500D02*
X431272D01*
X429500Y21728D02*
Y25272D01*
X427728Y13500D02*
X431272D01*
X429500Y11728D02*
Y15272D01*
X321228Y16500D02*
X324772D01*
X323000Y14728D02*
Y18272D01*
X321228Y26500D02*
X324772D01*
X323000Y24728D02*
Y28272D01*
X347728Y33500D02*
X351272D01*
X349500Y31728D02*
Y35272D01*
X347728Y23500D02*
X351272D01*
X349500Y21728D02*
Y25272D01*
X347728Y13500D02*
X351272D01*
X349500Y11728D02*
Y15272D01*
X296228Y28000D02*
X299772D01*
X298000Y26228D02*
Y29772D01*
X286228Y28000D02*
X289772D01*
X288000Y26228D02*
Y29772D01*
X276228Y28000D02*
X279772D01*
X278000Y26228D02*
Y29772D01*
X266228Y28000D02*
X269772D01*
X268000Y26228D02*
Y29772D01*
X256228Y28000D02*
X259772D01*
X258000Y26228D02*
Y29772D01*
X246228Y28000D02*
X249772D01*
X248000Y26228D02*
Y29772D01*
X105228Y40000D02*
X108772D01*
X107000Y38228D02*
Y41772D01*
X95228Y40000D02*
X98772D01*
X97000Y38228D02*
Y41772D01*
X85228Y40000D02*
X88772D01*
X87000Y38228D02*
Y41772D01*
X75228Y40000D02*
X78772D01*
X77000Y38228D02*
Y41772D01*
X105228Y73500D02*
X108772D01*
X107000Y71728D02*
Y75272D01*
X95228Y73500D02*
X98772D01*
X97000Y71728D02*
Y75272D01*
X85228Y73500D02*
X88772D01*
X87000Y71728D02*
Y75272D01*
X75228Y73500D02*
X78772D01*
X77000Y71728D02*
Y75272D01*
X105228Y148000D02*
X108772D01*
X107000Y146228D02*
Y149772D01*
X95228Y148000D02*
X98772D01*
X97000Y146228D02*
Y149772D01*
X85228Y148000D02*
X88772D01*
X87000Y146228D02*
Y149772D01*
X75228Y148000D02*
X78772D01*
X77000Y146228D02*
Y149772D01*
X105228Y111500D02*
X108772D01*
X107000Y109728D02*
Y113272D01*
X95228Y111500D02*
X98772D01*
X97000Y109728D02*
Y113272D01*
X85228Y111500D02*
X88772D01*
X87000Y109728D02*
Y113272D01*
X75228Y111500D02*
X78772D01*
X77000Y109728D02*
Y113272D01*
X368780Y258516D02*
X373976D01*
X371378Y255917D02*
Y261114D01*
X416024Y258516D02*
X421220D01*
X418622Y255917D02*
Y261114D01*
X416024Y210484D02*
X421220D01*
X418622Y207886D02*
Y213083D01*
X392461Y202610D02*
X397539D01*
X395000Y200071D02*
Y205150D01*
X368780Y210484D02*
X373976D01*
X371378Y207886D02*
Y213083D01*
X440138Y197409D02*
X444862D01*
X442500Y195047D02*
Y199772D01*
X440138Y238591D02*
X444862D01*
X442500Y236228D02*
Y240953D01*
X236281Y203957D02*
X237069D01*
X236675Y203563D02*
Y204350D01*
X229057Y203957D02*
X229844D01*
X229451Y203563D02*
Y204350D01*
X239894Y207569D02*
X240681D01*
X240287Y207175D02*
Y207963D01*
X232669Y207569D02*
X233457D01*
X233063Y207175D02*
Y207963D01*
X225445Y207569D02*
X226232D01*
X225839Y207175D02*
Y207963D01*
X236281Y211181D02*
X237069D01*
X236675Y210788D02*
Y211575D01*
X229057Y211181D02*
X229844D01*
X229451Y210788D02*
Y211575D01*
X239894Y214793D02*
X240681D01*
X240287Y214400D02*
Y215187D01*
X232669Y214793D02*
X233457D01*
X233063Y214400D02*
Y215187D01*
X225445Y214793D02*
X226232D01*
X225839Y214400D02*
Y215187D01*
X236281Y218406D02*
X237069D01*
X236675Y218012D02*
Y218799D01*
X229057Y218406D02*
X229844D01*
X229451Y218012D02*
Y218799D01*
X296736Y268858D02*
X300673D01*
X298705Y266890D02*
Y270827D01*
X322327Y268858D02*
X326264D01*
X324295Y266890D02*
Y270827D01*
X296736Y251142D02*
X300673D01*
X298705Y249173D02*
Y253110D01*
X322327Y251142D02*
X326264D01*
X324295Y249173D02*
Y253110D01*
X178032Y253000D02*
X181968D01*
X180000Y251031D02*
Y254969D01*
X152441Y253000D02*
X156378D01*
X154409Y251031D02*
Y254969D01*
X178032Y270717D02*
X181968D01*
X180000Y268748D02*
Y272685D01*
X152441Y270717D02*
X156378D01*
X154409Y268748D02*
Y272685D01*
X150228Y182000D02*
X153772D01*
X152000Y180228D02*
Y183772D01*
X150228Y192000D02*
X153772D01*
X152000Y190228D02*
Y193772D01*
X150228Y202000D02*
X153772D01*
X152000Y200228D02*
Y203772D01*
X150228Y212000D02*
X153772D01*
X152000Y210228D02*
Y213772D01*
X114138Y263000D02*
X118862D01*
X116500Y260638D02*
Y265362D01*
X124138Y263000D02*
X128862D01*
X126500Y260638D02*
Y265362D01*
X82138Y263000D02*
X86862D01*
X84500Y260638D02*
Y265362D01*
X72138Y263000D02*
X76862D01*
X74500Y260638D02*
Y265362D01*
X114138Y190000D02*
X118862D01*
X116500Y187638D02*
Y192362D01*
X124138Y190000D02*
X128862D01*
X126500Y187638D02*
Y192362D01*
X82138Y190000D02*
X86862D01*
X84500Y187638D02*
Y192362D01*
X72138Y190000D02*
X76862D01*
X74500Y187638D02*
Y192362D01*
X337550Y101500D02*
X339450D01*
X338500Y100550D02*
Y102450D01*
X320050Y84000D02*
X321950D01*
X321000Y83050D02*
Y84950D01*
X311050Y153500D02*
X312950D01*
X312000Y152550D02*
Y154450D01*
X318550Y153000D02*
X320450D01*
X319500Y152050D02*
Y153950D01*
X431550Y145500D02*
X433450D01*
X432500Y144550D02*
Y146450D01*
X429250Y150000D02*
X431150D01*
X430200Y149050D02*
Y150950D01*
X313550Y191000D02*
X315450D01*
X314500Y190050D02*
Y191950D01*
X285934Y111100D02*
X287834D01*
X286884Y110150D02*
Y112050D01*
X159050Y119500D02*
X160950D01*
X160000Y118550D02*
Y120450D01*
X107550Y85000D02*
X109450D01*
X108500Y84050D02*
Y85950D01*
X158613Y110700D02*
X160513D01*
X159563Y109750D02*
Y111650D01*
X281250Y229300D02*
X283150D01*
X282200Y228350D02*
Y230250D01*
X280550Y181500D02*
X282450D01*
X281500Y180550D02*
Y182450D01*
X256050Y184500D02*
X257950D01*
X257000Y183550D02*
Y185450D01*
X247550Y184500D02*
X249450D01*
X248500Y183550D02*
Y185450D01*
X413550Y121000D02*
X415450D01*
X414500Y120050D02*
Y121950D01*
X411550Y136000D02*
X413450D01*
X412500Y135050D02*
Y136950D01*
X411050Y130500D02*
X412950D01*
X412000Y129550D02*
Y131450D01*
X440050Y125000D02*
X441950D01*
X441000Y124050D02*
Y125950D01*
X436050Y131000D02*
X437950D01*
X437000Y130050D02*
Y131950D01*
X428550Y155000D02*
X430450D01*
X429500Y154050D02*
Y155950D01*
X435050Y157000D02*
X436950D01*
X436000Y156050D02*
Y157950D01*
X424050Y169500D02*
X425950D01*
X425000Y168550D02*
Y170450D01*
X427550Y114500D02*
X429450D01*
X428500Y113550D02*
Y115450D01*
X371950Y141000D02*
X373850D01*
X372900Y140050D02*
Y141950D01*
X381931Y84500D02*
X383831D01*
X382881Y83550D02*
Y85450D01*
X429050Y99500D02*
X430950D01*
X430000Y98550D02*
Y100450D01*
X424550Y73000D02*
X426450D01*
X425500Y72050D02*
Y73950D01*
X433050Y115500D02*
X434950D01*
X434000Y114550D02*
Y116450D01*
X396550Y143900D02*
X398450D01*
X397500Y142950D02*
Y144850D01*
X427050Y125500D02*
X428950D01*
X428000Y124550D02*
Y126450D01*
X405050Y139800D02*
X406950D01*
X406000Y138850D02*
Y140750D01*
X427050Y139500D02*
X428950D01*
X428000Y138550D02*
Y140450D01*
X402350Y114900D02*
X404250D01*
X403300Y113950D02*
Y115850D01*
X381050Y66600D02*
X382950D01*
X382000Y65650D02*
Y67550D01*
X379550Y166100D02*
X381450D01*
X380500Y165150D02*
Y167050D01*
X427550Y108500D02*
X429450D01*
X428500Y107550D02*
Y109450D01*
X431550Y86500D02*
X433450D01*
X432500Y85550D02*
Y87450D01*
X430550Y93500D02*
X432450D01*
X431500Y92550D02*
Y94450D01*
X431550Y122000D02*
X433450D01*
X432500Y121050D02*
Y122950D01*
X433050Y137000D02*
X434950D01*
X434000Y136050D02*
Y137950D01*
X428550Y131000D02*
X430450D01*
X429500Y130050D02*
Y131950D01*
X432450Y66000D02*
X434350D01*
X433400Y65050D02*
Y66950D01*
X368050Y66800D02*
X369950D01*
X369000Y65850D02*
Y67750D01*
X362450Y77500D02*
X364350D01*
X363400Y76550D02*
Y78450D01*
X442650Y168750D02*
X444550D01*
X443600Y167800D02*
Y169700D01*
X38850Y173500D02*
X40750D01*
X39800Y172550D02*
Y174450D01*
X165750Y136106D02*
X167650D01*
X166700Y135156D02*
Y137056D01*
X328550Y171800D02*
X330450D01*
X329500Y170850D02*
Y172750D01*
X255450Y145900D02*
X257350D01*
X256400Y144950D02*
Y146850D01*
X295150Y218600D02*
X297050D01*
X296100Y217650D02*
Y219550D01*
X218859Y221600D02*
X220759D01*
X219809Y220650D02*
Y222550D01*
X247250Y202000D02*
X249150D01*
X248200Y201050D02*
Y202950D01*
X282889Y70000D02*
X284789D01*
X283839Y69050D02*
Y70950D01*
X355850Y99300D02*
X357750D01*
X356800Y98350D02*
Y100250D01*
X320150Y120100D02*
X322050D01*
X321100Y119150D02*
Y121050D01*
X345050Y116200D02*
X346950D01*
X346000Y115250D02*
Y117150D01*
X207550Y43100D02*
X209450D01*
X208500Y42150D02*
Y44050D01*
X197550Y50400D02*
X199450D01*
X198500Y49450D02*
Y51350D01*
X270150Y43600D02*
X272050D01*
X271100Y42650D02*
Y44550D01*
X218650Y56400D02*
X220550D01*
X219600Y55450D02*
Y57350D01*
X324550Y38900D02*
X326450D01*
X325500Y37950D02*
Y39850D01*
X329550Y37700D02*
X331450D01*
X330500Y36750D02*
Y38650D01*
X275350Y42100D02*
X277250D01*
X276300Y41150D02*
Y43050D01*
X262350Y161900D02*
X264250D01*
X263300Y160950D02*
Y162850D01*
X309950Y70000D02*
X311850D01*
X310900Y69050D02*
Y70950D01*
X423650Y190400D02*
X425550D01*
X424600Y189450D02*
Y191350D01*
X350500Y115300D02*
X352400D01*
X351450Y114350D02*
Y116250D01*
X311550Y107100D02*
X313450D01*
X312500Y106150D02*
Y108050D01*
X287850Y97050D02*
X289750D01*
X288800Y96100D02*
Y98000D01*
X151050Y167200D02*
X152950D01*
X152000Y166250D02*
Y168150D01*
X158750Y63100D02*
X160650D01*
X159700Y62150D02*
Y64050D01*
X232050Y131700D02*
X233950D01*
X233000Y130750D02*
Y132650D01*
X211150Y131900D02*
X213050D01*
X212100Y130950D02*
Y132850D01*
X355000Y84500D02*
X356900D01*
X355950Y83550D02*
Y85450D01*
X147950Y76100D02*
X149850D01*
X148900Y75150D02*
Y77050D01*
X213450Y233000D02*
X215350D01*
X214400Y232050D02*
Y233950D01*
M02*
