M48
;Layer_Color=9474304
;FILE_FORMAT=2:4
INCH,LZ
;TYPE=PLATED
T1F00S00C0.0079
T2F00S00C0.0190
T3F00S00C0.0354
T4F00S00C0.0394
T5F00S00C0.0472
T6F00S00C0.0508
T7F00S00C0.0520
T8F00S00C0.1791
%
T01
X022945Y020396
X023668
X024029Y020757
X023306
X022584
X022945Y021118
X023668
X024029Y021479
X023306
X022584
X022945Y021841
X023668
T02
X01085Y0085
X01489Y00761
X01597Y00631
X015956Y01107
X016Y01195
X01667Y013611
X02121Y01319
X0233Y01317
X02564Y01459
X0312Y01535
X028688Y01111
X02888Y009705
X028384Y007
X03109
X02763Y00421
X02711Y00436
X02085Y00431
X01985Y00504
X02196Y00564
X03255Y00389
X03305Y00377
X0321Y0084
X03125Y01071
X03211Y01201
X0346Y01162
X035145Y01153
X03568Y00993
X035595Y00845
X03634Y00775
X0369Y00668
X0382Y00666
X038288Y00845
X04033Y01149
X04145Y0121
X0412Y01305
X04125Y0136
X0406Y01398
X03975Y01439
X03729Y0141
X0428Y01395
X0434Y0137
X0437Y0131
X04295
X0428Y01255
X04325Y0122
X0434Y01155
X04285Y01145
Y01085
X043Y00995
X04315Y00935
X04325Y00865
X04255Y0073
X04334Y0066
X0441Y0125
X04325Y01455
X04302Y015
X04295Y0155
X03195Y0153
X03385Y01015
X03295Y01718
X03145Y0191
X03805Y01661
X0425Y01695
X04436Y016875
X0436Y0157
X04246Y01904
X02815Y01815
X0257Y01845
X02485
X02482Y0202
X021981Y02216
X02144Y0233
X02822Y02293
X02961Y02186
X02633Y01619
X0152Y01672
X00398Y01735
T03
X0077Y004
X0087
X0097
X0107
Y00735
X0097
X0087
X0077
Y01115
X0087
X0097
X0107
Y0148
X0097
X0087
X0077
X01985Y0028
X02085
X02185
X0248
X0258
X0268
X0278
X0288
X0298
X0323Y00265
Y00165
X03495Y00135
Y00235
Y00335
X03985
Y00235
Y00135
X04295
Y00235
Y00335
X0442Y02545
Y02595
Y02645
X0152Y0212
Y0202
Y0192
Y0182
T04
X03243Y025114
Y026886
X02987
Y025114
X018Y0253
Y027072
X015441
Y0253
T05
X04425Y019741
Y023859
X01265Y0263
X01165
X00845
X00745
Y019
X00845
X01165
X01265
T06
X0395Y020261
T07
X037138Y021048
X041862
Y025852
X037138
T08
X0025Y021
Y023835
M30
