G04*
G04 #@! TF.GenerationSoftware,Altium Limited,Altium Designer,20.1.12 (249)*
G04*
G04 Layer_Physical_Order=2*
G04 Layer_Color=16711680*
%FSLAX25Y25*%
%MOIN*%
G70*
G04*
G04 #@! TF.SameCoordinates,D2DC16A5-891C-47F1-9DBA-B4DE5785F593*
G04*
G04*
G04 #@! TF.FilePolarity,Positive*
G04*
G01*
G75*
%ADD14C,0.00600*%
%ADD71R,0.23622X0.23622*%
%ADD72C,0.23622*%
%ADD73O,0.07874X0.03937*%
%ADD74O,0.07874X0.03937*%
%ADD75C,0.05906*%
%ADD76R,0.05906X0.05906*%
%ADD77R,0.05906X0.05906*%
%ADD78C,0.07795*%
%ADD79C,0.07618*%
%ADD80R,0.07795X0.07795*%
%ADD81R,0.07874X0.07874*%
%ADD82C,0.07874*%
%ADD83C,0.01181*%
%ADD84C,0.05937*%
%ADD85R,0.05937X0.05937*%
%ADD86R,0.07087X0.07087*%
%ADD87C,0.07087*%
%ADD88C,0.03600*%
G36*
X451500Y1000D02*
X854D01*
X501Y1354D01*
X1000Y275000D01*
X451500D01*
Y1000D01*
D02*
G37*
%LPC*%
G36*
X324795Y272795D02*
Y269358D01*
X328232D01*
X328162Y269894D01*
X327762Y270860D01*
X327126Y271689D01*
X326297Y272325D01*
X325331Y272725D01*
X324795Y272795D01*
D02*
G37*
G36*
X323795D02*
X323259Y272725D01*
X322294Y272325D01*
X321465Y271689D01*
X320829Y270860D01*
X320429Y269894D01*
X320358Y269358D01*
X323795D01*
Y272795D01*
D02*
G37*
G36*
X157978Y274285D02*
X150841D01*
Y267148D01*
X157978D01*
Y274285D01*
D02*
G37*
G36*
X180000Y274316D02*
X179068Y274193D01*
X178200Y273834D01*
X177455Y273262D01*
X176883Y272516D01*
X176523Y271648D01*
X176401Y270717D01*
X176523Y269785D01*
X176883Y268917D01*
X177455Y268172D01*
X178200Y267600D01*
X179068Y267240D01*
X180000Y267117D01*
X180932Y267240D01*
X181800Y267600D01*
X182545Y268172D01*
X183117Y268917D01*
X183477Y269785D01*
X183599Y270717D01*
X183477Y271648D01*
X183117Y272516D01*
X182545Y273262D01*
X181800Y273834D01*
X180932Y274193D01*
X180000Y274316D01*
D02*
G37*
G36*
X298705Y272458D02*
X297773Y272335D01*
X296905Y271975D01*
X296160Y271403D01*
X295588Y270658D01*
X295228Y269790D01*
X295106Y268858D01*
X295228Y267927D01*
X295588Y267059D01*
X296160Y266313D01*
X296905Y265741D01*
X297773Y265382D01*
X298705Y265259D01*
X299636Y265382D01*
X300504Y265741D01*
X301250Y266313D01*
X301822Y267059D01*
X302181Y267927D01*
X302304Y268858D01*
X302181Y269790D01*
X301822Y270658D01*
X301250Y271403D01*
X300504Y271975D01*
X299636Y272335D01*
X298705Y272458D01*
D02*
G37*
G36*
X328232Y268358D02*
X324795D01*
Y264921D01*
X325331Y264992D01*
X326297Y265392D01*
X327126Y266028D01*
X327762Y266857D01*
X328162Y267822D01*
X328232Y268358D01*
D02*
G37*
G36*
X323795D02*
X320358D01*
X320429Y267822D01*
X320829Y266857D01*
X321465Y266028D01*
X322294Y265392D01*
X323259Y264992D01*
X323795Y264921D01*
Y268358D01*
D02*
G37*
G36*
X126500Y267179D02*
X125418Y267037D01*
X124410Y266619D01*
X123545Y265955D01*
X122881Y265090D01*
X122463Y264082D01*
X122442Y263918D01*
X120643D01*
Y267143D01*
X112357D01*
Y260154D01*
X91466Y239264D01*
X37411D01*
Y250757D01*
X12589D01*
Y225935D01*
X37411D01*
Y237429D01*
X91846D01*
X92198Y237499D01*
X92495Y237698D01*
X113654Y258857D01*
X120643D01*
Y262082D01*
X122442D01*
X122463Y261918D01*
X122881Y260911D01*
X123545Y260045D01*
X124410Y259381D01*
X125418Y258963D01*
X126500Y258821D01*
X127582Y258963D01*
X128589Y259381D01*
X129455Y260045D01*
X130119Y260911D01*
X130537Y261918D01*
X130679Y263000D01*
X130537Y264082D01*
X130119Y265090D01*
X129455Y265955D01*
X128589Y266619D01*
X127582Y267037D01*
X126500Y267179D01*
D02*
G37*
G36*
X75000Y267517D02*
Y263500D01*
X79017D01*
X78926Y264186D01*
X78469Y265291D01*
X77740Y266240D01*
X76791Y266969D01*
X75686Y267426D01*
X75000Y267517D01*
D02*
G37*
G36*
X89043Y267543D02*
X85000D01*
Y263500D01*
X89043D01*
Y267543D01*
D02*
G37*
G36*
X74000Y267517D02*
X73314Y267426D01*
X72209Y266969D01*
X71260Y266240D01*
X70531Y265291D01*
X70074Y264186D01*
X69983Y263500D01*
X74000D01*
Y267517D01*
D02*
G37*
G36*
X84000Y267543D02*
X79957D01*
Y263500D01*
X84000D01*
Y267543D01*
D02*
G37*
G36*
X79017Y262500D02*
X75000D01*
Y258483D01*
X75686Y258574D01*
X76791Y259031D01*
X77740Y259760D01*
X78469Y260709D01*
X78926Y261814D01*
X79017Y262500D01*
D02*
G37*
G36*
X74000D02*
X69983D01*
X70074Y261814D01*
X70531Y260709D01*
X71260Y259760D01*
X72209Y259031D01*
X73314Y258574D01*
X74000Y258483D01*
Y262500D01*
D02*
G37*
G36*
X89043D02*
X85000D01*
Y258457D01*
X89043D01*
Y262500D01*
D02*
G37*
G36*
X84000D02*
X79957D01*
Y258457D01*
X84000D01*
Y262500D01*
D02*
G37*
G36*
X443968Y267091D02*
X440031D01*
X439361Y267002D01*
X438736Y266744D01*
X438200Y266332D01*
X437788Y265795D01*
X437529Y265171D01*
X437441Y264500D01*
X437529Y263829D01*
X437788Y263205D01*
X438200Y262668D01*
X438712Y262275D01*
X438752Y262005D01*
Y261995D01*
X438712Y261725D01*
X438200Y261332D01*
X437788Y260795D01*
X437529Y260171D01*
X437441Y259500D01*
X437529Y258829D01*
X437788Y258205D01*
X438200Y257668D01*
X438346Y257556D01*
X438376Y257482D01*
X438331Y256937D01*
X437914Y256617D01*
X437438Y255997D01*
X437139Y255275D01*
X437103Y255000D01*
X446897D01*
X446861Y255275D01*
X446561Y255997D01*
X446086Y256617D01*
X445669Y256937D01*
X445624Y257482D01*
X445654Y257556D01*
X445800Y257668D01*
X446212Y258205D01*
X446471Y258829D01*
X446559Y259500D01*
X446471Y260171D01*
X446212Y260795D01*
X445800Y261332D01*
X445288Y261725D01*
X445248Y261995D01*
Y262005D01*
X445288Y262275D01*
X445800Y262668D01*
X446212Y263205D01*
X446471Y263829D01*
X446559Y264500D01*
X446471Y265171D01*
X446212Y265795D01*
X445800Y266332D01*
X445264Y266744D01*
X444639Y267002D01*
X443968Y267091D01*
D02*
G37*
G36*
X154909Y256937D02*
Y253500D01*
X158346D01*
X158276Y254036D01*
X157876Y255001D01*
X157240Y255830D01*
X156411Y256467D01*
X155445Y256866D01*
X154909Y256937D01*
D02*
G37*
G36*
X153909D02*
X153373Y256866D01*
X152408Y256467D01*
X151579Y255830D01*
X150943Y255001D01*
X150543Y254036D01*
X150472Y253500D01*
X153909D01*
Y256937D01*
D02*
G37*
G36*
X446897Y254000D02*
X442500D01*
Y251506D01*
X443968D01*
X444743Y251608D01*
X445466Y251907D01*
X446086Y252383D01*
X446561Y253003D01*
X446861Y253725D01*
X446897Y254000D01*
D02*
G37*
G36*
X441500D02*
X437103D01*
X437139Y253725D01*
X437438Y253003D01*
X437914Y252383D01*
X438534Y251907D01*
X439256Y251608D01*
X440031Y251506D01*
X441500D01*
Y254000D01*
D02*
G37*
G36*
X180000Y256599D02*
X179068Y256477D01*
X178200Y256117D01*
X177455Y255545D01*
X176883Y254800D01*
X176523Y253932D01*
X176401Y253000D01*
X176523Y252068D01*
X176883Y251200D01*
X177455Y250455D01*
X178200Y249883D01*
X179068Y249523D01*
X180000Y249401D01*
X180932Y249523D01*
X181800Y249883D01*
X182545Y250455D01*
X183117Y251200D01*
X183477Y252068D01*
X183599Y253000D01*
X183477Y253932D01*
X183117Y254800D01*
X182545Y255545D01*
X181800Y256117D01*
X180932Y256477D01*
X180000Y256599D01*
D02*
G37*
G36*
X158346Y252500D02*
X154909D01*
Y249063D01*
X155445Y249134D01*
X156411Y249534D01*
X157240Y250170D01*
X157876Y250999D01*
X158276Y251964D01*
X158346Y252500D01*
D02*
G37*
G36*
X153909D02*
X150472D01*
X150543Y251964D01*
X150943Y250999D01*
X151579Y250170D01*
X152408Y249534D01*
X153373Y249134D01*
X153909Y249063D01*
Y252500D01*
D02*
G37*
G36*
X327864Y254710D02*
X320727D01*
Y247573D01*
X327864D01*
Y254710D01*
D02*
G37*
G36*
X298705Y254741D02*
X297773Y254618D01*
X296905Y254259D01*
X296160Y253687D01*
X295588Y252941D01*
X295228Y252073D01*
X295106Y251142D01*
X295228Y250210D01*
X295588Y249342D01*
X296160Y248597D01*
X296905Y248025D01*
X297773Y247665D01*
X298705Y247543D01*
X299636Y247665D01*
X300504Y248025D01*
X301250Y248597D01*
X301822Y249342D01*
X302181Y250210D01*
X302304Y251142D01*
X302181Y252073D01*
X301822Y252941D01*
X301250Y253687D01*
X300504Y254259D01*
X299636Y254618D01*
X298705Y254741D01*
D02*
G37*
G36*
X272433Y270846D02*
X201567D01*
X201108Y270656D01*
X200918Y270197D01*
Y245394D01*
X201108Y244935D01*
X201567Y244744D01*
X272433D01*
X272892Y244935D01*
X273082Y245394D01*
Y270197D01*
X272892Y270656D01*
X272433Y270846D01*
D02*
G37*
G36*
X442500Y243167D02*
X441316Y243011D01*
X440212Y242554D01*
X439264Y241826D01*
X438537Y240879D01*
X438080Y239775D01*
X437924Y238591D01*
X438080Y237406D01*
X438537Y236302D01*
X439264Y235355D01*
X440212Y234628D01*
X441316Y234170D01*
X442500Y234014D01*
X443684Y234170D01*
X444788Y234628D01*
X445736Y235355D01*
X446463Y236302D01*
X446920Y237406D01*
X447076Y238591D01*
X446920Y239775D01*
X446463Y240879D01*
X445736Y241826D01*
X444788Y242554D01*
X443684Y243011D01*
X442500Y243167D01*
D02*
G37*
G36*
X214400Y235447D02*
X213464Y235261D01*
X212670Y234730D01*
X212139Y233936D01*
X211953Y233000D01*
X212139Y232064D01*
X212670Y231270D01*
X213464Y230739D01*
X214400Y230553D01*
X215336Y230739D01*
X215352Y230750D01*
X217451Y228651D01*
X217749Y228452D01*
X218100Y228382D01*
X279936D01*
X279939Y228364D01*
X280470Y227570D01*
X281264Y227039D01*
X282200Y226853D01*
X283136Y227039D01*
X283930Y227570D01*
X284461Y228364D01*
X284647Y229300D01*
X284461Y230236D01*
X283930Y231030D01*
X283136Y231561D01*
X282200Y231747D01*
X281264Y231561D01*
X280470Y231030D01*
X279939Y230236D01*
X279936Y230218D01*
X218480D01*
X216650Y232048D01*
X216661Y232064D01*
X216847Y233000D01*
X216661Y233936D01*
X216130Y234730D01*
X215336Y235261D01*
X214400Y235447D01*
D02*
G37*
G36*
X237175Y219928D02*
Y218906D01*
X238197D01*
X238174Y219026D01*
X237822Y219552D01*
X237296Y219904D01*
X237175Y219928D01*
D02*
G37*
G36*
X236175D02*
X236055Y219904D01*
X235528Y219552D01*
X235177Y219026D01*
X235153Y218906D01*
X236175D01*
Y219928D01*
D02*
G37*
G36*
X229951D02*
Y218906D01*
X230973D01*
X230949Y219026D01*
X230597Y219552D01*
X230071Y219904D01*
X229951Y219928D01*
D02*
G37*
G36*
X228951D02*
X228830Y219904D01*
X228304Y219552D01*
X227953Y219026D01*
X227928Y218906D01*
X228951D01*
Y219928D01*
D02*
G37*
G36*
X238197Y217906D02*
X237175D01*
Y216883D01*
X237296Y216907D01*
X237822Y217259D01*
X238174Y217785D01*
X238197Y217906D01*
D02*
G37*
G36*
X236175D02*
X235153D01*
X235177Y217785D01*
X235528Y217259D01*
X236055Y216907D01*
X236175Y216883D01*
Y217906D01*
D02*
G37*
G36*
X230973D02*
X229951D01*
Y216883D01*
X230071Y216907D01*
X230597Y217259D01*
X230949Y217785D01*
X230973Y217906D01*
D02*
G37*
G36*
X228951D02*
X227928D01*
X227953Y217785D01*
X228304Y217259D01*
X228830Y216907D01*
X228951Y216883D01*
Y217906D01*
D02*
G37*
G36*
X219809Y224047D02*
X218872Y223861D01*
X218078Y223330D01*
X217548Y222536D01*
X217362Y221600D01*
X217548Y220664D01*
X218078Y219870D01*
X218872Y219339D01*
X219809Y219153D01*
X220745Y219339D01*
X221539Y219870D01*
X222069Y220664D01*
X222073Y220682D01*
X292720D01*
X293850Y219552D01*
X293839Y219536D01*
X293653Y218600D01*
X293839Y217664D01*
X294370Y216870D01*
X295164Y216339D01*
X296100Y216153D01*
X297036Y216339D01*
X297830Y216870D01*
X298361Y217664D01*
X298547Y218600D01*
X298361Y219536D01*
X297830Y220330D01*
X297036Y220861D01*
X296100Y221047D01*
X295164Y220861D01*
X295148Y220850D01*
X293749Y222249D01*
X293451Y222448D01*
X293100Y222518D01*
X222073D01*
X222069Y222536D01*
X221539Y223330D01*
X220745Y223861D01*
X219809Y224047D01*
D02*
G37*
G36*
X240787Y216316D02*
Y215293D01*
X241810D01*
X241786Y215414D01*
X241434Y215940D01*
X240908Y216292D01*
X240787Y216316D01*
D02*
G37*
G36*
X239787D02*
X239667Y216292D01*
X239141Y215940D01*
X238789Y215414D01*
X238765Y215293D01*
X239787D01*
Y216316D01*
D02*
G37*
G36*
X233563D02*
Y215293D01*
X234585D01*
X234561Y215414D01*
X234210Y215940D01*
X233684Y216292D01*
X233563Y216316D01*
D02*
G37*
G36*
X232563D02*
X232442Y216292D01*
X231916Y215940D01*
X231565Y215414D01*
X231541Y215293D01*
X232563D01*
Y216316D01*
D02*
G37*
G36*
X226339D02*
Y215293D01*
X227361D01*
X227337Y215414D01*
X226985Y215940D01*
X226459Y216292D01*
X226339Y216316D01*
D02*
G37*
G36*
X225339D02*
X225218Y216292D01*
X224692Y215940D01*
X224340Y215414D01*
X224316Y215293D01*
X225339D01*
Y216316D01*
D02*
G37*
G36*
X241810Y214293D02*
X240787D01*
Y213271D01*
X240908Y213295D01*
X241434Y213647D01*
X241786Y214173D01*
X241810Y214293D01*
D02*
G37*
G36*
X239787D02*
X238765D01*
X238789Y214173D01*
X239141Y213647D01*
X239667Y213295D01*
X239787Y213271D01*
Y214293D01*
D02*
G37*
G36*
X234585D02*
X233563D01*
Y213271D01*
X233684Y213295D01*
X234210Y213647D01*
X234561Y214173D01*
X234585Y214293D01*
D02*
G37*
G36*
X232563D02*
X231541D01*
X231565Y214173D01*
X231916Y213647D01*
X232442Y213295D01*
X232563Y213271D01*
Y214293D01*
D02*
G37*
G36*
X227361D02*
X226339D01*
Y213271D01*
X226459Y213295D01*
X226985Y213647D01*
X227337Y214173D01*
X227361Y214293D01*
D02*
G37*
G36*
X225339D02*
X224316D01*
X224340Y214173D01*
X224692Y213647D01*
X225218Y213295D01*
X225339Y213271D01*
Y214293D01*
D02*
G37*
G36*
X237175Y212703D02*
Y211681D01*
X238197D01*
X238174Y211802D01*
X237822Y212328D01*
X237296Y212680D01*
X237175Y212703D01*
D02*
G37*
G36*
X236175D02*
X236055Y212680D01*
X235528Y212328D01*
X235177Y211802D01*
X235153Y211681D01*
X236175D01*
Y212703D01*
D02*
G37*
G36*
X229951D02*
Y211681D01*
X230973D01*
X230949Y211802D01*
X230597Y212328D01*
X230071Y212680D01*
X229951Y212703D01*
D02*
G37*
G36*
X228951D02*
X228830Y212680D01*
X228304Y212328D01*
X227953Y211802D01*
X227928Y211681D01*
X228951D01*
Y212703D01*
D02*
G37*
G36*
X418622Y263052D02*
X417448Y262898D01*
X416354Y262444D01*
X415414Y261723D01*
X414693Y260784D01*
X414240Y259690D01*
X414085Y258516D01*
X414240Y257342D01*
X414693Y256248D01*
X415414Y255308D01*
X416354Y254587D01*
X417448Y254134D01*
X417704Y254100D01*
Y244678D01*
X417774Y244327D01*
X417973Y244029D01*
X448882Y213120D01*
Y211569D01*
X448420Y211377D01*
X400633Y259165D01*
X400335Y259364D01*
X399984Y259433D01*
X375794D01*
X375760Y259690D01*
X375307Y260784D01*
X374586Y261723D01*
X373646Y262444D01*
X372552Y262898D01*
X371378Y263052D01*
X370204Y262898D01*
X369110Y262444D01*
X368170Y261723D01*
X367449Y260784D01*
X366996Y259690D01*
X366842Y258516D01*
X366996Y257342D01*
X367449Y256248D01*
X368170Y255308D01*
X369110Y254587D01*
X370204Y254134D01*
X371378Y253979D01*
X372552Y254134D01*
X373646Y254587D01*
X374586Y255308D01*
X375307Y256248D01*
X375760Y257342D01*
X375794Y257598D01*
X399604D01*
X447682Y209520D01*
Y203962D01*
X447300Y203528D01*
X399326D01*
X399296Y203761D01*
X398851Y204834D01*
X398145Y205755D01*
X397223Y206462D01*
X396151Y206906D01*
X395000Y207057D01*
X393849Y206906D01*
X392776Y206462D01*
X391855Y205755D01*
X391149Y204834D01*
X390704Y203761D01*
X390553Y202610D01*
X390704Y201459D01*
X391149Y200387D01*
X391855Y199466D01*
X392688Y198827D01*
X392603Y198327D01*
X384833D01*
X375876Y207284D01*
Y214982D01*
X366880D01*
Y207284D01*
X347214Y187618D01*
X287280D01*
X278349Y196549D01*
X278051Y196748D01*
X277700Y196818D01*
X132400D01*
X132049Y196748D01*
X131751Y196549D01*
X128721Y193518D01*
X128589Y193619D01*
X127582Y194037D01*
X126500Y194179D01*
X125418Y194037D01*
X124410Y193619D01*
X123545Y192955D01*
X122881Y192089D01*
X122463Y191082D01*
X122442Y190918D01*
X120643D01*
Y194143D01*
X112357D01*
Y185857D01*
X120643D01*
Y189082D01*
X122442D01*
X122463Y188918D01*
X122881Y187910D01*
X123545Y187045D01*
X124410Y186381D01*
X125418Y185963D01*
X126500Y185821D01*
X127582Y185963D01*
X128589Y186381D01*
X129455Y187045D01*
X130119Y187910D01*
X130537Y188918D01*
X130679Y190000D01*
X130537Y191082D01*
X130119Y192089D01*
X130018Y192221D01*
X132780Y194982D01*
X149314D01*
X149328Y194940D01*
X149427Y194482D01*
X148897Y193792D01*
X148539Y192927D01*
X148417Y192000D01*
X148539Y191073D01*
X148897Y190208D01*
X149466Y189466D01*
X150208Y188897D01*
X151073Y188539D01*
X152000Y188417D01*
X152927Y188539D01*
X153792Y188897D01*
X153800Y188903D01*
X154982Y187720D01*
Y185953D01*
X152500D01*
Y182000D01*
Y178047D01*
X154982D01*
Y175380D01*
X154020Y174418D01*
X42064D01*
X42061Y174436D01*
X41530Y175230D01*
X40736Y175761D01*
X39800Y175947D01*
X38864Y175761D01*
X38070Y175230D01*
X37539Y174436D01*
X37353Y173500D01*
X37539Y172564D01*
X38070Y171770D01*
X38864Y171239D01*
X39800Y171053D01*
X40736Y171239D01*
X41530Y171770D01*
X42061Y172564D01*
X42064Y172582D01*
X154400D01*
X154751Y172652D01*
X155049Y172851D01*
X156549Y174351D01*
X156748Y174649D01*
X156818Y175000D01*
Y185231D01*
X157280Y185423D01*
X165782Y176920D01*
Y138370D01*
X165764Y138366D01*
X164970Y137836D01*
X164439Y137042D01*
X164253Y136106D01*
X164439Y135169D01*
X164970Y134375D01*
X165764Y133845D01*
X166700Y133659D01*
X167636Y133845D01*
X168430Y134375D01*
X168961Y135169D01*
X169147Y136106D01*
X168961Y137042D01*
X168430Y137836D01*
X167636Y138366D01*
X167618Y138370D01*
Y174431D01*
X168080Y174623D01*
X209850Y132852D01*
X209839Y132836D01*
X209653Y131900D01*
X209839Y130964D01*
X210070Y130618D01*
X209803Y130118D01*
X108780D01*
X102918Y135980D01*
Y143601D01*
X103047Y144047D01*
X103418Y144047D01*
X106500D01*
Y148000D01*
Y151953D01*
X103418D01*
X103047Y151953D01*
X102918Y152399D01*
Y152500D01*
X102848Y152851D01*
X102649Y153149D01*
X100849Y154949D01*
X100551Y155148D01*
X100200Y155218D01*
X82600D01*
X82249Y155148D01*
X81951Y154949D01*
X81251Y154249D01*
X81052Y153951D01*
X80982Y153600D01*
Y148800D01*
X80482Y148767D01*
X80461Y148927D01*
X80103Y149792D01*
X79534Y150534D01*
X78792Y151103D01*
X77927Y151461D01*
X77000Y151583D01*
X76073Y151461D01*
X75208Y151103D01*
X74466Y150534D01*
X73897Y149792D01*
X73539Y148927D01*
X73417Y148000D01*
X73539Y147073D01*
X73897Y146208D01*
X74466Y145466D01*
X75208Y144897D01*
X76073Y144539D01*
X77000Y144417D01*
X77927Y144539D01*
X78792Y144897D01*
X79534Y145466D01*
X80103Y146208D01*
X80461Y147073D01*
X80482Y147232D01*
X80982Y147200D01*
Y112300D01*
X80482Y112267D01*
X80461Y112427D01*
X80103Y113292D01*
X79534Y114034D01*
X78792Y114603D01*
X77927Y114961D01*
X77000Y115083D01*
X76073Y114961D01*
X75208Y114603D01*
X74466Y114034D01*
X73897Y113292D01*
X73539Y112427D01*
X73417Y111500D01*
X73539Y110573D01*
X73897Y109708D01*
X74466Y108966D01*
X75208Y108397D01*
X76073Y108039D01*
X77000Y107917D01*
X77927Y108039D01*
X78792Y108397D01*
X79534Y108966D01*
X80103Y109708D01*
X80461Y110573D01*
X80482Y110732D01*
X80982Y110700D01*
Y88600D01*
X81052Y88249D01*
X81251Y87951D01*
X93903Y75300D01*
X93897Y75292D01*
X93539Y74427D01*
X93417Y73500D01*
X93539Y72573D01*
X93897Y71708D01*
X94466Y70966D01*
X95208Y70397D01*
X96073Y70039D01*
X97000Y69917D01*
X97927Y70039D01*
X98792Y70397D01*
X99534Y70966D01*
X100103Y71708D01*
X100461Y72573D01*
X100583Y73500D01*
X100461Y74427D01*
X100103Y75292D01*
X99534Y76034D01*
X98792Y76603D01*
X97927Y76961D01*
X97000Y77083D01*
X96073Y76961D01*
X95208Y76603D01*
X95200Y76597D01*
X82818Y88980D01*
Y108283D01*
X83280Y108474D01*
X84755Y106998D01*
X85053Y106799D01*
X85404Y106730D01*
X93147D01*
X93498Y106799D01*
X93796Y106998D01*
X95200Y108403D01*
X95208Y108397D01*
X96073Y108039D01*
X97000Y107917D01*
X97927Y108039D01*
X98792Y108397D01*
X99534Y108966D01*
X100103Y109708D01*
X100461Y110573D01*
X100583Y111500D01*
X100461Y112427D01*
X100103Y113292D01*
X99534Y114034D01*
X99340Y114182D01*
X99510Y114682D01*
X103047D01*
Y112000D01*
X107000D01*
X110953D01*
Y114682D01*
X131928D01*
X132135Y114182D01*
X101351Y83399D01*
X101152Y83101D01*
X101082Y82750D01*
Y67180D01*
X82451Y48549D01*
X82252Y48251D01*
X82182Y47900D01*
Y37500D01*
X82252Y37149D01*
X82451Y36851D01*
X83851Y35451D01*
X84149Y35252D01*
X84500Y35182D01*
X93100D01*
X93451Y35252D01*
X93749Y35451D01*
X95200Y36903D01*
X95208Y36897D01*
X96073Y36539D01*
X97000Y36417D01*
X97927Y36539D01*
X98792Y36897D01*
X99534Y37466D01*
X100103Y38208D01*
X100461Y39073D01*
X100583Y40000D01*
X100461Y40927D01*
X100103Y41792D01*
X99534Y42534D01*
X98792Y43103D01*
X97927Y43461D01*
X97000Y43583D01*
X96073Y43461D01*
X95208Y43103D01*
X94466Y42534D01*
X93897Y41792D01*
X93539Y40927D01*
X93417Y40000D01*
X93539Y39073D01*
X93897Y38208D01*
X93903Y38200D01*
X92720Y37018D01*
X89686D01*
X89672Y37060D01*
X89573Y37518D01*
X90103Y38208D01*
X90461Y39073D01*
X90583Y40000D01*
X90461Y40927D01*
X90103Y41792D01*
X90097Y41800D01*
X96780Y48482D01*
X162000D01*
X162351Y48552D01*
X162649Y48751D01*
X205380Y91482D01*
X341677D01*
X341885Y90982D01*
X341020Y90118D01*
X237300D01*
X236949Y90048D01*
X236651Y89849D01*
X199452Y52650D01*
X199436Y52661D01*
X198500Y52847D01*
X197564Y52661D01*
X196770Y52130D01*
X196239Y51336D01*
X196053Y50400D01*
X196239Y49464D01*
X196770Y48670D01*
X197564Y48139D01*
X198500Y47953D01*
X199436Y48139D01*
X200230Y48670D01*
X200761Y49464D01*
X200947Y50400D01*
X200761Y51336D01*
X200750Y51352D01*
X237680Y88282D01*
X341400D01*
X341751Y88352D01*
X342049Y88551D01*
X354348Y100850D01*
X354737Y100532D01*
X354539Y100236D01*
X354353Y99300D01*
X354539Y98364D01*
X354550Y98348D01*
X341120Y84918D01*
X323265D01*
X323261Y84936D01*
X322730Y85730D01*
X321936Y86261D01*
X321000Y86447D01*
X320064Y86261D01*
X319270Y85730D01*
X318739Y84936D01*
X318553Y84000D01*
X318739Y83064D01*
X319037Y82618D01*
X318770Y82118D01*
X244400D01*
X244049Y82048D01*
X243751Y81849D01*
X220552Y58650D01*
X220536Y58661D01*
X219600Y58847D01*
X218664Y58661D01*
X217870Y58130D01*
X217339Y57336D01*
X217153Y56400D01*
X217339Y55464D01*
X217870Y54670D01*
X218664Y54139D01*
X219600Y53953D01*
X219957Y54024D01*
X220203Y53563D01*
X211006Y44366D01*
X210508Y44414D01*
X210230Y44830D01*
X209436Y45361D01*
X208500Y45547D01*
X207564Y45361D01*
X206770Y44830D01*
X206239Y44036D01*
X206053Y43100D01*
X206239Y42164D01*
X206770Y41370D01*
X207564Y40839D01*
X208500Y40653D01*
X209436Y40839D01*
X210230Y41370D01*
X210761Y42164D01*
X210765Y42182D01*
X211038D01*
X211389Y42252D01*
X211687Y42451D01*
X248118Y78882D01*
X270831D01*
X271023Y78420D01*
X270451Y77849D01*
X270252Y77551D01*
X270182Y77200D01*
Y45864D01*
X270164Y45861D01*
X269370Y45330D01*
X268839Y44536D01*
X268653Y43600D01*
X268839Y42664D01*
X269370Y41870D01*
X270164Y41339D01*
X271100Y41153D01*
X272036Y41339D01*
X272830Y41870D01*
X273361Y42664D01*
X273547Y43600D01*
X273361Y44536D01*
X272830Y45330D01*
X272036Y45861D01*
X272018Y45864D01*
Y76820D01*
X272880Y77682D01*
X360456D01*
X360517Y77618D01*
X360480Y77440D01*
X360179Y77118D01*
X280000D01*
X279649Y77048D01*
X279351Y76849D01*
X275651Y73149D01*
X275452Y72851D01*
X275382Y72500D01*
Y44365D01*
X275364Y44361D01*
X274570Y43830D01*
X274039Y43036D01*
X273853Y42100D01*
X274039Y41164D01*
X274570Y40370D01*
X275364Y39839D01*
X276300Y39653D01*
X277236Y39839D01*
X278030Y40370D01*
X278561Y41164D01*
X278747Y42100D01*
X278561Y43036D01*
X278030Y43830D01*
X277236Y44361D01*
X277218Y44365D01*
Y72120D01*
X280380Y75282D01*
X362100D01*
X362330Y75328D01*
X362464Y75239D01*
X363400Y75053D01*
X364336Y75239D01*
X365130Y75770D01*
X365661Y76564D01*
X365847Y77500D01*
X365661Y78436D01*
X365880Y79009D01*
X365912Y79023D01*
X366984Y77951D01*
X367281Y77752D01*
X367632Y77682D01*
X402000D01*
X402351Y77752D01*
X402649Y77951D01*
X413380Y88682D01*
X430615D01*
X430738Y88182D01*
X430239Y87436D01*
X430235Y87418D01*
X425300D01*
X424949Y87348D01*
X424651Y87149D01*
X408420Y70918D01*
X324050D01*
X323699Y70848D01*
X323401Y70649D01*
X322151Y69399D01*
X321952Y69101D01*
X321882Y68750D01*
Y30053D01*
X319447D01*
Y22947D01*
X326553D01*
Y30053D01*
X323718D01*
Y36603D01*
X324218Y36870D01*
X324564Y36639D01*
X325500Y36453D01*
X326436Y36639D01*
X327230Y37170D01*
X327581Y37694D01*
X328083Y37547D01*
X328239Y36764D01*
X328770Y35970D01*
X329564Y35439D01*
X330500Y35253D01*
X331436Y35439D01*
X332230Y35970D01*
X332761Y36764D01*
X332765Y36782D01*
X346524D01*
X346603Y36549D01*
X346653Y36282D01*
X346047Y35493D01*
X345649Y34532D01*
X345579Y34000D01*
X349500D01*
X353421D01*
X353351Y34532D01*
X352953Y35493D01*
X352347Y36282D01*
X352397Y36549D01*
X352476Y36782D01*
X353100D01*
X353451Y36852D01*
X353749Y37051D01*
X381048Y64350D01*
X381064Y64339D01*
X382000Y64153D01*
X382936Y64339D01*
X383730Y64870D01*
X384261Y65664D01*
X384447Y66600D01*
X384261Y67536D01*
X383730Y68330D01*
X383353Y68582D01*
X383505Y69082D01*
X408800D01*
X409151Y69152D01*
X409449Y69351D01*
X425680Y85582D01*
X430235D01*
X430239Y85564D01*
X430770Y84770D01*
X431564Y84239D01*
X432500Y84053D01*
X433436Y84239D01*
X434230Y84770D01*
X434761Y85564D01*
X434947Y86500D01*
X434761Y87436D01*
X434262Y88182D01*
X434385Y88682D01*
X434497D01*
X434848Y88752D01*
X435146Y88951D01*
X444349Y98154D01*
X444548Y98452D01*
X444618Y98803D01*
Y166543D01*
X445330Y167020D01*
X445861Y167814D01*
X445982Y168425D01*
X446482Y168376D01*
Y35380D01*
X440467Y29365D01*
X433466D01*
X433275Y29827D01*
X434049Y30601D01*
X434248Y30899D01*
X434318Y31250D01*
Y63736D01*
X434336Y63739D01*
X435130Y64270D01*
X435661Y65064D01*
X435847Y66000D01*
X435661Y66936D01*
X435130Y67730D01*
X434336Y68261D01*
X433400Y68447D01*
X432464Y68261D01*
X431670Y67730D01*
X431139Y66936D01*
X430953Y66000D01*
X431139Y65064D01*
X431670Y64270D01*
X432464Y63739D01*
X432482Y63736D01*
Y36824D01*
X431982Y36578D01*
X431493Y36953D01*
X430532Y37351D01*
X430000Y37421D01*
Y33500D01*
X429500D01*
Y33000D01*
X425579D01*
X425649Y32468D01*
X426047Y31507D01*
X426386Y31065D01*
X426140Y30565D01*
X401860D01*
X401614Y31065D01*
X401953Y31507D01*
X402351Y32468D01*
X402421Y33000D01*
X398500D01*
X394579D01*
X394649Y32468D01*
X395047Y31507D01*
X395386Y31065D01*
X395140Y30565D01*
X376447D01*
X376096Y30495D01*
X375798Y30296D01*
X365920Y20418D01*
X352097D01*
X351936Y20891D01*
X352034Y20966D01*
X352603Y21708D01*
X352961Y22573D01*
X353083Y23500D01*
X352961Y24427D01*
X352603Y25292D01*
X352034Y26034D01*
X351292Y26603D01*
X350427Y26961D01*
X349500Y27083D01*
X348573Y26961D01*
X347708Y26603D01*
X346966Y26034D01*
X346397Y25292D01*
X346039Y24427D01*
X345917Y23500D01*
X346039Y22573D01*
X346397Y21708D01*
X346966Y20966D01*
X347064Y20891D01*
X346903Y20418D01*
X328180D01*
X327549Y21049D01*
X327251Y21248D01*
X326900Y21318D01*
X226480D01*
X221597Y26200D01*
X221603Y26208D01*
X221961Y27073D01*
X222083Y28000D01*
X221961Y28927D01*
X221603Y29792D01*
X221034Y30534D01*
X220292Y31103D01*
X219427Y31461D01*
X218500Y31583D01*
X217573Y31461D01*
X216708Y31103D01*
X215966Y30534D01*
X215397Y29792D01*
X215039Y28927D01*
X214917Y28000D01*
X215039Y27073D01*
X215397Y26208D01*
X215966Y25466D01*
X216708Y24897D01*
X217573Y24539D01*
X218500Y24417D01*
X219427Y24539D01*
X220292Y24897D01*
X220300Y24903D01*
X225451Y19751D01*
X225749Y19552D01*
X226100Y19482D01*
X320314D01*
X320328Y19440D01*
X320427Y18982D01*
X319897Y18292D01*
X319539Y17427D01*
X319417Y16500D01*
X319539Y15573D01*
X319897Y14708D01*
X320466Y13966D01*
X321208Y13397D01*
X322073Y13039D01*
X323000Y12917D01*
X323927Y13039D01*
X324792Y13397D01*
X324800Y13403D01*
X325351Y12851D01*
X325649Y12652D01*
X326000Y12582D01*
X345947D01*
Y9947D01*
X351755D01*
X352851Y8851D01*
X353149Y8652D01*
X353500Y8582D01*
X448050D01*
X448401Y8652D01*
X448699Y8851D01*
X450449Y10601D01*
X450648Y10899D01*
X450718Y11250D01*
Y213500D01*
X450648Y213851D01*
X450449Y214149D01*
X419540Y245058D01*
Y254100D01*
X419796Y254134D01*
X420890Y254587D01*
X421830Y255308D01*
X422551Y256248D01*
X423004Y257342D01*
X423158Y258516D01*
X423004Y259690D01*
X422551Y260784D01*
X421830Y261723D01*
X420890Y262444D01*
X419796Y262898D01*
X418622Y263052D01*
D02*
G37*
G36*
X25500Y222811D02*
Y210500D01*
X37811D01*
X37692Y212010D01*
X37222Y213971D01*
X36450Y215834D01*
X35396Y217553D01*
X34087Y219087D01*
X32553Y220396D01*
X30834Y221450D01*
X28971Y222222D01*
X27010Y222692D01*
X25500Y222811D01*
D02*
G37*
G36*
X24500D02*
X22990Y222692D01*
X21029Y222222D01*
X19166Y221450D01*
X17447Y220396D01*
X15913Y219087D01*
X14604Y217553D01*
X13550Y215834D01*
X12778Y213971D01*
X12308Y212010D01*
X12189Y210500D01*
X24500D01*
Y222811D01*
D02*
G37*
G36*
X238197Y210681D02*
X237175D01*
Y209659D01*
X237296Y209683D01*
X237822Y210034D01*
X238174Y210561D01*
X238197Y210681D01*
D02*
G37*
G36*
X236175D02*
X235153D01*
X235177Y210561D01*
X235528Y210034D01*
X236055Y209683D01*
X236175Y209659D01*
Y210681D01*
D02*
G37*
G36*
X230973D02*
X229951D01*
Y209659D01*
X230071Y209683D01*
X230597Y210034D01*
X230949Y210561D01*
X230973Y210681D01*
D02*
G37*
G36*
X228951D02*
X227928D01*
X227953Y210561D01*
X228304Y210034D01*
X228830Y209683D01*
X228951Y209659D01*
Y210681D01*
D02*
G37*
G36*
X152000Y215583D02*
X151073Y215461D01*
X150208Y215103D01*
X149466Y214534D01*
X148897Y213792D01*
X148539Y212927D01*
X148417Y212000D01*
X148539Y211073D01*
X148897Y210208D01*
X149466Y209466D01*
X150208Y208897D01*
X151073Y208539D01*
X152000Y208417D01*
X152927Y208539D01*
X153792Y208897D01*
X154534Y209466D01*
X155103Y210208D01*
X155461Y211073D01*
X155583Y212000D01*
X155461Y212927D01*
X155103Y213792D01*
X154534Y214534D01*
X153792Y215103D01*
X152927Y215461D01*
X152000Y215583D01*
D02*
G37*
G36*
X240787Y209091D02*
Y208069D01*
X241810D01*
X241786Y208190D01*
X241434Y208716D01*
X240908Y209067D01*
X240787Y209091D01*
D02*
G37*
G36*
X239787D02*
X239667Y209067D01*
X239141Y208716D01*
X238789Y208190D01*
X238765Y208069D01*
X239787D01*
Y209091D01*
D02*
G37*
G36*
X233563D02*
Y208069D01*
X234585D01*
X234561Y208190D01*
X234210Y208716D01*
X233684Y209067D01*
X233563Y209091D01*
D02*
G37*
G36*
X232563D02*
X232442Y209067D01*
X231916Y208716D01*
X231565Y208190D01*
X231541Y208069D01*
X232563D01*
Y209091D01*
D02*
G37*
G36*
X226339D02*
Y208069D01*
X227361D01*
X227337Y208190D01*
X226985Y208716D01*
X226459Y209067D01*
X226339Y209091D01*
D02*
G37*
G36*
X225339D02*
X225218Y209067D01*
X224692Y208716D01*
X224340Y208190D01*
X224316Y208069D01*
X225339D01*
Y209091D01*
D02*
G37*
G36*
X241810Y207069D02*
X240787D01*
Y206047D01*
X240908Y206071D01*
X241434Y206422D01*
X241786Y206948D01*
X241810Y207069D01*
D02*
G37*
G36*
X239787D02*
X238765D01*
X238789Y206948D01*
X239141Y206422D01*
X239667Y206071D01*
X239787Y206047D01*
Y207069D01*
D02*
G37*
G36*
X234585D02*
X233563D01*
Y206047D01*
X233684Y206071D01*
X234210Y206422D01*
X234561Y206948D01*
X234585Y207069D01*
D02*
G37*
G36*
X232563D02*
X231541D01*
X231565Y206948D01*
X231916Y206422D01*
X232442Y206071D01*
X232563Y206047D01*
Y207069D01*
D02*
G37*
G36*
X227361D02*
X226339D01*
Y206047D01*
X226459Y206071D01*
X226985Y206422D01*
X227337Y206948D01*
X227361Y207069D01*
D02*
G37*
G36*
X225339D02*
X224316D01*
X224340Y206948D01*
X224692Y206422D01*
X225218Y206071D01*
X225339Y206047D01*
Y207069D01*
D02*
G37*
G36*
X418622Y215021D02*
X417448Y214866D01*
X416354Y214413D01*
X415414Y213692D01*
X414693Y212752D01*
X414240Y211658D01*
X414085Y210484D01*
X414240Y209310D01*
X414693Y208216D01*
X415414Y207277D01*
X416354Y206556D01*
X417448Y206102D01*
X418622Y205948D01*
X419796Y206102D01*
X420890Y206556D01*
X421830Y207277D01*
X422551Y208216D01*
X423004Y209310D01*
X423158Y210484D01*
X423004Y211658D01*
X422551Y212752D01*
X421830Y213692D01*
X420890Y214413D01*
X419796Y214866D01*
X418622Y215021D01*
D02*
G37*
G36*
X237175Y205479D02*
Y204457D01*
X238197D01*
X238174Y204577D01*
X237822Y205103D01*
X237296Y205455D01*
X237175Y205479D01*
D02*
G37*
G36*
X236175D02*
X236055Y205455D01*
X235528Y205103D01*
X235177Y204577D01*
X235153Y204457D01*
X236175D01*
Y205479D01*
D02*
G37*
G36*
X229951D02*
Y204457D01*
X230973D01*
X230949Y204577D01*
X230597Y205103D01*
X230071Y205455D01*
X229951Y205479D01*
D02*
G37*
G36*
X228951D02*
X228830Y205455D01*
X228304Y205103D01*
X227953Y204577D01*
X227928Y204457D01*
X228951D01*
Y205479D01*
D02*
G37*
G36*
X152000Y205583D02*
X151073Y205461D01*
X150208Y205103D01*
X149466Y204534D01*
X148897Y203792D01*
X148539Y202927D01*
X148417Y202000D01*
X148539Y201073D01*
X148897Y200208D01*
X149466Y199466D01*
X150208Y198897D01*
X151073Y198539D01*
X152000Y198417D01*
X152927Y198539D01*
X153792Y198897D01*
X154534Y199466D01*
X155103Y200208D01*
X155461Y201073D01*
X155463Y201082D01*
X245936D01*
X245939Y201064D01*
X246470Y200270D01*
X247264Y199739D01*
X248200Y199553D01*
X249136Y199739D01*
X249930Y200270D01*
X250461Y201064D01*
X250647Y202000D01*
X250461Y202936D01*
X249930Y203730D01*
X249136Y204261D01*
X248200Y204447D01*
X247264Y204261D01*
X246470Y203730D01*
X245939Y202936D01*
X245936Y202918D01*
X238438D01*
X238190Y203418D01*
X238197Y203457D01*
X235153D01*
X235161Y203418D01*
X234912Y202918D01*
X231214D01*
X230965Y203418D01*
X230973Y203457D01*
X227928D01*
X227936Y203418D01*
X227688Y202918D01*
X155463D01*
X155461Y202927D01*
X155103Y203792D01*
X154534Y204534D01*
X153792Y205103D01*
X152927Y205461D01*
X152000Y205583D01*
D02*
G37*
G36*
X37811Y209500D02*
X25500D01*
Y197189D01*
X27010Y197308D01*
X28971Y197778D01*
X30834Y198550D01*
X32553Y199604D01*
X34087Y200913D01*
X35396Y202447D01*
X36450Y204166D01*
X37222Y206029D01*
X37692Y207990D01*
X37811Y209500D01*
D02*
G37*
G36*
X24500D02*
X12189D01*
X12308Y207990D01*
X12778Y206029D01*
X13550Y204166D01*
X14604Y202447D01*
X15913Y200913D01*
X17447Y199604D01*
X19166Y198550D01*
X21029Y197778D01*
X22990Y197308D01*
X24500Y197189D01*
Y209500D01*
D02*
G37*
G36*
X315000Y193758D02*
Y191500D01*
X317258D01*
X317228Y191731D01*
X316946Y192412D01*
X316497Y192997D01*
X315912Y193446D01*
X315231Y193728D01*
X315000Y193758D01*
D02*
G37*
G36*
X314000D02*
X313769Y193728D01*
X313088Y193446D01*
X312503Y192997D01*
X312054Y192412D01*
X311772Y191731D01*
X311742Y191500D01*
X314000D01*
Y193758D01*
D02*
G37*
G36*
X75000Y194517D02*
Y190500D01*
X79017D01*
X78926Y191186D01*
X78469Y192291D01*
X77740Y193240D01*
X76791Y193969D01*
X75686Y194426D01*
X75000Y194517D01*
D02*
G37*
G36*
X89043Y194543D02*
X85000D01*
Y190500D01*
X89043D01*
Y194543D01*
D02*
G37*
G36*
X74000Y194517D02*
X73314Y194426D01*
X72209Y193969D01*
X71260Y193240D01*
X70531Y192291D01*
X70074Y191186D01*
X69983Y190500D01*
X74000D01*
Y194517D01*
D02*
G37*
G36*
X84000Y194543D02*
X79957D01*
Y190500D01*
X84000D01*
Y194543D01*
D02*
G37*
G36*
X317258Y190500D02*
X315000D01*
Y188242D01*
X315231Y188272D01*
X315912Y188554D01*
X316497Y189003D01*
X316946Y189588D01*
X317228Y190269D01*
X317258Y190500D01*
D02*
G37*
G36*
X314000D02*
X311742D01*
X311772Y190269D01*
X312054Y189588D01*
X312503Y189003D01*
X313088Y188554D01*
X313769Y188272D01*
X314000Y188242D01*
Y190500D01*
D02*
G37*
G36*
X79017Y189500D02*
X75000D01*
Y185483D01*
X75686Y185574D01*
X76791Y186031D01*
X77740Y186760D01*
X78469Y187709D01*
X78926Y188814D01*
X79017Y189500D01*
D02*
G37*
G36*
X74000D02*
X69983D01*
X70074Y188814D01*
X70531Y187709D01*
X71260Y186760D01*
X72209Y186031D01*
X73314Y185574D01*
X74000Y185483D01*
Y189500D01*
D02*
G37*
G36*
X89043D02*
X85000D01*
Y185457D01*
X89043D01*
Y189500D01*
D02*
G37*
G36*
X84000D02*
X79957D01*
Y185457D01*
X84000D01*
Y189500D01*
D02*
G37*
G36*
X151500Y185953D02*
X148047D01*
Y182500D01*
X151500D01*
Y185953D01*
D02*
G37*
G36*
Y181500D02*
X148047D01*
Y178047D01*
X151500D01*
Y181500D01*
D02*
G37*
G36*
X152500Y169958D02*
Y167700D01*
X154758D01*
X154728Y167931D01*
X154446Y168612D01*
X153997Y169197D01*
X153412Y169646D01*
X152731Y169928D01*
X152500Y169958D01*
D02*
G37*
G36*
X151500D02*
X151269Y169928D01*
X150588Y169646D01*
X150003Y169197D01*
X149554Y168612D01*
X149272Y167931D01*
X149242Y167700D01*
X151500D01*
Y169958D01*
D02*
G37*
G36*
X154758Y166700D02*
X152500D01*
Y164442D01*
X152731Y164472D01*
X153412Y164754D01*
X153997Y165203D01*
X154446Y165788D01*
X154728Y166469D01*
X154758Y166700D01*
D02*
G37*
G36*
X151500D02*
X149242D01*
X149272Y166469D01*
X149554Y165788D01*
X150003Y165203D01*
X150588Y164754D01*
X151269Y164472D01*
X151500Y164442D01*
Y166700D01*
D02*
G37*
G36*
X107500Y151953D02*
Y148500D01*
X110953D01*
Y151953D01*
X107500D01*
D02*
G37*
G36*
X110953Y147500D02*
X107500D01*
Y144047D01*
X110953D01*
Y147500D01*
D02*
G37*
G36*
Y111000D02*
X107500D01*
Y107547D01*
X110953D01*
Y111000D01*
D02*
G37*
G36*
X106500D02*
X103047D01*
Y107547D01*
X106500D01*
Y111000D01*
D02*
G37*
G36*
X426000Y75758D02*
Y73500D01*
X428258D01*
X428228Y73731D01*
X427946Y74412D01*
X427497Y74997D01*
X426912Y75446D01*
X426231Y75728D01*
X426000Y75758D01*
D02*
G37*
G36*
X425000D02*
X424769Y75728D01*
X424088Y75446D01*
X423503Y74997D01*
X423054Y74412D01*
X422772Y73731D01*
X422742Y73500D01*
X425000D01*
Y75758D01*
D02*
G37*
G36*
X311400Y72758D02*
Y70500D01*
X313658D01*
X313628Y70731D01*
X313346Y71412D01*
X312897Y71997D01*
X312312Y72446D01*
X311631Y72728D01*
X311400Y72758D01*
D02*
G37*
G36*
X310400D02*
X310169Y72728D01*
X309488Y72446D01*
X308903Y71997D01*
X308454Y71412D01*
X308172Y70731D01*
X308142Y70500D01*
X310400D01*
Y72758D01*
D02*
G37*
G36*
X284339D02*
Y70500D01*
X286597D01*
X286566Y70731D01*
X286284Y71412D01*
X285836Y71997D01*
X285251Y72446D01*
X284570Y72728D01*
X284339Y72758D01*
D02*
G37*
G36*
X283339D02*
X283108Y72728D01*
X282427Y72446D01*
X281842Y71997D01*
X281393Y71412D01*
X281111Y70731D01*
X281080Y70500D01*
X283339D01*
Y72758D01*
D02*
G37*
G36*
X428258Y72500D02*
X426000D01*
Y70242D01*
X426231Y70272D01*
X426912Y70554D01*
X427497Y71003D01*
X427946Y71588D01*
X428228Y72269D01*
X428258Y72500D01*
D02*
G37*
G36*
X425000D02*
X422742D01*
X422772Y72269D01*
X423054Y71588D01*
X423503Y71003D01*
X424088Y70554D01*
X424769Y70272D01*
X425000Y70242D01*
Y72500D01*
D02*
G37*
G36*
X87000Y77083D02*
X86073Y76961D01*
X85208Y76603D01*
X84466Y76034D01*
X83897Y75292D01*
X83539Y74427D01*
X83417Y73500D01*
X83539Y72573D01*
X83897Y71708D01*
X84466Y70966D01*
X85208Y70397D01*
X86073Y70039D01*
X87000Y69917D01*
X87927Y70039D01*
X88792Y70397D01*
X89534Y70966D01*
X90103Y71708D01*
X90461Y72573D01*
X90583Y73500D01*
X90461Y74427D01*
X90103Y75292D01*
X89534Y76034D01*
X88792Y76603D01*
X87927Y76961D01*
X87000Y77083D01*
D02*
G37*
G36*
X77000D02*
X76073Y76961D01*
X75208Y76603D01*
X74466Y76034D01*
X73897Y75292D01*
X73539Y74427D01*
X73417Y73500D01*
X73539Y72573D01*
X73897Y71708D01*
X74466Y70966D01*
X75208Y70397D01*
X76073Y70039D01*
X77000Y69917D01*
X77927Y70039D01*
X78792Y70397D01*
X79534Y70966D01*
X80103Y71708D01*
X80461Y72573D01*
X80583Y73500D01*
X80461Y74427D01*
X80103Y75292D01*
X79534Y76034D01*
X78792Y76603D01*
X77927Y76961D01*
X77000Y77083D01*
D02*
G37*
G36*
X313658Y69500D02*
X311400D01*
Y67242D01*
X311631Y67272D01*
X312312Y67554D01*
X312897Y68003D01*
X313346Y68588D01*
X313628Y69269D01*
X313658Y69500D01*
D02*
G37*
G36*
X310400D02*
X308142D01*
X308172Y69269D01*
X308454Y68588D01*
X308903Y68003D01*
X309488Y67554D01*
X310169Y67272D01*
X310400Y67242D01*
Y69500D01*
D02*
G37*
G36*
X286597D02*
X284339D01*
Y67242D01*
X284570Y67272D01*
X285251Y67554D01*
X285836Y68003D01*
X286284Y68588D01*
X286566Y69269D01*
X286597Y69500D01*
D02*
G37*
G36*
X283339D02*
X281080D01*
X281111Y69269D01*
X281393Y68588D01*
X281842Y68003D01*
X282427Y67554D01*
X283108Y67272D01*
X283339Y67242D01*
Y69500D01*
D02*
G37*
G36*
X110953Y43953D02*
X107500D01*
Y40500D01*
X110953D01*
Y43953D01*
D02*
G37*
G36*
X106500D02*
X103047D01*
Y40500D01*
X106500D01*
Y43953D01*
D02*
G37*
G36*
X77000Y43583D02*
X76073Y43461D01*
X75208Y43103D01*
X74466Y42534D01*
X73897Y41792D01*
X73539Y40927D01*
X73417Y40000D01*
X73539Y39073D01*
X73897Y38208D01*
X74466Y37466D01*
X75208Y36897D01*
X76073Y36539D01*
X77000Y36417D01*
X77927Y36539D01*
X78792Y36897D01*
X79534Y37466D01*
X80103Y38208D01*
X80461Y39073D01*
X80583Y40000D01*
X80461Y40927D01*
X80103Y41792D01*
X79534Y42534D01*
X78792Y43103D01*
X77927Y43461D01*
X77000Y43583D01*
D02*
G37*
G36*
X110953Y39500D02*
X107500D01*
Y36047D01*
X110953D01*
Y39500D01*
D02*
G37*
G36*
X106500D02*
X103047D01*
Y36047D01*
X106500D01*
Y39500D01*
D02*
G37*
G36*
X399000Y37421D02*
Y34000D01*
X402421D01*
X402351Y34532D01*
X401953Y35493D01*
X401319Y36319D01*
X400493Y36953D01*
X399532Y37351D01*
X399000Y37421D01*
D02*
G37*
G36*
X429000D02*
X428468Y37351D01*
X427507Y36953D01*
X426681Y36319D01*
X426047Y35493D01*
X425649Y34532D01*
X425579Y34000D01*
X429000D01*
Y37421D01*
D02*
G37*
G36*
X398000D02*
X397468Y37351D01*
X396507Y36953D01*
X395681Y36319D01*
X395047Y35493D01*
X394649Y34532D01*
X394579Y34000D01*
X398000D01*
Y37421D01*
D02*
G37*
G36*
X353421Y33000D02*
X350000D01*
Y29579D01*
X350532Y29649D01*
X351493Y30047D01*
X352319Y30681D01*
X352953Y31507D01*
X353351Y32468D01*
X353421Y33000D01*
D02*
G37*
G36*
X349000D02*
X345579D01*
X345649Y32468D01*
X346047Y31507D01*
X346681Y30681D01*
X347507Y30047D01*
X348468Y29649D01*
X349000Y29579D01*
Y33000D01*
D02*
G37*
G36*
X298500Y31921D02*
Y28500D01*
X301921D01*
X301851Y29032D01*
X301453Y29993D01*
X300819Y30819D01*
X299993Y31453D01*
X299032Y31851D01*
X298500Y31921D01*
D02*
G37*
G36*
X297500D02*
X296968Y31851D01*
X296007Y31453D01*
X295181Y30819D01*
X294547Y29993D01*
X294149Y29032D01*
X294079Y28500D01*
X297500D01*
Y31921D01*
D02*
G37*
G36*
X251553Y31553D02*
X244447D01*
Y24447D01*
X251553D01*
Y31553D01*
D02*
G37*
G36*
X202053D02*
X194947D01*
Y24447D01*
X202053D01*
Y31553D01*
D02*
G37*
G36*
X288000Y31583D02*
X287073Y31461D01*
X286208Y31103D01*
X285466Y30534D01*
X284897Y29792D01*
X284539Y28927D01*
X284417Y28000D01*
X284539Y27073D01*
X284897Y26208D01*
X285466Y25466D01*
X286208Y24897D01*
X287073Y24539D01*
X288000Y24417D01*
X288927Y24539D01*
X289792Y24897D01*
X290534Y25466D01*
X291103Y26208D01*
X291461Y27073D01*
X291583Y28000D01*
X291461Y28927D01*
X291103Y29792D01*
X290534Y30534D01*
X289792Y31103D01*
X288927Y31461D01*
X288000Y31583D01*
D02*
G37*
G36*
X278000D02*
X277073Y31461D01*
X276208Y31103D01*
X275466Y30534D01*
X274897Y29792D01*
X274539Y28927D01*
X274417Y28000D01*
X274539Y27073D01*
X274897Y26208D01*
X275466Y25466D01*
X276208Y24897D01*
X277073Y24539D01*
X278000Y24417D01*
X278927Y24539D01*
X279792Y24897D01*
X280534Y25466D01*
X281103Y26208D01*
X281461Y27073D01*
X281583Y28000D01*
X281461Y28927D01*
X281103Y29792D01*
X280534Y30534D01*
X279792Y31103D01*
X278927Y31461D01*
X278000Y31583D01*
D02*
G37*
G36*
X268000D02*
X267073Y31461D01*
X266208Y31103D01*
X265466Y30534D01*
X264897Y29792D01*
X264539Y28927D01*
X264417Y28000D01*
X264539Y27073D01*
X264897Y26208D01*
X265466Y25466D01*
X266208Y24897D01*
X267073Y24539D01*
X268000Y24417D01*
X268927Y24539D01*
X269792Y24897D01*
X270534Y25466D01*
X271103Y26208D01*
X271461Y27073D01*
X271583Y28000D01*
X271461Y28927D01*
X271103Y29792D01*
X270534Y30534D01*
X269792Y31103D01*
X268927Y31461D01*
X268000Y31583D01*
D02*
G37*
G36*
X258000D02*
X257073Y31461D01*
X256208Y31103D01*
X255466Y30534D01*
X254897Y29792D01*
X254539Y28927D01*
X254417Y28000D01*
X254539Y27073D01*
X254897Y26208D01*
X255466Y25466D01*
X256208Y24897D01*
X257073Y24539D01*
X258000Y24417D01*
X258927Y24539D01*
X259792Y24897D01*
X260534Y25466D01*
X261103Y26208D01*
X261461Y27073D01*
X261583Y28000D01*
X261461Y28927D01*
X261103Y29792D01*
X260534Y30534D01*
X259792Y31103D01*
X258927Y31461D01*
X258000Y31583D01*
D02*
G37*
G36*
X208500D02*
X207573Y31461D01*
X206708Y31103D01*
X205966Y30534D01*
X205397Y29792D01*
X205039Y28927D01*
X204917Y28000D01*
X205039Y27073D01*
X205397Y26208D01*
X205966Y25466D01*
X206708Y24897D01*
X207573Y24539D01*
X208500Y24417D01*
X209427Y24539D01*
X210292Y24897D01*
X211034Y25466D01*
X211603Y26208D01*
X211961Y27073D01*
X212083Y28000D01*
X211961Y28927D01*
X211603Y29792D01*
X211034Y30534D01*
X210292Y31103D01*
X209427Y31461D01*
X208500Y31583D01*
D02*
G37*
G36*
X301921Y27500D02*
X298500D01*
Y24079D01*
X299032Y24149D01*
X299993Y24547D01*
X300819Y25181D01*
X301453Y26007D01*
X301851Y26968D01*
X301921Y27500D01*
D02*
G37*
G36*
X297500D02*
X294079D01*
X294149Y26968D01*
X294547Y26007D01*
X295181Y25181D01*
X296007Y24547D01*
X296968Y24149D01*
X297500Y24079D01*
Y27500D01*
D02*
G37*
%LPD*%
G36*
X437963Y198327D02*
X397397D01*
X397312Y198827D01*
X398145Y199466D01*
X398851Y200387D01*
X399296Y201459D01*
X399326Y201693D01*
X437963D01*
Y198327D01*
D02*
G37*
G36*
X383804Y196760D02*
X384102Y196562D01*
X384453Y196492D01*
X437963D01*
Y194170D01*
X424351Y180558D01*
X424152Y180261D01*
X424082Y179909D01*
Y171813D01*
X423669Y171556D01*
X423218Y171797D01*
Y187720D01*
X423648Y188150D01*
X423664Y188139D01*
X424600Y187953D01*
X425536Y188139D01*
X426330Y188670D01*
X426861Y189464D01*
X427047Y190400D01*
X426861Y191336D01*
X426330Y192130D01*
X425536Y192661D01*
X424600Y192847D01*
X423664Y192661D01*
X422870Y192130D01*
X422339Y191336D01*
X422153Y190400D01*
X422339Y189464D01*
X422350Y189448D01*
X421651Y188749D01*
X421452Y188451D01*
X421382Y188100D01*
Y168382D01*
X421452Y168031D01*
X421651Y167733D01*
X431982Y157402D01*
Y156505D01*
X431482Y156353D01*
X431230Y156730D01*
X430436Y157261D01*
X429500Y157447D01*
X428564Y157261D01*
X427770Y156730D01*
X427239Y155936D01*
X427236Y155918D01*
X426000D01*
X425649Y155848D01*
X425351Y155649D01*
X423620Y153918D01*
X321764D01*
X321761Y153936D01*
X321230Y154730D01*
X320436Y155261D01*
X319500Y155447D01*
X318564Y155261D01*
X317770Y154730D01*
X317239Y153936D01*
X317158Y153528D01*
X316616Y153364D01*
X315830Y154149D01*
X315533Y154348D01*
X315182Y154418D01*
X314264D01*
X314261Y154436D01*
X313730Y155230D01*
X312936Y155761D01*
X312000Y155947D01*
X311064Y155761D01*
X310270Y155230D01*
X309739Y154436D01*
X309658Y154028D01*
X309116Y153864D01*
X283555Y179424D01*
X283230Y179770D01*
X283761Y180564D01*
X283947Y181500D01*
X283761Y182436D01*
X283329Y183082D01*
X283535Y183582D01*
X290720D01*
X308851Y165451D01*
X309149Y165252D01*
X309500Y165182D01*
X378236D01*
X378239Y165164D01*
X378770Y164370D01*
X379564Y163839D01*
X380500Y163653D01*
X381436Y163839D01*
X382230Y164370D01*
X382761Y165164D01*
X382947Y166100D01*
X382761Y167036D01*
X382230Y167830D01*
X381436Y168361D01*
X380500Y168547D01*
X379564Y168361D01*
X378770Y167830D01*
X378239Y167036D01*
X378236Y167018D01*
X309880D01*
X291749Y185149D01*
X291549Y185282D01*
X291634Y185782D01*
X314220D01*
X327250Y172752D01*
X327239Y172736D01*
X327053Y171800D01*
X327239Y170864D01*
X327770Y170070D01*
X328564Y169539D01*
X329500Y169353D01*
X330436Y169539D01*
X331230Y170070D01*
X331761Y170864D01*
X331947Y171800D01*
X331761Y172736D01*
X331230Y173530D01*
X330436Y174061D01*
X329500Y174247D01*
X328564Y174061D01*
X328548Y174050D01*
X317277Y185320D01*
X317469Y185782D01*
X347594D01*
X347945Y185852D01*
X348243Y186051D01*
X368178Y205987D01*
X374578D01*
X383804Y196760D01*
D02*
G37*
G36*
X446482Y169124D02*
X445982Y169075D01*
X445861Y169686D01*
X445330Y170480D01*
X444536Y171011D01*
X443600Y171197D01*
X442664Y171011D01*
X441870Y170480D01*
X441339Y169686D01*
X441153Y168750D01*
X441339Y167814D01*
X441870Y167020D01*
X442664Y166489D01*
X442782Y166466D01*
Y127297D01*
X442282Y127030D01*
X441936Y127261D01*
X441000Y127447D01*
X440064Y127261D01*
X439718Y127030D01*
X439218Y127297D01*
Y128102D01*
X440349Y129233D01*
X440548Y129531D01*
X440618Y129882D01*
Y148900D01*
X440548Y149251D01*
X440349Y149549D01*
X436918Y152980D01*
Y154736D01*
X436936Y154739D01*
X437730Y155270D01*
X438261Y156064D01*
X438447Y157000D01*
X438261Y157936D01*
X437730Y158730D01*
X436936Y159261D01*
X436000Y159447D01*
X435064Y159261D01*
X434270Y158730D01*
X434110Y158491D01*
X433650Y158441D01*
X433500Y158479D01*
X425364Y166616D01*
X425528Y167158D01*
X425936Y167239D01*
X426730Y167770D01*
X427261Y168564D01*
X427447Y169500D01*
X427261Y170436D01*
X426730Y171230D01*
X425936Y171761D01*
X425918Y171765D01*
Y179529D01*
X439261Y192872D01*
X446482D01*
Y169124D01*
D02*
G37*
G36*
X427239Y154064D02*
X427770Y153270D01*
X428564Y152739D01*
X428961Y152660D01*
X429067Y152129D01*
X428470Y151730D01*
X427939Y150936D01*
X427936Y150918D01*
X321535D01*
X321329Y151418D01*
X321761Y152064D01*
X321764Y152082D01*
X424000D01*
X424351Y152152D01*
X424649Y152351D01*
X426380Y154082D01*
X427236D01*
X427239Y154064D01*
D02*
G37*
G36*
X101082Y152120D02*
Y135923D01*
X100582Y135715D01*
X90097Y146200D01*
X90103Y146208D01*
X90461Y147073D01*
X90583Y148000D01*
X90461Y148927D01*
X90103Y149792D01*
X89534Y150534D01*
X88819Y151082D01*
X88816Y151135D01*
X89043Y151582D01*
X92120D01*
X93903Y149800D01*
X93897Y149792D01*
X93539Y148927D01*
X93417Y148000D01*
X93539Y147073D01*
X93897Y146208D01*
X94466Y145466D01*
X95208Y144897D01*
X96073Y144539D01*
X97000Y144417D01*
X97927Y144539D01*
X98792Y144897D01*
X99534Y145466D01*
X100103Y146208D01*
X100461Y147073D01*
X100583Y148000D01*
X100461Y148927D01*
X100103Y149792D01*
X99534Y150534D01*
X98792Y151103D01*
X97927Y151461D01*
X97000Y151583D01*
X96073Y151461D01*
X95208Y151103D01*
X95200Y151097D01*
X93415Y152882D01*
X93622Y153382D01*
X99820D01*
X101082Y152120D01*
D02*
G37*
G36*
X286251Y186051D02*
X286451Y185918D01*
X286366Y185418D01*
X259264D01*
X259261Y185436D01*
X258730Y186230D01*
X257936Y186761D01*
X257000Y186947D01*
X256064Y186761D01*
X255270Y186230D01*
X254739Y185436D01*
X254553Y184500D01*
X254739Y183564D01*
X255270Y182770D01*
X256064Y182239D01*
X257000Y182053D01*
X257936Y182239D01*
X258730Y182770D01*
X259261Y183564D01*
X259264Y183582D01*
X279465D01*
X279671Y183082D01*
X279239Y182436D01*
X279053Y181500D01*
X279239Y180564D01*
X279770Y179770D01*
X280564Y179239D01*
X281453Y179062D01*
X281461Y179021D01*
X281660Y178724D01*
X308651Y151733D01*
X312733Y147651D01*
X313031Y147452D01*
X313382Y147382D01*
X397120D01*
X397728Y146774D01*
X397712Y146744D01*
X397457Y146338D01*
X396564Y146161D01*
X395770Y145630D01*
X395239Y144836D01*
X395235Y144818D01*
X289480D01*
X250750Y183548D01*
X250761Y183564D01*
X250947Y184500D01*
X250761Y185436D01*
X250230Y186230D01*
X249436Y186761D01*
X248500Y186947D01*
X247564Y186761D01*
X246770Y186230D01*
X246239Y185436D01*
X246053Y184500D01*
X246239Y183564D01*
X246770Y182770D01*
X247564Y182239D01*
X248500Y182053D01*
X249436Y182239D01*
X249452Y182250D01*
X288451Y143251D01*
X288749Y143052D01*
X289100Y142982D01*
X370737D01*
X371004Y142482D01*
X370639Y141936D01*
X370636Y141918D01*
X284580D01*
X265550Y160948D01*
X265561Y160964D01*
X265747Y161900D01*
X265561Y162836D01*
X265030Y163630D01*
X264236Y164161D01*
X263300Y164347D01*
X262364Y164161D01*
X261570Y163630D01*
X261039Y162836D01*
X260853Y161900D01*
X261039Y160964D01*
X261570Y160170D01*
X262364Y159639D01*
X263300Y159453D01*
X264236Y159639D01*
X264252Y159650D01*
X283551Y140351D01*
X283849Y140152D01*
X284200Y140082D01*
X370636D01*
X370639Y140064D01*
X371170Y139270D01*
X371964Y138739D01*
X372900Y138553D01*
X373836Y138739D01*
X374630Y139270D01*
X375161Y140064D01*
X375347Y141000D01*
X375161Y141936D01*
X374796Y142482D01*
X375063Y142982D01*
X395235D01*
X395239Y142964D01*
X395770Y142170D01*
X396564Y141639D01*
X397500Y141453D01*
X398436Y141639D01*
X399230Y142170D01*
X399761Y142964D01*
X399938Y143857D01*
X400344Y144112D01*
X400374Y144128D01*
X403750Y140752D01*
X403739Y140736D01*
X403553Y139800D01*
X403739Y138864D01*
X404270Y138070D01*
X404871Y137668D01*
X404720Y137168D01*
X227050D01*
X226699Y137098D01*
X226401Y136899D01*
X219620Y130118D01*
X214397D01*
X214130Y130618D01*
X214361Y130964D01*
X214547Y131900D01*
X214361Y132836D01*
X213830Y133630D01*
X213036Y134161D01*
X212100Y134347D01*
X211164Y134161D01*
X211148Y134150D01*
X167349Y177949D01*
X156549Y188749D01*
X155097Y190200D01*
X155103Y190208D01*
X155461Y191073D01*
X155583Y192000D01*
X155461Y192927D01*
X155103Y193792D01*
X154573Y194482D01*
X154672Y194940D01*
X154686Y194982D01*
X210820D01*
X255482Y150320D01*
Y148164D01*
X255464Y148161D01*
X254670Y147630D01*
X254139Y146836D01*
X253953Y145900D01*
X254139Y144964D01*
X254670Y144170D01*
X255464Y143639D01*
X256400Y143453D01*
X257336Y143639D01*
X258130Y144170D01*
X258661Y144964D01*
X258847Y145900D01*
X258661Y146836D01*
X258130Y147630D01*
X257336Y148161D01*
X257318Y148164D01*
Y150700D01*
X257248Y151051D01*
X257049Y151349D01*
X213877Y194520D01*
X214069Y194982D01*
X277320D01*
X286251Y186051D01*
D02*
G37*
G36*
X435064Y154739D02*
X435082Y154736D01*
Y152600D01*
X435152Y152249D01*
X435351Y151951D01*
X438782Y148520D01*
Y133297D01*
X438282Y133030D01*
X437936Y133261D01*
X437000Y133447D01*
X436064Y133261D01*
X435270Y132730D01*
X434739Y131936D01*
X434553Y131000D01*
X434739Y130064D01*
X435270Y129270D01*
X436064Y128739D01*
X436082Y128735D01*
Y124360D01*
X435582Y124153D01*
X433118Y126618D01*
Y132118D01*
X433048Y132469D01*
X432849Y132767D01*
X428918Y136698D01*
Y137235D01*
X428936Y137239D01*
X429730Y137770D01*
X430261Y138564D01*
X430425Y139389D01*
X430893Y139628D01*
X432078Y138443D01*
X431739Y137936D01*
X431553Y137000D01*
X431739Y136064D01*
X432270Y135270D01*
X433064Y134739D01*
X434000Y134553D01*
X434936Y134739D01*
X435730Y135270D01*
X436261Y136064D01*
X436447Y137000D01*
X436261Y137936D01*
X435730Y138730D01*
X434936Y139261D01*
X434000Y139447D01*
X433724Y139392D01*
X429267Y143849D01*
X428969Y144048D01*
X428618Y144118D01*
X415882D01*
X415530Y144048D01*
X415233Y143849D01*
X408552Y137168D01*
X407280D01*
X407129Y137668D01*
X407730Y138070D01*
X408261Y138864D01*
X408447Y139800D01*
X408261Y140736D01*
X407730Y141530D01*
X406936Y142061D01*
X406000Y142247D01*
X405064Y142061D01*
X405048Y142050D01*
X398515Y148582D01*
X398723Y149082D01*
X427936D01*
X427939Y149064D01*
X428470Y148270D01*
X429264Y147739D01*
X430200Y147553D01*
X430465Y147606D01*
X430577Y147467D01*
X430713Y147145D01*
X430239Y146436D01*
X430053Y145500D01*
X430239Y144564D01*
X430770Y143770D01*
X431564Y143239D01*
X432500Y143053D01*
X433436Y143239D01*
X434230Y143770D01*
X434761Y144564D01*
X434947Y145500D01*
X434761Y146436D01*
X434230Y147230D01*
X433818Y147506D01*
Y155115D01*
X434318Y155238D01*
X435064Y154739D01*
D02*
G37*
G36*
X410158Y135472D02*
X410239Y135064D01*
X410770Y134270D01*
X411564Y133739D01*
X412500Y133553D01*
X413413Y133735D01*
X413751Y133442D01*
X413782Y133412D01*
Y132797D01*
X413282Y132530D01*
X412936Y132761D01*
X412000Y132947D01*
X411064Y132761D01*
X410270Y132230D01*
X409739Y131436D01*
X409735Y131418D01*
X235679D01*
X235447Y131700D01*
X235261Y132636D01*
X234730Y133430D01*
X233936Y133961D01*
X233000Y134147D01*
X232064Y133961D01*
X231270Y133430D01*
X230739Y132636D01*
X230553Y131700D01*
X230739Y130764D01*
X231270Y129970D01*
X232064Y129439D01*
X233000Y129253D01*
X233936Y129439D01*
X234162Y129590D01*
X234200Y129582D01*
X409687D01*
X409944Y129169D01*
X409703Y128718D01*
X221469D01*
X221277Y129180D01*
X227430Y135332D01*
X408932D01*
X409283Y135402D01*
X409581Y135601D01*
X409616Y135636D01*
X410158Y135472D01*
D02*
G37*
G36*
X427172Y141782D02*
X427064Y141761D01*
X426270Y141230D01*
X425739Y140436D01*
X425553Y139500D01*
X425739Y138564D01*
X426270Y137770D01*
X427064Y137239D01*
X427082Y137235D01*
Y136318D01*
X427152Y135967D01*
X427351Y135670D01*
X429136Y133884D01*
X428972Y133342D01*
X428564Y133261D01*
X427770Y132730D01*
X427239Y131936D01*
X427053Y131000D01*
X427239Y130064D01*
X427770Y129270D01*
X428564Y128739D01*
X428582Y128735D01*
Y128225D01*
X428196Y127908D01*
X428000Y127947D01*
X427064Y127761D01*
X426270Y127230D01*
X425739Y126436D01*
X425736Y126418D01*
X424780D01*
X424139Y127058D01*
X423842Y127257D01*
X423490Y127327D01*
X414597D01*
X414405Y127789D01*
X415349Y128733D01*
X415548Y129031D01*
X415618Y129382D01*
Y133800D01*
X415548Y134151D01*
X415349Y134449D01*
X414750Y135048D01*
X414761Y135064D01*
X414947Y136000D01*
X414761Y136936D01*
X414230Y137730D01*
X413436Y138261D01*
X413028Y138342D01*
X412864Y138884D01*
X416262Y142282D01*
X427123D01*
X427172Y141782D01*
D02*
G37*
G36*
X85208Y144897D02*
X86073Y144539D01*
X87000Y144417D01*
X87927Y144539D01*
X88792Y144897D01*
X88800Y144903D01*
X106551Y127151D01*
X106849Y126952D01*
X107200Y126882D01*
X311012D01*
X311204Y126420D01*
X310101Y125318D01*
X102780D01*
X84018Y144080D01*
Y145314D01*
X84060Y145328D01*
X84518Y145427D01*
X85208Y144897D01*
D02*
G37*
G36*
X101751Y123751D02*
X102049Y123552D01*
X102400Y123482D01*
X309958D01*
X310165Y122982D01*
X307601Y120418D01*
X162265D01*
X162261Y120436D01*
X161730Y121230D01*
X160936Y121761D01*
X160000Y121947D01*
X159064Y121761D01*
X158270Y121230D01*
X157739Y120436D01*
X157553Y119500D01*
X157739Y118564D01*
X157970Y118218D01*
X157703Y117718D01*
X86851D01*
X86500Y117648D01*
X86203Y117449D01*
X83280Y114526D01*
X82818Y114717D01*
Y142031D01*
X83280Y142223D01*
X101751Y123751D01*
D02*
G37*
G36*
X423751Y124851D02*
X424049Y124652D01*
X424400Y124582D01*
X425736D01*
X425739Y124564D01*
X426270Y123770D01*
X427058Y123243D01*
X427064Y123239D01*
X427270Y122688D01*
X427217Y122618D01*
X421900D01*
X421549Y122548D01*
X421251Y122349D01*
X418120Y119218D01*
X416797D01*
X416530Y119718D01*
X416761Y120064D01*
X416947Y121000D01*
X416761Y121936D01*
X416230Y122730D01*
X415436Y123261D01*
X414500Y123447D01*
X413564Y123261D01*
X413548Y123250D01*
X411768Y125030D01*
X411959Y125492D01*
X423110D01*
X423751Y124851D01*
D02*
G37*
G36*
X315732Y123830D02*
X309620Y117718D01*
X162297D01*
X162056Y118169D01*
X162313Y118582D01*
X307981D01*
X308332Y118652D01*
X308630Y118851D01*
X314071Y124292D01*
X315541D01*
X315732Y123830D01*
D02*
G37*
G36*
X411969Y116718D02*
X411762Y116218D01*
X408084D01*
X406049Y118253D01*
X405751Y118452D01*
X405400Y118522D01*
X353754D01*
X353403Y118452D01*
X353105Y118253D01*
X352402Y117550D01*
X352386Y117561D01*
X351450Y117747D01*
X350514Y117561D01*
X349720Y117030D01*
X349189Y116236D01*
X349003Y115300D01*
X349189Y114364D01*
X349420Y114018D01*
X349153Y113518D01*
X347185D01*
X347054Y114018D01*
X347730Y114470D01*
X348261Y115264D01*
X348447Y116200D01*
X348261Y117136D01*
X347730Y117930D01*
X346936Y118461D01*
X346000Y118647D01*
X345064Y118461D01*
X344270Y117930D01*
X343739Y117136D01*
X343736Y117118D01*
X331580D01*
X327949Y120749D01*
X327651Y120948D01*
X327300Y121018D01*
X323395D01*
X323141Y121425D01*
X323390Y121892D01*
X406795D01*
X411969Y116718D01*
D02*
G37*
G36*
X318562Y121522D02*
X318815Y121080D01*
X318828Y120977D01*
X318653Y120100D01*
X318839Y119164D01*
X319370Y118370D01*
X320164Y117839D01*
X321100Y117653D01*
X322036Y117839D01*
X322830Y118370D01*
X323361Y119164D01*
X323364Y119182D01*
X326920D01*
X330551Y115551D01*
X330849Y115352D01*
X331200Y115282D01*
X343238D01*
X343276Y115218D01*
X342993Y114718D01*
X312313D01*
X312106Y115218D01*
X318430Y121542D01*
X318562Y121522D01*
D02*
G37*
G36*
X428175Y116882D02*
X427564Y116761D01*
X426770Y116230D01*
X426239Y115436D01*
X426053Y114500D01*
X426239Y113564D01*
X426770Y112770D01*
X427564Y112239D01*
X428500Y112053D01*
X429436Y112239D01*
X429452Y112250D01*
X430282Y111420D01*
Y110797D01*
X429782Y110530D01*
X429436Y110761D01*
X428500Y110947D01*
X427564Y110761D01*
X426770Y110230D01*
X426239Y109436D01*
X426235Y109418D01*
X316996D01*
X314664Y111749D01*
X314367Y111948D01*
X314015Y112018D01*
X289197D01*
X288940Y112431D01*
X289181Y112882D01*
X343720D01*
X344651Y111951D01*
X344949Y111752D01*
X345300Y111682D01*
X401000D01*
X401351Y111752D01*
X401649Y111951D01*
X402348Y112650D01*
X402364Y112639D01*
X403300Y112453D01*
X404236Y112639D01*
X405030Y113170D01*
X405561Y113964D01*
X405747Y114900D01*
X405659Y115340D01*
X406120Y115586D01*
X407055Y114651D01*
X407353Y114452D01*
X407704Y114382D01*
X422700D01*
X423051Y114452D01*
X423349Y114651D01*
X423449Y114751D01*
X423648Y115049D01*
X423718Y115400D01*
Y117382D01*
X428126D01*
X428175Y116882D01*
D02*
G37*
G36*
X401273Y116187D02*
X401039Y115836D01*
X400853Y114900D01*
X401039Y113964D01*
X401050Y113948D01*
X400620Y113518D01*
X353747D01*
X353480Y114018D01*
X353711Y114364D01*
X353897Y115300D01*
X353711Y116236D01*
X353700Y116252D01*
X354134Y116687D01*
X401006D01*
X401273Y116187D01*
D02*
G37*
G36*
X284854Y112382D02*
X284623Y112036D01*
X284437Y111100D01*
X284623Y110164D01*
X284854Y109818D01*
X284587Y109318D01*
X162243D01*
X161813Y109748D01*
X161824Y109764D01*
X162010Y110700D01*
X161824Y111636D01*
X161325Y112382D01*
X161448Y112882D01*
X284587D01*
X284854Y112382D01*
D02*
G37*
G36*
X426444Y107169D02*
X426203Y106718D01*
X317999D01*
X317596Y107120D01*
X317787Y107582D01*
X426187D01*
X426444Y107169D01*
D02*
G37*
G36*
X316969Y105151D02*
X317267Y104952D01*
X317618Y104882D01*
X347631D01*
X347823Y104420D01*
X338520Y95118D01*
X290997D01*
X290729Y95618D01*
X291061Y96114D01*
X291247Y97050D01*
X291061Y97986D01*
X291050Y98002D01*
X299230Y106182D01*
X310236D01*
X310239Y106164D01*
X310770Y105370D01*
X311564Y104839D01*
X312500Y104653D01*
X313436Y104839D01*
X314230Y105370D01*
X314761Y106164D01*
X314842Y106572D01*
X315385Y106736D01*
X316969Y105151D01*
D02*
G37*
G36*
X157801Y112382D02*
X157302Y111636D01*
X157116Y110700D01*
X157302Y109764D01*
X157833Y108970D01*
X158627Y108439D01*
X159563Y108253D01*
X160499Y108439D01*
X160515Y108450D01*
X161214Y107751D01*
X161512Y107552D01*
X161863Y107482D01*
X297281D01*
X297473Y107020D01*
X289752Y99300D01*
X289736Y99311D01*
X288800Y99497D01*
X287864Y99311D01*
X287070Y98780D01*
X286539Y97986D01*
X286353Y97050D01*
X286539Y96114D01*
X286871Y95618D01*
X286603Y95118D01*
X117700D01*
X117349Y95048D01*
X117051Y94849D01*
X109452Y87250D01*
X109436Y87261D01*
X108668Y87414D01*
X108457Y87910D01*
X133430Y112882D01*
X157678D01*
X157801Y112382D01*
D02*
G37*
G36*
X427944Y100831D02*
X427687Y100418D01*
X361400D01*
X361049Y100348D01*
X360751Y100149D01*
X359674Y99072D01*
X359644Y99088D01*
X359238Y99343D01*
X359061Y100236D01*
X358696Y100782D01*
X358963Y101282D01*
X427703D01*
X427944Y100831D01*
D02*
G37*
G36*
X440082Y109168D02*
Y99562D01*
X434384Y93864D01*
X433842Y94028D01*
X433761Y94436D01*
X433230Y95230D01*
X432436Y95761D01*
X431500Y95947D01*
X430564Y95761D01*
X429770Y95230D01*
X429239Y94436D01*
X429236Y94418D01*
X397300D01*
X396949Y94348D01*
X396651Y94149D01*
X385093Y82590D01*
X384704Y82909D01*
X385142Y83564D01*
X385328Y84500D01*
X385142Y85436D01*
X384611Y86230D01*
X383817Y86761D01*
X382881Y86947D01*
X381944Y86761D01*
X381151Y86230D01*
X380620Y85436D01*
X380616Y85418D01*
X358214D01*
X358211Y85436D01*
X357680Y86230D01*
X356886Y86761D01*
X355950Y86947D01*
X355014Y86761D01*
X354220Y86230D01*
X353689Y85436D01*
X353503Y84500D01*
X353689Y83564D01*
X354220Y82770D01*
X354447Y82618D01*
X354296Y82118D01*
X323230D01*
X322963Y82618D01*
X323261Y83064D01*
X323265Y83082D01*
X345900D01*
X346251Y83152D01*
X346549Y83351D01*
X361780Y98582D01*
X427736D01*
X427739Y98564D01*
X428270Y97770D01*
X429064Y97239D01*
X430000Y97053D01*
X430936Y97239D01*
X431730Y97770D01*
X432261Y98564D01*
X432447Y99500D01*
X432261Y100436D01*
X431730Y101230D01*
X431915Y101708D01*
X439582Y109375D01*
X440082Y109168D01*
D02*
G37*
G36*
X351800Y103220D02*
X341898Y93318D01*
X340022D01*
X339815Y93818D01*
X349680Y103682D01*
X351609D01*
X351800Y103220D01*
D02*
G37*
G36*
X204085Y92782D02*
X161620Y50318D01*
X96400D01*
X96049Y50248D01*
X95751Y50049D01*
X88800Y43097D01*
X88792Y43103D01*
X87927Y43461D01*
X87000Y43583D01*
X86073Y43461D01*
X85208Y43103D01*
X84518Y42573D01*
X84060Y42672D01*
X84018Y42686D01*
Y47520D01*
X102649Y66151D01*
X102848Y66449D01*
X102918Y66800D01*
Y69101D01*
X103047Y69547D01*
X103418Y69547D01*
X106500D01*
Y73500D01*
Y77453D01*
X103418D01*
X103047Y77453D01*
X102918Y77899D01*
Y82370D01*
X105590Y85043D01*
X106087Y84832D01*
X106239Y84064D01*
X106770Y83270D01*
X107564Y82739D01*
X108500Y82553D01*
X109436Y82739D01*
X110230Y83270D01*
X110761Y84064D01*
X110947Y85000D01*
X110761Y85936D01*
X110750Y85952D01*
X118080Y93282D01*
X203877D01*
X204085Y92782D01*
D02*
G37*
G36*
X429444Y92169D02*
X429203Y91718D01*
X411800D01*
X411449Y91648D01*
X411151Y91449D01*
X400420Y80718D01*
X386469D01*
X386277Y81180D01*
X397680Y92582D01*
X429187D01*
X429444Y92169D01*
D02*
G37*
G36*
X380647Y68582D02*
X380270Y68330D01*
X379739Y67536D01*
X379553Y66600D01*
X379739Y65664D01*
X379750Y65648D01*
X352720Y38618D01*
X332765D01*
X332761Y38636D01*
X332230Y39430D01*
X331436Y39961D01*
X330500Y40147D01*
X329564Y39961D01*
X328770Y39430D01*
X328419Y38906D01*
X327917Y39053D01*
X327761Y39836D01*
X327750Y39852D01*
X353780Y65882D01*
X366736D01*
X366739Y65864D01*
X367270Y65070D01*
X368064Y64539D01*
X369000Y64353D01*
X369936Y64539D01*
X370730Y65070D01*
X371261Y65864D01*
X371447Y66800D01*
X371261Y67736D01*
X370730Y68530D01*
X370652Y68582D01*
X370804Y69082D01*
X380495D01*
X380647Y68582D01*
D02*
G37*
G36*
X246461Y79820D02*
X222437Y55796D01*
X221976Y56043D01*
X222047Y56400D01*
X221861Y57336D01*
X221850Y57352D01*
X244780Y80282D01*
X246269D01*
X246461Y79820D01*
D02*
G37*
G36*
X367348Y68582D02*
X367270Y68530D01*
X366739Y67736D01*
X366736Y67718D01*
X353400D01*
X353049Y67648D01*
X352751Y67449D01*
X326452Y41150D01*
X326436Y41161D01*
X325500Y41347D01*
X324564Y41161D01*
X324218Y40930D01*
X323718Y41197D01*
Y68370D01*
X324430Y69082D01*
X367196D01*
X367348Y68582D01*
D02*
G37*
G36*
X447538Y33133D02*
X447572Y32869D01*
X431755Y17053D01*
X425947D01*
Y10418D01*
X402053D01*
Y15755D01*
X413827Y27530D01*
X429058D01*
X429091Y27030D01*
X428573Y26961D01*
X427708Y26603D01*
X426966Y26034D01*
X426397Y25292D01*
X426039Y24427D01*
X425917Y23500D01*
X426039Y22573D01*
X426397Y21708D01*
X426966Y20966D01*
X427708Y20397D01*
X428573Y20039D01*
X429500Y19917D01*
X430428Y20039D01*
X431292Y20397D01*
X432034Y20966D01*
X432603Y21708D01*
X432961Y22573D01*
X433083Y23500D01*
X432961Y24427D01*
X432603Y25292D01*
X432034Y26034D01*
X431292Y26603D01*
X430428Y26961D01*
X429909Y27030D01*
X429942Y27530D01*
X440847D01*
X441198Y27599D01*
X441496Y27798D01*
X447011Y33313D01*
X447538Y33133D01*
D02*
G37*
G36*
X411970Y28268D02*
X400755Y17053D01*
X394947D01*
Y10418D01*
X353880D01*
X353053Y11245D01*
Y17053D01*
X345947D01*
Y14418D01*
X326504D01*
X326417Y14481D01*
X326151Y14823D01*
X326461Y15573D01*
X326583Y16500D01*
X326461Y17427D01*
X326103Y18292D01*
X325573Y18982D01*
X325672Y19440D01*
X325686Y19482D01*
X326520D01*
X327151Y18851D01*
X327449Y18652D01*
X327800Y18582D01*
X366300D01*
X366651Y18652D01*
X366949Y18851D01*
X376827Y28730D01*
X411779D01*
X411970Y28268D01*
D02*
G37*
G36*
X448882Y30931D02*
Y11630D01*
X447670Y10418D01*
X433053D01*
Y15755D01*
X448420Y31123D01*
X448882Y30931D01*
D02*
G37*
%LPC*%
G36*
X339000Y104258D02*
Y102000D01*
X341258D01*
X341228Y102231D01*
X340946Y102912D01*
X340497Y103497D01*
X339912Y103946D01*
X339231Y104228D01*
X339000Y104258D01*
D02*
G37*
G36*
X338000D02*
X337769Y104228D01*
X337088Y103946D01*
X336503Y103497D01*
X336054Y102912D01*
X335772Y102231D01*
X335742Y102000D01*
X338000D01*
Y104258D01*
D02*
G37*
G36*
X341258Y101000D02*
X339000D01*
Y98742D01*
X339231Y98772D01*
X339912Y99054D01*
X340497Y99503D01*
X340946Y100088D01*
X341228Y100769D01*
X341258Y101000D01*
D02*
G37*
G36*
X338000D02*
X335742D01*
X335772Y100769D01*
X336054Y100088D01*
X336503Y99503D01*
X337088Y99054D01*
X337769Y98772D01*
X338000Y98742D01*
Y101000D01*
D02*
G37*
G36*
X149400Y78858D02*
Y76600D01*
X151658D01*
X151628Y76831D01*
X151346Y77512D01*
X150897Y78097D01*
X150312Y78546D01*
X149631Y78828D01*
X149400Y78858D01*
D02*
G37*
G36*
X148400D02*
X148169Y78828D01*
X147488Y78546D01*
X146903Y78097D01*
X146454Y77512D01*
X146172Y76831D01*
X146142Y76600D01*
X148400D01*
Y78858D01*
D02*
G37*
G36*
X107500Y77453D02*
Y74000D01*
X110953D01*
Y77453D01*
X107500D01*
D02*
G37*
G36*
X151658Y75600D02*
X149400D01*
Y73342D01*
X149631Y73372D01*
X150312Y73654D01*
X150897Y74103D01*
X151346Y74688D01*
X151628Y75369D01*
X151658Y75600D01*
D02*
G37*
G36*
X148400D02*
X146142D01*
X146172Y75369D01*
X146454Y74688D01*
X146903Y74103D01*
X147488Y73654D01*
X148169Y73372D01*
X148400Y73342D01*
Y75600D01*
D02*
G37*
G36*
X110953Y73000D02*
X107500D01*
Y69547D01*
X110953D01*
Y73000D01*
D02*
G37*
G36*
X160200Y65858D02*
Y63600D01*
X162458D01*
X162428Y63831D01*
X162146Y64512D01*
X161697Y65097D01*
X161112Y65546D01*
X160431Y65828D01*
X160200Y65858D01*
D02*
G37*
G36*
X159200D02*
X158969Y65828D01*
X158288Y65546D01*
X157703Y65097D01*
X157254Y64512D01*
X156972Y63831D01*
X156942Y63600D01*
X159200D01*
Y65858D01*
D02*
G37*
G36*
X162458Y62600D02*
X160200D01*
Y60342D01*
X160431Y60372D01*
X161112Y60654D01*
X161697Y61103D01*
X162146Y61688D01*
X162428Y62369D01*
X162458Y62600D01*
D02*
G37*
G36*
X159200D02*
X156942D01*
X156972Y62369D01*
X157254Y61688D01*
X157703Y61103D01*
X158288Y60654D01*
X158969Y60372D01*
X159200Y60342D01*
Y62600D01*
D02*
G37*
G36*
X398500Y27083D02*
X397573Y26961D01*
X396708Y26603D01*
X395966Y26034D01*
X395397Y25292D01*
X395039Y24427D01*
X394917Y23500D01*
X395039Y22573D01*
X395397Y21708D01*
X395966Y20966D01*
X396708Y20397D01*
X397573Y20039D01*
X398500Y19917D01*
X399427Y20039D01*
X400292Y20397D01*
X401034Y20966D01*
X401603Y21708D01*
X401961Y22573D01*
X402083Y23500D01*
X401961Y24427D01*
X401603Y25292D01*
X401034Y26034D01*
X400292Y26603D01*
X399427Y26961D01*
X398500Y27083D01*
D02*
G37*
%LPD*%
D14*
X321000Y84000D02*
X341500D01*
X356800Y99300D01*
X345900Y84000D02*
X361400Y99500D01*
X341500Y84000D02*
X345900D01*
X244400Y81200D02*
X356796D01*
X247738Y79800D02*
X357796D01*
X272500Y78600D02*
X360614D01*
X271100Y77200D02*
X272500Y78600D01*
X360614D02*
X362232Y80218D01*
X271100Y43600D02*
Y77200D01*
X211038Y43100D02*
X247738Y79800D01*
X357796D02*
X359414Y81418D01*
X219600Y56400D02*
X244400Y81200D01*
X356796D02*
X358214Y82618D01*
X237300Y89200D02*
X341400D01*
X354400Y102200D01*
X198500Y50400D02*
X237300Y89200D01*
X309300Y152382D02*
Y152382D01*
X282309Y179373D02*
Y179879D01*
Y179373D02*
X309300Y152382D01*
X281500Y180688D02*
Y181500D01*
Y180688D02*
X282309Y179879D01*
X313382Y148300D02*
X397500D01*
X309300Y152382D02*
X313382Y148300D01*
X315182Y153500D02*
X318682Y150000D01*
X312000Y153500D02*
X315182D01*
X318682Y150000D02*
X430200D01*
X319500Y153000D02*
X424000D01*
X426000Y155000D01*
X397500Y148300D02*
X406000Y139800D01*
X432500Y145500D02*
X432900Y145900D01*
Y157782D01*
X426000Y155000D02*
X429500D01*
X436000Y152600D02*
X439700Y148900D01*
X436000Y152600D02*
Y157000D01*
X312900Y191000D02*
X314500D01*
X289107Y214793D02*
X312900Y191000D01*
X240287Y214793D02*
X289107D01*
X286884Y111100D02*
X314015D01*
X307981Y119500D02*
X313690Y125210D01*
X160000Y119500D02*
X307981D01*
X83147Y109904D02*
X85404Y107647D01*
X93147D01*
X97000Y111500D01*
X83147Y109904D02*
Y113096D01*
X86851Y116800D01*
X310000D01*
X317210Y124010D01*
X311190Y115600D02*
X318400Y122810D01*
X91100Y115600D02*
X311190D01*
X87000Y111500D02*
X91100Y115600D01*
X133050Y113800D02*
X344100D01*
X102000Y82750D02*
X133050Y113800D01*
X117700Y94200D02*
X338900D01*
X108500Y85000D02*
X117700Y94200D01*
X159563Y110700D02*
X161863Y108400D01*
X344100Y113800D02*
X345300Y112600D01*
X161863Y108400D02*
X309982D01*
X102000Y66800D02*
Y82750D01*
X218100Y229300D02*
X282200D01*
X214400Y233000D02*
X218100Y229300D01*
X257000Y184500D02*
X291100D01*
X309500Y166100D01*
X289100Y143900D02*
X397500D01*
X248500Y184500D02*
X289100Y143900D01*
X419300Y117100D02*
X422458Y120258D01*
X412885Y117100D02*
X419300D01*
X407175Y122810D02*
X412885Y117100D01*
X410290Y125210D02*
X414500Y121000D01*
X313690Y125210D02*
X410290D01*
X418500Y118300D02*
X421900Y121700D01*
X413382Y118300D02*
X418500D01*
X407672Y124010D02*
X413382Y118300D01*
X317210Y124010D02*
X407672D01*
X318400Y122810D02*
X407175D01*
X407704Y115300D02*
X422700D01*
X405400Y117604D02*
X407704Y115300D01*
X422700D02*
X422800Y115400D01*
Y118200D01*
X422900Y118300D01*
X414700Y129382D02*
Y133800D01*
X412500Y136000D02*
X414700Y133800D01*
X408932Y136250D02*
X415882Y143200D01*
X227050Y136250D02*
X408932D01*
X415882Y143200D02*
X428618D01*
X413118Y127800D02*
X414700Y129382D01*
X107200Y127800D02*
X413118D01*
X87000Y148000D02*
X107200Y127800D01*
X234200Y130500D02*
X412000D01*
X233000Y131700D02*
X234200Y130500D01*
X312490Y126410D02*
X423490D01*
X424400Y125500D01*
X428000D01*
X438300Y128482D02*
X439700Y129882D01*
X438300Y118412D02*
Y128482D01*
Y118412D02*
X439100Y117613D01*
X437000Y118015D02*
Y131000D01*
Y118015D02*
X437900Y117115D01*
X441000Y99182D02*
Y125000D01*
X432618Y90800D02*
X441000Y99182D01*
X443700Y98803D02*
Y168650D01*
X434497Y89600D02*
X443700Y98803D01*
X443600Y168750D02*
X443700Y168650D01*
X439700Y129882D02*
Y148900D01*
X422300Y168382D02*
X432900Y157782D01*
X425000Y169500D02*
Y179909D01*
X442500Y197409D01*
X422300Y188100D02*
X424600Y190400D01*
X422300Y168382D02*
Y188100D01*
X429500Y33500D02*
Y69000D01*
X425500Y73000D02*
X429500Y69000D01*
X425300Y86500D02*
X432500D01*
X411800Y90800D02*
X432618D01*
X413000Y89600D02*
X434497D01*
X402000Y78600D02*
X413000Y89600D01*
X397300Y93500D02*
X431500D01*
X385000Y81200D02*
X397300Y93500D01*
X400800Y79800D02*
X411800Y90800D01*
X317618Y105800D02*
X429618D01*
X313618Y109800D02*
X317618Y105800D01*
X349300Y104600D02*
X430115D01*
X431110Y102200D02*
X439100Y110190D01*
X354400Y102200D02*
X431110D01*
X361400Y99500D02*
X430000D01*
X430613Y103400D02*
X437900Y110687D01*
X353278Y103400D02*
X430613D01*
X430115Y104600D02*
X436700Y111185D01*
X429618Y105800D02*
X431200Y107382D01*
X428500Y114500D02*
X431200Y111800D01*
Y107382D02*
Y111800D01*
X436700Y111185D02*
Y116618D01*
X338900Y94200D02*
X349300Y104600D01*
X437900Y110687D02*
Y117115D01*
X342278Y92400D02*
X353278Y103400D01*
X439100Y110190D02*
Y117613D01*
X314015Y111100D02*
X316615Y108500D01*
X428500D01*
X429350Y118300D02*
X432150Y115500D01*
X435200Y118118D02*
Y123238D01*
Y118118D02*
X436700Y116618D01*
X432150Y115500D02*
X434000D01*
X429500Y127818D02*
Y131000D01*
Y127818D02*
X430700Y126618D01*
X432200Y126237D02*
X435200Y123238D01*
X432200Y126237D02*
Y132118D01*
X428000Y136318D02*
X432200Y132118D01*
X428000Y136318D02*
Y139500D01*
X428618Y143200D02*
X434000Y137818D01*
Y137000D02*
Y137818D01*
X309982Y108400D02*
X311382Y109800D01*
X313618D01*
X422900Y118300D02*
X429350D01*
X430700Y124382D02*
Y126618D01*
X428018Y121700D02*
X430700Y124382D01*
X421900Y121700D02*
X428018D01*
X430943Y122000D02*
X432500D01*
X429201Y120258D02*
X430943Y122000D01*
X422458Y120258D02*
X429201D01*
X166700Y177300D02*
X212100Y131900D01*
X155900Y188100D02*
X166700Y177300D01*
X314600Y186700D02*
X347594D01*
X211200Y195900D02*
X277700D01*
X132400D02*
X211200D01*
X119600Y73500D02*
X149300D01*
X107000D02*
X119600D01*
X152000Y192000D02*
X155900Y188100D01*
Y175000D02*
Y188100D01*
X154400Y173500D02*
X155900Y175000D01*
X39800Y173500D02*
X154400D01*
X166700Y136106D02*
Y177300D01*
X314600Y186700D02*
X329500Y171800D01*
X286900Y186700D02*
X314600D01*
X277700Y195900D02*
X286900Y186700D01*
X347594D02*
X371378Y210484D01*
X256400Y145900D02*
Y150700D01*
X211200Y195900D02*
X256400Y150700D01*
X126500Y190000D02*
X132400Y195900D01*
X93100Y36100D02*
X97000Y40000D01*
X84500Y36100D02*
X93100D01*
X83100Y37500D02*
X84500Y36100D01*
X83100Y37500D02*
Y47900D01*
X102000Y66800D01*
X345300Y112600D02*
X401000D01*
X403300Y114900D01*
X293100Y221600D02*
X296100Y218600D01*
X219809Y221600D02*
X293100D01*
X152000Y202000D02*
X248200D01*
X298000Y28000D02*
X303800Y22200D01*
X338200D01*
X349500Y33500D01*
X283839Y70000D02*
X310900D01*
X84500Y190000D02*
X92500Y182000D01*
X152000D01*
X220000Y129200D02*
X227050Y136250D01*
X108400Y129200D02*
X220000D01*
X102000Y135600D02*
X108400Y129200D01*
X102000Y135600D02*
Y152500D01*
X100200Y154300D02*
X102000Y152500D01*
X82600Y154300D02*
X100200D01*
X81900Y153600D02*
X82600Y154300D01*
X81900Y88600D02*
Y153600D01*
Y88600D02*
X97000Y73500D01*
X321100Y120100D02*
X327300D01*
X331200Y116200D01*
X346000D01*
X218500Y28000D02*
X226100Y20400D01*
X326900D01*
X327800Y19500D01*
X366300D01*
X376447Y29647D01*
X431797D01*
X433400Y31250D01*
Y66000D01*
X208500Y43100D02*
X211038D01*
X359414Y81418D02*
X367214D01*
X368832Y79800D01*
X400800D01*
X326000Y13500D02*
X349500D01*
X323000Y16500D02*
X326000Y13500D01*
X367632Y78600D02*
X402000D01*
X366014Y80218D02*
X367632Y78600D01*
X362232Y80218D02*
X366014D01*
X369832Y81200D02*
X385000D01*
X368414Y82618D02*
X369832Y81200D01*
X358214Y82618D02*
X368414D01*
X353400Y66800D02*
X369000D01*
X325500Y38900D02*
X353400Y66800D01*
X330500Y37700D02*
X353100D01*
X382000Y66600D01*
X362100Y76200D02*
X363400Y77500D01*
X280000Y76200D02*
X362100D01*
X276300Y72500D02*
X280000Y76200D01*
X276300Y42100D02*
Y72500D01*
X408800Y70000D02*
X425300Y86500D01*
X324050Y70000D02*
X408800D01*
X322800Y68750D02*
X324050Y70000D01*
X322800Y26700D02*
Y68750D01*
Y26700D02*
X323000Y26500D01*
X284200Y141000D02*
X372900D01*
X263300Y161900D02*
X284200Y141000D01*
X309500Y166100D02*
X380500D01*
X298000Y28000D02*
Y57100D01*
X310900Y70000D01*
X87000Y40000D02*
X96400Y49400D01*
X162000D01*
X205000Y92400D01*
X342278D01*
X107000Y40000D02*
X273969D01*
X274600Y39369D01*
X286631D01*
X298000Y28000D01*
X351450Y115300D02*
X353754Y117604D01*
X405400D01*
X429500Y13500D02*
X448600Y32600D01*
Y209900D01*
X399984Y258516D02*
X448600Y209900D01*
X371378Y258516D02*
X399984D01*
X418622Y244678D02*
Y258516D01*
Y244678D02*
X449800Y213500D01*
Y11250D02*
Y213500D01*
X448050Y9500D02*
X449800Y11250D01*
X353500Y9500D02*
X448050D01*
X349500Y13500D02*
X353500Y9500D01*
X398500Y13500D02*
X413447Y28447D01*
X440847D01*
X447400Y35000D01*
Y202510D01*
X447300Y202610D02*
X447400Y202510D01*
X395000Y202610D02*
X447300D01*
X298850Y107100D02*
X312500D01*
X288800Y97050D02*
X298850Y107100D01*
X107000Y148000D02*
X132800D01*
X152000Y167200D01*
X149300Y73500D02*
X159700Y63100D01*
X92500Y152500D02*
X97000Y148000D01*
X84350Y152500D02*
X92500D01*
X83100Y151250D02*
X84350Y152500D01*
X83100Y143700D02*
Y151250D01*
Y143700D02*
X102400Y124400D01*
X310481D01*
X312490Y126410D01*
X355950Y84500D02*
X382881D01*
X122200Y76100D02*
X148900D01*
X119600Y73500D02*
X122200Y76100D01*
X324295Y268858D02*
X415842D01*
X430200Y254500D01*
X442000D01*
X25000Y210000D02*
X54500D01*
X74500Y190000D01*
X91846Y238346D02*
X116500Y263000D01*
X25000Y238346D02*
X91846D01*
X384453Y197409D02*
X442500D01*
X371378Y210484D02*
X384453Y197409D01*
X116500Y190000D02*
X126500D01*
X116500Y263000D02*
X126500D01*
X398500Y33500D02*
X429500D01*
X349500D02*
X398500D01*
X74500Y263000D02*
X84500D01*
X74500Y190000D02*
X84500D01*
D71*
X25000Y238346D02*
D03*
D72*
Y210000D02*
D03*
D73*
X442000Y254500D02*
D03*
Y264500D02*
D03*
D74*
Y259500D02*
D03*
D75*
X218500Y28000D02*
D03*
X208500D02*
D03*
X398500Y33500D02*
D03*
Y23500D02*
D03*
X429500Y33500D02*
D03*
Y23500D02*
D03*
X323000Y16500D02*
D03*
X349500Y33500D02*
D03*
Y23500D02*
D03*
X298000Y28000D02*
D03*
X288000D02*
D03*
X278000D02*
D03*
X268000D02*
D03*
X258000D02*
D03*
X97000Y40000D02*
D03*
X87000D02*
D03*
X77000D02*
D03*
X97000Y73500D02*
D03*
X87000D02*
D03*
X77000D02*
D03*
X97000Y148000D02*
D03*
X87000D02*
D03*
X77000D02*
D03*
X97000Y111500D02*
D03*
X87000D02*
D03*
X77000D02*
D03*
X152000Y192000D02*
D03*
Y202000D02*
D03*
Y212000D02*
D03*
D76*
X198500Y28000D02*
D03*
X248000D02*
D03*
X107000Y40000D02*
D03*
Y73500D02*
D03*
Y148000D02*
D03*
Y111500D02*
D03*
D77*
X398500Y13500D02*
D03*
X429500D02*
D03*
X323000Y26500D02*
D03*
X349500Y13500D02*
D03*
X152000Y182000D02*
D03*
D78*
X371378Y258516D02*
D03*
X418622D02*
D03*
Y210484D02*
D03*
D79*
X395000Y202610D02*
D03*
D80*
X371378Y210484D02*
D03*
D81*
X442500Y197409D02*
D03*
D82*
Y238591D02*
D03*
D83*
X236675Y203957D02*
D03*
X229451D02*
D03*
X240287Y207569D02*
D03*
X233063D02*
D03*
X225839D02*
D03*
X236675Y211181D02*
D03*
X229451D02*
D03*
X240287Y214793D02*
D03*
X233063D02*
D03*
X225839D02*
D03*
X236675Y218406D02*
D03*
X229451D02*
D03*
D84*
X298705Y268858D02*
D03*
X324295D02*
D03*
X298705Y251142D02*
D03*
X180000Y253000D02*
D03*
X154409D02*
D03*
X180000Y270717D02*
D03*
D85*
X324295Y251142D02*
D03*
X154409Y270717D02*
D03*
D86*
X116500Y263000D02*
D03*
X84500D02*
D03*
X116500Y190000D02*
D03*
X84500D02*
D03*
D87*
X126500Y263000D02*
D03*
X74500D02*
D03*
X126500Y190000D02*
D03*
X74500D02*
D03*
D88*
X338500Y101500D02*
D03*
X321000Y84000D02*
D03*
X312000Y153500D02*
D03*
X319500Y153000D02*
D03*
X432500Y145500D02*
D03*
X430200Y150000D02*
D03*
X314500Y191000D02*
D03*
X286884Y111100D02*
D03*
X160000Y119500D02*
D03*
X108500Y85000D02*
D03*
X159563Y110700D02*
D03*
X282200Y229300D02*
D03*
X281500Y181500D02*
D03*
X257000Y184500D02*
D03*
X248500D02*
D03*
X414500Y121000D02*
D03*
X412500Y136000D02*
D03*
X412000Y130500D02*
D03*
X441000Y125000D02*
D03*
X437000Y131000D02*
D03*
X429500Y155000D02*
D03*
X436000Y157000D02*
D03*
X425000Y169500D02*
D03*
X428500Y114500D02*
D03*
X372900Y141000D02*
D03*
X382881Y84500D02*
D03*
X430000Y99500D02*
D03*
X425500Y73000D02*
D03*
X434000Y115500D02*
D03*
X397500Y143900D02*
D03*
X428000Y125500D02*
D03*
X406000Y139800D02*
D03*
X428000Y139500D02*
D03*
X403300Y114900D02*
D03*
X382000Y66600D02*
D03*
X380500Y166100D02*
D03*
X428500Y108500D02*
D03*
X432500Y86500D02*
D03*
X431500Y93500D02*
D03*
X432500Y122000D02*
D03*
X434000Y137000D02*
D03*
X429500Y131000D02*
D03*
X433400Y66000D02*
D03*
X369000Y66800D02*
D03*
X363400Y77500D02*
D03*
X443600Y168750D02*
D03*
X39800Y173500D02*
D03*
X166700Y136106D02*
D03*
X329500Y171800D02*
D03*
X256400Y145900D02*
D03*
X296100Y218600D02*
D03*
X219809Y221600D02*
D03*
X248200Y202000D02*
D03*
X283839Y70000D02*
D03*
X356800Y99300D02*
D03*
X321100Y120100D02*
D03*
X346000Y116200D02*
D03*
X208500Y43100D02*
D03*
X198500Y50400D02*
D03*
X271100Y43600D02*
D03*
X219600Y56400D02*
D03*
X325500Y38900D02*
D03*
X330500Y37700D02*
D03*
X276300Y42100D02*
D03*
X263300Y161900D02*
D03*
X310900Y70000D02*
D03*
X424600Y190400D02*
D03*
X351450Y115300D02*
D03*
X312500Y107100D02*
D03*
X288800Y97050D02*
D03*
X152000Y167200D02*
D03*
X159700Y63100D02*
D03*
X233000Y131700D02*
D03*
X212100Y131900D02*
D03*
X355950Y84500D02*
D03*
X148900Y76100D02*
D03*
X214400Y233000D02*
D03*
M02*
