G04*
G04 #@! TF.GenerationSoftware,Altium Limited,Altium Designer,20.1.12 (249)*
G04*
G04 Layer_Color=16711935*
%FSLAX25Y25*%
%MOIN*%
G70*
G04*
G04 #@! TF.SameCoordinates,D2DC16A5-891C-47F1-9DBA-B4DE5785F593*
G04*
G04*
G04 #@! TF.FilePolarity,Positive*
G04*
G01*
G75*
%ADD10C,0.00000*%
%ADD11C,0.00787*%
%ADD14C,0.00600*%
%ADD15C,0.00500*%
%ADD16C,0.01000*%
%ADD90C,0.00394*%
%ADD91C,0.00400*%
G36*
X288351Y262647D02*
X284610D01*
Y264615D01*
X288351D01*
Y262647D01*
D02*
G37*
G36*
X192390Y260178D02*
X188650D01*
Y262147D01*
X192390D01*
Y260178D01*
D02*
G37*
G36*
X288350Y258046D02*
X284610D01*
Y260015D01*
X288350D01*
Y258046D01*
D02*
G37*
G36*
X192390Y255578D02*
X188649D01*
Y257546D01*
X192390D01*
Y255578D01*
D02*
G37*
G36*
Y236678D02*
X188650D01*
Y238647D01*
X192390D01*
Y236678D01*
D02*
G37*
G36*
X181390Y236678D02*
X177650D01*
Y238647D01*
X181390D01*
Y236678D01*
D02*
G37*
G36*
X170351Y236647D02*
X166610D01*
Y238615D01*
X170351D01*
Y236647D01*
D02*
G37*
G36*
X192390Y232078D02*
X188649D01*
Y234046D01*
X192390D01*
Y232078D01*
D02*
G37*
G36*
X181390Y232078D02*
X177649D01*
Y234046D01*
X181390D01*
Y232078D01*
D02*
G37*
G36*
X170350Y232046D02*
X166610D01*
Y234015D01*
X170350D01*
Y232046D01*
D02*
G37*
G36*
X23954Y160610D02*
X21985D01*
Y164350D01*
X23954D01*
Y160610D01*
D02*
G37*
G36*
X19353D02*
X17385D01*
Y164350D01*
X19353D01*
Y160610D01*
D02*
G37*
G36*
X19322Y117650D02*
X17353D01*
Y121390D01*
X19322D01*
Y117650D01*
D02*
G37*
G36*
X23923Y117649D02*
X21954D01*
Y121390D01*
X23923D01*
Y117649D01*
D02*
G37*
G36*
X296890Y112178D02*
X293150D01*
Y114147D01*
X296890D01*
Y112178D01*
D02*
G37*
G36*
Y107578D02*
X293149D01*
Y109546D01*
X296890D01*
Y107578D01*
D02*
G37*
G36*
X189454Y104110D02*
X187485D01*
Y107850D01*
X189454D01*
Y104110D01*
D02*
G37*
G36*
X184853D02*
X182885D01*
Y107851D01*
X184853D01*
Y104110D01*
D02*
G37*
G36*
X348822Y103150D02*
X346853D01*
Y106890D01*
X348822D01*
Y103150D01*
D02*
G37*
G36*
X353422Y103149D02*
X351454D01*
Y106890D01*
X353422D01*
Y103149D01*
D02*
G37*
G36*
X189454Y91610D02*
X187485D01*
Y95350D01*
X189454D01*
Y91610D01*
D02*
G37*
G36*
X184853D02*
X182885D01*
Y95350D01*
X184853D01*
Y91610D01*
D02*
G37*
G36*
X348822Y90650D02*
X346853D01*
Y94390D01*
X348822D01*
Y90650D01*
D02*
G37*
G36*
X353422Y90649D02*
X351454D01*
Y94390D01*
X353422D01*
Y90649D01*
D02*
G37*
G36*
X239390Y75678D02*
X235650D01*
Y77647D01*
X239390D01*
Y75678D01*
D02*
G37*
G36*
X316890Y74678D02*
X313150D01*
Y76647D01*
X316890D01*
Y74678D01*
D02*
G37*
G36*
X155851Y72647D02*
X152110D01*
Y74615D01*
X155851D01*
Y72647D01*
D02*
G37*
G36*
X239390Y71078D02*
X235649D01*
Y73046D01*
X239390D01*
Y71078D01*
D02*
G37*
G36*
X316890Y70078D02*
X313149D01*
Y72046D01*
X316890D01*
Y70078D01*
D02*
G37*
G36*
X155850Y68046D02*
X152110D01*
Y70015D01*
X155850D01*
Y68046D01*
D02*
G37*
D10*
X331600Y173200D02*
X330751Y172848D01*
X330400Y172000D01*
X330751Y171151D01*
X331600Y170800D01*
D11*
X417366Y83787D02*
X416579D01*
X417366D01*
X198024Y240669D02*
X197236D01*
X198024D01*
X330189Y251236D02*
X329402D01*
X330189D01*
X149303Y270622D02*
X148516D01*
X149303D01*
X316114Y101937D02*
X315327D01*
X316114D01*
X255276Y104642D02*
X254488D01*
X255276D01*
X219776D02*
X218988D01*
X219776D01*
X152614Y101937D02*
X151827D01*
X152614D01*
D14*
X312400Y179700D02*
X331600D01*
Y173200D02*
Y179700D01*
Y170800D02*
Y173200D01*
Y164300D02*
Y170800D01*
X312400Y164300D02*
X331600D01*
X312400D02*
Y179700D01*
X330500Y160200D02*
Y164300D01*
X328500Y160200D02*
X330500D01*
X328500D02*
Y164300D01*
X330500D01*
X325500Y160200D02*
Y164300D01*
X323500Y160200D02*
X325500D01*
X323500D02*
Y164300D01*
X325500D01*
X320500Y160200D02*
Y164300D01*
X318500Y160200D02*
X320500D01*
X318500D02*
Y164300D01*
X320500D01*
X315500Y160200D02*
Y164300D01*
X313500Y160200D02*
X315500D01*
X313500D02*
Y164300D01*
X315500D01*
X313500Y179700D02*
Y183800D01*
X315500D01*
Y179700D02*
Y183800D01*
X313500Y179700D02*
X315500D01*
X318500D02*
Y183800D01*
X320500D01*
Y179700D02*
Y183800D01*
X318500Y179700D02*
X320500D01*
X323500D02*
Y183800D01*
X325500D01*
Y179700D02*
Y183800D01*
X323500Y179700D02*
X325500D01*
X328500D02*
Y183800D01*
X330500D01*
Y179700D02*
Y183800D01*
X328500Y179700D02*
X330500D01*
D15*
X40945Y204685D02*
Y254685D01*
X18701Y193661D02*
X31299D01*
X9055Y204685D02*
Y254685D01*
X40945D01*
X9055Y204685D02*
X18701Y193661D01*
X31299D02*
X40945Y204685D01*
X25000Y186772D02*
Y190709D01*
Y257638D02*
Y261575D01*
X23032Y259606D02*
X26969D01*
X425512Y196902D02*
Y272098D01*
X364488D02*
X425512D01*
X364488Y196902D02*
Y272098D01*
Y196902D02*
X425512D01*
X201567Y245394D02*
X272433D01*
X201567D02*
Y270197D01*
Y169803D02*
Y245394D01*
Y169803D02*
X272433D01*
Y245394D01*
Y270197D01*
X201567D02*
X272433D01*
X323311Y248189D02*
Y271811D01*
X299689D02*
X323311D01*
X299689Y248189D02*
Y271811D01*
Y248189D02*
X323311D01*
X155394Y250047D02*
Y273669D01*
Y250047D02*
X179016D01*
Y273669D01*
X155394D02*
X179016D01*
X321094Y103906D02*
X332906D01*
Y92094D02*
Y103906D01*
X321094Y92094D02*
X332906D01*
X321094D02*
Y103906D01*
X254291Y110941D02*
X265709D01*
X254291D02*
Y116059D01*
X265709D01*
Y110941D02*
Y116059D01*
X218791Y110941D02*
X230209D01*
X218791D02*
Y116059D01*
X230209D01*
Y110941D02*
Y116059D01*
X262937Y69079D02*
Y78921D01*
X255063D02*
X262937D01*
X255063Y69079D02*
Y78921D01*
Y69079D02*
X262937D01*
X157594Y103906D02*
X169406D01*
Y92094D02*
Y103906D01*
X157594Y92094D02*
X169406D01*
X157594D02*
Y103906D01*
D16*
X213378Y255433D02*
Y260098D01*
X215710Y262431D01*
X218043Y260098D01*
Y255433D01*
Y258932D01*
X213378D01*
X220376Y255433D02*
Y262431D01*
X225041Y255433D01*
Y262431D01*
X227373D02*
X232039D01*
X229706D01*
Y255433D01*
X239036Y262431D02*
X234371D01*
Y255433D01*
X239036D01*
X234371Y258932D02*
X236704D01*
X241369Y255433D02*
Y262431D01*
X246034Y255433D01*
Y262431D01*
X248367Y255433D02*
Y262431D01*
X253032Y255433D01*
Y262431D01*
X255364Y255433D02*
Y260098D01*
X257697Y262431D01*
X260030Y260098D01*
Y255433D01*
Y258932D01*
X255364D01*
D90*
X447905Y267295D02*
X447071Y267862D01*
X446182Y268340D01*
X445249Y268724D01*
X444282Y269010D01*
X443290Y269194D01*
X442284Y269275D01*
X441275Y269253D01*
X440274Y269126D01*
X439292Y268897D01*
X438338Y268568D01*
X437423Y268143D01*
X436557Y267625D01*
X435749Y267021D01*
X435007Y266337D01*
X434340Y265580D01*
X433754Y264758D01*
X433256Y263881D01*
X432852Y262957D01*
X432544Y261996D01*
X432337Y261008D01*
X432233Y260004D01*
Y258996D01*
X432337Y257992D01*
X432544Y257004D01*
X432852Y256043D01*
X433256Y255119D01*
X433754Y254242D01*
X434340Y253420D01*
X435007Y252663D01*
X435749Y251979D01*
X436557Y251375D01*
X437423Y250857D01*
X438338Y250432D01*
X439292Y250103D01*
X440274Y249874D01*
X441275Y249747D01*
X442284Y249725D01*
X443290Y249806D01*
X444282Y249990D01*
X445249Y250276D01*
X446182Y250660D01*
X447071Y251138D01*
X447905Y251705D01*
X162630Y123606D02*
Y130299D01*
X166370Y123606D02*
Y130299D01*
X162630Y123606D02*
X166370D01*
X162630Y130299D02*
X166370D01*
X418941Y78866D02*
Y165480D01*
X422484D01*
X433902D01*
Y78866D02*
Y165480D01*
X422484Y78866D02*
X433902D01*
X418941D02*
X422484D01*
Y165480D01*
X433370Y211654D02*
Y218346D01*
X429630Y211654D02*
Y218346D01*
X433370D01*
X429630Y211654D02*
X433370D01*
X447906Y251705D02*
Y267295D01*
X152201Y240630D02*
X158894D01*
X152201Y244370D02*
X158894D01*
Y240630D02*
Y244370D01*
X152201Y240630D02*
Y244370D01*
X306701Y240130D02*
X313394D01*
X306701Y243870D02*
X313394D01*
Y240130D02*
Y243870D01*
X306701Y240130D02*
Y243870D01*
X287701Y231370D02*
X294394D01*
X287701Y227630D02*
X294394D01*
X287701D02*
Y231370D01*
X294394Y227630D02*
Y231370D01*
X253701Y155370D02*
X260394D01*
X253701Y151630D02*
X260394D01*
X253701D02*
Y155370D01*
X260394Y151630D02*
Y155370D01*
X287654Y243870D02*
X294347D01*
X287654Y240130D02*
X294347D01*
X287654D02*
Y243870D01*
X294347Y240130D02*
Y243870D01*
X274701Y124630D02*
Y128370D01*
X281394Y124630D02*
Y128370D01*
X274701D02*
X281394D01*
X274701Y124630D02*
X281394D01*
X281894Y93630D02*
Y97370D01*
X275201Y93630D02*
Y97370D01*
Y93630D02*
X281894D01*
X275201Y97370D02*
X281894D01*
X335130Y69606D02*
X338870D01*
X335130Y76299D02*
X338870D01*
X335130Y69606D02*
Y76299D01*
X338870Y69606D02*
Y76299D01*
X324630Y129299D02*
X328370D01*
X324630Y122606D02*
X328370D01*
Y129299D01*
X324630Y122606D02*
Y129299D01*
X313130D02*
X316870D01*
X313130Y122606D02*
X316870D01*
Y129299D01*
X313130Y122606D02*
Y129299D01*
X335630D02*
X339370D01*
X335630Y122606D02*
X339370D01*
Y129299D01*
X335630Y122606D02*
Y129299D01*
X324630Y69606D02*
X328370D01*
X324630Y76299D02*
X328370D01*
X324630Y69606D02*
Y76299D01*
X328370Y69606D02*
Y76299D01*
X232606Y123630D02*
Y127370D01*
X239299Y123630D02*
Y127370D01*
X232606D02*
X239299D01*
X232606Y123630D02*
X239299D01*
X239894Y93630D02*
Y97370D01*
X233201Y93630D02*
Y97370D01*
Y93630D02*
X239894D01*
X233201Y97370D02*
X239894D01*
X173630Y67606D02*
X177370D01*
X173630Y74299D02*
X177370D01*
X173630Y67606D02*
Y74299D01*
X177370Y67606D02*
Y74299D01*
X174130Y130299D02*
X177870D01*
X174130Y123606D02*
X177870D01*
Y130299D01*
X174130Y123606D02*
Y130299D01*
X151630Y130394D02*
X155370D01*
X151630Y123701D02*
X155370D01*
Y130394D01*
X151630Y123701D02*
Y130394D01*
X163130Y67606D02*
X166870D01*
X163130Y74299D02*
X166870D01*
X163130Y67606D02*
Y74299D01*
X166870Y67606D02*
Y74299D01*
D91*
X181201Y233945D02*
Y236748D01*
X177850Y233945D02*
Y236748D01*
X192201Y233945D02*
Y236748D01*
X188850Y233945D02*
Y236748D01*
X19252Y117850D02*
X22055D01*
X19252Y121201D02*
X22055D01*
X188850Y257445D02*
Y260248D01*
X192201Y257445D02*
Y260248D01*
X288150Y259945D02*
Y262748D01*
X284799Y259945D02*
Y262748D01*
X170150Y233945D02*
Y236748D01*
X166799Y233945D02*
Y236748D01*
X348752Y90850D02*
X351555D01*
X348752Y94201D02*
X351555D01*
X184752Y95150D02*
X187555D01*
X184752Y91799D02*
X187555D01*
X19252Y160799D02*
X22055D01*
X19252Y164150D02*
X22055D01*
X348752Y106701D02*
X351555D01*
X348752Y103350D02*
X351555D01*
X296701Y109445D02*
Y112248D01*
X293350Y109445D02*
Y112248D01*
X316701Y71945D02*
Y74748D01*
X313350Y71945D02*
Y74748D01*
X239201Y72945D02*
Y75748D01*
X235850Y72945D02*
Y75748D01*
X184752Y104299D02*
X187555D01*
X184752Y107650D02*
X187555D01*
X152299Y69945D02*
Y72748D01*
X155650Y69945D02*
Y72748D01*
M02*
