G04*
G04 #@! TF.GenerationSoftware,Altium Limited,Altium Designer,20.1.12 (249)*
G04*
G04 Layer_Color=8388736*
%FSLAX25Y25*%
%MOIN*%
G70*
G04*
G04 #@! TF.SameCoordinates,D2DC16A5-891C-47F1-9DBA-B4DE5785F593*
G04*
G04*
G04 #@! TF.FilePolarity,Negative*
G04*
G01*
G75*
%ADD35R,0.03000X0.08600*%
%ADD36R,0.04343X0.03556*%
%ADD37R,0.03950X0.02375*%
%ADD38R,0.03950X0.01981*%
%ADD39R,0.09461X0.14973*%
%ADD40R,0.09600X0.05600*%
%ADD41R,0.04737X0.05131*%
%ADD42R,0.05131X0.04737*%
%ADD43R,0.06036X0.06036*%
%ADD44R,0.08674X0.04343*%
%ADD45R,0.04343X0.08674*%
%ADD46R,0.03556X0.04343*%
G04:AMPARAMS|DCode=47|XSize=33.2mil|YSize=16.66mil|CornerRadius=5.08mil|HoleSize=0mil|Usage=FLASHONLY|Rotation=0.000|XOffset=0mil|YOffset=0mil|HoleType=Round|Shape=RoundedRectangle|*
%AMROUNDEDRECTD47*
21,1,0.03320,0.00650,0,0,0.0*
21,1,0.02303,0.01666,0,0,0.0*
1,1,0.01016,0.01152,-0.00325*
1,1,0.01016,-0.01152,-0.00325*
1,1,0.01016,-0.01152,0.00325*
1,1,0.01016,0.01152,0.00325*
%
%ADD47ROUNDEDRECTD47*%
G04:AMPARAMS|DCode=48|XSize=16.66mil|YSize=33.2mil|CornerRadius=5.08mil|HoleSize=0mil|Usage=FLASHONLY|Rotation=0.000|XOffset=0mil|YOffset=0mil|HoleType=Round|Shape=RoundedRectangle|*
%AMROUNDEDRECTD48*
21,1,0.01666,0.02303,0,0,0.0*
21,1,0.00650,0.03320,0,0,0.0*
1,1,0.01016,0.00325,-0.01152*
1,1,0.01016,-0.00325,-0.01152*
1,1,0.01016,-0.00325,0.01152*
1,1,0.01016,0.00325,0.01152*
%
%ADD48ROUNDEDRECTD48*%
%ADD49R,0.07493X0.06863*%
G04:AMPARAMS|DCode=50|XSize=56.42mil|YSize=31.62mil|CornerRadius=6.95mil|HoleSize=0mil|Usage=FLASHONLY|Rotation=90.000|XOffset=0mil|YOffset=0mil|HoleType=Round|Shape=RoundedRectangle|*
%AMROUNDEDRECTD50*
21,1,0.05642,0.01772,0,0,90.0*
21,1,0.04252,0.03162,0,0,90.0*
1,1,0.01391,0.00886,0.02126*
1,1,0.01391,0.00886,-0.02126*
1,1,0.01391,-0.00886,-0.02126*
1,1,0.01391,-0.00886,0.02126*
%
%ADD50ROUNDEDRECTD50*%
%ADD51R,0.02769X0.02178*%
%ADD52R,0.24422X0.24422*%
%ADD53C,0.24422*%
%ADD54O,0.08674X0.04737*%
%ADD55O,0.08674X0.04737*%
%ADD56C,0.06706*%
%ADD57R,0.06706X0.06706*%
%ADD58R,0.06706X0.06706*%
%ADD59C,0.08595*%
%ADD60C,0.08418*%
%ADD61R,0.08595X0.08595*%
%ADD62R,0.08674X0.08674*%
%ADD63C,0.08674*%
%ADD64C,0.01981*%
%ADD65C,0.06737*%
%ADD66R,0.06737X0.06737*%
%ADD67R,0.07887X0.07887*%
%ADD68C,0.07887*%
%ADD69C,0.04400*%
D35*
X329500Y162700D02*
D03*
X324500D02*
D03*
X319500D02*
D03*
X314500D02*
D03*
Y181300D02*
D03*
X319500D02*
D03*
X324500D02*
D03*
X329500D02*
D03*
D36*
X164500Y124000D02*
D03*
Y129906D02*
D03*
X431500Y217953D02*
D03*
Y212047D02*
D03*
X337000Y70000D02*
D03*
Y75906D02*
D03*
X326500Y128906D02*
D03*
Y123000D02*
D03*
X315000Y128906D02*
D03*
Y123000D02*
D03*
X337500Y128906D02*
D03*
Y123000D02*
D03*
X326500Y70000D02*
D03*
Y75906D02*
D03*
X175500Y68000D02*
D03*
Y73906D02*
D03*
X176000Y129906D02*
D03*
Y124000D02*
D03*
X153500Y130000D02*
D03*
Y124094D02*
D03*
X165000Y68000D02*
D03*
Y73906D02*
D03*
D37*
X431343Y164299D02*
D03*
Y80047D02*
D03*
D38*
X421500Y83787D02*
D03*
Y85756D02*
D03*
Y87724D02*
D03*
Y89693D02*
D03*
Y91661D02*
D03*
Y93630D02*
D03*
Y95598D02*
D03*
Y97567D02*
D03*
Y99535D02*
D03*
Y101504D02*
D03*
Y103472D02*
D03*
Y105441D02*
D03*
Y107409D02*
D03*
Y109378D02*
D03*
Y111346D02*
D03*
Y113315D02*
D03*
Y115283D02*
D03*
Y117252D02*
D03*
Y119220D02*
D03*
Y121189D02*
D03*
Y123157D02*
D03*
Y125126D02*
D03*
Y127094D02*
D03*
Y129063D02*
D03*
Y131032D02*
D03*
Y133000D02*
D03*
Y134969D02*
D03*
Y136937D02*
D03*
Y138906D02*
D03*
Y140874D02*
D03*
Y142843D02*
D03*
Y144811D02*
D03*
Y146780D02*
D03*
Y148748D02*
D03*
Y150717D02*
D03*
Y152685D02*
D03*
Y154654D02*
D03*
Y156622D02*
D03*
Y158591D02*
D03*
Y160559D02*
D03*
D39*
X9599Y140100D02*
D03*
D40*
X34000Y149200D02*
D03*
Y140100D02*
D03*
Y131000D02*
D03*
D41*
X179500Y238693D02*
D03*
Y232000D02*
D03*
X190500Y238693D02*
D03*
Y232000D02*
D03*
Y255500D02*
D03*
Y262193D02*
D03*
X286500Y264693D02*
D03*
Y258000D02*
D03*
X168500Y238693D02*
D03*
Y232000D02*
D03*
X295000Y114193D02*
D03*
Y107500D02*
D03*
X315000Y76693D02*
D03*
Y70000D02*
D03*
X237500Y77693D02*
D03*
Y71000D02*
D03*
X154000Y68000D02*
D03*
Y74693D02*
D03*
D42*
X24000Y119500D02*
D03*
X17307D02*
D03*
X353500Y92500D02*
D03*
X346807D02*
D03*
X182807Y93500D02*
D03*
X189500D02*
D03*
X24000Y162500D02*
D03*
X17307D02*
D03*
X346807Y105000D02*
D03*
X353500D02*
D03*
X189500Y106000D02*
D03*
X182807D02*
D03*
D43*
X240287Y203957D02*
D03*
X233063D02*
D03*
X225839D02*
D03*
X240287Y211181D02*
D03*
X233063D02*
D03*
X225839D02*
D03*
X240287Y218406D02*
D03*
X233063D02*
D03*
X225839D02*
D03*
D44*
X270465Y240709D02*
D03*
Y235709D02*
D03*
Y230709D02*
D03*
Y225709D02*
D03*
Y220709D02*
D03*
Y215709D02*
D03*
Y210709D02*
D03*
Y205709D02*
D03*
Y200709D02*
D03*
Y195709D02*
D03*
Y190709D02*
D03*
Y185709D02*
D03*
Y180709D02*
D03*
Y175709D02*
D03*
X203535D02*
D03*
Y180709D02*
D03*
Y185709D02*
D03*
Y190709D02*
D03*
Y195709D02*
D03*
Y200709D02*
D03*
Y205709D02*
D03*
Y210709D02*
D03*
Y215709D02*
D03*
Y220709D02*
D03*
Y225709D02*
D03*
Y230709D02*
D03*
Y235709D02*
D03*
Y240709D02*
D03*
D45*
X259500Y171772D02*
D03*
X254500D02*
D03*
X249500D02*
D03*
X244500D02*
D03*
X239500D02*
D03*
X234500D02*
D03*
X229500D02*
D03*
X224500D02*
D03*
X219500D02*
D03*
X214500D02*
D03*
D46*
X158500Y242500D02*
D03*
X152594D02*
D03*
X313000Y242000D02*
D03*
X307094D02*
D03*
X288094Y229500D02*
D03*
X294000D02*
D03*
X254094Y153500D02*
D03*
X260000D02*
D03*
X288047Y242000D02*
D03*
X293953D02*
D03*
X275094Y126500D02*
D03*
X281000D02*
D03*
X281500Y95500D02*
D03*
X275594D02*
D03*
X233000Y125500D02*
D03*
X238906D02*
D03*
X239500Y95500D02*
D03*
X233594D02*
D03*
D47*
X320917Y101937D02*
D03*
Y100362D02*
D03*
Y98787D02*
D03*
Y97213D02*
D03*
Y95638D02*
D03*
Y94063D02*
D03*
X333083D02*
D03*
Y95638D02*
D03*
Y97213D02*
D03*
Y98787D02*
D03*
Y100362D02*
D03*
Y101937D02*
D03*
X157417D02*
D03*
Y100362D02*
D03*
Y98787D02*
D03*
Y97213D02*
D03*
Y95638D02*
D03*
Y94063D02*
D03*
X169583D02*
D03*
Y95638D02*
D03*
Y97213D02*
D03*
Y98787D02*
D03*
Y100362D02*
D03*
Y101937D02*
D03*
D48*
X323063Y91917D02*
D03*
X324638D02*
D03*
X326213D02*
D03*
X327787D02*
D03*
X329362D02*
D03*
X330937D02*
D03*
Y104083D02*
D03*
X329362D02*
D03*
X327787D02*
D03*
X326213D02*
D03*
X324638D02*
D03*
X323063D02*
D03*
X159563Y91917D02*
D03*
X161138D02*
D03*
X162713D02*
D03*
X164287D02*
D03*
X165862D02*
D03*
X167437D02*
D03*
Y104083D02*
D03*
X165862D02*
D03*
X164287D02*
D03*
X162713D02*
D03*
X161138D02*
D03*
X159563D02*
D03*
D49*
X327000Y98000D02*
D03*
X163500D02*
D03*
D50*
X256260Y109327D02*
D03*
X260000Y117673D02*
D03*
X263740Y109327D02*
D03*
X220760D02*
D03*
X224500Y117673D02*
D03*
X228240Y109327D02*
D03*
D51*
X255850Y72720D02*
D03*
X262150D02*
D03*
X255850Y75280D02*
D03*
X262150D02*
D03*
Y70161D02*
D03*
X255850D02*
D03*
Y77839D02*
D03*
X262150D02*
D03*
D52*
X25000Y238346D02*
D03*
D53*
Y210000D02*
D03*
D54*
X442000Y254500D02*
D03*
Y264500D02*
D03*
D55*
Y259500D02*
D03*
D56*
X218500Y28000D02*
D03*
X208500D02*
D03*
X398500Y33500D02*
D03*
Y23500D02*
D03*
X429500Y33500D02*
D03*
Y23500D02*
D03*
X323000Y16500D02*
D03*
X349500Y33500D02*
D03*
Y23500D02*
D03*
X298000Y28000D02*
D03*
X288000D02*
D03*
X278000D02*
D03*
X268000D02*
D03*
X258000D02*
D03*
X97000Y40000D02*
D03*
X87000D02*
D03*
X77000D02*
D03*
X97000Y73500D02*
D03*
X87000D02*
D03*
X77000D02*
D03*
X97000Y148000D02*
D03*
X87000D02*
D03*
X77000D02*
D03*
X97000Y111500D02*
D03*
X87000D02*
D03*
X77000D02*
D03*
X152000Y192000D02*
D03*
Y202000D02*
D03*
Y212000D02*
D03*
D57*
X198500Y28000D02*
D03*
X248000D02*
D03*
X107000Y40000D02*
D03*
Y73500D02*
D03*
Y148000D02*
D03*
Y111500D02*
D03*
D58*
X398500Y13500D02*
D03*
X429500D02*
D03*
X323000Y26500D02*
D03*
X349500Y13500D02*
D03*
X152000Y182000D02*
D03*
D59*
X371378Y258516D02*
D03*
X418622D02*
D03*
Y210484D02*
D03*
D60*
X395000Y202610D02*
D03*
D61*
X371378Y210484D02*
D03*
D62*
X442500Y197409D02*
D03*
D63*
Y238591D02*
D03*
D64*
X236675Y203957D02*
D03*
X229451D02*
D03*
X240287Y207569D02*
D03*
X233063D02*
D03*
X225839D02*
D03*
X236675Y211181D02*
D03*
X229451D02*
D03*
X240287Y214793D02*
D03*
X233063D02*
D03*
X225839D02*
D03*
X236675Y218406D02*
D03*
X229451D02*
D03*
D65*
X298705Y268858D02*
D03*
X324295D02*
D03*
X298705Y251142D02*
D03*
X180000Y253000D02*
D03*
X154409D02*
D03*
X180000Y270717D02*
D03*
D66*
X324295Y251142D02*
D03*
X154409Y270717D02*
D03*
D67*
X116500Y263000D02*
D03*
X84500D02*
D03*
X116500Y190000D02*
D03*
X84500D02*
D03*
D68*
X126500Y263000D02*
D03*
X74500D02*
D03*
X126500Y190000D02*
D03*
X74500D02*
D03*
D69*
X338500Y101500D02*
D03*
X321000Y84000D02*
D03*
X312000Y153500D02*
D03*
X319500Y153000D02*
D03*
X432500Y145500D02*
D03*
X430200Y150000D02*
D03*
X314500Y191000D02*
D03*
X286884Y111100D02*
D03*
X160000Y119500D02*
D03*
X108500Y85000D02*
D03*
X159563Y110700D02*
D03*
X282200Y229300D02*
D03*
X281500Y181500D02*
D03*
X257000Y184500D02*
D03*
X248500D02*
D03*
X414500Y121000D02*
D03*
X412500Y136000D02*
D03*
X412000Y130500D02*
D03*
X441000Y125000D02*
D03*
X437000Y131000D02*
D03*
X429500Y155000D02*
D03*
X436000Y157000D02*
D03*
X425000Y169500D02*
D03*
X428500Y114500D02*
D03*
X372900Y141000D02*
D03*
X382881Y84500D02*
D03*
X430000Y99500D02*
D03*
X425500Y73000D02*
D03*
X434000Y115500D02*
D03*
X397500Y143900D02*
D03*
X428000Y125500D02*
D03*
X406000Y139800D02*
D03*
X428000Y139500D02*
D03*
X403300Y114900D02*
D03*
X382000Y66600D02*
D03*
X380500Y166100D02*
D03*
X428500Y108500D02*
D03*
X432500Y86500D02*
D03*
X431500Y93500D02*
D03*
X432500Y122000D02*
D03*
X434000Y137000D02*
D03*
X429500Y131000D02*
D03*
X433400Y66000D02*
D03*
X369000Y66800D02*
D03*
X363400Y77500D02*
D03*
X443600Y168750D02*
D03*
X39800Y173500D02*
D03*
X166700Y136106D02*
D03*
X329500Y171800D02*
D03*
X256400Y145900D02*
D03*
X296100Y218600D02*
D03*
X219809Y221600D02*
D03*
X248200Y202000D02*
D03*
X283839Y70000D02*
D03*
X356800Y99300D02*
D03*
X321100Y120100D02*
D03*
X346000Y116200D02*
D03*
X208500Y43100D02*
D03*
X198500Y50400D02*
D03*
X271100Y43600D02*
D03*
X219600Y56400D02*
D03*
X325500Y38900D02*
D03*
X330500Y37700D02*
D03*
X276300Y42100D02*
D03*
X263300Y161900D02*
D03*
X310900Y70000D02*
D03*
X424600Y190400D02*
D03*
X351450Y115300D02*
D03*
X312500Y107100D02*
D03*
X288800Y97050D02*
D03*
X152000Y167200D02*
D03*
X159700Y63100D02*
D03*
X233000Y131700D02*
D03*
X212100Y131900D02*
D03*
X355950Y84500D02*
D03*
X148900Y76100D02*
D03*
X214400Y233000D02*
D03*
M02*
