G04*
G04 #@! TF.GenerationSoftware,Altium Limited,Altium Designer,20.1.12 (249)*
G04*
G04 Layer_Color=2752767*
%FSLAX25Y25*%
%MOIN*%
G70*
G04*
G04 #@! TF.SameCoordinates,D2DC16A5-891C-47F1-9DBA-B4DE5785F593*
G04*
G04*
G04 #@! TF.FilePolarity,Positive*
G04*
G01*
G75*
%ADD93C,0.00200*%
%ADD94C,0.00267*%
D93*
X24200Y237546D02*
Y239146D01*
X25800D01*
Y237546D01*
X24200D01*
Y209200D02*
Y210800D01*
X25800D01*
Y209200D01*
X24200D01*
X371378Y257716D02*
X370578Y259316D01*
X372178D01*
X371378Y257716D01*
X418622D02*
X417822Y259316D01*
X419422D01*
X418622Y257716D01*
Y209684D02*
X417822Y211284D01*
X419422D01*
X418622Y209684D01*
X395000Y201810D02*
X395400Y202210D01*
X395800D01*
X395400Y202610D01*
X395800Y203010D01*
X395400D01*
X395000Y203410D01*
X394600Y203010D01*
X394200D01*
X394600Y202610D01*
X394200Y202210D01*
X394600D01*
X395000Y201810D01*
X371378Y209684D02*
X370578Y211284D01*
X372178D01*
X371378Y209684D01*
X441700Y196609D02*
X442100Y197409D01*
X441700Y198209D01*
X442500Y197809D01*
X443300Y198209D01*
X442900Y197409D01*
X443300Y196609D01*
X442500Y197009D01*
X441700Y196609D01*
Y237791D02*
X442100Y238591D01*
X441700Y239391D01*
X442500Y238991D01*
X443300Y239391D01*
X442900Y238591D01*
X443300Y237791D01*
X442500Y238191D01*
X441700Y237791D01*
X236275Y203557D02*
Y203157D01*
X237075D01*
Y203557D01*
X237475D01*
Y204357D01*
X237075D01*
Y204757D01*
X236275D01*
Y204357D01*
X235875D01*
Y203557D01*
X236275D01*
X229051D02*
Y203157D01*
X229851D01*
Y203557D01*
X230251D01*
Y204357D01*
X229851D01*
Y204757D01*
X229051D01*
Y204357D01*
X228651D01*
Y203557D01*
X229051D01*
X239887Y207169D02*
Y206769D01*
X240687D01*
Y207169D01*
X241087D01*
Y207969D01*
X240687D01*
Y208369D01*
X239887D01*
Y207969D01*
X239487D01*
Y207169D01*
X239887D01*
X232663D02*
Y206769D01*
X233463D01*
Y207169D01*
X233863D01*
Y207969D01*
X233463D01*
Y208369D01*
X232663D01*
Y207969D01*
X232263D01*
Y207169D01*
X232663D01*
X225439D02*
Y206769D01*
X226239D01*
Y207169D01*
X226639D01*
Y207969D01*
X226239D01*
Y208369D01*
X225439D01*
Y207969D01*
X225039D01*
Y207169D01*
X225439D01*
X236275Y210781D02*
Y210381D01*
X237075D01*
Y210781D01*
X237475D01*
Y211581D01*
X237075D01*
Y211981D01*
X236275D01*
Y211581D01*
X235875D01*
Y210781D01*
X236275D01*
X229051D02*
Y210381D01*
X229851D01*
Y210781D01*
X230251D01*
Y211581D01*
X229851D01*
Y211981D01*
X229051D01*
Y211581D01*
X228651D01*
Y210781D01*
X229051D01*
X239887Y214393D02*
Y213993D01*
X240687D01*
Y214393D01*
X241087D01*
Y215193D01*
X240687D01*
Y215593D01*
X239887D01*
Y215193D01*
X239487D01*
Y214393D01*
X239887D01*
X232663D02*
Y213993D01*
X233463D01*
Y214393D01*
X233863D01*
Y215193D01*
X233463D01*
Y215593D01*
X232663D01*
Y215193D01*
X232263D01*
Y214393D01*
X232663D01*
X225439D02*
Y213993D01*
X226239D01*
Y214393D01*
X226639D01*
Y215193D01*
X226239D01*
Y215593D01*
X225439D01*
Y215193D01*
X225039D01*
Y214393D01*
X225439D01*
X236275Y218006D02*
Y217606D01*
X237075D01*
Y218006D01*
X237475D01*
Y218806D01*
X237075D01*
Y219206D01*
X236275D01*
Y218806D01*
X235875D01*
Y218006D01*
X236275D01*
X229051D02*
Y217606D01*
X229851D01*
Y218006D01*
X230251D01*
Y218806D01*
X229851D01*
Y219206D01*
X229051D01*
Y218806D01*
X228651D01*
Y218006D01*
X229051D01*
X297905Y268058D02*
X298305D01*
X298705Y268458D01*
X299105Y268058D01*
X299505D01*
Y268458D01*
X299105Y268858D01*
X299505Y269258D01*
Y269658D01*
X299105D01*
X298705Y269258D01*
X298305Y269658D01*
X297905D01*
Y269258D01*
X298305Y268858D01*
X297905Y268458D01*
Y268058D01*
X323495D02*
X323895D01*
X324295Y268458D01*
X324695Y268058D01*
X325095D01*
Y268458D01*
X324695Y268858D01*
X325095Y269258D01*
Y269658D01*
X324695D01*
X324295Y269258D01*
X323895Y269658D01*
X323495D01*
Y269258D01*
X323895Y268858D01*
X323495Y268458D01*
Y268058D01*
X297905Y250342D02*
X298305D01*
X298705Y250742D01*
X299105Y250342D01*
X299505D01*
Y250742D01*
X299105Y251142D01*
X299505Y251542D01*
Y251942D01*
X299105D01*
X298705Y251542D01*
X298305Y251942D01*
X297905D01*
Y251542D01*
X298305Y251142D01*
X297905Y250742D01*
Y250342D01*
X323495D02*
X323895D01*
X324295Y250742D01*
X324695Y250342D01*
X325095D01*
Y250742D01*
X324695Y251142D01*
X325095Y251542D01*
Y251942D01*
X324695D01*
X324295Y251542D01*
X323895Y251942D01*
X323495D01*
Y251542D01*
X323895Y251142D01*
X323495Y250742D01*
Y250342D01*
X179200Y252200D02*
X179600D01*
X180000Y252600D01*
X180400Y252200D01*
X180800D01*
Y252600D01*
X180400Y253000D01*
X180800Y253400D01*
Y253800D01*
X180400D01*
X180000Y253400D01*
X179600Y253800D01*
X179200D01*
Y253400D01*
X179600Y253000D01*
X179200Y252600D01*
Y252200D01*
X153609D02*
X154009D01*
X154409Y252600D01*
X154809Y252200D01*
X155209D01*
Y252600D01*
X154809Y253000D01*
X155209Y253400D01*
Y253800D01*
X154809D01*
X154409Y253400D01*
X154009Y253800D01*
X153609D01*
Y253400D01*
X154009Y253000D01*
X153609Y252600D01*
Y252200D01*
X179200Y269917D02*
X179600D01*
X180000Y270317D01*
X180400Y269917D01*
X180800D01*
Y270317D01*
X180400Y270717D01*
X180800Y271117D01*
Y271517D01*
X180400D01*
X180000Y271117D01*
X179600Y271517D01*
X179200D01*
Y271117D01*
X179600Y270717D01*
X179200Y270317D01*
Y269917D01*
X153609D02*
X154009D01*
X154409Y270317D01*
X154809Y269917D01*
X155209D01*
Y270317D01*
X154809Y270717D01*
X155209Y271117D01*
Y271517D01*
X154809D01*
X154409Y271117D01*
X154009Y271517D01*
X153609D01*
Y271117D01*
X154009Y270717D01*
X153609Y270317D01*
Y269917D01*
X115700Y262200D02*
X116100Y263000D01*
X115700Y263800D01*
X116500Y263400D01*
X117300Y263800D01*
X116900Y263000D01*
X117300Y262200D01*
X116500Y262600D01*
X115700Y262200D01*
X125700D02*
X126100Y263000D01*
X125700Y263800D01*
X126500Y263400D01*
X127300Y263800D01*
X126900Y263000D01*
X127300Y262200D01*
X126500Y262600D01*
X125700Y262200D01*
X83700D02*
X84100Y263000D01*
X83700Y263800D01*
X84500Y263400D01*
X85300Y263800D01*
X84900Y263000D01*
X85300Y262200D01*
X84500Y262600D01*
X83700Y262200D01*
X73700D02*
X74100Y263000D01*
X73700Y263800D01*
X74500Y263400D01*
X75300Y263800D01*
X74900Y263000D01*
X75300Y262200D01*
X74500Y262600D01*
X73700Y262200D01*
X115700Y189200D02*
X116100Y190000D01*
X115700Y190800D01*
X116500Y190400D01*
X117300Y190800D01*
X116900Y190000D01*
X117300Y189200D01*
X116500Y189600D01*
X115700Y189200D01*
X125700D02*
X126100Y190000D01*
X125700Y190800D01*
X126500Y190400D01*
X127300Y190800D01*
X126900Y190000D01*
X127300Y189200D01*
X126500Y189600D01*
X125700Y189200D01*
X83700D02*
X84100Y190000D01*
X83700Y190800D01*
X84500Y190400D01*
X85300Y190800D01*
X84900Y190000D01*
X85300Y189200D01*
X84500Y189600D01*
X83700Y189200D01*
X73700D02*
X74100Y190000D01*
X73700Y190800D01*
X74500Y190400D01*
X75300Y190800D01*
X74900Y190000D01*
X75300Y189200D01*
X74500Y189600D01*
X73700Y189200D01*
X337700Y101500D02*
X338500Y102300D01*
X339300Y101500D01*
X338500Y100700D01*
X337700Y101500D01*
X320200Y84000D02*
X321000Y84800D01*
X321800Y84000D01*
X321000Y83200D01*
X320200Y84000D01*
X311200Y153500D02*
X312000Y154300D01*
X312800Y153500D01*
X312000Y152700D01*
X311200Y153500D01*
X318700Y153000D02*
X319500Y153800D01*
X320300Y153000D01*
X319500Y152200D01*
X318700Y153000D01*
X431700Y145500D02*
X432500Y146300D01*
X433300Y145500D01*
X432500Y144700D01*
X431700Y145500D01*
X429400Y150000D02*
X430200Y150800D01*
X431000Y150000D01*
X430200Y149200D01*
X429400Y150000D01*
X313700Y191000D02*
X314500Y191800D01*
X315300Y191000D01*
X314500Y190200D01*
X313700Y191000D01*
X286084Y111100D02*
X286884Y111900D01*
X287684Y111100D01*
X286884Y110300D01*
X286084Y111100D01*
X159200Y119500D02*
X160000Y120300D01*
X160800Y119500D01*
X160000Y118700D01*
X159200Y119500D01*
X107700Y85000D02*
X108500Y85800D01*
X109300Y85000D01*
X108500Y84200D01*
X107700Y85000D01*
X158763Y110700D02*
X159563Y111500D01*
X160363Y110700D01*
X159563Y109900D01*
X158763Y110700D01*
X281400Y229300D02*
X282200Y230100D01*
X283000Y229300D01*
X282200Y228500D01*
X281400Y229300D01*
X280700Y181500D02*
X281500Y182300D01*
X282300Y181500D01*
X281500Y180700D01*
X280700Y181500D01*
X256200Y184500D02*
X257000Y185300D01*
X257800Y184500D01*
X257000Y183700D01*
X256200Y184500D01*
X247700D02*
X248500Y185300D01*
X249300Y184500D01*
X248500Y183700D01*
X247700Y184500D01*
X413700Y121000D02*
X414500Y121800D01*
X415300Y121000D01*
X414500Y120200D01*
X413700Y121000D01*
X411700Y136000D02*
X412500Y136800D01*
X413300Y136000D01*
X412500Y135200D01*
X411700Y136000D01*
X411200Y130500D02*
X412000Y131300D01*
X412800Y130500D01*
X412000Y129700D01*
X411200Y130500D01*
X440200Y125000D02*
X441000Y125800D01*
X441800Y125000D01*
X441000Y124200D01*
X440200Y125000D01*
X436200Y131000D02*
X437000Y131800D01*
X437800Y131000D01*
X437000Y130200D01*
X436200Y131000D01*
X428700Y155000D02*
X429500Y155800D01*
X430300Y155000D01*
X429500Y154200D01*
X428700Y155000D01*
X435200Y157000D02*
X436000Y157800D01*
X436800Y157000D01*
X436000Y156200D01*
X435200Y157000D01*
X424200Y169500D02*
X425000Y170300D01*
X425800Y169500D01*
X425000Y168700D01*
X424200Y169500D01*
X427700Y114500D02*
X428500Y115300D01*
X429300Y114500D01*
X428500Y113700D01*
X427700Y114500D01*
X372100Y141000D02*
X372900Y141800D01*
X373700Y141000D01*
X372900Y140200D01*
X372100Y141000D01*
X382081Y84500D02*
X382881Y85300D01*
X383681Y84500D01*
X382881Y83700D01*
X382081Y84500D01*
X429200Y99500D02*
X430000Y100300D01*
X430800Y99500D01*
X430000Y98700D01*
X429200Y99500D01*
X424700Y73000D02*
X425500Y73800D01*
X426300Y73000D01*
X425500Y72200D01*
X424700Y73000D01*
X433200Y115500D02*
X434000Y116300D01*
X434800Y115500D01*
X434000Y114700D01*
X433200Y115500D01*
X396700Y143900D02*
X397500Y144700D01*
X398300Y143900D01*
X397500Y143100D01*
X396700Y143900D01*
X427200Y125500D02*
X428000Y126300D01*
X428800Y125500D01*
X428000Y124700D01*
X427200Y125500D01*
X405200Y139800D02*
X406000Y140600D01*
X406800Y139800D01*
X406000Y139000D01*
X405200Y139800D01*
X427200Y139500D02*
X428000Y140300D01*
X428800Y139500D01*
X428000Y138700D01*
X427200Y139500D01*
X402500Y114900D02*
X403300Y115700D01*
X404100Y114900D01*
X403300Y114100D01*
X402500Y114900D01*
X381200Y66600D02*
X382000Y67400D01*
X382800Y66600D01*
X382000Y65800D01*
X381200Y66600D01*
X379700Y166100D02*
X380500Y166900D01*
X381300Y166100D01*
X380500Y165300D01*
X379700Y166100D01*
X427700Y108500D02*
X428500Y109300D01*
X429300Y108500D01*
X428500Y107700D01*
X427700Y108500D01*
X431700Y86500D02*
X432500Y87300D01*
X433300Y86500D01*
X432500Y85700D01*
X431700Y86500D01*
X430700Y93500D02*
X431500Y94300D01*
X432300Y93500D01*
X431500Y92700D01*
X430700Y93500D01*
X431700Y122000D02*
X432500Y122800D01*
X433300Y122000D01*
X432500Y121200D01*
X431700Y122000D01*
X433200Y137000D02*
X434000Y137800D01*
X434800Y137000D01*
X434000Y136200D01*
X433200Y137000D01*
X428700Y131000D02*
X429500Y131800D01*
X430300Y131000D01*
X429500Y130200D01*
X428700Y131000D01*
X432600Y66000D02*
X433400Y66800D01*
X434200Y66000D01*
X433400Y65200D01*
X432600Y66000D01*
X368200Y66800D02*
X369000Y67600D01*
X369800Y66800D01*
X369000Y66000D01*
X368200Y66800D01*
X362600Y77500D02*
X363400Y78300D01*
X364200Y77500D01*
X363400Y76700D01*
X362600Y77500D01*
X442800Y168750D02*
X443600Y169550D01*
X444400Y168750D01*
X443600Y167950D01*
X442800Y168750D01*
X39000Y173500D02*
X39800Y174300D01*
X40600Y173500D01*
X39800Y172700D01*
X39000Y173500D01*
X165900Y136106D02*
X166700Y136906D01*
X167500Y136106D01*
X166700Y135306D01*
X165900Y136106D01*
X328700Y171800D02*
X329500Y172600D01*
X330300Y171800D01*
X329500Y171000D01*
X328700Y171800D01*
X255600Y145900D02*
X256400Y146700D01*
X257200Y145900D01*
X256400Y145100D01*
X255600Y145900D01*
X295300Y218600D02*
X296100Y219400D01*
X296900Y218600D01*
X296100Y217800D01*
X295300Y218600D01*
X219009Y221600D02*
X219809Y222400D01*
X220609Y221600D01*
X219809Y220800D01*
X219009Y221600D01*
X247400Y202000D02*
X248200Y202800D01*
X249000Y202000D01*
X248200Y201200D01*
X247400Y202000D01*
X283039Y70000D02*
X283839Y70800D01*
X284639Y70000D01*
X283839Y69200D01*
X283039Y70000D01*
X356000Y99300D02*
X356800Y100100D01*
X357600Y99300D01*
X356800Y98500D01*
X356000Y99300D01*
X320300Y120100D02*
X321100Y120900D01*
X321900Y120100D01*
X321100Y119300D01*
X320300Y120100D01*
X345200Y116200D02*
X346000Y117000D01*
X346800Y116200D01*
X346000Y115400D01*
X345200Y116200D01*
X207700Y43100D02*
X208500Y43900D01*
X209300Y43100D01*
X208500Y42300D01*
X207700Y43100D01*
X197700Y50400D02*
X198500Y51200D01*
X199300Y50400D01*
X198500Y49600D01*
X197700Y50400D01*
X270300Y43600D02*
X271100Y44400D01*
X271900Y43600D01*
X271100Y42800D01*
X270300Y43600D01*
X218800Y56400D02*
X219600Y57200D01*
X220400Y56400D01*
X219600Y55600D01*
X218800Y56400D01*
X324700Y38900D02*
X325500Y39700D01*
X326300Y38900D01*
X325500Y38100D01*
X324700Y38900D01*
X329700Y37700D02*
X330500Y38500D01*
X331300Y37700D01*
X330500Y36900D01*
X329700Y37700D01*
X275500Y42100D02*
X276300Y42900D01*
X277100Y42100D01*
X276300Y41300D01*
X275500Y42100D01*
X262500Y161900D02*
X263300Y162700D01*
X264100Y161900D01*
X263300Y161100D01*
X262500Y161900D01*
X310100Y70000D02*
X310900Y70800D01*
X311700Y70000D01*
X310900Y69200D01*
X310100Y70000D01*
X423800Y190400D02*
X424600Y191200D01*
X425400Y190400D01*
X424600Y189600D01*
X423800Y190400D01*
X350650Y115300D02*
X351450Y116100D01*
X352250Y115300D01*
X351450Y114500D01*
X350650Y115300D01*
X311700Y107100D02*
X312500Y107900D01*
X313300Y107100D01*
X312500Y106300D01*
X311700Y107100D01*
X288000Y97050D02*
X288800Y97850D01*
X289600Y97050D01*
X288800Y96250D01*
X288000Y97050D01*
X151200Y167200D02*
X152000Y168000D01*
X152800Y167200D01*
X152000Y166400D01*
X151200Y167200D01*
X158900Y63100D02*
X159700Y63900D01*
X160500Y63100D01*
X159700Y62300D01*
X158900Y63100D01*
X232200Y131700D02*
X233000Y132500D01*
X233800Y131700D01*
X233000Y130900D01*
X232200Y131700D01*
X211300Y131900D02*
X212100Y132700D01*
X212900Y131900D01*
X212100Y131100D01*
X211300Y131900D01*
X355150Y84500D02*
X355950Y85300D01*
X356750Y84500D01*
X355950Y83700D01*
X355150Y84500D01*
X148100Y76100D02*
X148900Y76900D01*
X149700Y76100D01*
X148900Y75300D01*
X148100Y76100D01*
X213600Y233000D02*
X214400Y233800D01*
X215200Y233000D01*
X214400Y232200D01*
X213600Y233000D01*
D94*
X442800Y254500D02*
X442247Y255261D01*
X441353Y254970D01*
Y254030D01*
X442247Y253739D01*
X442800Y254500D01*
Y259500D02*
X442247Y260261D01*
X441353Y259970D01*
Y259030D01*
X442247Y258739D01*
X442800Y259500D01*
Y264500D02*
X442247Y265261D01*
X441353Y264970D01*
Y264030D01*
X442247Y263739D01*
X442800Y264500D01*
X219300Y28000D02*
X218747Y28761D01*
X217853Y28470D01*
Y27530D01*
X218747Y27239D01*
X219300Y28000D01*
X209300D02*
X208747Y28761D01*
X207853Y28470D01*
Y27530D01*
X208747Y27239D01*
X209300Y28000D01*
X199300D02*
X198747Y28761D01*
X197853Y28470D01*
Y27530D01*
X198747Y27239D01*
X199300Y28000D01*
X399300Y33500D02*
X398747Y34261D01*
X397853Y33970D01*
Y33030D01*
X398747Y32739D01*
X399300Y33500D01*
Y23500D02*
X398747Y24261D01*
X397853Y23970D01*
Y23030D01*
X398747Y22739D01*
X399300Y23500D01*
Y13500D02*
X398747Y14261D01*
X397853Y13970D01*
Y13030D01*
X398747Y12739D01*
X399300Y13500D01*
X430300Y33500D02*
X429747Y34261D01*
X428853Y33970D01*
Y33030D01*
X429747Y32739D01*
X430300Y33500D01*
Y23500D02*
X429747Y24261D01*
X428853Y23970D01*
Y23030D01*
X429747Y22739D01*
X430300Y23500D01*
Y13500D02*
X429747Y14261D01*
X428853Y13970D01*
Y13030D01*
X429747Y12739D01*
X430300Y13500D01*
X323800Y16500D02*
X323247Y17261D01*
X322353Y16970D01*
Y16030D01*
X323247Y15739D01*
X323800Y16500D01*
Y26500D02*
X323247Y27261D01*
X322353Y26970D01*
Y26030D01*
X323247Y25739D01*
X323800Y26500D01*
X350300Y33500D02*
X349747Y34261D01*
X348853Y33970D01*
Y33030D01*
X349747Y32739D01*
X350300Y33500D01*
Y23500D02*
X349747Y24261D01*
X348853Y23970D01*
Y23030D01*
X349747Y22739D01*
X350300Y23500D01*
Y13500D02*
X349747Y14261D01*
X348853Y13970D01*
Y13030D01*
X349747Y12739D01*
X350300Y13500D01*
X298800Y28000D02*
X298247Y28761D01*
X297353Y28470D01*
Y27530D01*
X298247Y27239D01*
X298800Y28000D01*
X288800D02*
X288247Y28761D01*
X287353Y28470D01*
Y27530D01*
X288247Y27239D01*
X288800Y28000D01*
X278800D02*
X278247Y28761D01*
X277353Y28470D01*
Y27530D01*
X278247Y27239D01*
X278800Y28000D01*
X268800D02*
X268247Y28761D01*
X267353Y28470D01*
Y27530D01*
X268247Y27239D01*
X268800Y28000D01*
X258800D02*
X258247Y28761D01*
X257353Y28470D01*
Y27530D01*
X258247Y27239D01*
X258800Y28000D01*
X248800D02*
X248247Y28761D01*
X247353Y28470D01*
Y27530D01*
X248247Y27239D01*
X248800Y28000D01*
X107800Y40000D02*
X107247Y40761D01*
X106353Y40470D01*
Y39530D01*
X107247Y39239D01*
X107800Y40000D01*
X97800D02*
X97247Y40761D01*
X96353Y40470D01*
Y39530D01*
X97247Y39239D01*
X97800Y40000D01*
X87800D02*
X87247Y40761D01*
X86353Y40470D01*
Y39530D01*
X87247Y39239D01*
X87800Y40000D01*
X77800D02*
X77247Y40761D01*
X76353Y40470D01*
Y39530D01*
X77247Y39239D01*
X77800Y40000D01*
X107800Y73500D02*
X107247Y74261D01*
X106353Y73970D01*
Y73030D01*
X107247Y72739D01*
X107800Y73500D01*
X97800D02*
X97247Y74261D01*
X96353Y73970D01*
Y73030D01*
X97247Y72739D01*
X97800Y73500D01*
X87800D02*
X87247Y74261D01*
X86353Y73970D01*
Y73030D01*
X87247Y72739D01*
X87800Y73500D01*
X77800D02*
X77247Y74261D01*
X76353Y73970D01*
Y73030D01*
X77247Y72739D01*
X77800Y73500D01*
X107800Y148000D02*
X107247Y148761D01*
X106353Y148470D01*
Y147530D01*
X107247Y147239D01*
X107800Y148000D01*
X97800D02*
X97247Y148761D01*
X96353Y148470D01*
Y147530D01*
X97247Y147239D01*
X97800Y148000D01*
X87800D02*
X87247Y148761D01*
X86353Y148470D01*
Y147530D01*
X87247Y147239D01*
X87800Y148000D01*
X77800D02*
X77247Y148761D01*
X76353Y148470D01*
Y147530D01*
X77247Y147239D01*
X77800Y148000D01*
X107800Y111500D02*
X107247Y112261D01*
X106353Y111970D01*
Y111030D01*
X107247Y110739D01*
X107800Y111500D01*
X97800D02*
X97247Y112261D01*
X96353Y111970D01*
Y111030D01*
X97247Y110739D01*
X97800Y111500D01*
X87800D02*
X87247Y112261D01*
X86353Y111970D01*
Y111030D01*
X87247Y110739D01*
X87800Y111500D01*
X77800D02*
X77247Y112261D01*
X76353Y111970D01*
Y111030D01*
X77247Y110739D01*
X77800Y111500D01*
X152800Y182000D02*
X152247Y182761D01*
X151353Y182470D01*
Y181530D01*
X152247Y181239D01*
X152800Y182000D01*
Y192000D02*
X152247Y192761D01*
X151353Y192470D01*
Y191530D01*
X152247Y191239D01*
X152800Y192000D01*
Y202000D02*
X152247Y202761D01*
X151353Y202470D01*
Y201530D01*
X152247Y201239D01*
X152800Y202000D01*
Y212000D02*
X152247Y212761D01*
X151353Y212470D01*
Y211530D01*
X152247Y211239D01*
X152800Y212000D01*
M02*
