M48
;Layer_Color=9474304
;FILE_FORMAT=2:4
INCH,LZ
;TYPE=PLATED
T1F00S00C0.0190
T2F00S00C0.0354
%
T01
X05615Y0308
X0567Y03115
Y0304
X0605Y0288
X06125Y028402
X06155Y02775
X060503Y03175
X06075Y0324
X06065Y0331
X058563Y032
X057949Y03175
X0573Y03145
T02
X0471Y02195
X0481
X0491
X0501
X0511
X0521
X0531
X0551
X0561
X0571
X0581
X0591
X0601
X0461
X0303Y03785
Y03885
X0425Y04095
X0435
X0445
X0455
X0465
Y03995
X0455
X0445
X0475
Y04095
X0485
X0495
X0505
X0515
Y03995
X0505
X0495
X0485
X0531
X0541
X0551
X0561
X0571
X0581
X0591
X0601
Y04095
X0591
X0581
X0571
X0561
X0551
X0541
X0531
M30
