G04*
G04 #@! TF.GenerationSoftware,Altium Limited,Altium Designer,20.1.12 (249)*
G04*
G04 Layer_Color=65535*
%FSLAX25Y25*%
%MOIN*%
G70*
G04*
G04 #@! TF.SameCoordinates,4F675399-67DD-4CB6-B460-1E4A0243881F*
G04*
G04*
G04 #@! TF.FilePolarity,Positive*
G04*
G01*
G75*
%ADD10C,0.00787*%
%ADD11C,0.01000*%
D10*
X592366Y275441D02*
X591579D01*
X592366D01*
X593941Y270520D02*
X603390D01*
X593941D02*
Y273276D01*
Y354378D02*
Y357134D01*
X603390D01*
X608902Y273866D02*
Y353787D01*
X420000Y404500D02*
Y414500D01*
X520000D01*
Y404500D02*
Y414500D01*
X512500Y404500D02*
X520000D01*
X420000D02*
X512500D01*
X606000Y394500D02*
Y404500D01*
X526000Y394500D02*
X606000D01*
X526000D02*
Y404500D01*
X606000D01*
X526000D02*
X606000D01*
Y414500D01*
X526000D02*
X606000D01*
X526000Y404500D02*
Y414500D01*
X456000Y224500D02*
X536000D01*
X456000Y214500D02*
Y224500D01*
Y214500D02*
X536000D01*
Y224500D01*
X546000Y214500D02*
X606000D01*
X546000Y224500D02*
X606000D01*
X546000Y214500D02*
Y224500D01*
X606000Y214500D02*
Y224500D01*
X440000Y394500D02*
Y404500D01*
X520000D01*
Y394500D02*
Y404500D01*
X440000Y394500D02*
X520000D01*
X298000Y393500D02*
X308000D01*
Y373500D02*
Y393500D01*
X298000Y373500D02*
X308000D01*
X298000D02*
Y393500D01*
D11*
X608002Y397501D02*
Y403499D01*
X611001D01*
X612000Y402499D01*
Y400500D01*
X611001Y399500D01*
X608002D01*
X617998Y397501D02*
X614000D01*
X617998Y401500D01*
Y402499D01*
X616999Y403499D01*
X614999D01*
X614000Y402499D01*
X609502Y406501D02*
Y412499D01*
X612501D01*
X613500Y411499D01*
Y409500D01*
X612501Y408500D01*
X609502D01*
X615500Y412499D02*
X619498D01*
Y411499D01*
X615500Y407501D01*
Y406501D01*
X408002D02*
Y412499D01*
X411001D01*
X412000Y411499D01*
Y409500D01*
X411001Y408500D01*
X408002D01*
X417998Y412499D02*
X415999Y411499D01*
X414000Y409500D01*
Y407501D01*
X414999Y406501D01*
X416999D01*
X417998Y407501D01*
Y408500D01*
X416999Y409500D01*
X414000D01*
X456600Y227900D02*
Y233898D01*
X459599D01*
X460599Y232898D01*
Y230899D01*
X459599Y229899D01*
X456600D01*
X466597Y233898D02*
X462598D01*
Y230899D01*
X464597Y231899D01*
X465597D01*
X466597Y230899D01*
Y228900D01*
X465597Y227900D01*
X463598D01*
X462598Y228900D01*
X546600Y227900D02*
Y233898D01*
X549599D01*
X550599Y232898D01*
Y230899D01*
X549599Y229899D01*
X546600D01*
X555597Y227900D02*
Y233898D01*
X552598Y230899D01*
X556597D01*
X427002Y395001D02*
Y400999D01*
X430001D01*
X431000Y399999D01*
Y398000D01*
X430001Y397000D01*
X427002D01*
X433000Y399999D02*
X433999Y400999D01*
X435999D01*
X436998Y399999D01*
Y399000D01*
X435999Y398000D01*
X434999D01*
X435999D01*
X436998Y397000D01*
Y396001D01*
X435999Y395001D01*
X433999D01*
X433000Y396001D01*
X298650Y396850D02*
Y402848D01*
X301649D01*
X302649Y401848D01*
Y399849D01*
X301649Y398849D01*
X298650D01*
X304648Y396850D02*
X306647D01*
X305648D01*
Y402848D01*
X304648Y401848D01*
X596199Y367198D02*
X594199D01*
X595199D01*
Y362200D01*
X594199Y361200D01*
X593200D01*
X592200Y362200D01*
X598198Y361200D02*
X600197D01*
X599198D01*
Y367198D01*
X598198Y366198D01*
M02*
