G04*
G04 #@! TF.GenerationSoftware,Altium Limited,Altium Designer,20.1.12 (249)*
G04*
G04 Layer_Physical_Order=2*
G04 Layer_Color=16711680*
%FSLAX25Y25*%
%MOIN*%
G70*
G04*
G04 #@! TF.SameCoordinates,4F675399-67DD-4CB6-B460-1E4A0243881F*
G04*
G04*
G04 #@! TF.FilePolarity,Positive*
G04*
G01*
G75*
%ADD20C,0.00900*%
%ADD21R,0.05906X0.05906*%
%ADD22C,0.05906*%
%ADD23R,0.05906X0.05906*%
%ADD24C,0.03600*%
G36*
X622500Y209500D02*
X623000Y209000D01*
X622500Y208500D01*
X272500Y209000D01*
X272498Y419998D01*
X273500Y421000D01*
X622500D01*
Y209500D01*
D02*
G37*
%LPC*%
G36*
X604500Y417571D02*
X538000D01*
X537590Y417489D01*
X537243Y417257D01*
X537243Y417257D01*
X532649Y412663D01*
X531927Y412961D01*
X531000Y413083D01*
X530072Y412961D01*
X529208Y412603D01*
X528466Y412034D01*
X527897Y411292D01*
X527539Y410428D01*
X527417Y409500D01*
X527539Y408573D01*
X527897Y407708D01*
X528466Y406966D01*
X529208Y406397D01*
X530072Y406039D01*
X529959Y405571D01*
X518851D01*
X518553Y405947D01*
X518553Y406071D01*
Y413053D01*
X511447D01*
Y406071D01*
X511447Y405947D01*
X511150Y405571D01*
X506040D01*
X505928Y406039D01*
X506792Y406397D01*
X507534Y406966D01*
X508103Y407708D01*
X508461Y408573D01*
X508583Y409500D01*
X508461Y410428D01*
X508103Y411292D01*
X507534Y412034D01*
X506792Y412603D01*
X505928Y412961D01*
X505000Y413083D01*
X504073Y412961D01*
X503208Y412603D01*
X502466Y412034D01*
X501897Y411292D01*
X501539Y410428D01*
X501417Y409500D01*
X501539Y408573D01*
X501897Y407708D01*
X502466Y406966D01*
X503208Y406397D01*
X504073Y406039D01*
X503960Y405571D01*
X496040D01*
X495927Y406039D01*
X496792Y406397D01*
X497534Y406966D01*
X498103Y407708D01*
X498461Y408573D01*
X498583Y409500D01*
X498461Y410428D01*
X498103Y411292D01*
X497534Y412034D01*
X496792Y412603D01*
X495927Y412961D01*
X495000Y413083D01*
X494072Y412961D01*
X493208Y412603D01*
X492466Y412034D01*
X491897Y411292D01*
X491539Y410428D01*
X491417Y409500D01*
X491539Y408573D01*
X491897Y407708D01*
X492466Y406966D01*
X493208Y406397D01*
X494072Y406039D01*
X493960Y405571D01*
X486040D01*
X485927Y406039D01*
X486792Y406397D01*
X487534Y406966D01*
X488103Y407708D01*
X488461Y408573D01*
X488583Y409500D01*
X488461Y410428D01*
X488103Y411292D01*
X487534Y412034D01*
X486792Y412603D01*
X485927Y412961D01*
X485000Y413083D01*
X484072Y412961D01*
X483208Y412603D01*
X482466Y412034D01*
X481897Y411292D01*
X481539Y410428D01*
X481417Y409500D01*
X481539Y408573D01*
X481897Y407708D01*
X482466Y406966D01*
X483208Y406397D01*
X484072Y406039D01*
X483959Y405571D01*
X476041D01*
X475927Y406039D01*
X476792Y406397D01*
X477534Y406966D01*
X478103Y407708D01*
X478461Y408573D01*
X478583Y409500D01*
X478461Y410428D01*
X478103Y411292D01*
X477534Y412034D01*
X476792Y412603D01*
X475927Y412961D01*
X475000Y413083D01*
X474073Y412961D01*
X473208Y412603D01*
X472466Y412034D01*
X471897Y411292D01*
X471539Y410428D01*
X471417Y409500D01*
X471539Y408573D01*
X471897Y407708D01*
X472466Y406966D01*
X473208Y406397D01*
X474073Y406039D01*
X473959Y405571D01*
X470000D01*
X470000Y405571D01*
X469590Y405489D01*
X469243Y405257D01*
X466649Y402663D01*
X465928Y402961D01*
X465000Y403083D01*
X464073Y402961D01*
X463208Y402603D01*
X462466Y402034D01*
X461897Y401292D01*
X461539Y400427D01*
X461417Y399500D01*
X461539Y398573D01*
X461897Y397708D01*
X462466Y396966D01*
X463208Y396397D01*
X464073Y396039D01*
X465000Y395917D01*
X465928Y396039D01*
X466792Y396397D01*
X467534Y396966D01*
X468103Y397708D01*
X468461Y398573D01*
X468583Y399500D01*
X468461Y400427D01*
X468163Y401149D01*
X470443Y403429D01*
X473959D01*
X474073Y402961D01*
X473208Y402603D01*
X472466Y402034D01*
X471897Y401292D01*
X471539Y400427D01*
X471417Y399500D01*
X471539Y398573D01*
X471897Y397708D01*
X472466Y396966D01*
X473208Y396397D01*
X474073Y396039D01*
X475000Y395917D01*
X475927Y396039D01*
X476792Y396397D01*
X477534Y396966D01*
X478103Y397708D01*
X478461Y398573D01*
X478583Y399500D01*
X478461Y400427D01*
X478103Y401292D01*
X477534Y402034D01*
X476792Y402603D01*
X475927Y402961D01*
X476041Y403429D01*
X483959D01*
X484072Y402961D01*
X483208Y402603D01*
X482466Y402034D01*
X481897Y401292D01*
X481539Y400427D01*
X481417Y399500D01*
X481539Y398573D01*
X481897Y397708D01*
X482466Y396966D01*
X483208Y396397D01*
X484072Y396039D01*
X485000Y395917D01*
X485927Y396039D01*
X486792Y396397D01*
X487534Y396966D01*
X488103Y397708D01*
X488461Y398573D01*
X488583Y399500D01*
X488461Y400427D01*
X488103Y401292D01*
X487534Y402034D01*
X486792Y402603D01*
X485927Y402961D01*
X486040Y403429D01*
X493960D01*
X494072Y402961D01*
X493208Y402603D01*
X492466Y402034D01*
X491897Y401292D01*
X491539Y400427D01*
X491417Y399500D01*
X491539Y398573D01*
X491897Y397708D01*
X492466Y396966D01*
X493208Y396397D01*
X494072Y396039D01*
X495000Y395917D01*
X495927Y396039D01*
X496792Y396397D01*
X497534Y396966D01*
X498103Y397708D01*
X498461Y398573D01*
X498583Y399500D01*
X498461Y400427D01*
X498103Y401292D01*
X497534Y402034D01*
X496792Y402603D01*
X495927Y402961D01*
X496040Y403429D01*
X503960D01*
X504073Y402961D01*
X503208Y402603D01*
X502466Y402034D01*
X501897Y401292D01*
X501539Y400427D01*
X501417Y399500D01*
X501539Y398573D01*
X501897Y397708D01*
X502466Y396966D01*
X503208Y396397D01*
X504073Y396039D01*
X505000Y395917D01*
X505928Y396039D01*
X506792Y396397D01*
X507534Y396966D01*
X508103Y397708D01*
X508461Y398573D01*
X508583Y399500D01*
X508461Y400427D01*
X508103Y401292D01*
X507534Y402034D01*
X506792Y402603D01*
X505928Y402961D01*
X506040Y403429D01*
X511150D01*
X511447Y403053D01*
X511447Y402929D01*
Y395947D01*
X518553D01*
Y402929D01*
X518553Y403053D01*
X518851Y403429D01*
X527149D01*
X527447Y403053D01*
X527447Y402929D01*
Y395947D01*
X534553D01*
Y402929D01*
X534553Y403053D01*
X534851Y403429D01*
X539959D01*
X540072Y402961D01*
X539208Y402603D01*
X538466Y402034D01*
X537897Y401292D01*
X537539Y400427D01*
X537417Y399500D01*
X537539Y398573D01*
X537897Y397708D01*
X538466Y396966D01*
X539208Y396397D01*
X540072Y396039D01*
X541000Y395917D01*
X541927Y396039D01*
X542792Y396397D01*
X543534Y396966D01*
X544103Y397708D01*
X544461Y398573D01*
X544583Y399500D01*
X544461Y400427D01*
X544103Y401292D01*
X543534Y402034D01*
X542792Y402603D01*
X541927Y402961D01*
X542040Y403429D01*
X549960D01*
X550072Y402961D01*
X549208Y402603D01*
X548466Y402034D01*
X547897Y401292D01*
X547539Y400427D01*
X547417Y399500D01*
X547539Y398573D01*
X547897Y397708D01*
X548466Y396966D01*
X549208Y396397D01*
X549929Y396098D01*
Y311500D01*
X550011Y311090D01*
X550243Y310743D01*
X557743Y303243D01*
X558090Y303011D01*
X558500Y302929D01*
X564829D01*
X565270Y302270D01*
X566064Y301739D01*
X567000Y301553D01*
X567936Y301739D01*
X568730Y302270D01*
X569261Y303064D01*
X569447Y304000D01*
X569261Y304936D01*
X568730Y305730D01*
X567936Y306261D01*
X567000Y306447D01*
X566064Y306261D01*
X565270Y305730D01*
X564829Y305071D01*
X561865D01*
X561823Y305107D01*
X561856Y305430D01*
X561965Y305646D01*
X562436Y305739D01*
X563230Y306270D01*
X563761Y307064D01*
X563947Y308000D01*
X563761Y308936D01*
X563230Y309730D01*
X562436Y310261D01*
X561500Y310447D01*
X560722Y310292D01*
X560071Y310943D01*
Y371057D01*
X561757Y372743D01*
X561989Y373090D01*
X562071Y373500D01*
X562071Y373500D01*
Y396098D01*
X562792Y396397D01*
X563534Y396966D01*
X564103Y397708D01*
X564461Y398573D01*
X564583Y399500D01*
X564461Y400427D01*
X564103Y401292D01*
X563534Y402034D01*
X562792Y402603D01*
X561928Y402961D01*
X562041Y403429D01*
X569959D01*
X570073Y402961D01*
X569208Y402603D01*
X568466Y402034D01*
X567897Y401292D01*
X567539Y400427D01*
X567417Y399500D01*
X567539Y398573D01*
X567897Y397708D01*
X568466Y396966D01*
X569208Y396397D01*
X569929Y396098D01*
Y376943D01*
X563243Y370257D01*
X563011Y369910D01*
X562929Y369500D01*
Y314500D01*
X563011Y314090D01*
X563243Y313743D01*
X564708Y312278D01*
X564553Y311500D01*
X564739Y310564D01*
X565270Y309770D01*
X566064Y309239D01*
X567000Y309053D01*
X567936Y309239D01*
X568730Y309770D01*
X569261Y310564D01*
X569447Y311500D01*
X569261Y312436D01*
X568730Y313230D01*
X567936Y313761D01*
X567000Y313947D01*
X566222Y313792D01*
X565071Y314943D01*
Y369057D01*
X571757Y375743D01*
X571757Y375743D01*
X571989Y376090D01*
X572071Y376500D01*
Y396098D01*
X572792Y396397D01*
X573534Y396966D01*
X574103Y397708D01*
X574461Y398573D01*
X574583Y399500D01*
X574461Y400427D01*
X574103Y401292D01*
X573534Y402034D01*
X572792Y402603D01*
X571927Y402961D01*
X572041Y403429D01*
X579959D01*
X580072Y402961D01*
X579208Y402603D01*
X578466Y402034D01*
X577897Y401292D01*
X577539Y400427D01*
X577417Y399500D01*
X577539Y398573D01*
X577897Y397708D01*
X578466Y396966D01*
X579208Y396397D01*
X579929Y396098D01*
Y379943D01*
X569243Y369257D01*
X569011Y368910D01*
X568929Y368500D01*
Y317500D01*
X569011Y317090D01*
X569243Y316743D01*
X570708Y315278D01*
X570553Y314500D01*
X570739Y313564D01*
X571270Y312770D01*
X572064Y312239D01*
X573000Y312053D01*
X573936Y312239D01*
X574730Y312770D01*
X575261Y313564D01*
X575447Y314500D01*
X575261Y315436D01*
X574730Y316230D01*
X573936Y316761D01*
X573000Y316947D01*
X572222Y316792D01*
X571071Y317943D01*
Y368057D01*
X581757Y378743D01*
X581989Y379090D01*
X582071Y379500D01*
Y396098D01*
X582792Y396397D01*
X583534Y396966D01*
X584103Y397708D01*
X584461Y398573D01*
X584583Y399500D01*
X584461Y400427D01*
X584103Y401292D01*
X583534Y402034D01*
X582792Y402603D01*
X581927Y402961D01*
X582041Y403429D01*
X589959D01*
X590072Y402961D01*
X589208Y402603D01*
X588466Y402034D01*
X587897Y401292D01*
X587539Y400427D01*
X587417Y399500D01*
X587539Y398573D01*
X587897Y397708D01*
X588466Y396966D01*
X589208Y396397D01*
X589929Y396098D01*
Y383943D01*
X576243Y370257D01*
X576011Y369910D01*
X575929Y369500D01*
Y319990D01*
X576011Y319581D01*
X576243Y319233D01*
X577198Y318278D01*
X577043Y317500D01*
X577230Y316564D01*
X577760Y315770D01*
X578554Y315239D01*
X579490Y315053D01*
X580427Y315239D01*
X581221Y315770D01*
X581751Y316564D01*
X581938Y317500D01*
X581751Y318436D01*
X581221Y319230D01*
X580427Y319761D01*
X579490Y319947D01*
X578712Y319792D01*
X578071Y320434D01*
Y369057D01*
X591757Y382743D01*
X591989Y383090D01*
X592071Y383500D01*
Y396098D01*
X592792Y396397D01*
X593534Y396966D01*
X594103Y397708D01*
X594461Y398573D01*
X594583Y399500D01*
X594461Y400427D01*
X594103Y401292D01*
X593534Y402034D01*
X592792Y402603D01*
X591927Y402961D01*
X592040Y403429D01*
X599960D01*
X600072Y402961D01*
X599208Y402603D01*
X598466Y402034D01*
X597897Y401292D01*
X597539Y400427D01*
X597417Y399500D01*
X597539Y398573D01*
X597897Y397708D01*
X598466Y396966D01*
X599208Y396397D01*
X599929Y396098D01*
Y385943D01*
X582243Y368257D01*
X582011Y367910D01*
X581929Y367500D01*
Y322500D01*
X582011Y322090D01*
X582243Y321743D01*
X583312Y320674D01*
X583178Y320000D01*
X583364Y319064D01*
X583895Y318270D01*
X584689Y317739D01*
X585625Y317553D01*
X586562Y317739D01*
X587356Y318270D01*
X587886Y319064D01*
X588072Y320000D01*
X587886Y320936D01*
X587356Y321730D01*
X586562Y322261D01*
X585625Y322447D01*
X584743Y322271D01*
X584071Y322943D01*
Y367057D01*
X601757Y384743D01*
X601757Y384743D01*
X601989Y385090D01*
X602071Y385500D01*
Y396098D01*
X602792Y396397D01*
X603534Y396966D01*
X604103Y397708D01*
X604461Y398573D01*
X604583Y399500D01*
X604461Y400427D01*
X604103Y401292D01*
X603534Y402034D01*
X602792Y402603D01*
X601928Y402961D01*
X602040Y403429D01*
X605029D01*
X609929Y398529D01*
Y335943D01*
X607278Y333292D01*
X606500Y333447D01*
X605564Y333261D01*
X604770Y332730D01*
X604239Y331936D01*
X604053Y331000D01*
X604239Y330064D01*
X604770Y329270D01*
X605564Y328739D01*
X606500Y328553D01*
X607436Y328739D01*
X608230Y329270D01*
X608761Y330064D01*
X608947Y331000D01*
X608792Y331778D01*
X610967Y333953D01*
X611429Y333762D01*
Y329443D01*
X608278Y326292D01*
X607500Y326447D01*
X606564Y326261D01*
X605770Y325730D01*
X605239Y324936D01*
X605053Y324000D01*
X605239Y323064D01*
X605770Y322270D01*
X606564Y321739D01*
X606968Y321659D01*
X607133Y321116D01*
X605809Y319792D01*
X605030Y319947D01*
X604094Y319761D01*
X603300Y319230D01*
X602770Y318436D01*
X602584Y317500D01*
X602770Y316564D01*
X603300Y315770D01*
X604094Y315239D01*
X605030Y315053D01*
X605967Y315239D01*
X606761Y315770D01*
X607291Y316564D01*
X607478Y317500D01*
X607323Y318278D01*
X614757Y325712D01*
X614989Y326060D01*
X615071Y326469D01*
Y406012D01*
X614989Y406422D01*
X614757Y406769D01*
X607071Y414455D01*
Y415000D01*
X606989Y415410D01*
X606757Y415757D01*
X605257Y417257D01*
X604910Y417489D01*
X604500Y417571D01*
D02*
G37*
G36*
X455500Y413421D02*
Y410000D01*
X458921D01*
X458851Y410532D01*
X458453Y411493D01*
X457819Y412319D01*
X456993Y412953D01*
X456032Y413351D01*
X455500Y413421D01*
D02*
G37*
G36*
X454500D02*
X453968Y413351D01*
X453007Y412953D01*
X452181Y412319D01*
X451547Y411493D01*
X451149Y410532D01*
X451079Y410000D01*
X454500D01*
Y413421D01*
D02*
G37*
G36*
X465000Y413083D02*
X464073Y412961D01*
X463208Y412603D01*
X462466Y412034D01*
X461897Y411292D01*
X461539Y410428D01*
X461417Y409500D01*
X461539Y408573D01*
X461897Y407708D01*
X462466Y406966D01*
X463208Y406397D01*
X464073Y406039D01*
X465000Y405917D01*
X465928Y406039D01*
X466792Y406397D01*
X467534Y406966D01*
X468103Y407708D01*
X468461Y408573D01*
X468583Y409500D01*
X468461Y410428D01*
X468103Y411292D01*
X467534Y412034D01*
X466792Y412603D01*
X465928Y412961D01*
X465000Y413083D01*
D02*
G37*
G36*
X445000D02*
X444072Y412961D01*
X443208Y412603D01*
X442466Y412034D01*
X441897Y411292D01*
X441539Y410428D01*
X441417Y409500D01*
X441539Y408573D01*
X441897Y407708D01*
X442466Y406966D01*
X443208Y406397D01*
X444072Y406039D01*
X445000Y405917D01*
X445927Y406039D01*
X446792Y406397D01*
X447534Y406966D01*
X448103Y407708D01*
X448461Y408573D01*
X448583Y409500D01*
X448461Y410428D01*
X448103Y411292D01*
X447534Y412034D01*
X446792Y412603D01*
X445927Y412961D01*
X445000Y413083D01*
D02*
G37*
G36*
X435000D02*
X434072Y412961D01*
X433208Y412603D01*
X432466Y412034D01*
X431897Y411292D01*
X431539Y410428D01*
X431417Y409500D01*
X431539Y408573D01*
X431897Y407708D01*
X432466Y406966D01*
X433208Y406397D01*
X434072Y406039D01*
X435000Y405917D01*
X435927Y406039D01*
X436792Y406397D01*
X437534Y406966D01*
X438103Y407708D01*
X438461Y408573D01*
X438583Y409500D01*
X438461Y410428D01*
X438103Y411292D01*
X437534Y412034D01*
X436792Y412603D01*
X435927Y412961D01*
X435000Y413083D01*
D02*
G37*
G36*
X425000D02*
X424073Y412961D01*
X423208Y412603D01*
X422466Y412034D01*
X421897Y411292D01*
X421539Y410428D01*
X421417Y409500D01*
X421539Y408573D01*
X421897Y407708D01*
X422466Y406966D01*
X423208Y406397D01*
X424073Y406039D01*
X425000Y405917D01*
X425927Y406039D01*
X426792Y406397D01*
X427534Y406966D01*
X428103Y407708D01*
X428461Y408573D01*
X428583Y409500D01*
X428461Y410428D01*
X428103Y411292D01*
X427534Y412034D01*
X426792Y412603D01*
X425927Y412961D01*
X425000Y413083D01*
D02*
G37*
G36*
X458921Y409000D02*
X455500D01*
Y405579D01*
X456032Y405649D01*
X456993Y406047D01*
X457819Y406681D01*
X458453Y407507D01*
X458851Y408468D01*
X458921Y409000D01*
D02*
G37*
G36*
X454500D02*
X451079D01*
X451149Y408468D01*
X451547Y407507D01*
X452181Y406681D01*
X453007Y406047D01*
X453968Y405649D01*
X454500Y405579D01*
Y409000D01*
D02*
G37*
G36*
X455000Y403083D02*
X454073Y402961D01*
X453208Y402603D01*
X452466Y402034D01*
X451897Y401292D01*
X451539Y400427D01*
X451417Y399500D01*
X451539Y398573D01*
X451897Y397708D01*
X452466Y396966D01*
X453208Y396397D01*
X454073Y396039D01*
X455000Y395917D01*
X455928Y396039D01*
X456792Y396397D01*
X457534Y396966D01*
X458103Y397708D01*
X458461Y398573D01*
X458583Y399500D01*
X458461Y400427D01*
X458103Y401292D01*
X457534Y402034D01*
X456792Y402603D01*
X455928Y402961D01*
X455000Y403083D01*
D02*
G37*
G36*
X445000D02*
X444072Y402961D01*
X443208Y402603D01*
X442466Y402034D01*
X441897Y401292D01*
X441539Y400427D01*
X441417Y399500D01*
X441539Y398573D01*
X441897Y397708D01*
X442466Y396966D01*
X443208Y396397D01*
X444072Y396039D01*
X445000Y395917D01*
X445927Y396039D01*
X446792Y396397D01*
X447534Y396966D01*
X448103Y397708D01*
X448461Y398573D01*
X448583Y399500D01*
X448461Y400427D01*
X448103Y401292D01*
X447534Y402034D01*
X446792Y402603D01*
X445927Y402961D01*
X445000Y403083D01*
D02*
G37*
G36*
X303500Y392421D02*
Y389000D01*
X306921D01*
X306851Y389532D01*
X306453Y390493D01*
X305819Y391319D01*
X304993Y391953D01*
X304032Y392351D01*
X303500Y392421D01*
D02*
G37*
G36*
X302500D02*
X301968Y392351D01*
X301007Y391953D01*
X300181Y391319D01*
X299547Y390493D01*
X299149Y389532D01*
X299079Y389000D01*
X302500D01*
Y392421D01*
D02*
G37*
G36*
X306921Y388000D02*
X303500D01*
Y384579D01*
X304032Y384649D01*
X304993Y385047D01*
X305819Y385681D01*
X306453Y386507D01*
X306851Y387468D01*
X306921Y388000D01*
D02*
G37*
G36*
X302500D02*
X299079D01*
X299149Y387468D01*
X299547Y386507D01*
X300181Y385681D01*
X301007Y385047D01*
X301968Y384649D01*
X302500Y384579D01*
Y388000D01*
D02*
G37*
G36*
X306553Y382053D02*
X299447D01*
Y374947D01*
X301410D01*
X301500Y374929D01*
X305500D01*
X305590Y374947D01*
X306553D01*
Y375910D01*
X306571Y376000D01*
X306553Y376090D01*
Y377429D01*
X362557D01*
X443243Y296743D01*
X443590Y296511D01*
X444000Y296429D01*
X608056D01*
X614429Y290057D01*
Y286214D01*
X613929Y285947D01*
X613436Y286276D01*
X612500Y286462D01*
X611564Y286276D01*
X610770Y285746D01*
X610329Y285086D01*
X605288D01*
X605266Y285096D01*
X605169Y285587D01*
X605309Y285614D01*
X605936Y285739D01*
X606730Y286270D01*
X607261Y287064D01*
X607447Y288000D01*
X607261Y288936D01*
X606730Y289730D01*
X605936Y290261D01*
X605000Y290447D01*
X604064Y290261D01*
X603270Y289730D01*
X602829Y289071D01*
X569500D01*
X569090Y288989D01*
X568743Y288757D01*
X502649Y222663D01*
X501928Y222961D01*
X501000Y223083D01*
X500072Y222961D01*
X499208Y222603D01*
X498466Y222034D01*
X497897Y221292D01*
X497539Y220427D01*
X497417Y219500D01*
X497539Y218573D01*
X497689Y218209D01*
X497265Y217926D01*
X495892Y219299D01*
X495545Y219531D01*
X495135Y219613D01*
X494569D01*
X494461Y220427D01*
X494103Y221292D01*
X493534Y222034D01*
X492792Y222603D01*
X491927Y222961D01*
X491000Y223083D01*
X490072Y222961D01*
X489208Y222603D01*
X488466Y222034D01*
X487897Y221292D01*
X487539Y220427D01*
X487417Y219500D01*
X487539Y218573D01*
X487897Y217708D01*
X488466Y216966D01*
X489208Y216397D01*
X490072Y216039D01*
X491000Y215917D01*
X491927Y216039D01*
X492792Y216397D01*
X493534Y216966D01*
X493922Y217472D01*
X494692D01*
X498420Y213743D01*
X498768Y213511D01*
X499177Y213429D01*
X504000D01*
X504410Y213511D01*
X504757Y213743D01*
X506757Y215743D01*
X506989Y216090D01*
X507071Y216500D01*
X507071Y216500D01*
Y217225D01*
X507518Y217479D01*
X507571Y217476D01*
X508181Y216681D01*
X509007Y216047D01*
X509968Y215649D01*
X510500Y215579D01*
Y219500D01*
Y223775D01*
X510430Y223916D01*
X569459Y282945D01*
X610329D01*
X610770Y282285D01*
X611564Y281754D01*
X612500Y281568D01*
X613436Y281754D01*
X613929Y282084D01*
X614429Y281817D01*
Y279671D01*
X613770Y279230D01*
X613239Y278436D01*
X613053Y277500D01*
X613239Y276564D01*
X613770Y275770D01*
X614564Y275239D01*
X615500Y275053D01*
X616436Y275239D01*
X617230Y275770D01*
X617761Y276564D01*
X617947Y277500D01*
X617761Y278436D01*
X617230Y279230D01*
X616571Y279671D01*
Y290500D01*
X616489Y290910D01*
X616257Y291257D01*
X616257Y291257D01*
X609257Y298257D01*
X608910Y298489D01*
X608500Y298571D01*
X444444D01*
X363757Y379257D01*
X363410Y379489D01*
X363000Y379571D01*
X306553D01*
Y382053D01*
D02*
G37*
G36*
X521500Y223421D02*
Y220000D01*
X524921D01*
X524851Y220532D01*
X524453Y221493D01*
X523819Y222319D01*
X522993Y222953D01*
X522032Y223351D01*
X521500Y223421D01*
D02*
G37*
G36*
X520500D02*
X519968Y223351D01*
X519007Y222953D01*
X518181Y222319D01*
X517547Y221493D01*
X517149Y220532D01*
X517079Y220000D01*
X520500D01*
Y223421D01*
D02*
G37*
G36*
X511500D02*
Y220000D01*
X514921D01*
X514851Y220532D01*
X514453Y221493D01*
X513819Y222319D01*
X512993Y222953D01*
X512032Y223351D01*
X511500Y223421D01*
D02*
G37*
G36*
X554553Y223053D02*
X547447D01*
Y215947D01*
X554553D01*
Y223053D01*
D02*
G37*
G36*
X464553D02*
X457447D01*
Y215947D01*
X464553D01*
Y223053D01*
D02*
G37*
G36*
X601000Y223083D02*
X600072Y222961D01*
X599208Y222603D01*
X598466Y222034D01*
X597897Y221292D01*
X597539Y220427D01*
X597417Y219500D01*
X597539Y218573D01*
X597897Y217708D01*
X598466Y216966D01*
X599208Y216397D01*
X600072Y216039D01*
X601000Y215917D01*
X601928Y216039D01*
X602792Y216397D01*
X603534Y216966D01*
X604103Y217708D01*
X604461Y218573D01*
X604583Y219500D01*
X604461Y220427D01*
X604103Y221292D01*
X603534Y222034D01*
X602792Y222603D01*
X601928Y222961D01*
X601000Y223083D01*
D02*
G37*
G36*
X591000D02*
X590072Y222961D01*
X589208Y222603D01*
X588466Y222034D01*
X587897Y221292D01*
X587539Y220427D01*
X587417Y219500D01*
X587539Y218573D01*
X587897Y217708D01*
X588466Y216966D01*
X589208Y216397D01*
X590072Y216039D01*
X591000Y215917D01*
X591927Y216039D01*
X592792Y216397D01*
X593534Y216966D01*
X594103Y217708D01*
X594461Y218573D01*
X594583Y219500D01*
X594461Y220427D01*
X594103Y221292D01*
X593534Y222034D01*
X592792Y222603D01*
X591927Y222961D01*
X591000Y223083D01*
D02*
G37*
G36*
X581000D02*
X580072Y222961D01*
X579208Y222603D01*
X578466Y222034D01*
X577897Y221292D01*
X577539Y220427D01*
X577417Y219500D01*
X577539Y218573D01*
X577897Y217708D01*
X578466Y216966D01*
X579208Y216397D01*
X580072Y216039D01*
X581000Y215917D01*
X581927Y216039D01*
X582792Y216397D01*
X583534Y216966D01*
X584103Y217708D01*
X584461Y218573D01*
X584583Y219500D01*
X584461Y220427D01*
X584103Y221292D01*
X583534Y222034D01*
X582792Y222603D01*
X581927Y222961D01*
X581000Y223083D01*
D02*
G37*
G36*
X571000D02*
X570073Y222961D01*
X569208Y222603D01*
X568466Y222034D01*
X567897Y221292D01*
X567539Y220427D01*
X567417Y219500D01*
X567539Y218573D01*
X567897Y217708D01*
X568466Y216966D01*
X569208Y216397D01*
X570073Y216039D01*
X571000Y215917D01*
X571927Y216039D01*
X572792Y216397D01*
X573534Y216966D01*
X574103Y217708D01*
X574461Y218573D01*
X574583Y219500D01*
X574461Y220427D01*
X574103Y221292D01*
X573534Y222034D01*
X572792Y222603D01*
X571927Y222961D01*
X571000Y223083D01*
D02*
G37*
G36*
X561000D02*
X560073Y222961D01*
X559208Y222603D01*
X558466Y222034D01*
X557897Y221292D01*
X557539Y220427D01*
X557417Y219500D01*
X557539Y218573D01*
X557897Y217708D01*
X558466Y216966D01*
X559208Y216397D01*
X560073Y216039D01*
X561000Y215917D01*
X561928Y216039D01*
X562792Y216397D01*
X563534Y216966D01*
X564103Y217708D01*
X564461Y218573D01*
X564583Y219500D01*
X564461Y220427D01*
X564103Y221292D01*
X563534Y222034D01*
X562792Y222603D01*
X561928Y222961D01*
X561000Y223083D01*
D02*
G37*
G36*
X531000D02*
X530072Y222961D01*
X529208Y222603D01*
X528466Y222034D01*
X527897Y221292D01*
X527539Y220427D01*
X527417Y219500D01*
X527539Y218573D01*
X527897Y217708D01*
X528466Y216966D01*
X529208Y216397D01*
X530072Y216039D01*
X531000Y215917D01*
X531927Y216039D01*
X532792Y216397D01*
X533534Y216966D01*
X534103Y217708D01*
X534461Y218573D01*
X534583Y219500D01*
X534461Y220427D01*
X534103Y221292D01*
X533534Y222034D01*
X532792Y222603D01*
X531927Y222961D01*
X531000Y223083D01*
D02*
G37*
G36*
X481000D02*
X480072Y222961D01*
X479208Y222603D01*
X478466Y222034D01*
X477897Y221292D01*
X477539Y220427D01*
X477417Y219500D01*
X477539Y218573D01*
X477897Y217708D01*
X478466Y216966D01*
X479208Y216397D01*
X480072Y216039D01*
X481000Y215917D01*
X481927Y216039D01*
X482792Y216397D01*
X483534Y216966D01*
X484103Y217708D01*
X484461Y218573D01*
X484583Y219500D01*
X484461Y220427D01*
X484103Y221292D01*
X483534Y222034D01*
X482792Y222603D01*
X481927Y222961D01*
X481000Y223083D01*
D02*
G37*
G36*
X471000D02*
X470073Y222961D01*
X469208Y222603D01*
X468466Y222034D01*
X467897Y221292D01*
X467539Y220427D01*
X467417Y219500D01*
X467539Y218573D01*
X467897Y217708D01*
X468466Y216966D01*
X469208Y216397D01*
X470073Y216039D01*
X471000Y215917D01*
X471927Y216039D01*
X472792Y216397D01*
X473534Y216966D01*
X474103Y217708D01*
X474461Y218573D01*
X474583Y219500D01*
X474461Y220427D01*
X474103Y221292D01*
X473534Y222034D01*
X472792Y222603D01*
X471927Y222961D01*
X471000Y223083D01*
D02*
G37*
G36*
X524921Y219000D02*
X521500D01*
Y215579D01*
X522032Y215649D01*
X522993Y216047D01*
X523819Y216681D01*
X524453Y217507D01*
X524851Y218468D01*
X524921Y219000D01*
D02*
G37*
G36*
X520500D02*
X517079D01*
X517149Y218468D01*
X517547Y217507D01*
X518181Y216681D01*
X519007Y216047D01*
X519968Y215649D01*
X520500Y215579D01*
Y219000D01*
D02*
G37*
G36*
X514921D02*
X511500D01*
Y215579D01*
X512032Y215649D01*
X512993Y216047D01*
X513819Y216681D01*
X514453Y217507D01*
X514851Y218468D01*
X514921Y219000D01*
D02*
G37*
%LPD*%
G36*
X545954Y414967D02*
X543243Y412257D01*
X542792Y412603D01*
X541927Y412961D01*
X541000Y413083D01*
X540072Y412961D01*
X539208Y412603D01*
X538466Y412034D01*
X537897Y411292D01*
X537539Y410428D01*
X537417Y409500D01*
X537539Y408573D01*
X537897Y407708D01*
X538466Y406966D01*
X539208Y406397D01*
X540072Y406039D01*
X539959Y405571D01*
X532041D01*
X531927Y406039D01*
X532792Y406397D01*
X533534Y406966D01*
X534103Y407708D01*
X534461Y408573D01*
X534583Y409500D01*
X534461Y410428D01*
X534163Y411149D01*
X538443Y415429D01*
X545762D01*
X545954Y414967D01*
D02*
G37*
G36*
X602862Y413515D02*
X602670Y413053D01*
X597447D01*
Y405947D01*
X597150Y405571D01*
X592040D01*
X591927Y406039D01*
X592792Y406397D01*
X593534Y406966D01*
X594103Y407708D01*
X594461Y408573D01*
X594583Y409500D01*
X594461Y410428D01*
X594103Y411292D01*
X593534Y412034D01*
X592792Y412603D01*
X591927Y412961D01*
X591000Y413083D01*
X590072Y412961D01*
X589208Y412603D01*
X588466Y412034D01*
X587897Y411292D01*
X587539Y410428D01*
X587417Y409500D01*
X587539Y408573D01*
X587897Y407708D01*
X588466Y406966D01*
X589208Y406397D01*
X590072Y406039D01*
X589959Y405571D01*
X582041D01*
X581927Y406039D01*
X582792Y406397D01*
X583534Y406966D01*
X584103Y407708D01*
X584461Y408573D01*
X584583Y409500D01*
X584461Y410428D01*
X584103Y411292D01*
X583534Y412034D01*
X582792Y412603D01*
X581927Y412961D01*
X581000Y413083D01*
X580072Y412961D01*
X579208Y412603D01*
X578466Y412034D01*
X577897Y411292D01*
X577539Y410428D01*
X577417Y409500D01*
X577539Y408573D01*
X577897Y407708D01*
X578466Y406966D01*
X579208Y406397D01*
X580072Y406039D01*
X579959Y405571D01*
X572041D01*
X571927Y406039D01*
X572792Y406397D01*
X573534Y406966D01*
X574103Y407708D01*
X574461Y408573D01*
X574583Y409500D01*
X574461Y410428D01*
X574103Y411292D01*
X573534Y412034D01*
X572792Y412603D01*
X571927Y412961D01*
X571000Y413083D01*
X570073Y412961D01*
X569208Y412603D01*
X568466Y412034D01*
X567897Y411292D01*
X567539Y410428D01*
X567417Y409500D01*
X567539Y408573D01*
X567897Y407708D01*
X568466Y406966D01*
X569208Y406397D01*
X570073Y406039D01*
X569959Y405571D01*
X562041D01*
X561928Y406039D01*
X562792Y406397D01*
X563534Y406966D01*
X564103Y407708D01*
X564461Y408573D01*
X564583Y409500D01*
X564461Y410428D01*
X564103Y411292D01*
X563534Y412034D01*
X562792Y412603D01*
X561928Y412961D01*
X561000Y413083D01*
X560073Y412961D01*
X559208Y412603D01*
X558466Y412034D01*
X557897Y411292D01*
X557539Y410428D01*
X557417Y409500D01*
X557539Y408573D01*
X557897Y407708D01*
X558466Y406966D01*
X559208Y406397D01*
X560073Y406039D01*
X559960Y405571D01*
X552040D01*
X551928Y406039D01*
X552792Y406397D01*
X553534Y406966D01*
X554103Y407708D01*
X554461Y408573D01*
X554583Y409500D01*
X554461Y410428D01*
X554103Y411292D01*
X553534Y412034D01*
X552792Y412603D01*
X551928Y412961D01*
X551000Y413083D01*
X550072Y412961D01*
X549208Y412603D01*
X548466Y412034D01*
X547897Y411292D01*
X547539Y410428D01*
X547417Y409500D01*
X547539Y408573D01*
X547897Y407708D01*
X548466Y406966D01*
X549208Y406397D01*
X550072Y406039D01*
X549960Y405571D01*
X542040D01*
X541927Y406039D01*
X542792Y406397D01*
X543534Y406966D01*
X544103Y407708D01*
X544461Y408573D01*
X544583Y409500D01*
X544461Y410428D01*
X544455Y410441D01*
X547943Y413929D01*
X602447D01*
X602862Y413515D01*
D02*
G37*
G36*
X611429Y404947D02*
Y400711D01*
X610967Y400519D01*
X606230Y405257D01*
X605883Y405489D01*
X605473Y405571D01*
X604850D01*
X604553Y405947D01*
Y411170D01*
X605015Y411362D01*
X611429Y404947D01*
D02*
G37*
G36*
X560073Y402961D02*
X559208Y402603D01*
X558466Y402034D01*
X557897Y401292D01*
X557539Y400427D01*
X557417Y399500D01*
X557539Y398573D01*
X557897Y397708D01*
X558466Y396966D01*
X559208Y396397D01*
X559929Y396098D01*
Y373943D01*
X558243Y372257D01*
X558011Y371910D01*
X557929Y371500D01*
Y310500D01*
X558011Y310090D01*
X558243Y309743D01*
X559208Y308778D01*
X559053Y308000D01*
X559239Y307064D01*
X559770Y306270D01*
X560564Y305739D01*
X561035Y305646D01*
X561144Y305430D01*
X561177Y305107D01*
X561135Y305071D01*
X558944D01*
X552071Y311943D01*
Y396098D01*
X552792Y396397D01*
X553534Y396966D01*
X554103Y397708D01*
X554461Y398573D01*
X554583Y399500D01*
X554461Y400427D01*
X554103Y401292D01*
X553534Y402034D01*
X552792Y402603D01*
X551928Y402961D01*
X552040Y403429D01*
X559960D01*
X560073Y402961D01*
D02*
G37*
G36*
X603270Y286270D02*
X604064Y285739D01*
X604691Y285614D01*
X604831Y285587D01*
X604734Y285096D01*
X604712Y285086D01*
X569015D01*
X568755Y285034D01*
X568509Y285495D01*
X569944Y286929D01*
X602829D01*
X603270Y286270D01*
D02*
G37*
D20*
X506000Y216500D02*
Y221000D01*
X569015Y284015D01*
X612500D01*
X499177Y214500D02*
X504000D01*
X506000Y216500D01*
X301500Y376000D02*
X305500D01*
X304500Y377000D02*
X305500Y376000D01*
X303000Y378500D02*
X363000D01*
X444000Y297500D02*
X608500D01*
X363000Y378500D02*
X444000Y297500D01*
X608500D02*
X615500Y290500D01*
Y277500D02*
Y290500D01*
X569500Y288000D02*
X605000D01*
X501000Y219500D02*
X569500Y288000D01*
X491000Y219500D02*
X491958Y218542D01*
X495135D01*
X499177Y214500D01*
X606500Y331000D02*
X611000Y335500D01*
X470000Y404500D02*
X605473D01*
X611000Y398973D01*
Y335500D02*
Y398973D01*
X612500Y329000D02*
Y405390D01*
X606000Y414012D02*
X614000Y406012D01*
Y326469D02*
Y406012D01*
X607500Y324000D02*
X612500Y329000D01*
X605030Y317500D02*
X614000Y326469D01*
X602890Y415000D02*
X612500Y405390D01*
X465000Y399500D02*
X470000Y404500D01*
X604500Y416500D02*
X606000Y415000D01*
X538000Y416500D02*
X604500D01*
X547500Y415000D02*
X602890D01*
X606000Y414012D02*
Y415000D01*
X531000Y409500D02*
X538000Y416500D01*
X541000Y409500D02*
X542000D01*
X547500Y415000D01*
X558500Y304000D02*
X567000D01*
X551000Y311500D02*
X558500Y304000D01*
X551000Y311500D02*
Y399500D01*
X559000Y310500D02*
X561500Y308000D01*
X559000Y371500D02*
X561000Y373500D01*
X559000Y310500D02*
Y371500D01*
X561000Y373500D02*
Y399500D01*
X564000Y314500D02*
Y369500D01*
Y314500D02*
X567000Y311500D01*
X571000Y376500D02*
Y399500D01*
X564000Y369500D02*
X571000Y376500D01*
X581000Y379500D02*
Y399500D01*
X570000Y317500D02*
Y368500D01*
X581000Y379500D01*
X570000Y317500D02*
X573000Y314500D01*
X585500Y320000D02*
X585625D01*
X583000Y322500D02*
X585500Y320000D01*
X577000Y319990D02*
X579490Y317500D01*
X577000Y319990D02*
Y369500D01*
X591000Y383500D01*
X583000Y322500D02*
Y367500D01*
X601000Y385500D01*
X591000Y383500D02*
Y399500D01*
X601000Y385500D02*
Y399500D01*
D21*
X515000Y409500D02*
D03*
X531000Y399500D02*
D03*
X601000Y409500D02*
D03*
X461000Y219500D02*
D03*
X551000D02*
D03*
X515000Y399500D02*
D03*
D22*
X505000Y409500D02*
D03*
X485000D02*
D03*
X475000D02*
D03*
X465000D02*
D03*
X455000D02*
D03*
X445000D02*
D03*
X435000D02*
D03*
X425000D02*
D03*
X495000D02*
D03*
X541000Y399500D02*
D03*
X551000D02*
D03*
X561000D02*
D03*
X571000D02*
D03*
X581000D02*
D03*
X591000D02*
D03*
X601000D02*
D03*
X531000Y409500D02*
D03*
X541000D02*
D03*
X551000D02*
D03*
X561000D02*
D03*
X571000D02*
D03*
X581000D02*
D03*
X591000D02*
D03*
X531000Y219500D02*
D03*
X521000D02*
D03*
X511000D02*
D03*
X501000D02*
D03*
X491000D02*
D03*
X481000D02*
D03*
X471000D02*
D03*
X601000D02*
D03*
X591000D02*
D03*
X581000D02*
D03*
X571000D02*
D03*
X561000D02*
D03*
X505000Y399500D02*
D03*
X495000D02*
D03*
X485000D02*
D03*
X475000D02*
D03*
X465000D02*
D03*
X455000D02*
D03*
X445000D02*
D03*
X303000Y388500D02*
D03*
D23*
Y378500D02*
D03*
D24*
X615500Y277500D02*
D03*
X612500Y284015D02*
D03*
X605000Y288000D02*
D03*
X561500Y308000D02*
D03*
X579490Y317500D02*
D03*
X606500Y331000D02*
D03*
X573000Y314500D02*
D03*
X605030Y317500D02*
D03*
X607500Y324000D02*
D03*
X567000Y311500D02*
D03*
X585625Y320000D02*
D03*
X567000Y304000D02*
D03*
M02*
