G04*
G04 #@! TF.GenerationSoftware,Altium Limited,Altium Designer,20.1.12 (249)*
G04*
G04 Layer_Color=8421504*
%FSLAX25Y25*%
%MOIN*%
G70*
G04*
G04 #@! TF.SameCoordinates,4F675399-67DD-4CB6-B460-1E4A0243881F*
G04*
G04*
G04 #@! TF.FilePolarity,Positive*
G04*
G01*
G75*
%ADD12R,0.03150X0.01575*%
%ADD13R,0.03150X0.01181*%
D12*
X606343Y355953D02*
D03*
Y271701D02*
D03*
D13*
X596500Y275441D02*
D03*
Y277409D02*
D03*
Y279378D02*
D03*
Y281346D02*
D03*
Y283315D02*
D03*
Y285283D02*
D03*
Y287252D02*
D03*
Y289220D02*
D03*
Y291189D02*
D03*
Y293157D02*
D03*
Y295126D02*
D03*
Y297094D02*
D03*
Y299063D02*
D03*
Y301031D02*
D03*
Y303000D02*
D03*
Y304969D02*
D03*
Y306937D02*
D03*
Y308906D02*
D03*
Y310874D02*
D03*
Y312843D02*
D03*
Y314811D02*
D03*
Y316780D02*
D03*
Y318748D02*
D03*
Y320717D02*
D03*
Y322685D02*
D03*
Y324654D02*
D03*
Y326622D02*
D03*
Y328591D02*
D03*
Y330559D02*
D03*
Y332528D02*
D03*
Y334496D02*
D03*
Y336465D02*
D03*
Y338433D02*
D03*
Y340402D02*
D03*
Y342370D02*
D03*
Y344339D02*
D03*
Y346307D02*
D03*
Y348276D02*
D03*
Y350244D02*
D03*
Y352213D02*
D03*
M02*
